<svg xmlns="http://www.w3.org/2000/svg" xmlns:xlink="http://www.w3.org/1999/xlink" width="32px" height="32px" viewBox="0 0 32 32" version="1.1">
<g id="surface1">
<path style=" stroke:none;fill-rule:nonzero;fill:#ffffff;fill-opacity:1;" d="M 11.90625 1.417969 C 11.570312 2.207031 11.28125 2.886719 11.269531 2.945312 C 11.242188 3.019531 11.574219 3.1875 12.71875 3.679688 C 13.539062 4.039062 14.226562 4.300781 14.25 4.269531 C 14.300781 4.21875 15.476562 1.53125 15.511719 1.386719 C 15.523438 1.335938 14.988281 1.070312 14.039062 0.65625 C 13.210938 0.292969 12.539062 0 12.53125 0 C 12.523438 0 12.242188 0.636719 11.90625 1.417969 Z M 13.636719 1.507812 C 13.957031 1.644531 14.238281 1.78125 14.261719 1.800781 C 14.3125 1.855469 13.789062 3.070312 13.710938 3.070312 C 13.679688 3.0625 13.386719 2.949219 13.050781 2.804688 L 12.449219 2.550781 L 12.667969 2.039062 C 12.789062 1.761719 12.914062 1.46875 12.945312 1.386719 C 12.976562 1.3125 13.011719 1.25 13.023438 1.25 C 13.042969 1.25 13.320312 1.363281 13.636719 1.507812 Z M 13.636719 1.507812 "/>
<path style=" stroke:none;fill-rule:nonzero;fill:#ffffff;fill-opacity:1;" d="M 9.4375 0.90625 L 9.4375 1.375 L 10.375 1.375 L 10.375 0.4375 L 9.4375 0.4375 Z M 9.4375 0.90625 "/>
<path style=" stroke:none;fill-rule:nonzero;fill:#ffffff;fill-opacity:1;" d="M 17.917969 3.289062 C 17.894531 3.3125 17.875 3.523438 17.875 3.761719 L 17.875 4.1875 L 18.882812 4.1875 L 18.863281 3.730469 L 18.84375 3.28125 L 18.40625 3.261719 C 18.164062 3.257812 17.945312 3.261719 17.917969 3.289062 Z M 17.917969 3.289062 "/>
<path style=" stroke:none;fill-rule:nonzero;fill:#ffffff;fill-opacity:1;" d="M 22.3125 5.789062 C 21.78125 6.601562 21.324219 7.300781 21.300781 7.34375 C 21.269531 7.398438 21.726562 7.730469 22.789062 8.429688 C 23.632812 8.980469 24.34375 9.4375 24.367188 9.4375 C 24.40625 9.4375 26.210938 6.730469 26.398438 6.398438 C 26.417969 6.355469 25.851562 5.9375 24.898438 5.320312 C 24.0625 4.761719 23.351562 4.3125 23.324219 4.3125 C 23.300781 4.3125 22.84375 4.976562 22.3125 5.789062 Z M 25.085938 6.570312 C 25.117188 6.601562 24.925781 6.957031 24.632812 7.398438 L 24.113281 8.175781 L 23.355469 7.675781 C 22.9375 7.398438 22.585938 7.167969 22.574219 7.15625 C 22.5625 7.148438 22.78125 6.789062 23.0625 6.355469 L 23.570312 5.570312 L 24.300781 6.042969 C 24.699219 6.304688 25.054688 6.542969 25.085938 6.570312 Z M 25.085938 6.570312 "/>
<path style=" stroke:none;fill-rule:nonzero;fill:#ffffff;fill-opacity:1;" d="M 12.25 5.96875 L 12.25 6.4375 L 13.25 6.4375 L 13.25 5.5 L 12.25 5.5 Z M 12.25 5.96875 "/>
<path style=" stroke:none;fill-rule:nonzero;fill:#ffffff;fill-opacity:1;" d="M 14.179688 7.167969 C 13.648438 8.09375 13.21875 8.875 13.21875 8.914062 C 13.21875 8.945312 13.648438 9.726562 14.179688 10.644531 L 15.144531 12.3125 L 19.09375 12.3125 L 20.0625 10.625 C 20.59375 9.699219 21.03125 8.925781 21.023438 8.90625 C 21.019531 8.882812 20.851562 8.574219 20.648438 8.21875 L 20.28125 7.570312 L 19.9375 7.761719 C 19.75 7.867188 19.570312 7.976562 19.539062 8.007812 C 19.511719 8.03125 19.59375 8.242188 19.726562 8.480469 L 19.960938 8.917969 L 19.25 10.148438 L 18.542969 11.375 L 17.105469 11.363281 L 15.675781 11.34375 L 14.96875 10.125 L 14.261719 8.914062 L 14.40625 8.65625 C 14.488281 8.519531 14.804688 7.96875 15.113281 7.4375 L 15.675781 6.46875 L 17.113281 6.449219 L 18.550781 6.4375 L 18.761719 6.8125 C 18.875 7.019531 18.992188 7.1875 19.03125 7.1875 C 19.125 7.1875 19.769531 6.789062 19.761719 6.730469 C 19.761719 6.707031 19.605469 6.417969 19.425781 6.09375 L 19.09375 5.5 L 15.144531 5.5 Z M 14.179688 7.167969 "/>
<path style=" stroke:none;fill-rule:nonzero;fill:#ffffff;fill-opacity:1;" d="M 29.1875 10.34375 L 29.1875 10.8125 L 30.125 10.8125 L 30.125 9.875 L 29.1875 9.875 Z M 29.1875 10.34375 "/>
<path style=" stroke:none;fill-rule:nonzero;fill:#ffffff;fill-opacity:1;" d="M 22.75 12.304688 L 19.15625 14.355469 L 19.136719 16.519531 L 19.125 18.6875 L 19.46875 18.914062 C 19.65625 19.039062 19.8125 19.164062 19.8125 19.179688 C 19.8125 19.199219 19.335938 19.851562 18.757812 20.617188 L 17.707031 22.019531 L 18.117188 22.367188 C 19.726562 23.738281 22.007812 25.625 22.0625 25.625 C 22.125 25.625 26.230469 23.226562 26.332031 23.132812 C 26.355469 23.105469 26.273438 22.601562 26.15625 22 C 26.039062 21.40625 25.9375 20.882812 25.9375 20.832031 C 25.9375 20.769531 26.101562 20.75 26.65625 20.75 L 27.375 20.75 L 28.429688 18.636719 L 29.488281 16.53125 L 27.914062 13.394531 L 26.34375 10.25 Z M 26.34375 12.375 L 26.75 13.1875 L 26.292969 13.636719 C 26.011719 13.917969 25.773438 14.226562 25.675781 14.4375 C 25.210938 15.417969 25.320312 16.480469 25.960938 17.363281 C 26.257812 17.757812 26.851562 18.199219 27.257812 18.320312 C 27.386719 18.363281 27.5 18.40625 27.5 18.417969 C 27.5 18.429688 27.34375 18.75 27.15625 19.125 L 26.8125 19.8125 L 25.710938 19.8125 L 25.570312 19.074219 C 25.492188 18.675781 25.398438 18.210938 25.363281 18.042969 L 25.300781 17.75 L 23.5625 17.75 L 23.5625 18.6875 L 24.53125 18.6875 L 24.925781 20.664062 C 25.144531 21.75 25.3125 22.644531 25.300781 22.65625 C 25.257812 22.699219 22.179688 24.5 22.148438 24.5 C 22.132812 24.5 21.425781 23.917969 20.574219 23.207031 C 19.726562 22.5 19.019531 21.90625 19.007812 21.898438 C 18.992188 21.886719 19.519531 21.164062 20.175781 20.289062 L 21.375 18.695312 L 21.980469 18.675781 L 22.59375 18.65625 L 22.613281 18.199219 L 22.632812 17.75 L 20.894531 17.75 L 20.695312 18.03125 C 20.4375 18.386719 20.398438 18.40625 20.21875 18.289062 L 20.0625 18.1875 L 20.0625 16.511719 L 20.070312 14.84375 L 20.257812 15.207031 C 20.5 15.675781 20.863281 16.039062 21.304688 16.238281 C 21.804688 16.46875 22.507812 16.46875 23.011719 16.238281 C 23.445312 16.039062 23.863281 15.636719 24.0625 15.21875 C 24.382812 14.582031 24.28125 13.5625 23.851562 13.03125 L 23.699219 12.851562 L 24.804688 12.210938 C 25.414062 11.863281 25.914062 11.570312 25.917969 11.570312 C 25.929688 11.5625 26.117188 11.925781 26.34375 12.375 Z M 23.011719 13.480469 C 23.355469 13.875 23.417969 14.5 23.144531 14.917969 C 22.738281 15.550781 21.9375 15.65625 21.375 15.148438 C 21.144531 14.945312 20.960938 14.582031 21.011719 14.429688 C 21.042969 14.34375 22.6875 13.386719 22.820312 13.382812 C 22.875 13.375 22.960938 13.425781 23.011719 13.480469 Z M 27.832031 15.34375 L 28.4375 16.5625 L 28.207031 17.03125 C 27.945312 17.554688 27.898438 17.582031 27.4375 17.367188 C 27.070312 17.207031 26.71875 16.855469 26.511719 16.46875 C 26.273438 16.007812 26.273438 15.355469 26.519531 14.863281 C 26.675781 14.550781 27.050781 14.125 27.175781 14.125 C 27.199219 14.125 27.492188 14.675781 27.832031 15.34375 Z M 27.832031 15.34375 "/>
<path style=" stroke:none;fill-rule:nonzero;fill:#ffffff;fill-opacity:1;" d="M 21.6875 10.78125 L 21.6875 11.257812 L 22.144531 11.238281 L 22.59375 11.21875 L 22.613281 10.761719 L 22.632812 10.3125 L 21.6875 10.3125 Z M 21.6875 10.78125 "/>
<path style=" stroke:none;fill-rule:nonzero;fill:#ffffff;fill-opacity:1;" d="M 15.8125 16.53125 L 15.8125 17 L 16.820312 17 L 16.800781 16.542969 L 16.78125 16.09375 L 16.300781 16.074219 L 15.8125 16.054688 Z M 15.8125 16.53125 "/>
<path style=" stroke:none;fill-rule:nonzero;fill:#ffffff;fill-opacity:1;" d="M 3.492188 21.761719 C 2.664062 22.875 1.960938 23.804688 1.9375 23.84375 C 1.914062 23.875 2.34375 25.425781 2.898438 27.28125 L 3.914062 30.65625 L 10.945312 32.007812 L 13.46875 30.488281 L 16 28.96875 L 16 23.8125 L 14.488281 21.78125 L 12.96875 19.757812 L 11.675781 19.75 L 10.375 19.75 L 10.375 20.6875 L 12.488281 20.6875 L 13.773438 22.40625 L 15.0625 24.125 L 15.0625 28.429688 L 12.914062 29.71875 C 10.925781 30.914062 10.75 31.007812 10.550781 30.96875 C 10.332031 30.925781 10.332031 30.917969 10.257812 30.488281 C 10.011719 29.011719 8.726562 28.054688 7.261719 28.257812 C 6.480469 28.367188 5.695312 28.914062 5.335938 29.59375 C 5.164062 29.929688 5.148438 29.9375 4.9375 29.898438 C 4.820312 29.875 4.699219 29.851562 4.679688 29.835938 C 4.664062 29.824219 4.257812 28.523438 3.789062 26.949219 L 2.925781 24.082031 L 4.195312 22.382812 L 5.46875 20.6875 L 9.4375 20.6875 L 9.4375 19.75 L 5 19.75 Z M 8.4375 29.34375 C 8.882812 29.574219 9.363281 30.269531 9.300781 30.605469 C 9.28125 30.726562 9.21875 30.710938 7.726562 30.429688 C 6.875 30.269531 6.164062 30.117188 6.148438 30.105469 C 6.085938 30.042969 6.523438 29.554688 6.773438 29.40625 C 7.25 29.125 7.960938 29.101562 8.4375 29.34375 Z M 8.4375 29.34375 "/>
<path style=" stroke:none;fill-rule:nonzero;fill:#ffffff;fill-opacity:1;" d="M 6.25 21.613281 C 5.804688 21.761719 5.460938 21.980469 5.164062 22.3125 C 4.789062 22.730469 4.65625 23.070312 4.65625 23.65625 C 4.65625 24.082031 4.6875 24.207031 4.835938 24.519531 C 5.414062 25.648438 6.929688 26.132812 8.15625 25.554688 C 8.625 25.335938 9.136719 24.800781 9.304688 24.34375 C 9.492188 23.84375 9.46875 23.238281 9.230469 22.773438 C 9.019531 22.351562 8.46875 21.855469 8.011719 21.679688 C 7.519531 21.492188 6.710938 21.457031 6.25 21.613281 Z M 7.789062 22.613281 C 8.730469 23.09375 8.730469 24.207031 7.789062 24.679688 C 6.511719 25.320312 5.039062 24.136719 5.769531 23.0625 C 6.0625 22.625 6.519531 22.425781 7.125 22.457031 C 7.375 22.476562 7.632812 22.53125 7.789062 22.613281 Z M 7.789062 22.613281 "/>
<path style=" stroke:none;fill-rule:nonzero;fill:#ffffff;fill-opacity:1;" d="M 11.375 25.101562 C 10.28125 25.398438 9.699219 26.398438 10.039062 27.394531 C 10.167969 27.789062 10.542969 28.1875 10.976562 28.40625 C 11.300781 28.574219 11.40625 28.59375 11.90625 28.59375 C 12.417969 28.59375 12.511719 28.574219 12.886719 28.386719 C 13.988281 27.84375 14.261719 26.585938 13.476562 25.707031 C 12.96875 25.144531 12.105469 24.894531 11.375 25.101562 Z M 12.53125 26.117188 C 13.03125 26.398438 13.125 26.957031 12.742188 27.351562 C 12.398438 27.707031 11.863281 27.78125 11.386719 27.554688 C 10.59375 27.167969 10.757812 26.207031 11.65625 25.992188 C 11.914062 25.9375 12.304688 25.992188 12.53125 26.117188 Z M 12.53125 26.117188 "/>
<path style=" stroke:none;fill-rule:nonzero;fill:#ffffff;fill-opacity:1;" d="M 18.8125 26.28125 L 18.8125 26.75 L 19.8125 26.75 L 19.8125 25.8125 L 18.8125 25.8125 Z M 18.8125 26.28125 "/>
</g>
</svg>