<svg xmlns="http://www.w3.org/2000/svg" xmlns:xlink="http://www.w3.org/1999/xlink" width="32px" height="32px" viewBox="0 0 32 32" version="1.1">
<g id="surface1">
<path style=" stroke:none;fill-rule:nonzero;fill:#ffffff;fill-opacity:1;" d="M 14.65625 2.3125 L 12.40625 4.5625 L 12.738281 4.886719 L 13.0625 5.21875 L 17.5625 0.71875 L 16.90625 0.0625 Z M 14.65625 2.3125 "/>
<path style=" stroke:none;fill-rule:nonzero;fill:#ffffff;fill-opacity:1;" d="M 18.25 4.90625 L 13.40625 9.75 L 13.738281 10.074219 L 14.0625 10.40625 L 23.75 0.71875 L 23.09375 0.0625 Z M 18.25 4.90625 "/>
<path style=" stroke:none;fill-rule:nonzero;fill:#ffffff;fill-opacity:1;" d="M 23.230469 5.175781 L 18.125 10.28125 L 18.78125 10.9375 L 29 0.71875 L 28.34375 0.0625 Z M 23.230469 5.175781 "/>
<path style=" stroke:none;fill-rule:nonzero;fill:#ffffff;fill-opacity:1;" d="M 10.65625 1.0625 L 9.78125 1.9375 L 10.113281 2.261719 L 10.4375 2.59375 L 12.21875 0.8125 L 11.90625 0.5 C 11.738281 0.332031 11.582031 0.1875 11.5625 0.1875 C 11.542969 0.1875 11.136719 0.582031 10.65625 1.0625 Z M 10.65625 1.0625 "/>
<path style=" stroke:none;fill-rule:nonzero;fill:#ffffff;fill-opacity:1;" d="M 25.949219 7.707031 L 20.75 12.90625 L 21.40625 13.5625 L 31.84375 3.125 L 31.53125 2.8125 C 31.363281 2.644531 31.207031 2.5 31.1875 2.5 C 31.167969 2.5 28.8125 4.84375 25.949219 7.707031 Z M 25.949219 7.707031 "/>
<path style=" stroke:none;fill-rule:nonzero;fill:#ffffff;fill-opacity:1;" d="M 3.980469 3.675781 L 3.0625 4.59375 L 3.0625 7.261719 L 3.632812 8.289062 L 4.207031 9.3125 L 5.84375 9.3125 L 7.03125 10.5 L 9.71875 10.5 L 11.375 8.84375 L 11.375 5.71875 L 8.40625 2.75 L 4.90625 2.75 Z M 6.179688 3.96875 C 6.039062 4.730469 6.488281 5.582031 7.210938 5.9375 C 7.90625 6.269531 8.695312 6.148438 9.28125 5.613281 L 9.632812 5.292969 L 10.039062 5.695312 L 10.4375 6.085938 L 10.4375 8.460938 L 10.050781 8.855469 C 9.835938 9.074219 9.636719 9.25 9.613281 9.25 C 9.585938 9.25 9.5625 9.144531 9.5625 9.007812 C 9.5625 8.507812 9.261719 8.0625 8.789062 7.835938 C 8.242188 7.582031 7.632812 7.667969 7.230469 8.050781 C 7.039062 8.230469 6.8125 8.625 6.8125 8.78125 C 6.8125 8.929688 6.730469 8.894531 6.46875 8.625 L 6.226562 8.375 L 4.757812 8.375 L 4.382812 7.699219 L 4 7.03125 L 4 4.96875 L 5.28125 3.6875 L 6.230469 3.6875 Z M 8.46875 4.125 C 8.898438 4.5625 8.90625 4.570312 8.8125 4.730469 C 8.363281 5.53125 7.117188 5.195312 7.105469 4.273438 C 7.105469 4.105469 7.136719 3.90625 7.179688 3.824219 C 7.242188 3.707031 7.304688 3.6875 7.644531 3.6875 L 8.039062 3.6875 Z M 8.5 8.75 C 8.6875 8.9375 8.667969 9.269531 8.460938 9.429688 C 8.273438 9.582031 8.195312 9.59375 7.976562 9.492188 C 7.664062 9.351562 7.632812 8.863281 7.917969 8.695312 C 8.101562 8.585938 8.363281 8.613281 8.5 8.75 Z M 8.5 8.75 "/>
<path style=" stroke:none;fill-rule:nonzero;fill:#ffffff;fill-opacity:1;" d="M 30.3125 8.84375 L 29.46875 9.6875 L 29.800781 10.011719 L 30.125 10.34375 L 31.84375 8.625 L 31.53125 8.3125 C 31.363281 8.144531 31.207031 8 31.1875 8 C 31.167969 8 30.773438 8.382812 30.3125 8.84375 Z M 30.3125 8.84375 "/>
<path style=" stroke:none;fill-rule:nonzero;fill:#ffffff;fill-opacity:1;" d="M 24.605469 12.988281 L 23.6875 13.90625 L 23.6875 16.644531 L 24.238281 17.632812 L 24.78125 18.617188 L 25.59375 18.625 L 26.40625 18.625 L 27.59375 19.8125 L 30.28125 19.8125 L 32 18.09375 L 32 15.03125 L 31.5 14.53125 L 31 14.039062 L 30.6875 14.34375 C 30.519531 14.511719 30.375 14.679688 30.375 14.71875 C 30.375 14.757812 30.53125 14.9375 30.71875 15.125 L 31.0625 15.460938 L 31.0625 17.726562 L 30.738281 17.40625 C 30.335938 17.023438 29.917969 16.820312 29.414062 16.757812 C 28.511719 16.65625 27.695312 17 27.1875 17.699219 C 27.019531 17.929688 27.011719 17.929688 26.90625 17.8125 C 26.804688 17.699219 26.710938 17.6875 26.070312 17.6875 L 25.34375 17.6875 L 24.980469 17.039062 L 24.625 16.394531 L 24.625 14.28125 L 25.90625 13 L 28.59375 13 L 29.125 13.53125 L 29.664062 14.0625 L 30.335938 13.375 L 29.6875 12.71875 L 29.03125 12.0625 L 25.53125 12.0625 Z M 29.886719 17.914062 C 30.03125 18.011719 30.195312 18.175781 30.25 18.261719 C 30.335938 18.425781 30.332031 18.445312 30.125 18.65625 L 29.914062 18.875 L 28.9375 18.875 C 28.050781 18.875 27.945312 18.863281 27.851562 18.757812 C 27.75 18.644531 27.75 18.625 27.867188 18.386719 C 28 18.132812 28.28125 17.867188 28.5625 17.757812 C 28.648438 17.71875 28.917969 17.695312 29.167969 17.707031 C 29.550781 17.71875 29.65625 17.75 29.886719 17.914062 Z M 29.886719 17.914062 "/>
<path style=" stroke:none;fill-rule:nonzero;fill:#ffffff;fill-opacity:1;" d="M 9.9375 13.03125 L 9.40625 13.5625 L 6.03125 13.5625 L 4.25 15.34375 L 4.25 16.917969 L 3.082031 17.164062 L 1.90625 17.414062 L 0.957031 19.101562 L 0.0078125 20.78125 L 0.0078125 22.34375 L 0 23.90625 L 1.75 25.65625 L 1.75 28.71875 L 2.445312 29.519531 L 3.132812 30.3125 L 4.78125 30.3125 L 6.40625 31.9375 L 10.1875 31.9375 L 10.1875 31 L 6.78125 31 L 5.15625 29.375 L 4.34375 29.367188 L 3.53125 29.367188 L 3.113281 28.867188 L 2.6875 28.367188 L 2.6875 25.28125 L 0.9375 23.53125 L 0.9375 21.0625 L 1.695312 19.707031 C 2.113281 18.957031 2.46875 18.324219 2.492188 18.300781 C 2.523438 18.261719 3.851562 17.957031 5.019531 17.710938 L 5.1875 17.675781 L 5.1875 15.78125 L 6.46875 14.5 L 9.78125 14.5 L 10.84375 13.4375 L 13.445312 13.4375 C 14.867188 13.4375 16.054688 13.457031 16.082031 13.476562 C 16.101562 13.5 15.988281 13.644531 15.820312 13.804688 C 15.65625 13.960938 15.445312 14.261719 15.335938 14.46875 C 15.175781 14.8125 15.15625 14.898438 15.15625 15.5 C 15.15625 16.125 15.164062 16.175781 15.367188 16.550781 C 15.625 17.019531 16.011719 17.394531 16.488281 17.613281 C 16.792969 17.757812 16.925781 17.78125 17.4375 17.78125 C 17.980469 17.78125 18.070312 17.761719 18.445312 17.582031 C 18.679688 17.460938 18.96875 17.257812 19.117188 17.09375 C 19.261719 16.9375 19.40625 16.824219 19.4375 16.84375 C 19.476562 16.867188 19.5 17.386719 19.5 18.082031 L 19.5 19.28125 L 20.53125 20.3125 C 21.226562 21.007812 21.5625 21.386719 21.5625 21.476562 C 21.5625 21.601562 21.539062 21.605469 21.175781 21.582031 C 20.832031 21.554688 20.738281 21.574219 20.4375 21.730469 C 19.988281 21.96875 19.738281 22.355469 19.699219 22.882812 C 19.632812 23.789062 20.449219 24.511719 21.34375 24.351562 L 21.5625 24.304688 L 21.5625 26.710938 L 21.207031 27.074219 L 20.855469 27.429688 L 20.636719 27.144531 C 19.78125 26.019531 18.074219 25.957031 17.101562 27.007812 C 16.585938 27.554688 16.355469 28.320312 16.5 28.960938 C 16.539062 29.132812 16.550781 29.28125 16.539062 29.300781 C 16.519531 29.3125 16.28125 29.34375 16.007812 29.367188 L 15.507812 29.40625 L 14.632812 30.207031 L 13.757812 31 L 11.125 31 L 11.125 31.9375 L 14.113281 31.9375 L 15.007812 31.125 C 15.523438 30.65625 15.957031 30.3125 16.03125 30.3125 C 16.101562 30.304688 16.925781 30.257812 17.867188 30.195312 L 19.582031 30.074219 L 22.5 27.15625 L 22.5 20.96875 L 20.4375 18.90625 L 20.4375 16.46875 L 16.46875 12.5 L 10.46875 12.5 Z M 17.773438 15.179688 L 18.707031 16.117188 L 18.542969 16.332031 C 18.25 16.710938 17.976562 16.84375 17.429688 16.84375 C 17.019531 16.84375 16.925781 16.820312 16.699219 16.667969 C 16.292969 16.398438 16.101562 16.0625 16.074219 15.5625 C 16.054688 15.25 16.074219 15.082031 16.164062 14.90625 C 16.28125 14.65625 16.664062 14.25 16.773438 14.25 C 16.8125 14.25 17.261719 14.667969 17.773438 15.179688 Z M 21.355469 22.59375 C 21.539062 22.71875 21.585938 22.960938 21.476562 23.179688 C 21.324219 23.46875 21.054688 23.519531 20.789062 23.304688 C 20.335938 22.949219 20.882812 22.261719 21.355469 22.59375 Z M 19.445312 27.363281 C 19.6875 27.488281 19.832031 27.617188 19.960938 27.835938 L 20.148438 28.132812 L 19.617188 28.65625 L 19.09375 29.175781 L 18.332031 29.21875 C 17.582031 29.261719 17.574219 29.261719 17.492188 29.117188 C 17.363281 28.875 17.394531 28.257812 17.542969 27.960938 C 17.925781 27.242188 18.730469 26.988281 19.445312 27.363281 Z M 19.445312 27.363281 "/>
<path style=" stroke:none;fill-rule:nonzero;fill:#ffffff;fill-opacity:1;" d="M 26.511719 13.894531 C 25.949219 14.101562 25.601562 14.613281 25.601562 15.21875 C 25.605469 15.824219 25.875 16.242188 26.4375 16.492188 C 26.949219 16.726562 27.480469 16.636719 27.914062 16.238281 C 28.257812 15.925781 28.398438 15.554688 28.363281 15.101562 C 28.289062 14.1875 27.363281 13.585938 26.511719 13.894531 Z M 27.292969 14.886719 C 27.5 15.074219 27.488281 15.386719 27.273438 15.554688 C 27.007812 15.769531 26.738281 15.71875 26.585938 15.429688 C 26.34375 14.957031 26.90625 14.523438 27.292969 14.886719 Z M 27.292969 14.886719 "/>
<path style=" stroke:none;fill-rule:nonzero;fill:#ffffff;fill-opacity:1;" d="M 11.375 15.40625 L 11.375 15.875 L 12.3125 15.875 L 12.3125 14.9375 L 11.375 14.9375 Z M 11.375 15.40625 "/>
<path style=" stroke:none;fill-rule:nonzero;fill:#ffffff;fill-opacity:1;" d="M 13.25 15.40625 L 13.25 15.875 L 14.195312 15.875 L 14.175781 15.417969 L 14.15625 14.96875 L 13.707031 14.949219 L 13.25 14.929688 Z M 13.25 15.40625 "/>
<path style=" stroke:none;fill-rule:nonzero;fill:#ffffff;fill-opacity:1;" d="M 9.042969 16 C 7.929688 16.28125 7.332031 17.332031 7.664062 18.4375 C 7.792969 18.882812 8.332031 19.429688 8.773438 19.582031 C 9.710938 19.898438 10.679688 19.507812 11.105469 18.636719 C 11.351562 18.144531 11.351562 17.492188 11.113281 17.03125 C 10.707031 16.257812 9.8125 15.8125 9.042969 16 Z M 9.929688 17.054688 C 10.5 17.460938 10.507812 18.226562 9.9375 18.605469 C 9.5 18.90625 8.851562 18.730469 8.613281 18.25 C 8.414062 17.855469 8.492188 17.457031 8.832031 17.136719 C 9.125 16.863281 9.617188 16.824219 9.929688 17.054688 Z M 9.929688 17.054688 "/>
<path style=" stroke:none;fill-rule:nonzero;fill:#ffffff;fill-opacity:1;" d="M 13.34375 17.679688 C 12.644531 18.007812 12.324219 18.820312 12.632812 19.5 C 12.886719 20.0625 13.304688 20.335938 13.90625 20.335938 C 14.707031 20.335938 15.3125 19.730469 15.3125 18.925781 C 15.3125 17.960938 14.21875 17.273438 13.34375 17.679688 Z M 14.230469 18.636719 C 14.425781 18.820312 14.417969 19.085938 14.210938 19.292969 C 14.085938 19.417969 14.019531 19.445312 13.855469 19.414062 C 13.457031 19.335938 13.3125 18.929688 13.59375 18.65625 C 13.78125 18.460938 14.039062 18.457031 14.230469 18.636719 Z M 14.230469 18.636719 "/>
<path style=" stroke:none;fill-rule:nonzero;fill:#ffffff;fill-opacity:1;" d="M 3.875 19.25 C 2.761719 19.445312 2.335938 20.863281 3.167969 21.632812 C 3.449219 21.894531 3.710938 22 4.09375 22 C 4.917969 22 5.492188 21.4375 5.5 20.636719 C 5.5 19.742188 4.75 19.101562 3.875 19.25 Z M 4.449219 20.292969 C 4.585938 20.417969 4.601562 20.738281 4.460938 20.925781 C 4.335938 21.105469 3.945312 21.117188 3.78125 20.9375 C 3.636719 20.773438 3.636719 20.476562 3.78125 20.3125 C 3.917969 20.15625 4.289062 20.144531 4.449219 20.292969 Z M 4.449219 20.292969 "/>
<path style=" stroke:none;fill-rule:nonzero;fill:#ffffff;fill-opacity:1;" d="M 8.605469 21.136719 C 7.867188 21.230469 7.15625 21.773438 6.824219 22.488281 C 6.679688 22.792969 6.65625 22.925781 6.65625 23.4375 C 6.65625 23.988281 6.675781 24.070312 6.855469 24.445312 C 7.101562 24.9375 7.492188 25.320312 7.988281 25.550781 C 8.300781 25.699219 8.425781 25.71875 8.96875 25.71875 C 9.550781 25.71875 9.625 25.707031 10.011719 25.511719 C 11.148438 24.957031 11.617188 23.554688 11.0625 22.40625 C 10.632812 21.511719 9.644531 21.007812 8.605469 21.136719 Z M 9.761719 22.28125 C 10.332031 22.664062 10.53125 23.53125 10.175781 24.132812 C 10.082031 24.289062 9.886719 24.5 9.742188 24.601562 C 9.507812 24.761719 9.429688 24.78125 8.960938 24.78125 C 8.492188 24.78125 8.425781 24.761719 8.175781 24.59375 C 7.832031 24.355469 7.5625 23.851562 7.5625 23.4375 C 7.5625 23.039062 7.832031 22.519531 8.15625 22.292969 C 8.617188 21.980469 9.292969 21.96875 9.761719 22.28125 Z M 9.761719 22.28125 "/>
<path style=" stroke:none;fill-rule:nonzero;fill:#ffffff;fill-opacity:1;" d="M 15.242188 21.132812 C 14.832031 21.195312 14.492188 21.386719 14.175781 21.742188 C 13.351562 22.65625 13.632812 24.050781 14.761719 24.667969 C 15.054688 24.832031 16.070312 24.832031 16.363281 24.667969 C 17.507812 24.042969 17.773438 22.648438 16.929688 21.71875 C 16.480469 21.230469 15.90625 21.023438 15.242188 21.132812 Z M 16.023438 22.179688 C 16.832031 22.632812 16.507812 23.875 15.582031 23.875 C 14.925781 23.875 14.492188 23.3125 14.679688 22.695312 C 14.761719 22.414062 14.976562 22.207031 15.292969 22.09375 C 15.554688 22 15.75 22.023438 16.023438 22.179688 Z M 16.023438 22.179688 "/>
<path style=" stroke:none;fill-rule:nonzero;fill:#ffffff;fill-opacity:1;" d="M 4.945312 25.632812 C 4.832031 25.667969 4.605469 25.824219 4.4375 25.992188 C 3.980469 26.449219 3.886719 27.039062 4.1875 27.625 C 4.335938 27.914062 4.53125 28.085938 4.875 28.242188 C 5.769531 28.648438 6.8125 27.960938 6.8125 26.96875 C 6.8125 26.011719 5.898438 25.363281 4.945312 25.632812 Z M 5.710938 26.632812 C 5.925781 26.800781 5.929688 27.074219 5.71875 27.28125 C 5.636719 27.367188 5.492188 27.4375 5.40625 27.4375 C 5.320312 27.4375 5.175781 27.367188 5.09375 27.28125 C 5.007812 27.199219 4.9375 27.054688 4.9375 26.96875 C 4.9375 26.761719 5.195312 26.5 5.394531 26.5 C 5.476562 26.5 5.617188 26.554688 5.710938 26.632812 Z M 5.710938 26.632812 "/>
<path style=" stroke:none;fill-rule:nonzero;fill:#ffffff;fill-opacity:1;" d="M 11.148438 26.3125 C 10.59375 26.488281 10.019531 27.082031 9.867188 27.644531 C 9.710938 28.230469 9.917969 28.980469 10.355469 29.417969 C 10.742188 29.804688 11.132812 29.96875 11.6875 29.960938 C 12.257812 29.960938 12.617188 29.820312 13 29.4375 C 13.382812 29.054688 13.53125 28.695312 13.53125 28.125 C 13.53125 27.074219 12.820312 26.320312 11.78125 26.273438 C 11.542969 26.261719 11.257812 26.28125 11.148438 26.3125 Z M 12.230469 27.363281 C 13.132812 28 12.289062 29.425781 11.292969 28.945312 C 10.367188 28.492188 10.730469 27.125 11.757812 27.207031 C 11.917969 27.21875 12.132812 27.289062 12.230469 27.363281 Z M 12.230469 27.363281 "/>
</g>
</svg>