<svg xmlns="http://www.w3.org/2000/svg" xmlns:xlink="http://www.w3.org/1999/xlink" width="32px" height="32px" viewBox="0 0 32 32" version="1.1">
    <g id="surface1">
        <path style=" stroke:none;fill-rule:nonzero;fill:#ffffff;fill-opacity:1;" d="M 15.828125 -0.0234375 C 15.96875 -0.015625 16.101562 -0.015625 16.242188 -0.015625 C 17.546875 -0.015625 18.828125 0.0078125 20.125 0.1875 C 20.203125 0.195312 20.28125 0.210938 20.367188 0.21875 C 23.929688 0.6875 27.789062 1.695312 30.4375 4.25 C 30.484375 4.296875 30.53125 4.335938 30.578125 4.382812 C 31.359375 5.125 31.976562 6.195312 32.023438 7.289062 C 32.03125 7.40625 32.03125 7.523438 32.03125 7.640625 C 32.023438 7.710938 32.023438 7.773438 32.023438 7.835938 C 31.992188 9.164062 31.351562 10.148438 30.4375 11.0625 C 30.398438 11.109375 30.351562 11.15625 30.3125 11.203125 C 29.273438 12.3125 27.664062 13.164062 26.226562 13.632812 C 25.390625 13.90625 24.78125 14.726562 24.25 15.398438 C 24.117188 15.578125 23.96875 15.742188 23.828125 15.914062 C 21.257812 19 19.632812 22.898438 18.890625 26.820312 C 18.882812 26.867188 18.875 26.90625 18.867188 26.953125 C 18.84375 27.078125 18.820312 27.195312 18.796875 27.320312 C 18.75 27.5 18.75 27.5 18.625 27.625 C 18.460938 27.601562 18.3125 27.578125 18.148438 27.539062 C 18.085938 27.523438 18.085938 27.523438 18.015625 27.507812 C 17.90625 27.484375 17.796875 27.460938 17.6875 27.4375 C 18.554688 22.625 20.4375 18.234375 23.625 14.5 C 23.5625 14.515625 23.492188 14.53125 23.429688 14.546875 C 21.945312 14.867188 20.453125 15.109375 18.9375 15.25 C 18.859375 15.257812 18.773438 15.265625 18.695312 15.273438 C 17.960938 15.34375 17.234375 15.3125 16.5 15.3125 C 16.5 20.507812 16.5 25.710938 16.5 31.0625 C 16.789062 31.0625 17.078125 31.0625 17.375 31.0625 C 17.375 30.898438 17.375 30.898438 17.375 30.734375 C 17.375 30.328125 17.398438 29.921875 17.4375 29.507812 C 17.4375 29.4375 17.445312 29.375 17.453125 29.304688 C 17.476562 28.992188 17.507812 28.6875 17.5625 28.375 C 17.71875 28.382812 17.875 28.390625 18.03125 28.398438 C 18.09375 28.40625 18.09375 28.40625 18.164062 28.40625 C 18.492188 28.429688 18.492188 28.429688 18.5625 28.5 C 18.554688 28.640625 18.546875 28.78125 18.539062 28.921875 C 18.53125 29.015625 18.523438 29.101562 18.523438 29.195312 C 18.515625 29.25 18.515625 29.296875 18.507812 29.34375 C 18.492188 29.609375 18.476562 29.875 18.46875 30.140625 C 18.460938 30.195312 18.460938 30.242188 18.460938 30.289062 C 18.453125 30.46875 18.445312 30.640625 18.4375 30.8125 C 18.414062 31.203125 18.398438 31.59375 18.375 32 C 16.804688 32 15.242188 32 13.625 32 C 13.609375 31.617188 13.59375 31.234375 13.578125 30.835938 C 13.46875 28.53125 13.117188 26.273438 12.4375 24.0625 C 12.421875 24 12.398438 23.9375 12.382812 23.875 C 12.070312 22.867188 11.679688 21.898438 11.25 20.9375 C 11.210938 20.859375 11.210938 20.859375 11.179688 20.773438 C 10.257812 18.71875 9 16.796875 7.5 15.125 C 7.46875 15.09375 7.4375 15.054688 7.40625 15.023438 C 7.15625 14.742188 7.15625 14.742188 6.90625 14.46875 C 6.835938 14.398438 6.773438 14.328125 6.710938 14.257812 C 6.382812 13.882812 6 13.710938 5.546875 13.53125 C 5.335938 13.445312 5.125 13.359375 4.914062 13.265625 C 4.875 13.25 4.835938 13.234375 4.789062 13.21875 C 3.453125 12.648438 2.335938 11.84375 1.3125 10.8125 C 1.273438 10.773438 1.234375 10.734375 1.195312 10.695312 C 0.335938 9.789062 -0.0390625 8.703125 -0.03125 7.476562 C 0.015625 6.039062 0.828125 4.929688 1.828125 3.960938 C 2.367188 3.460938 3.484375 2.4375 4.25 2.4375 C 4.3125 2.546875 4.375 2.65625 4.4375 2.765625 C 4.46875 2.828125 4.507812 2.890625 4.546875 2.953125 C 4.625 3.125 4.625 3.125 4.625 3.375 C 4.5625 3.40625 4.5 3.4375 4.445312 3.46875 C 3.046875 4.21875 1.625 5.25 1.117188 6.820312 C 0.898438 7.804688 1.078125 8.679688 1.617188 9.53125 C 1.820312 9.820312 2.03125 10.039062 2.3125 10.25 C 2.335938 10.171875 2.335938 10.171875 2.351562 10.09375 C 2.757812 8.664062 3.851562 7.703125 5.117188 7 C 8.375 5.234375 12.296875 4.734375 15.953125 4.734375 C 16.03125 4.742188 16.03125 4.742188 16.117188 4.742188 C 18.453125 4.742188 20.796875 4.984375 23.0625 5.5625 C 23.148438 5.585938 23.148438 5.585938 23.242188 5.609375 C 24.460938 5.921875 25.640625 6.335938 26.75 6.9375 C 26.804688 6.96875 26.804688 6.96875 26.867188 7 C 27.398438 7.28125 27.867188 7.601562 28.3125 8 C 28.367188 8.046875 28.421875 8.09375 28.476562 8.148438 C 29.109375 8.742188 29.476562 9.40625 29.6875 10.25 C 30.3125 9.796875 30.804688 9.015625 30.9375 8.25 C 31.054688 7.195312 30.820312 6.320312 30.148438 5.476562 C 27.671875 2.507812 23.132812 1.609375 19.5 1.1875 C 19.4375 1.179688 19.382812 1.171875 19.320312 1.164062 C 14.695312 0.648438 9.796875 1.148438 5.5 2.9375 C 5.367188 2.765625 5.265625 2.601562 5.171875 2.398438 C 5.148438 2.351562 5.125 2.304688 5.101562 2.257812 C 5.0625 2.125 5.0625 2.125 5.125 1.9375 C 5.25 1.867188 5.25 1.867188 5.421875 1.796875 C 5.492188 1.773438 5.554688 1.75 5.617188 1.726562 C 5.6875 1.695312 5.757812 1.671875 5.835938 1.640625 C 5.9375 1.601562 5.9375 1.601562 6.054688 1.5625 C 7.773438 0.929688 9.546875 0.53125 11.359375 0.265625 C 11.40625 0.257812 11.445312 0.25 11.492188 0.25 C 12.929688 0.0390625 14.375 -0.0234375 15.828125 -0.0234375 Z M 4 9.101562 C 3.539062 9.640625 3.242188 10.289062 3.265625 11 C 3.320312 11.234375 3.382812 11.28125 3.585938 11.40625 C 3.640625 11.445312 3.695312 11.476562 3.757812 11.515625 C 4.054688 11.695312 4.351562 11.851562 4.664062 12.007812 C 4.71875 12.046875 4.78125 12.078125 4.84375 12.109375 C 5.429688 12.453125 5.429688 12.453125 6.0625 12.625 C 6.085938 12.578125 6.109375 12.523438 6.132812 12.476562 C 6.757812 11.1875 8.023438 10.5625 9.335938 10.09375 C 10.484375 9.703125 11.671875 9.4375 12.875 9.25 C 12.929688 9.242188 12.984375 9.234375 13.046875 9.21875 C 16.875 8.59375 21.640625 9.054688 24.929688 11.242188 C 25.414062 11.601562 25.726562 12.0625 25.9375 12.625 C 26.828125 12.375 28.03125 11.835938 28.6875 11.1875 C 28.820312 10.632812 28.617188 10.085938 28.359375 9.601562 C 27.195312 7.71875 24.578125 6.953125 22.546875 6.460938 C 22.21875 6.382812 21.890625 6.3125 21.5625 6.25 C 21.5 6.234375 21.445312 6.226562 21.382812 6.210938 C 19.640625 5.867188 17.859375 5.734375 16.085938 5.734375 C 16.023438 5.734375 15.96875 5.734375 15.914062 5.734375 C 12.078125 5.734375 6.8125 6.171875 4 9.101562 Z M 12.5625 10.25 C 12.5 10.265625 12.429688 10.273438 12.367188 10.289062 C 11.945312 10.367188 11.539062 10.460938 11.125 10.5625 C 11.039062 10.585938 11.039062 10.585938 10.953125 10.601562 C 9.703125 10.921875 7.945312 11.40625 7.15625 12.507812 C 7.0625 12.679688 7.03125 12.8125 7 13 C 7.742188 13.25 8.484375 13.476562 9.25 13.65625 C 9.320312 13.671875 9.390625 13.6875 9.460938 13.703125 C 9.523438 13.71875 9.585938 13.734375 9.65625 13.75 C 9.710938 13.765625 9.773438 13.78125 9.828125 13.789062 C 10.125 13.828125 10.367188 13.773438 10.625 13.632812 C 10.695312 13.601562 10.695312 13.601562 10.765625 13.5625 C 10.8125 13.539062 10.867188 13.515625 10.914062 13.484375 C 12.484375 12.71875 14.21875 12.484375 15.953125 12.484375 C 15.992188 12.484375 16.039062 12.484375 16.09375 12.484375 C 17.78125 12.484375 19.601562 12.6875 21.109375 13.5 C 21.171875 13.53125 21.171875 13.53125 21.226562 13.5625 C 21.335938 13.617188 21.4375 13.679688 21.539062 13.734375 C 22.054688 13.921875 22.65625 13.679688 23.164062 13.546875 C 23.242188 13.53125 23.320312 13.507812 23.398438 13.484375 C 23.9375 13.351562 24.476562 13.195312 25 13 C 24.757812 12.226562 24.195312 11.859375 23.507812 11.492188 C 21.507812 10.484375 19.078125 10 16.851562 9.984375 C 16.789062 9.984375 16.726562 9.984375 16.664062 9.984375 C 15.28125 9.96875 13.929688 10 12.5625 10.25 Z M 12 14.125 C 14.671875 14.4375 17.328125 14.429688 20 14.125 C 19.21875 13.34375 17.039062 13.414062 16 13.414062 C 13.867188 13.382812 13.867188 13.382812 12 14.125 Z M 8.3125 14.4375 C 8.492188 14.679688 8.664062 14.921875 8.859375 15.148438 C 9.78125 16.226562 10.570312 17.445312 11.25 18.6875 C 11.296875 18.765625 11.296875 18.765625 11.335938 18.84375 C 13.414062 22.664062 14.3125 26.757812 14.625 31.0625 C 14.914062 31.0625 15.203125 31.0625 15.5 31.0625 C 15.5 25.867188 15.5 20.664062 15.5 15.3125 C 14.695312 15.273438 13.890625 15.226562 13.0625 15.1875 C 11.578125 15.03125 10.117188 14.820312 8.671875 14.476562 C 8.5 14.429688 8.5 14.429688 8.3125 14.4375 Z M 8.3125 14.4375 "/>
        <path style=" stroke:none;fill-rule:nonzero;fill:#ffffff;fill-opacity:1;" d="M 16.4375 2 C 16.765625 2 17.09375 2 17.4375 2 C 17.4375 2.328125 17.4375 2.65625 17.4375 3 C 17.109375 3 16.78125 3 16.4375 3 C 16.4375 2.671875 16.4375 2.34375 16.4375 2 Z M 16.4375 2 "/>
        <path style=" stroke:none;fill-rule:nonzero;fill:#ffffff;fill-opacity:1;" d="M 14.5625 2 C 14.890625 2 15.21875 2 15.5625 2 C 15.5625 2.328125 15.5625 2.65625 15.5625 3 C 15.234375 3 14.90625 3 14.5625 3 C 14.5625 2.671875 14.5625 2.34375 14.5625 2 Z M 14.5625 2 "/>
    </g>
</svg>