<svg xmlns="http://www.w3.org/2000/svg" xmlns:xlink="http://www.w3.org/1999/xlink" width="32px" height="32px" viewBox="0 0 32 32" version="1.1">
    <g id="surface1">
        <path style=" stroke:none;fill-rule:nonzero;fill:#ffffff;fill-opacity:1;" d="M 15.953125 -0.0234375 C 16.015625 -0.0234375 16.078125 -0.0234375 16.148438 -0.0234375 C 19.9375 -0.015625 23.460938 1.328125 26.375 3.75 C 26.1875 4 26 4.25 25.8125 4.5 C 25.625 4.460938 25.507812 4.40625 25.351562 4.289062 C 25.3125 4.257812 25.273438 4.226562 25.234375 4.195312 C 25.195312 4.164062 25.15625 4.132812 25.109375 4.101562 C 24.382812 3.539062 23.617188 3.085938 22.804688 2.65625 C 22.742188 2.625 22.679688 2.59375 22.617188 2.554688 C 22.335938 2.414062 22.0625 2.273438 21.75 2.1875 C 21.640625 2.382812 21.539062 2.578125 21.4375 2.78125 C 21.40625 2.835938 21.375 2.890625 21.34375 2.945312 C 21.140625 3.328125 21.085938 3.578125 21.1875 4 C 21.210938 4.085938 21.210938 4.085938 21.226562 4.179688 C 21.296875 4.445312 21.367188 4.710938 21.4375 4.96875 C 21.460938 5.070312 21.460938 5.070312 21.492188 5.164062 C 21.515625 5.257812 21.515625 5.257812 21.539062 5.34375 C 21.5625 5.507812 21.5625 5.59375 21.5 5.75 C 21.398438 5.867188 21.398438 5.867188 21.273438 5.984375 C 21.203125 6.046875 21.203125 6.046875 21.132812 6.117188 C 21.054688 6.1875 21.054688 6.1875 20.984375 6.257812 C 20.585938 6.640625 20.234375 7.023438 19.921875 7.476562 C 19.890625 7.523438 19.859375 7.570312 19.828125 7.609375 C 19.65625 7.875 19.585938 8.046875 19.65625 8.367188 C 19.664062 8.414062 19.671875 8.453125 19.6875 8.5 C 19.703125 8.578125 19.703125 8.578125 19.726562 8.65625 C 19.765625 8.820312 19.804688 8.984375 19.84375 9.140625 C 19.875 9.257812 19.90625 9.367188 19.9375 9.476562 C 19.945312 9.523438 19.960938 9.570312 19.96875 9.625 C 20 9.75 20 9.75 20 9.9375 C 19.882812 9.96875 19.757812 10 19.640625 10.03125 C 19.570312 10.046875 19.507812 10.0625 19.4375 10.085938 C 19.25 10.125 19.25 10.125 19 10.125 C 18.929688 9.859375 18.859375 9.585938 18.789062 9.320312 C 18.765625 9.226562 18.734375 9.140625 18.710938 9.046875 C 18.679688 8.914062 18.640625 8.789062 18.609375 8.65625 C 18.585938 8.578125 18.570312 8.5 18.546875 8.414062 C 18.484375 8.101562 18.445312 7.859375 18.585938 7.570312 C 18.640625 7.484375 18.640625 7.484375 18.703125 7.390625 C 18.75 7.328125 18.789062 7.265625 18.835938 7.195312 C 18.882812 7.125 18.929688 7.0625 18.984375 6.992188 C 19.03125 6.921875 19.078125 6.851562 19.125 6.78125 C 19.421875 6.351562 19.742188 5.960938 20.148438 5.625 C 20.257812 5.539062 20.257812 5.539062 20.375 5.375 C 20.375 5.179688 20.359375 5.054688 20.3125 4.875 C 20.296875 4.828125 20.289062 4.773438 20.273438 4.726562 C 20.21875 4.507812 20.164062 4.296875 20.101562 4.085938 C 19.929688 3.4375 20.109375 3.046875 20.40625 2.46875 C 20.445312 2.40625 20.476562 2.34375 20.507812 2.28125 C 20.585938 2.125 20.671875 1.96875 20.75 1.8125 C 20.195312 1.601562 19.640625 1.453125 19.0625 1.328125 C 19.007812 1.320312 18.945312 1.304688 18.882812 1.296875 C 17.9375 1.101562 17.015625 1.039062 16.054688 1.039062 C 15.96875 1.046875 15.96875 1.046875 15.882812 1.046875 C 15.03125 1.046875 14.210938 1.085938 13.375 1.25 C 13.320312 1.257812 13.273438 1.273438 13.21875 1.28125 C 12.617188 1.398438 12.023438 1.53125 11.4375 1.6875 C 11.429688 1.742188 11.429688 1.742188 11.421875 1.796875 C 11.40625 1.851562 11.398438 1.90625 11.390625 1.96875 C 11.382812 2.03125 11.367188 2.09375 11.359375 2.15625 C 11.3125 2.375 11.3125 2.375 11.21875 2.59375 C 11.0625 2.953125 11 3.257812 11.132812 3.632812 C 11.265625 3.90625 11.40625 4.171875 11.546875 4.4375 C 11.90625 5.078125 12.140625 5.695312 12.3125 6.40625 C 12.320312 6.46875 12.320312 6.46875 12.335938 6.539062 C 12.484375 7.140625 12.578125 7.578125 12.304688 8.15625 C 12.289062 8.203125 12.265625 8.25 12.242188 8.289062 C 12.179688 8.4375 12.109375 8.578125 12.039062 8.71875 C 12.015625 8.765625 11.992188 8.8125 11.96875 8.867188 C 11.515625 9.773438 11 10.304688 10.109375 10.796875 C 9.898438 10.9375 9.726562 11.054688 9.5625 11.25 C 9.507812 11.523438 9.539062 11.773438 9.578125 12.046875 C 9.640625 12.65625 9.59375 13.21875 9.21875 13.71875 C 8.289062 14.875 6.945312 15.398438 5.578125 15.882812 C 5.523438 15.898438 5.46875 15.921875 5.414062 15.9375 C 5.359375 15.960938 5.3125 15.976562 5.257812 15.992188 C 5.21875 16.007812 5.171875 16.023438 5.125 16.039062 C 4.976562 16.070312 4.890625 16.046875 4.75 16 C 4.640625 15.90625 4.640625 15.90625 4.539062 15.789062 C 4.5 15.75 4.460938 15.710938 4.421875 15.664062 C 4.335938 15.578125 4.257812 15.484375 4.179688 15.398438 C 3.976562 15.179688 3.835938 15.039062 3.53125 15 C 3.460938 15 3.390625 15 3.3125 15 C 3.289062 15.070312 3.265625 15.148438 3.242188 15.21875 C 3.109375 15.617188 2.953125 16.007812 2.796875 16.40625 C 2.742188 16.53125 2.6875 16.664062 2.640625 16.796875 C 2.601562 16.875 2.570312 16.960938 2.539062 17.039062 C 2.507812 17.117188 2.476562 17.1875 2.445312 17.265625 C 2.375 17.4375 2.375 17.4375 2.3125 17.5 C 2.21875 17.507812 2.125 17.507812 2.03125 17.507812 C 1.976562 17.507812 1.921875 17.507812 1.859375 17.507812 C 1.804688 17.507812 1.742188 17.507812 1.6875 17.5 C 1.625 17.5 1.5625 17.5 1.5 17.5 C 1.359375 17.5 1.210938 17.5 1.0625 17.5 C 1.226562 18.5625 1.414062 19.601562 1.75 20.625 C 1.773438 20.695312 1.773438 20.695312 1.796875 20.773438 C 2.007812 21.40625 2.273438 22.015625 2.5625 22.625 C 2.59375 22.6875 2.625 22.75 2.65625 22.820312 C 2.84375 23.203125 3.054688 23.5625 3.296875 23.914062 C 3.375 24.0625 3.375 24.0625 3.367188 24.203125 C 3.28125 24.382812 3.132812 24.445312 2.96875 24.546875 C 2.898438 24.585938 2.835938 24.625 2.773438 24.664062 C 2.726562 24.695312 2.671875 24.71875 2.625 24.75 C 2.398438 24.546875 2.257812 24.3125 2.109375 24.046875 C 2.085938 24 2.0625 23.960938 2.039062 23.914062 C 1.617188 23.148438 1.234375 22.382812 0.9375 21.5625 C 0.921875 21.523438 0.90625 21.484375 0.890625 21.4375 C -0.046875 18.882812 -0.351562 15.875 0.1875 13.1875 C 0.195312 13.132812 0.210938 13.070312 0.21875 13.015625 C 0.304688 12.609375 0.398438 12.210938 0.5 11.8125 C 0.515625 11.765625 0.523438 11.71875 0.539062 11.671875 C 0.828125 10.523438 1.3125 9.421875 1.875 8.375 C 1.898438 8.335938 1.914062 8.296875 1.9375 8.25 C 2.914062 6.414062 4.382812 4.609375 6.0625 3.375 C 6.140625 3.3125 6.21875 3.257812 6.296875 3.195312 C 8.273438 1.703125 10.523438 0.734375 12.945312 0.234375 C 12.992188 0.226562 13.039062 0.21875 13.085938 0.210938 C 14.046875 0.0234375 14.984375 -0.0234375 15.953125 -0.0234375 Z M 5.4375 5.3125 C 5.375 5.375 5.3125 5.4375 5.25 5.5 C 2.882812 7.804688 1.523438 10.945312 1.0625 14.1875 C 1.054688 14.226562 1.046875 14.273438 1.046875 14.3125 C 0.984375 14.757812 0.992188 15.210938 1 15.65625 C 1 15.742188 1 15.820312 1 15.90625 C 1 16.101562 1 16.304688 1 16.5 C 1.203125 16.5 1.414062 16.5 1.625 16.5 C 1.875 15.976562 2.09375 15.4375 2.296875 14.890625 C 2.335938 14.8125 2.367188 14.734375 2.398438 14.648438 C 2.46875 14.453125 2.546875 14.257812 2.625 14.0625 C 4.125 13.921875 4.125 13.921875 4.53125 14.242188 C 4.671875 14.390625 4.789062 14.539062 4.914062 14.703125 C 4.960938 14.757812 5.007812 14.820312 5.0625 14.875 C 6.164062 14.773438 7.585938 14.03125 8.289062 13.203125 C 8.617188 12.703125 8.554688 12.15625 8.53125 11.585938 C 8.492188 10.804688 8.492188 10.804688 8.664062 10.515625 C 8.929688 10.242188 9.257812 10.0625 9.601562 9.890625 C 10.390625 9.492188 10.765625 8.929688 11.125 8.140625 C 11.1875 8 11.1875 8 11.265625 7.867188 C 11.4375 7.5625 11.453125 7.34375 11.375 7 C 11.367188 6.953125 11.359375 6.90625 11.351562 6.859375 C 11.234375 6.21875 11.054688 5.632812 10.742188 5.070312 C 10.703125 5.007812 10.703125 5.007812 10.671875 4.945312 C 10.625 4.859375 10.578125 4.773438 10.53125 4.6875 C 9.914062 3.578125 9.914062 3.578125 10.039062 2.960938 C 10.101562 2.75 10.171875 2.554688 10.265625 2.351562 C 10.320312 2.25 10.320312 2.25 10.3125 2.125 C 8.710938 2.125 6.523438 4.257812 5.4375 5.3125 Z M 5.4375 5.3125 "/>
        <path style=" stroke:none;fill-rule:nonzero;fill:#ffffff;fill-opacity:1;" d="M 27.6875 5.125 C 27.953125 5.226562 28.101562 5.421875 28.28125 5.625 C 28.3125 5.664062 28.34375 5.703125 28.382812 5.742188 C 29 6.484375 29.523438 7.289062 30 8.125 C 30.03125 8.1875 30.03125 8.1875 30.070312 8.242188 C 31 9.867188 31.601562 11.710938 31.875 13.5625 C 31.882812 13.640625 31.898438 13.710938 31.90625 13.789062 C 32.007812 14.515625 32.023438 15.242188 32.015625 15.976562 C 32.015625 16.070312 32.015625 16.070312 32.015625 16.164062 C 32.015625 17.054688 31.984375 17.929688 31.8125 18.8125 C 31.804688 18.867188 31.789062 18.921875 31.78125 18.984375 C 31.226562 22.0625 29.734375 24.882812 27.5625 27.125 C 27.523438 27.164062 27.484375 27.203125 27.445312 27.242188 C 26.390625 28.335938 25.203125 29.257812 23.875 30 C 23.828125 30.023438 23.789062 30.046875 23.742188 30.078125 C 22.296875 30.890625 20.726562 31.4375 19.101562 31.765625 C 19.054688 31.78125 19.015625 31.789062 18.96875 31.796875 C 18 31.984375 17.023438 32.023438 16.046875 32.023438 C 15.984375 32.023438 15.921875 32.023438 15.859375 32.023438 C 11.367188 32.007812 7.445312 30.140625 4.296875 26.992188 C 3.4375 26.125 3.4375 26.125 3.3125 25.75 C 3.5625 25.5625 3.804688 25.375 4.0625 25.1875 C 4.304688 25.367188 4.492188 25.554688 4.671875 25.796875 C 5.328125 26.609375 6.09375 27.320312 6.9375 27.9375 C 7.007812 27.992188 7.078125 28.046875 7.148438 28.09375 C 8.945312 29.429688 11.023438 30.242188 13.1875 30.75 C 13.195312 30.710938 13.203125 30.671875 13.203125 30.632812 C 13.226562 30.515625 13.25 30.398438 13.273438 30.28125 C 13.296875 30.132812 13.320312 29.984375 13.34375 29.828125 C 13.390625 29.5625 13.4375 29.375 13.5625 29.125 C 13.859375 28.914062 14.179688 28.835938 14.53125 28.742188 C 14.625 28.71875 14.71875 28.6875 14.8125 28.65625 C 15.039062 28.59375 15.273438 28.53125 15.5 28.46875 C 15.679688 28.421875 15.851562 28.375 16.03125 28.328125 C 16.78125 28.125 16.78125 28.125 17.125 28.125 C 17.132812 28.09375 17.140625 28.054688 17.148438 28.023438 C 17.234375 27.625 17.34375 27.234375 17.46875 26.851562 C 17.570312 26.523438 17.648438 26.203125 17.710938 25.875 C 17.953125 24.664062 17.953125 24.664062 18.304688 24.40625 C 18.578125 24.257812 18.875 24.125 19.1875 24.125 C 19.203125 24.085938 19.210938 24.046875 19.226562 24 C 19.320312 23.789062 19.4375 23.617188 19.570312 23.429688 C 20.226562 22.523438 20.226562 22.523438 20.453125 21.453125 C 20.390625 21.179688 20.265625 20.929688 20.140625 20.679688 C 20.0625 20.5 20.015625 20.335938 19.96875 20.140625 C 19.828125 19.59375 19.4375 19.234375 19.0625 18.828125 C 18.953125 18.703125 18.882812 18.585938 18.8125 18.4375 C 18.84375 18.414062 18.867188 18.382812 18.898438 18.359375 C 19.179688 18.078125 19.46875 17.796875 19.75 17.515625 C 19.859375 17.414062 19.96875 17.3125 20.070312 17.203125 C 20.945312 16.359375 21.507812 15.742188 21.53125 14.492188 C 21.53125 14.4375 21.53125 14.390625 21.53125 14.34375 C 21.53125 14.296875 21.53125 14.25 21.53125 14.195312 C 21.539062 13.609375 21.539062 13.609375 21.328125 13.078125 C 21.0625 12.828125 20.765625 12.679688 20.421875 12.5625 C 20.3125 12.5 20.3125 12.5 20.257812 12.382812 C 20.242188 12.164062 20.367188 12.054688 20.5 11.890625 C 20.546875 11.828125 20.59375 11.765625 20.640625 11.703125 C 20.671875 11.65625 20.710938 11.609375 20.75 11.5625 C 20.796875 11.59375 20.796875 11.59375 20.851562 11.617188 C 20.898438 11.648438 20.945312 11.671875 20.992188 11.695312 C 21.046875 11.726562 21.09375 11.757812 21.148438 11.789062 C 21.25 11.84375 21.359375 11.898438 21.46875 11.953125 C 22.382812 12.414062 22.382812 12.414062 22.5625 12.851562 C 22.648438 13.234375 22.640625 13.609375 22.617188 14 C 22.609375 14.203125 22.609375 14.40625 22.609375 14.609375 C 22.585938 15.773438 22.25 16.5625 21.414062 17.367188 C 21.304688 17.46875 21.195312 17.570312 21.085938 17.671875 C 20.96875 17.78125 20.859375 17.890625 20.75 17.992188 C 20.679688 18.0625 20.609375 18.125 20.539062 18.1875 C 20.4375 18.28125 20.4375 18.28125 20.3125 18.4375 C 20.320312 18.648438 20.421875 18.757812 20.546875 18.921875 C 20.890625 19.351562 21.03125 19.835938 21.1875 20.359375 C 21.242188 20.546875 21.3125 20.710938 21.390625 20.882812 C 21.65625 21.546875 21.453125 22.179688 21.1875 22.8125 C 20.742188 23.796875 20.21875 24.867188 19.179688 25.257812 C 18.921875 25.421875 18.882812 25.601562 18.8125 25.882812 C 18.78125 26.03125 18.75 26.1875 18.71875 26.335938 C 18.65625 26.671875 18.554688 27 18.453125 27.320312 C 18.375 27.59375 18.304688 27.859375 18.242188 28.132812 C 18.179688 28.421875 18.117188 28.703125 17.9375 28.9375 C 17.632812 29.109375 17.335938 29.164062 16.992188 29.21875 C 16.640625 29.28125 16.304688 29.382812 15.96875 29.476562 C 15.828125 29.515625 15.695312 29.546875 15.554688 29.585938 C 15.28125 29.65625 15.007812 29.742188 14.742188 29.84375 C 14.625 29.875 14.625 29.875 14.4375 29.875 C 14.351562 30.226562 14.273438 30.578125 14.1875 30.9375 C 14.59375 30.945312 15.007812 30.945312 15.414062 30.945312 C 15.554688 30.945312 15.695312 30.953125 15.835938 30.953125 C 17.070312 30.96875 18.273438 30.882812 19.476562 30.578125 C 19.539062 30.5625 19.601562 30.546875 19.671875 30.53125 C 22.257812 29.867188 24.5 28.585938 26.4375 26.75 C 26.484375 26.703125 26.484375 26.703125 26.539062 26.65625 C 27.054688 26.15625 27.507812 25.640625 27.9375 25.0625 C 27.960938 25.023438 27.992188 24.992188 28.015625 24.953125 C 29.40625 23.09375 30.320312 20.960938 30.75 18.6875 C 30.757812 18.632812 30.773438 18.585938 30.78125 18.53125 C 31.117188 16.75 31.0625 14.765625 30.6875 13 C 30.671875 12.914062 30.671875 12.914062 30.648438 12.828125 C 30.078125 10.21875 28.820312 7.875 27.0625 5.875 C 27.15625 5.65625 27.28125 5.523438 27.445312 5.359375 C 27.492188 5.3125 27.539062 5.273438 27.585938 5.226562 C 27.617188 5.195312 27.648438 5.15625 27.6875 5.125 Z M 27.6875 5.125 "/>
        <path style=" stroke:none;fill-rule:nonzero;fill:#ffffff;fill-opacity:1;" d="M 27.53125 14.953125 C 28.078125 15.375 28.367188 15.9375 28.546875 16.609375 C 28.617188 17.296875 28.140625 17.929688 27.8125 18.5 C 27.773438 18.5625 27.742188 18.625 27.703125 18.6875 C 27.453125 19.132812 27.195312 19.5625 26.9375 20 C 26.882812 20.09375 26.828125 20.195312 26.765625 20.289062 C 26.546875 20.664062 26.328125 21.03125 26.0625 21.375 C 26.023438 21.375 25.976562 21.375 25.9375 21.375 C 25.859375 21.257812 25.78125 21.140625 25.710938 21.023438 C 25.679688 20.96875 25.679688 20.96875 25.640625 20.90625 C 25.570312 20.796875 25.507812 20.679688 25.4375 20.5625 C 25.398438 20.492188 25.359375 20.429688 25.3125 20.359375 C 25.195312 20.148438 25.078125 19.9375 24.953125 19.734375 C 24.9375 19.695312 24.914062 19.65625 24.890625 19.617188 C 24.460938 18.859375 24.03125 18.085938 23.625 17.3125 C 23.601562 17.265625 23.578125 17.226562 23.554688 17.179688 C 23.414062 16.875 23.53125 16.484375 23.617188 16.179688 C 23.882812 15.484375 24.320312 15 25 14.6875 C 25.867188 14.359375 26.75 14.4375 27.53125 14.953125 Z M 24.8125 16.0625 C 24.617188 16.359375 24.515625 16.640625 24.5 17 C 24.5625 17.195312 24.65625 17.359375 24.75 17.53125 C 24.78125 17.585938 24.8125 17.632812 24.835938 17.6875 C 25.195312 18.328125 25.59375 18.945312 26 19.5625 C 26.171875 19.398438 26.304688 19.25 26.421875 19.046875 C 26.453125 19 26.484375 18.945312 26.515625 18.890625 C 26.546875 18.835938 26.578125 18.789062 26.609375 18.734375 C 26.640625 18.671875 26.671875 18.617188 26.710938 18.5625 C 26.804688 18.398438 26.90625 18.226562 27 18.0625 C 27.03125 18.015625 27.054688 17.96875 27.085938 17.921875 C 27.15625 17.796875 27.226562 17.671875 27.296875 17.546875 C 27.335938 17.476562 27.375 17.40625 27.414062 17.335938 C 27.53125 17.039062 27.539062 16.796875 27.46875 16.484375 C 27.25 16.0625 26.921875 15.742188 26.5 15.53125 C 25.835938 15.421875 25.289062 15.570312 24.8125 16.0625 Z M 24.8125 16.0625 "/>
        <path style=" stroke:none;fill-rule:nonzero;fill:#ffffff;fill-opacity:1;" d="M 7.4375 20 C 8.78125 20 10.117188 20 11.5 20 C 11.5 20.328125 11.5 20.65625 11.5 21 C 10.15625 21 8.820312 21 7.4375 21 C 7.4375 20.671875 7.4375 20.34375 7.4375 20 Z M 7.4375 20 "/>
        <path style=" stroke:none;fill-rule:nonzero;fill:#ffffff;fill-opacity:1;" d="M 14.4375 15.5 C 15.632812 15.5 16.828125 15.5 18.0625 15.5 C 18.0625 15.828125 18.0625 16.15625 18.0625 16.5 C 16.867188 16.5 15.671875 16.5 14.4375 16.5 C 14.4375 16.171875 14.4375 15.84375 14.4375 15.5 Z M 14.4375 15.5 "/>
        <path style=" stroke:none;fill-rule:nonzero;fill:#ffffff;fill-opacity:1;" d="M 11.4375 24.5 C 12.445312 24.5 13.460938 24.5 14.5 24.5 C 14.5 24.828125 14.5 25.15625 14.5 25.5 C 13.492188 25.5 12.476562 25.5 11.4375 25.5 C 11.4375 25.171875 11.4375 24.84375 11.4375 24.5 Z M 11.4375 24.5 "/>
        <path style=" stroke:none;fill-rule:nonzero;fill:#ffffff;fill-opacity:1;" d="M 13.9375 8 C 14.78125 8 15.625 8 16.5 8 C 16.5 8.328125 16.5 8.65625 16.5 9 C 15.65625 9 14.8125 9 13.9375 9 C 13.9375 8.671875 13.9375 8.34375 13.9375 8 Z M 13.9375 8 "/>
        <path style=" stroke:none;fill-rule:nonzero;fill:#ffffff;fill-opacity:1;" d="M 8.4375 23.5 C 8.789062 23.5 9.140625 23.5 9.5 23.5 C 9.5 23.828125 9.5 24.15625 9.5 24.5 C 9.171875 24.5 8.84375 24.5 8.5 24.5 C 8.5 24.828125 8.5 25.15625 8.5 25.5 C 8.148438 25.5 7.796875 25.5 7.4375 25.5 C 7.4375 25.171875 7.4375 24.84375 7.4375 24.5 C 7.765625 24.5 8.09375 24.5 8.4375 24.5 C 8.4375 24.171875 8.4375 23.84375 8.4375 23.5 Z M 8.4375 23.5 "/>
        <path style=" stroke:none;fill-rule:nonzero;fill:#ffffff;fill-opacity:1;" d="M 13.4375 19 C 13.789062 19 14.140625 19 14.5 19 C 14.5 19.328125 14.5 19.65625 14.5 20 C 14.171875 20 13.84375 20 13.5 20 C 13.5 20.328125 13.5 20.65625 13.5 21 C 13.148438 21 12.796875 21 12.4375 21 C 12.4375 20.671875 12.4375 20.34375 12.4375 20 C 12.765625 20 13.09375 20 13.4375 20 C 13.4375 19.671875 13.4375 19.34375 13.4375 19 Z M 13.4375 19 "/>
        <path style=" stroke:none;fill-rule:nonzero;fill:#ffffff;fill-opacity:1;" d="M 12.9375 11.5 C 13.289062 11.5 13.640625 11.5 14 11.5 C 14 11.828125 14 12.15625 14 12.5 C 14.328125 12.5 14.65625 12.5 15 12.5 C 15 12.828125 15 13.15625 15 13.5 C 14.648438 13.5 14.296875 13.5 13.9375 13.5 C 13.9375 13.171875 13.9375 12.84375 13.9375 12.5 C 13.609375 12.5 13.28125 12.5 12.9375 12.5 C 12.9375 12.171875 12.9375 11.84375 12.9375 11.5 Z M 12.9375 11.5 "/>
        <path style=" stroke:none;fill-rule:nonzero;fill:#ffffff;fill-opacity:1;" d="M 25.5 16.5 C 25.851562 16.5 26.203125 16.5 26.5625 16.5 C 26.5625 16.828125 26.5625 17.15625 26.5625 17.5 C 26.210938 17.5 25.859375 17.5 25.5 17.5 C 25.5 17.171875 25.5 16.84375 25.5 16.5 Z M 25.5 16.5 "/>
        <path style=" stroke:none;fill-rule:nonzero;fill:#ffffff;fill-opacity:1;" d="M 16 4.5 C 16.351562 4.5 16.703125 4.5 17.0625 4.5 C 17.0625 4.828125 17.0625 5.15625 17.0625 5.5 C 16.710938 5.5 16.359375 5.5 16 5.5 C 16 5.171875 16 4.84375 16 4.5 Z M 16 4.5 "/>
        <path style=" stroke:none;fill-rule:nonzero;fill:#ffffff;fill-opacity:1;" d="M 14.4375 2.5 C 14.789062 2.5 15.140625 2.5 15.5 2.5 C 15.5 2.828125 15.5 3.15625 15.5 3.5 C 15.148438 3.5 14.796875 3.5 14.4375 3.5 C 14.4375 3.171875 14.4375 2.84375 14.4375 2.5 Z M 14.4375 2.5 "/>
    </g>
</svg>