<svg xmlns="http://www.w3.org/2000/svg" xmlns:xlink="http://www.w3.org/1999/xlink" width="32px" height="32px" viewBox="0 0 32 32" version="1.1">
    <g id="surface1">
        <path style=" stroke:none;fill-rule:nonzero;fill:#ffffff;fill-opacity:1;" d="M 15.5 0 C 15.828125 0 16.15625 0 16.5 0 C 16.5 2.640625 16.5 5.28125 16.5 8 C 16.875 8.023438 17.242188 8.039062 17.625 8.0625 C 17.851562 8.09375 18.0625 8.125 18.28125 8.171875 C 18.34375 8.179688 18.398438 8.195312 18.453125 8.203125 C 20.117188 8.554688 21.695312 9.234375 23.0625 10.25 C 23.09375 10.273438 23.132812 10.304688 23.171875 10.328125 C 23.539062 10.601562 23.90625 10.882812 24.226562 11.21875 C 24.320312 11.320312 24.320312 11.320312 24.46875 11.4375 C 24.695312 11.617188 24.875 11.835938 25.0625 12.0625 C 25.109375 12.117188 25.148438 12.164062 25.195312 12.21875 C 26.570312 13.867188 27.507812 15.820312 27.875 17.9375 C 27.882812 18 27.898438 18.0625 27.90625 18.125 C 28.007812 18.742188 28.023438 19.34375 28.023438 19.960938 C 28.023438 20.039062 28.023438 20.039062 28.023438 20.117188 C 28.015625 23.476562 26.601562 26.453125 24.25 28.8125 C 22.859375 30.1875 21.007812 31.109375 19.140625 31.640625 C 19.085938 31.648438 19.03125 31.664062 18.976562 31.679688 C 18 31.945312 17.023438 32.03125 16.015625 32.023438 C 15.960938 32.023438 15.90625 32.023438 15.851562 32.023438 C 14.984375 32.023438 14.15625 31.96875 13.3125 31.75 C 13.257812 31.734375 13.195312 31.71875 13.140625 31.703125 C 10.265625 30.96875 7.632812 29.265625 6 26.75 C 5.96875 26.703125 5.9375 26.65625 5.90625 26.609375 C 4.640625 24.632812 3.96875 22.390625 3.976562 20.039062 C 3.976562 19.984375 3.976562 19.9375 3.976562 19.882812 C 3.984375 17.390625 4.742188 14.9375 6.25 12.9375 C 6.289062 12.882812 6.289062 12.882812 6.328125 12.835938 C 6.601562 12.460938 6.882812 12.09375 7.21875 11.773438 C 7.320312 11.679688 7.320312 11.679688 7.4375 11.53125 C 7.617188 11.304688 7.835938 11.125 8.0625 10.9375 C 8.117188 10.890625 8.171875 10.84375 8.226562 10.796875 C 9.835938 9.460938 11.648438 8.625 13.6875 8.1875 C 13.78125 8.164062 13.78125 8.164062 13.882812 8.140625 C 14.421875 8.03125 14.9375 8.03125 15.5 8 C 15.5 5.359375 15.5 2.71875 15.5 0 Z M 15.6875 8.976562 C 15.1875 8.953125 14.90625 9.046875 14.53125 9.382812 C 14.273438 9.625 14.03125 9.882812 13.789062 10.140625 C 13.679688 10.25 13.570312 10.359375 13.46875 10.46875 C 13.1875 10.75 12.90625 11.039062 12.625 11.328125 C 12.179688 11.796875 11.726562 12.257812 11.28125 12.71875 C 11.125 12.875 10.96875 13.039062 10.8125 13.203125 C 10.710938 13.304688 10.617188 13.398438 10.523438 13.5 C 10.476562 13.546875 10.4375 13.585938 10.390625 13.632812 C 10.351562 13.679688 10.3125 13.71875 10.273438 13.757812 C 10.234375 13.796875 10.203125 13.835938 10.164062 13.867188 C 10.0625 13.9375 10.0625 13.9375 9.929688 13.921875 C 9.765625 13.859375 9.671875 13.75 9.546875 13.625 C 9.484375 13.554688 9.484375 13.554688 9.414062 13.484375 C 9.382812 13.445312 9.34375 13.414062 9.3125 13.375 C 9.414062 13.125 9.59375 12.953125 9.78125 12.765625 C 9.820312 12.726562 9.851562 12.695312 9.890625 12.65625 C 10.007812 12.539062 10.125 12.421875 10.242188 12.304688 C 10.320312 12.226562 10.40625 12.148438 10.484375 12.0625 C 10.695312 11.851562 10.914062 11.640625 11.125 11.429688 C 11.34375 11.210938 11.5625 10.992188 11.78125 10.773438 C 12.210938 10.351562 12.632812 9.921875 13.0625 9.5 C 12.945312 9.421875 12.945312 9.421875 12.828125 9.460938 C 12.78125 9.476562 12.734375 9.492188 12.6875 9.507812 C 12.609375 9.539062 12.609375 9.539062 12.53125 9.5625 C 12.476562 9.578125 12.421875 9.601562 12.367188 9.625 C 12.3125 9.640625 12.257812 9.664062 12.195312 9.679688 C 10.867188 10.164062 9.6875 10.914062 8.640625 11.875 C 8.53125 11.96875 8.421875 12.070312 8.296875 12.15625 C 8.070312 12.359375 7.882812 12.578125 7.6875 12.8125 C 7.640625 12.867188 7.601562 12.914062 7.554688 12.96875 C 5.765625 15.085938 4.820312 17.9375 5.015625 20.703125 C 5.03125 20.914062 5.054688 21.117188 5.078125 21.328125 C 5.085938 21.390625 5.09375 21.460938 5.101562 21.53125 C 5.15625 21.953125 5.242188 22.34375 5.375 22.75 C 5.726562 22.460938 6.046875 22.148438 6.359375 21.828125 C 6.414062 21.773438 6.46875 21.71875 6.523438 21.664062 C 6.640625 21.546875 6.757812 21.429688 6.867188 21.3125 C 7.054688 21.132812 7.234375 20.945312 7.414062 20.765625 C 7.476562 20.703125 7.539062 20.640625 7.601562 20.578125 C 7.632812 20.546875 7.664062 20.515625 7.695312 20.476562 C 8.125 20.054688 8.546875 19.625 8.96875 19.203125 C 9.25 18.914062 9.539062 18.625 9.828125 18.335938 C 9.976562 18.179688 10.132812 18.03125 10.28125 17.875 C 10.445312 17.703125 10.617188 17.539062 10.789062 17.367188 C 10.835938 17.3125 10.882812 17.265625 10.9375 17.210938 C 10.984375 17.164062 11.03125 17.117188 11.078125 17.070312 C 11.117188 17.03125 11.15625 16.992188 11.195312 16.953125 C 11.3125 16.875 11.3125 16.875 11.445312 16.882812 C 11.609375 16.960938 11.703125 17.0625 11.828125 17.1875 C 11.875 17.234375 11.914062 17.28125 11.960938 17.328125 C 11.992188 17.367188 12.03125 17.398438 12.0625 17.4375 C 11.96875 17.648438 11.851562 17.789062 11.6875 17.953125 C 11.609375 18.03125 11.609375 18.03125 11.53125 18.109375 C 11.46875 18.171875 11.414062 18.226562 11.351562 18.28125 C 11.296875 18.34375 11.234375 18.40625 11.171875 18.46875 C 11.007812 18.632812 10.84375 18.796875 10.671875 18.960938 C 10.5 19.132812 10.328125 19.304688 10.15625 19.484375 C 9.828125 19.804688 9.5 20.132812 9.171875 20.460938 C 8.796875 20.835938 8.429688 21.203125 8.054688 21.578125 C 7.289062 22.34375 6.515625 23.109375 5.75 23.875 C 5.78125 23.960938 5.804688 24.054688 5.835938 24.140625 C 5.851562 24.1875 5.867188 24.242188 5.882812 24.289062 C 5.960938 24.515625 6.070312 24.726562 6.171875 24.929688 C 6.195312 24.976562 6.21875 25.023438 6.242188 25.0625 C 7.210938 26.9375 8.65625 28.398438 10.4375 29.5 C 10.484375 29.53125 10.539062 29.5625 10.585938 29.59375 C 10.640625 29.625 10.6875 29.65625 10.734375 29.6875 C 10.78125 29.710938 10.828125 29.742188 10.875 29.765625 C 11 29.828125 11 29.828125 11.117188 29.765625 C 11.257812 29.679688 11.359375 29.59375 11.476562 29.476562 C 11.515625 29.4375 11.5625 29.390625 11.609375 29.34375 C 11.65625 29.296875 11.703125 29.25 11.75 29.203125 C 11.804688 29.148438 11.851562 29.101562 11.90625 29.046875 C 12.046875 28.90625 12.1875 28.765625 12.328125 28.617188 C 12.476562 28.46875 12.632812 28.3125 12.78125 28.164062 C 13.046875 27.898438 13.3125 27.632812 13.570312 27.367188 C 13.984375 26.953125 14.40625 26.53125 14.820312 26.117188 C 14.960938 25.976562 15.101562 25.828125 15.25 25.6875 C 15.28125 25.648438 15.320312 25.617188 15.351562 25.578125 C 15.757812 25.171875 16.164062 24.765625 16.570312 24.359375 C 16.609375 24.320312 16.640625 24.289062 16.679688 24.25 C 17.28125 23.648438 17.882812 23.039062 18.476562 22.4375 C 19.09375 21.820312 19.710938 21.203125 20.328125 20.585938 C 20.710938 20.203125 21.085938 19.820312 21.46875 19.4375 C 21.726562 19.179688 21.984375 18.914062 22.25 18.65625 C 22.398438 18.507812 22.546875 18.351562 22.695312 18.203125 C 22.859375 18.039062 23.023438 17.875 23.1875 17.710938 C 23.234375 17.664062 23.28125 17.617188 23.328125 17.570312 C 23.375 17.523438 23.421875 17.484375 23.460938 17.4375 C 23.5 17.398438 23.539062 17.359375 23.578125 17.320312 C 23.6875 17.25 23.6875 17.25 23.820312 17.265625 C 23.984375 17.328125 24.078125 17.4375 24.203125 17.5625 C 24.265625 17.632812 24.265625 17.632812 24.335938 17.703125 C 24.367188 17.742188 24.40625 17.773438 24.4375 17.8125 C 24.351562 18.007812 24.257812 18.132812 24.109375 18.28125 C 24.0625 18.328125 24.023438 18.367188 23.976562 18.414062 C 23.929688 18.460938 23.882812 18.507812 23.835938 18.554688 C 23.78125 18.601562 23.734375 18.65625 23.6875 18.703125 C 23.515625 18.875 23.351562 19.039062 23.179688 19.210938 C 23.0625 19.328125 22.9375 19.453125 22.820312 19.570312 C 22.5625 19.828125 22.304688 20.085938 22.039062 20.34375 C 21.664062 20.71875 21.296875 21.09375 20.921875 21.46875 C 20.3125 22.078125 19.703125 22.679688 19.09375 23.289062 C 18.507812 23.875 17.914062 24.46875 17.328125 25.054688 C 17.289062 25.09375 17.25 25.132812 17.21875 25.164062 C 17.03125 25.351562 16.851562 25.53125 16.664062 25.710938 C 15.15625 27.226562 13.640625 28.734375 12.125 30.25 C 13.695312 31.296875 16.40625 31.117188 18.15625 30.796875 C 19.539062 30.492188 20.890625 30 22.0625 29.1875 C 22.101562 29.164062 22.140625 29.132812 22.179688 29.109375 C 23.539062 28.148438 24.648438 26.992188 25.5 25.5625 C 25.53125 25.507812 25.53125 25.507812 25.570312 25.445312 C 26.007812 24.703125 26.460938 23.804688 26.5625 22.9375 C 26.1875 23.25 25.84375 23.585938 25.492188 23.9375 C 25.4375 24 25.375 24.054688 25.3125 24.117188 C 25.15625 24.273438 25.007812 24.429688 24.851562 24.585938 C 24.6875 24.742188 24.53125 24.90625 24.375 25.0625 C 24.0625 25.375 23.75 25.6875 23.4375 26 C 23.367188 25.9375 23.296875 25.882812 23.226562 25.820312 C 23.1875 25.789062 23.148438 25.757812 23.109375 25.71875 C 22.984375 25.609375 22.867188 25.492188 22.75 25.375 C 22.851562 25.109375 23.054688 24.929688 23.257812 24.734375 C 23.296875 24.695312 23.34375 24.65625 23.382812 24.617188 C 23.46875 24.539062 23.554688 24.453125 23.640625 24.367188 C 23.867188 24.148438 24.101562 23.921875 24.328125 23.695312 C 24.617188 23.40625 24.914062 23.125 25.203125 22.84375 C 25.445312 22.609375 25.679688 22.382812 25.914062 22.148438 C 26 22.0625 26.09375 21.976562 26.179688 21.882812 C 26.765625 21.359375 26.765625 21.359375 27.023438 20.648438 C 27.023438 20.539062 27.015625 20.421875 27 20.3125 C 27 20.1875 27 20.070312 27 19.945312 C 26.96875 18.710938 26.789062 17.539062 26.375 16.375 C 26.351562 16.304688 26.328125 16.242188 26.304688 16.171875 C 25.820312 14.851562 25.0625 13.507812 24.039062 12.53125 C 23.898438 12.398438 23.773438 12.242188 23.648438 12.085938 C 23.554688 11.984375 23.554688 11.984375 23.375 11.9375 C 21.1875 14.125 19 16.3125 16.75 18.5625 C 16.539062 18.460938 16.421875 18.382812 16.265625 18.226562 C 16.21875 18.1875 16.179688 18.15625 16.140625 18.117188 C 16.0625 18 16.0625 18 16.070312 17.882812 C 16.140625 17.703125 16.242188 17.609375 16.375 17.476562 C 16.429688 17.421875 16.484375 17.367188 16.539062 17.3125 C 16.601562 17.25 16.664062 17.1875 16.726562 17.132812 C 16.789062 17.070312 16.851562 17 16.914062 16.9375 C 17.085938 16.765625 17.257812 16.59375 17.429688 16.421875 C 17.609375 16.242188 17.789062 16.0625 17.96875 15.882812 C 18.3125 15.546875 18.65625 15.203125 19 14.867188 C 19.382812 14.476562 19.773438 14.09375 20.164062 13.703125 C 20.960938 12.90625 21.765625 12.109375 22.5625 11.3125 C 22.375 10.742188 21.164062 10.296875 20.648438 10.039062 C 19.03125 9.242188 17.429688 9.195312 15.6875 8.976562 Z M 15.6875 8.976562 "/>
        <path style=" stroke:none;fill-rule:nonzero;fill:#ffffff;fill-opacity:1;" d="M 17 0.5 C 17.492188 0.492188 17.992188 0.484375 18.484375 0.484375 C 18.710938 0.484375 18.945312 0.476562 19.171875 0.476562 C 19.390625 0.476562 19.617188 0.46875 19.835938 0.46875 C 19.960938 0.46875 20.085938 0.46875 20.210938 0.460938 C 20.75 0.460938 21.1875 0.539062 21.601562 0.898438 C 21.898438 1.234375 22.015625 1.632812 22.09375 2.0625 C 22.125 2.203125 22.125 2.203125 22.25 2.375 C 22.460938 2.445312 22.625 2.445312 22.851562 2.453125 C 22.890625 2.453125 22.929688 2.453125 22.976562 2.453125 C 23.109375 2.453125 23.25 2.453125 23.382812 2.460938 C 23.484375 2.460938 23.578125 2.460938 23.671875 2.460938 C 23.921875 2.460938 24.171875 2.46875 24.421875 2.46875 C 24.671875 2.476562 24.929688 2.476562 25.1875 2.484375 C 25.6875 2.484375 26.1875 2.492188 26.6875 2.5 C 26.625 2.804688 26.5625 3.101562 26.453125 3.390625 C 26.429688 3.445312 26.414062 3.5 26.390625 3.554688 C 26.351562 3.671875 26.3125 3.78125 26.265625 3.898438 C 26.046875 4.523438 26.226562 4.96875 26.4375 5.578125 C 26.484375 5.710938 26.53125 5.84375 26.578125 5.984375 C 26.609375 6.070312 26.609375 6.070312 26.640625 6.164062 C 26.6875 6.3125 26.6875 6.3125 26.6875 6.5 C 26.101562 6.507812 25.515625 6.507812 24.921875 6.507812 C 24.65625 6.507812 24.382812 6.515625 24.109375 6.515625 C 23.84375 6.515625 23.578125 6.515625 23.320312 6.515625 C 23.21875 6.515625 23.117188 6.515625 23.015625 6.523438 C 22.875 6.523438 22.734375 6.523438 22.59375 6.523438 C 22.515625 6.523438 22.429688 6.523438 22.351562 6.523438 C 21.90625 6.476562 21.546875 6.273438 21.25 5.9375 C 21.046875 5.609375 20.960938 5.257812 20.90625 4.882812 C 20.882812 4.734375 20.882812 4.734375 20.75 4.625 C 20.554688 4.554688 20.359375 4.554688 20.148438 4.546875 C 20.078125 4.546875 20.007812 4.546875 19.9375 4.546875 C 19.859375 4.546875 19.789062 4.546875 19.710938 4.539062 C 19.59375 4.539062 19.59375 4.539062 19.476562 4.539062 C 19.273438 4.539062 19.0625 4.53125 18.859375 4.53125 C 18.648438 4.523438 18.445312 4.523438 18.234375 4.515625 C 17.820312 4.515625 17.414062 4.507812 17 4.5 C 17 4.171875 17 3.84375 17 3.5 C 17.5 3.5 18.007812 3.5 18.507812 3.5 C 18.742188 3.5 18.976562 3.492188 19.210938 3.492188 C 19.4375 3.492188 19.664062 3.492188 19.882812 3.492188 C 19.96875 3.492188 20.054688 3.492188 20.140625 3.492188 C 20.265625 3.492188 20.382812 3.492188 20.507812 3.492188 C 20.570312 3.492188 20.640625 3.492188 20.710938 3.492188 C 20.875 3.5 20.875 3.5 21 3.5625 C 20.992188 3.296875 20.984375 3.03125 20.984375 2.765625 C 20.976562 2.65625 20.976562 2.65625 20.976562 2.539062 C 20.976562 2.46875 20.96875 2.398438 20.96875 2.320312 C 20.96875 2.257812 20.96875 2.1875 20.960938 2.125 C 20.9375 1.914062 20.882812 1.789062 20.75 1.625 C 20.554688 1.554688 20.359375 1.554688 20.148438 1.546875 C 20.046875 1.546875 20.046875 1.546875 19.9375 1.546875 C 19.828125 1.546875 19.828125 1.546875 19.710938 1.539062 C 19.632812 1.539062 19.554688 1.539062 19.476562 1.539062 C 19.273438 1.539062 19.0625 1.53125 18.859375 1.53125 C 18.648438 1.523438 18.445312 1.523438 18.234375 1.515625 C 17.820312 1.515625 17.414062 1.507812 17 1.5 C 17 1.171875 17 0.84375 17 0.5 Z M 22 3.4375 C 21.90625 4.8125 21.90625 4.8125 22.125 5.3125 C 22.40625 5.5625 22.726562 5.523438 23.085938 5.515625 C 23.148438 5.515625 23.210938 5.515625 23.273438 5.515625 C 23.46875 5.515625 23.664062 5.515625 23.859375 5.515625 C 24 5.507812 24.132812 5.507812 24.265625 5.507812 C 24.59375 5.507812 24.921875 5.507812 25.25 5.5 C 25.234375 5.414062 25.210938 5.320312 25.195312 5.234375 C 25.179688 5.1875 25.171875 5.132812 25.164062 5.085938 C 25.125 4.953125 25.085938 4.828125 25.039062 4.703125 C 24.960938 4.390625 25.078125 4.140625 25.1875 3.851562 C 25.257812 3.6875 25.257812 3.6875 25.25 3.5 C 24.179688 3.476562 23.101562 3.460938 22 3.4375 Z M 22 3.4375 "/>
        <path style=" stroke:none;fill-rule:nonzero;fill:#ffffff;fill-opacity:1;" d="M 15.25 18.5625 C 15.453125 18.664062 15.601562 18.765625 15.765625 18.929688 C 15.8125 18.96875 15.859375 19.015625 15.90625 19.054688 C 16 19.1875 16 19.1875 16 19.296875 C 15.90625 19.507812 15.75 19.648438 15.59375 19.8125 C 15.539062 19.867188 15.539062 19.867188 15.484375 19.921875 C 15.359375 20.046875 15.242188 20.164062 15.117188 20.28125 C 15.039062 20.367188 14.953125 20.453125 14.867188 20.539062 C 14.695312 20.710938 14.523438 20.890625 14.34375 21.0625 C 14.117188 21.289062 13.898438 21.515625 13.671875 21.742188 C 13.5 21.914062 13.328125 22.085938 13.15625 22.257812 C 13.070312 22.34375 12.992188 22.421875 12.90625 22.507812 C 12.789062 22.625 12.671875 22.742188 12.5625 22.851562 C 12.507812 22.90625 12.507812 22.90625 12.453125 22.960938 C 12.359375 23.054688 12.359375 23.054688 12.1875 23.1875 C 11.992188 23.1875 11.9375 23.125 11.789062 22.992188 C 11.742188 22.945312 11.695312 22.890625 11.640625 22.84375 C 11.59375 22.789062 11.539062 22.734375 11.492188 22.679688 C 11.453125 22.640625 11.414062 22.601562 11.375 22.5625 C 11.476562 22.304688 11.664062 22.132812 11.859375 21.9375 C 11.914062 21.882812 11.914062 21.882812 11.96875 21.828125 C 12.09375 21.710938 12.210938 21.585938 12.335938 21.46875 C 12.414062 21.382812 12.5 21.296875 12.585938 21.21875 C 12.804688 21 13.023438 20.773438 13.25 20.554688 C 13.46875 20.335938 13.695312 20.109375 13.921875 19.882812 C 14.367188 19.445312 14.804688 19 15.25 18.5625 Z M 15.25 18.5625 "/>
        <path style=" stroke:none;fill-rule:nonzero;fill:#ffffff;fill-opacity:1;" d="M 21.9375 26 C 22.164062 26.109375 22.3125 26.234375 22.484375 26.414062 C 22.53125 26.46875 22.585938 26.515625 22.632812 26.570312 C 22.671875 26.609375 22.710938 26.648438 22.75 26.6875 C 22.421875 27.085938 22.054688 27.445312 21.6875 27.8125 C 21.476562 27.71875 21.328125 27.601562 21.171875 27.445312 C 21.125 27.40625 21.078125 27.359375 21.03125 27.320312 C 20.9375 27.1875 20.9375 27.1875 20.953125 27.070312 C 21.007812 26.90625 21.085938 26.828125 21.210938 26.710938 C 21.25 26.664062 21.296875 26.625 21.335938 26.585938 C 21.382812 26.539062 21.429688 26.5 21.46875 26.453125 C 21.515625 26.40625 21.5625 26.367188 21.609375 26.320312 C 21.71875 26.210938 21.828125 26.109375 21.9375 26 Z M 21.9375 26 "/>
        <path style=" stroke:none;fill-rule:nonzero;fill:#ffffff;fill-opacity:1;" d="M 12.75 15.375 C 12.976562 15.46875 13.125 15.609375 13.296875 15.789062 C 13.34375 15.84375 13.398438 15.890625 13.445312 15.945312 C 13.484375 15.984375 13.523438 16.023438 13.5625 16.0625 C 13.3125 16.367188 13.054688 16.625 12.75 16.875 C 12.523438 16.648438 12.296875 16.421875 12.0625 16.1875 C 12.179688 15.945312 12.289062 15.828125 12.476562 15.640625 C 12.53125 15.59375 12.578125 15.539062 12.632812 15.492188 C 12.6875 15.429688 12.6875 15.429688 12.75 15.375 Z M 12.75 15.375 "/>
    </g>
</svg>