<svg xmlns="http://www.w3.org/2000/svg" xmlns:xlink="http://www.w3.org/1999/xlink" width="32px" height="32px" viewBox="0 0 32 32" version="1.1">
<g id="surface1">
<path style=" stroke:none;fill-rule:nonzero;fill:#ffffff;fill-opacity:1;" d="M 19.507812 5.394531 C 19.972656 5.816406 20.1875 6.339844 20.269531 6.957031 C 20.292969 7.648438 20.007812 8.234375 19.5625 8.75 C 19.464844 8.835938 19.363281 8.917969 19.261719 9 C 18.921875 9.273438 18.589844 9.554688 18.261719 9.84375 C 18.226562 9.875 18.1875 9.910156 18.148438 9.941406 C 18.113281 9.972656 18.078125 10.003906 18.039062 10.039062 C 17.949219 10.113281 17.855469 10.1875 17.761719 10.257812 C 17.574219 10.417969 17.511719 10.535156 17.484375 10.773438 C 17.476562 11.1875 17.476562 11.1875 17.625 11.5625 C 17.929688 11.757812 18.273438 11.820312 18.625 11.75 C 19.058594 11.511719 19.417969 11.164062 19.78125 10.828125 C 19.992188 10.636719 20.214844 10.457031 20.4375 10.277344 C 20.648438 10.105469 20.855469 9.929688 21.0625 9.75 C 21.375 9.480469 21.691406 9.21875 22.007812 8.960938 C 22.179688 8.816406 22.351562 8.671875 22.519531 8.523438 C 23.253906 7.886719 23.835938 7.453125 24.847656 7.476562 C 25.480469 7.542969 25.996094 7.878906 26.398438 8.359375 C 26.75 8.851562 26.851562 9.433594 26.796875 10.027344 C 26.632812 10.933594 25.929688 11.496094 25.246094 12.042969 C 25.046875 12.199219 24.855469 12.359375 24.664062 12.523438 C 24.628906 12.550781 24.597656 12.582031 24.5625 12.609375 C 24.457031 12.699219 24.355469 12.785156 24.25 12.875 C 23.867188 13.199219 23.488281 13.523438 23.097656 13.839844 C 22.757812 14.117188 22.429688 14.398438 22.097656 14.683594 C 21.882812 14.867188 21.671875 15.050781 21.457031 15.230469 C 21.421875 15.257812 21.390625 15.285156 21.355469 15.316406 C 21.082031 15.546875 20.804688 15.773438 20.527344 15.996094 C 20.070312 16.375 20.070312 16.375 19.851562 16.90625 C 19.832031 17.273438 19.875 17.539062 20.09375 17.839844 C 20.324219 18.082031 20.605469 18.164062 20.933594 18.191406 C 21.414062 18.179688 21.691406 17.902344 22.023438 17.589844 C 22.238281 17.386719 22.46875 17.203125 22.699219 17.015625 C 22.820312 16.921875 22.9375 16.824219 23.054688 16.722656 C 23.71875 16.164062 24.261719 15.949219 25.128906 15.988281 C 25.597656 16.03125 26 16.277344 26.3125 16.625 C 26.632812 17.046875 26.773438 17.453125 26.773438 17.988281 C 26.773438 18.03125 26.773438 18.078125 26.773438 18.121094 C 26.765625 18.488281 26.691406 18.753906 26.5 19.0625 C 26.46875 19.125 26.4375 19.1875 26.402344 19.25 C 26.214844 19.480469 26 19.652344 25.765625 19.835938 C 25.535156 20.019531 25.316406 20.210938 25.09375 20.40625 C 24.769531 20.6875 24.445312 20.960938 24.113281 21.230469 C 23.910156 21.398438 23.707031 21.570312 23.507812 21.742188 C 23.472656 21.773438 23.433594 21.804688 23.394531 21.839844 C 23.359375 21.871094 23.324219 21.902344 23.285156 21.933594 C 22.832031 22.324219 22.375 22.710938 21.910156 23.089844 C 21.605469 23.335938 21.308594 23.589844 21.011719 23.847656 C 20.792969 24.035156 20.570312 24.222656 20.34375 24.40625 C 20.007812 24.679688 19.675781 24.964844 19.347656 25.246094 C 18.894531 25.636719 18.4375 26.023438 17.972656 26.402344 C 17.667969 26.648438 17.371094 26.902344 17.074219 27.160156 C 16.855469 27.347656 16.632812 27.535156 16.40625 27.71875 C 16.144531 27.929688 15.886719 28.148438 15.632812 28.367188 C 15.597656 28.398438 15.558594 28.429688 15.519531 28.464844 C 15.445312 28.527344 15.371094 28.589844 15.296875 28.65625 C 13.046875 30.589844 10.835938 31.9375 7.75 31.75 C 5.566406 31.558594 3.429688 30.527344 2 28.847656 C 0.671875 27.226562 -0.0507812 25.339844 0 23.25 C 0.328125 23.25 0.660156 23.25 1 23.25 C 1.011719 23.339844 1.019531 23.429688 1.03125 23.523438 C 1.230469 25.25 1.703125 26.898438 2.9375 28.179688 C 3.0625 28.3125 3.0625 28.3125 3.183594 28.46875 C 4.15625 29.65625 5.953125 30.414062 7.445312 30.605469 C 9.925781 30.789062 11.871094 30.085938 13.742188 28.480469 C 13.917969 28.328125 14.097656 28.179688 14.277344 28.035156 C 14.617188 27.757812 14.945312 27.476562 15.277344 27.191406 C 15.730469 26.800781 16.1875 26.414062 16.652344 26.035156 C 16.957031 25.789062 17.253906 25.535156 17.550781 25.277344 C 17.769531 25.089844 17.992188 24.902344 18.21875 24.71875 C 18.554688 24.445312 18.886719 24.160156 19.214844 23.878906 C 19.667969 23.488281 20.125 23.101562 20.589844 22.722656 C 20.929688 22.445312 21.257812 22.164062 21.589844 21.878906 C 22.042969 21.488281 22.5 21.101562 22.964844 20.722656 C 23.269531 20.476562 23.566406 20.222656 23.863281 19.964844 C 24.085938 19.773438 24.3125 19.585938 24.542969 19.398438 C 24.78125 19.203125 25.019531 19.003906 25.253906 18.800781 C 25.308594 18.753906 25.367188 18.703125 25.425781 18.652344 C 25.644531 18.410156 25.6875 18.203125 25.6875 17.878906 C 25.636719 17.578125 25.480469 17.382812 25.25 17.1875 C 25.003906 17.058594 24.78125 17.035156 24.507812 17.082031 C 24.230469 17.171875 24.027344 17.375 23.8125 17.5625 C 23.683594 17.671875 23.558594 17.777344 23.429688 17.886719 C 23.394531 17.914062 23.363281 17.945312 23.328125 17.972656 C 23.253906 18.035156 23.183594 18.09375 23.113281 18.15625 C 23.035156 18.21875 22.957031 18.285156 22.882812 18.351562 C 22.085938 19.023438 21.503906 19.339844 20.4375 19.25 C 19.933594 19.167969 19.523438 18.878906 19.199219 18.488281 C 19.101562 18.351562 19.019531 18.210938 18.9375 18.0625 C 18.917969 18.023438 18.894531 17.984375 18.875 17.945312 C 18.644531 17.449219 18.683594 16.832031 18.847656 16.324219 C 19.085938 15.761719 19.460938 15.398438 19.933594 15.027344 C 20.144531 14.859375 20.351562 14.683594 20.554688 14.507812 C 20.628906 14.445312 20.703125 14.378906 20.777344 14.316406 C 20.816406 14.285156 20.851562 14.253906 20.890625 14.21875 C 21.308594 13.863281 21.726562 13.507812 22.152344 13.160156 C 22.492188 12.882812 22.820312 12.601562 23.152344 12.316406 C 23.613281 11.921875 24.074219 11.53125 24.542969 11.148438 C 24.652344 11.058594 24.765625 10.964844 24.875 10.875 C 24.933594 10.828125 24.992188 10.78125 25.050781 10.730469 C 25.4375 10.398438 25.648438 10.179688 25.714844 9.660156 C 25.671875 9.296875 25.542969 9.035156 25.277344 8.785156 C 24.957031 8.578125 24.621094 8.574219 24.25 8.625 C 23.851562 8.796875 23.539062 9.125 23.222656 9.414062 C 23.007812 9.613281 22.78125 9.792969 22.558594 9.976562 C 22.363281 10.136719 22.167969 10.296875 21.976562 10.460938 C 21.941406 10.488281 21.910156 10.519531 21.875 10.546875 C 21.769531 10.636719 21.667969 10.722656 21.5625 10.8125 C 21.121094 11.1875 20.679688 11.5625 20.230469 11.925781 C 20.113281 12.019531 20 12.117188 19.890625 12.214844 C 19.335938 12.691406 18.882812 12.925781 18.140625 12.898438 C 17.617188 12.835938 17.164062 12.648438 16.8125 12.25 C 16.402344 11.703125 16.316406 11.179688 16.375 10.5 C 16.53125 9.785156 17.070312 9.339844 17.621094 8.902344 C 17.839844 8.726562 18.058594 8.546875 18.273438 8.363281 C 18.308594 8.332031 18.347656 8.300781 18.382812 8.269531 C 18.765625 7.945312 19.097656 7.625 19.144531 7.101562 C 19.113281 6.761719 19.011719 6.527344 18.796875 6.265625 C 18.539062 6.054688 18.304688 5.953125 17.972656 5.910156 C 17.507812 5.96875 17.164062 6.234375 16.824219 6.542969 C 16.746094 6.609375 16.671875 6.675781 16.59375 6.746094 C 16.558594 6.777344 16.519531 6.8125 16.480469 6.84375 C 16.335938 6.972656 16.183594 7.097656 16.03125 7.21875 C 15.765625 7.433594 15.507812 7.652344 15.25 7.875 C 14.9375 8.144531 14.621094 8.40625 14.304688 8.664062 C 14.09375 8.835938 13.890625 9.011719 13.6875 9.1875 C 13.429688 9.410156 13.171875 9.628906 12.90625 9.84375 C 12.570312 10.117188 12.238281 10.402344 11.910156 10.683594 C 11.457031 11.074219 11 11.460938 10.535156 11.839844 C 10.195312 12.117188 9.867188 12.398438 9.535156 12.683594 C 9.082031 13.074219 8.625 13.460938 8.160156 13.839844 C 7.855469 14.085938 7.558594 14.339844 7.261719 14.597656 C 7.042969 14.785156 6.820312 14.972656 6.59375 15.15625 C 6.257812 15.429688 5.925781 15.714844 5.597656 15.996094 C 5.382812 16.179688 5.171875 16.363281 4.957031 16.542969 C 4.921875 16.570312 4.890625 16.601562 4.855469 16.628906 C 4.644531 16.808594 4.429688 16.984375 4.214844 17.15625 C 2.46875 18.582031 1.523438 20.1875 1.0625 22.375 C 0.917969 22.367188 0.777344 22.355469 0.632812 22.347656 C 0.554688 22.34375 0.472656 22.335938 0.390625 22.332031 C 0.1875 22.3125 0.1875 22.3125 0.0625 22.25 C 0.0507812 21.925781 0.0859375 21.632812 0.164062 21.316406 C 0.175781 21.269531 0.1875 21.222656 0.199219 21.175781 C 0.703125 19.175781 1.90625 17.550781 3.503906 16.269531 C 3.703125 16.113281 3.894531 15.953125 4.085938 15.789062 C 4.136719 15.746094 4.136719 15.746094 4.1875 15.703125 C 4.292969 15.613281 4.394531 15.527344 4.5 15.4375 C 4.882812 15.113281 5.261719 14.789062 5.652344 14.472656 C 5.992188 14.195312 6.320312 13.914062 6.652344 13.628906 C 7.105469 13.238281 7.5625 12.851562 8.027344 12.472656 C 8.332031 12.226562 8.628906 11.972656 8.925781 11.714844 C 9.144531 11.527344 9.367188 11.339844 9.59375 11.15625 C 9.929688 10.882812 10.261719 10.597656 10.589844 10.316406 C 11.042969 9.925781 11.5 9.539062 11.964844 9.160156 C 12.304688 8.882812 12.632812 8.601562 12.964844 8.316406 C 13.417969 7.925781 13.875 7.539062 14.339844 7.160156 C 14.605469 6.945312 14.867188 6.722656 15.125 6.5 C 15.445312 6.226562 15.765625 5.953125 16.09375 5.6875 C 16.195312 5.605469 16.296875 5.523438 16.394531 5.4375 C 17.347656 4.652344 18.539062 4.617188 19.507812 5.394531 Z M 19.507812 5.394531 "/>
<path style=" stroke:none;fill-rule:nonzero;fill:#ffffff;fill-opacity:1;" d="M 13.6875 14.875 C 13.800781 14.875 13.800781 14.875 13.9375 14.9375 C 14.085938 15.09375 14.085938 15.09375 14.234375 15.285156 C 14.308594 15.378906 14.308594 15.378906 14.386719 15.476562 C 14.421875 15.527344 14.460938 15.574219 14.5 15.625 C 14.269531 15.863281 14.027344 16.082031 13.773438 16.296875 C 13.734375 16.328125 13.695312 16.363281 13.65625 16.394531 C 13.277344 16.71875 12.890625 17.039062 12.5 17.351562 C 12.414062 17.417969 12.332031 17.488281 12.25 17.5625 C 12.25 17.605469 12.25 17.644531 12.25 17.6875 C 12.347656 17.765625 12.449219 17.835938 12.554688 17.90625 C 13.179688 18.351562 13.632812 18.878906 14.0625 19.507812 C 14.179688 19.683594 14.179688 19.683594 14.3125 19.8125 C 14.367188 19.765625 14.425781 19.71875 14.480469 19.667969 C 14.554688 19.605469 14.628906 19.542969 14.703125 19.480469 C 14.757812 19.433594 14.757812 19.433594 14.8125 19.386719 C 14.996094 19.230469 15.179688 19.078125 15.375 18.9375 C 15.617188 19.03125 15.734375 19.179688 15.890625 19.382812 C 15.933594 19.441406 15.980469 19.496094 16.023438 19.554688 C 16.074219 19.621094 16.074219 19.621094 16.125 19.6875 C 15.714844 20.113281 15.265625 20.5 14.8125 20.875 C 14.828125 20.9375 14.84375 21 14.863281 21.0625 C 15.382812 23.042969 15.285156 24.949219 14.25 26.75 C 13.71875 27.621094 13 28.402344 12.125 28.9375 C 12.039062 28.992188 12.039062 28.992188 11.953125 29.046875 C 11.195312 29.519531 10.378906 29.789062 9.5 29.9375 C 9.453125 29.945312 9.402344 29.953125 9.351562 29.960938 C 7.714844 30.1875 5.929688 29.765625 4.574219 28.8125 C 4.421875 28.691406 4.273438 28.566406 4.125 28.4375 C 4.074219 28.394531 4.023438 28.355469 3.972656 28.3125 C 2.78125 27.300781 1.9375 25.773438 1.761719 24.214844 C 1.6875 23.304688 1.683594 22.378906 1.9375 21.5 C 1.957031 21.421875 1.980469 21.347656 2 21.269531 C 2.519531 19.578125 3.691406 18.152344 5.246094 17.308594 C 6.261719 16.78125 7.300781 16.539062 8.445312 16.539062 C 8.519531 16.539062 8.59375 16.539062 8.667969 16.539062 C 9.410156 16.550781 10.074219 16.683594 10.773438 16.925781 C 11.019531 17.011719 11.019531 17.011719 11.25 16.9375 C 11.378906 16.839844 11.5 16.738281 11.621094 16.632812 C 11.695312 16.570312 11.765625 16.507812 11.839844 16.445312 C 11.875 16.410156 11.914062 16.378906 11.953125 16.347656 C 12.125 16.195312 12.300781 16.046875 12.476562 15.898438 C 12.511719 15.871094 12.542969 15.84375 12.578125 15.8125 C 12.859375 15.574219 13.144531 15.34375 13.429688 15.109375 C 13.566406 15 13.566406 15 13.6875 14.875 Z M 4.625 19.0625 C 4.546875 19.132812 4.546875 19.132812 4.464844 19.207031 C 3.359375 20.242188 2.808594 21.695312 2.75 23.191406 C 2.753906 24.050781 2.894531 25.015625 3.375 25.75 C 3.738281 25.488281 4.078125 25.203125 4.414062 24.914062 C 4.640625 24.71875 4.863281 24.53125 5.09375 24.34375 C 5.429688 24.070312 5.761719 23.789062 6.089844 23.503906 C 6.3125 23.3125 6.535156 23.125 6.757812 22.933594 C 6.792969 22.90625 6.824219 22.878906 6.859375 22.847656 C 6.945312 22.773438 7.035156 22.699219 7.125 22.625 C 7.191406 22.566406 7.191406 22.566406 7.257812 22.507812 C 7.375 22.4375 7.375 22.4375 7.5 22.4375 C 7.671875 22.523438 7.75 22.632812 7.859375 22.785156 C 7.898438 22.835938 7.9375 22.886719 7.976562 22.941406 C 8.003906 22.980469 8.03125 23.019531 8.0625 23.0625 C 7.96875 23.296875 7.835938 23.410156 7.640625 23.5625 C 7.359375 23.785156 7.085938 24.015625 6.8125 24.25 C 6.554688 24.472656 6.296875 24.691406 6.03125 24.90625 C 5.730469 25.148438 5.4375 25.398438 5.148438 25.648438 C 4.960938 25.8125 4.769531 25.972656 4.578125 26.132812 C 4.519531 26.179688 4.519531 26.179688 4.460938 26.226562 C 4.390625 26.285156 4.316406 26.34375 4.246094 26.402344 C 4.160156 26.472656 4.078125 26.546875 4 26.625 C 4 26.921875 4.191406 27.054688 4.386719 27.265625 C 4.824219 27.691406 5.308594 28.070312 5.875 28.3125 C 5.957031 28.242188 6.039062 28.171875 6.121094 28.101562 C 6.195312 28.042969 6.269531 27.980469 6.339844 27.917969 C 6.527344 27.761719 6.710938 27.605469 6.894531 27.449219 C 7.355469 27.054688 7.828125 26.679688 8.3125 26.3125 C 8.328125 26.347656 8.34375 26.386719 8.363281 26.421875 C 8.460938 26.609375 8.597656 26.738281 8.742188 26.890625 C 8.8125 27 8.8125 27 8.816406 27.117188 C 8.714844 27.316406 8.554688 27.4375 8.382812 27.574219 C 8.347656 27.605469 8.308594 27.632812 8.273438 27.664062 C 8.160156 27.757812 8.050781 27.847656 7.9375 27.9375 C 7.8125 28.039062 7.683594 28.144531 7.558594 28.246094 C 7.503906 28.289062 7.453125 28.332031 7.394531 28.375 C 7.257812 28.496094 7.128906 28.617188 7 28.75 C 8.351562 29.164062 9.871094 28.964844 11.117188 28.3125 C 12.425781 27.578125 13.4375 26.382812 13.902344 24.949219 C 13.9375 24.820312 13.96875 24.691406 14 24.5625 C 14.015625 24.503906 14.027344 24.445312 14.042969 24.386719 C 14.226562 23.476562 14.140625 22.582031 13.9375 21.6875 C 13.691406 21.6875 13.632812 21.769531 13.445312 21.925781 C 13.355469 22.003906 13.355469 22.003906 13.261719 22.082031 C 13.195312 22.136719 13.128906 22.195312 13.0625 22.25 C 12.996094 22.308594 12.929688 22.363281 12.859375 22.421875 C 12.757812 22.507812 12.65625 22.59375 12.550781 22.683594 C 12.285156 22.910156 12.011719 23.132812 11.738281 23.355469 C 11.609375 23.460938 11.476562 23.570312 11.347656 23.683594 C 11.3125 23.714844 11.273438 23.746094 11.238281 23.777344 C 11.167969 23.839844 11.097656 23.898438 11.027344 23.960938 C 10.859375 24.105469 10.703125 24.226562 10.5 24.3125 C 10.40625 24.210938 10.3125 24.113281 10.21875 24.011719 C 10.167969 23.957031 10.113281 23.898438 10.0625 23.84375 C 9.9375 23.6875 9.9375 23.6875 9.9375 23.5 C 10.058594 23.382812 10.058594 23.382812 10.230469 23.25 C 10.292969 23.199219 10.355469 23.152344 10.421875 23.101562 C 10.453125 23.074219 10.488281 23.046875 10.523438 23.019531 C 10.695312 22.882812 10.863281 22.738281 11.03125 22.59375 C 11.335938 22.335938 11.640625 22.082031 11.949219 21.832031 C 12.148438 21.667969 12.347656 21.5 12.542969 21.332031 C 12.832031 21.085938 13.128906 20.847656 13.4375 20.625 C 13.140625 19.816406 12.472656 19.140625 11.789062 18.640625 C 11.75 18.613281 11.714844 18.585938 11.675781 18.558594 C 11.480469 18.414062 11.480469 18.414062 11.25 18.390625 C 11.113281 18.441406 11.03125 18.5 10.925781 18.597656 C 10.886719 18.628906 10.847656 18.664062 10.8125 18.695312 C 10.769531 18.734375 10.730469 18.769531 10.691406 18.804688 C 10.609375 18.878906 10.523438 18.953125 10.441406 19.027344 C 10.398438 19.0625 10.355469 19.101562 10.3125 19.140625 C 10.121094 19.308594 9.925781 19.476562 9.730469 19.640625 C 9.695312 19.667969 9.664062 19.699219 9.628906 19.730469 C 9.390625 19.929688 9.390625 19.929688 9.25 20 C 9.234375 19.964844 9.21875 19.929688 9.203125 19.890625 C 9.117188 19.734375 9.015625 19.617188 8.898438 19.484375 C 8.859375 19.441406 8.820312 19.394531 8.777344 19.351562 C 8.75 19.316406 8.71875 19.285156 8.6875 19.25 C 8.859375 19.019531 9.039062 18.84375 9.265625 18.664062 C 9.59375 18.398438 9.59375 18.398438 9.917969 18.128906 C 9.957031 18.09375 10 18.0625 10.039062 18.027344 C 10.140625 17.941406 10.140625 17.941406 10.125 17.8125 C 8.167969 17.261719 6.132812 17.683594 4.625 19.0625 Z M 4.625 19.0625 "/>
<path style=" stroke:none;fill-rule:nonzero;fill:#ffffff;fill-opacity:1;" d="M 24.460938 0.914062 C 24.902344 1.265625 25.136719 1.71875 25.3125 2.25 C 25.367188 2.988281 25.316406 3.601562 24.820312 4.183594 C 24.144531 4.882812 23.402344 5.605469 22.375 5.644531 C 21.734375 5.632812 21.136719 5.398438 20.6875 4.9375 C 20.542969 4.757812 20.421875 4.578125 20.3125 4.375 C 20.292969 4.335938 20.269531 4.300781 20.25 4.261719 C 20.011719 3.757812 20.054688 3.09375 20.214844 2.574219 C 20.566406 1.75 21.527344 0.953125 22.34375 0.609375 C 23.0625 0.390625 23.839844 0.496094 24.460938 0.914062 Z M 21.921875 2.183594 C 21.882812 2.214844 21.847656 2.246094 21.808594 2.28125 C 21.359375 2.667969 21.359375 2.667969 21.171875 3.214844 C 21.15625 3.640625 21.207031 3.925781 21.5 4.25 C 21.839844 4.515625 22.132812 4.613281 22.5625 4.5625 C 23.199219 4.335938 23.78125 3.78125 24.1875 3.25 C 24.300781 2.910156 24.324219 2.546875 24.175781 2.210938 C 23.980469 1.902344 23.792969 1.710938 23.445312 1.582031 C 22.792969 1.484375 22.390625 1.765625 21.921875 2.183594 Z M 21.921875 2.183594 "/>
<path style=" stroke:none;fill-rule:nonzero;fill:#ffffff;fill-opacity:1;" d="M 29.875 10.875 C 29.875 11.226562 29.875 11.578125 29.875 11.9375 C 29.785156 11.957031 29.695312 11.976562 29.605469 11.996094 C 29.175781 12.125 28.890625 12.394531 28.5625 12.6875 C 28.480469 12.753906 28.394531 12.816406 28.3125 12.882812 C 28.074219 13.09375 27.960938 13.320312 27.921875 13.640625 C 27.90625 13.953125 27.945312 14.175781 28.125 14.4375 C 28.40625 14.707031 28.628906 14.851562 29.011719 14.902344 C 29.5625 14.839844 29.941406 14.527344 30.339844 14.167969 C 30.378906 14.132812 30.414062 14.101562 30.453125 14.066406 C 30.75 13.789062 30.917969 13.5 30.949219 13.089844 C 30.910156 12.773438 30.824219 12.574219 30.625 12.3125 C 30.582031 12.230469 30.542969 12.148438 30.5 12.0625 C 30.6875 11.816406 30.871094 11.566406 31.0625 11.3125 C 31.503906 11.53125 31.792969 11.910156 31.957031 12.371094 C 32.113281 13.085938 32.050781 13.773438 31.660156 14.394531 C 31.375 14.792969 31.011719 15.082031 30.625 15.375 C 30.574219 15.417969 30.523438 15.457031 30.46875 15.5 C 29.914062 15.925781 29.332031 16.058594 28.640625 15.980469 C 28.152344 15.875 27.691406 15.640625 27.375 15.25 C 27.34375 15.214844 27.3125 15.179688 27.28125 15.140625 C 26.902344 14.683594 26.773438 14.195312 26.796875 13.609375 C 26.890625 12.695312 27.445312 12.121094 28.125 11.5625 C 28.683594 11.128906 29.15625 10.875 29.875 10.875 Z M 29.875 10.875 "/>
<path style=" stroke:none;fill-rule:nonzero;fill:#ffffff;fill-opacity:1;" d="M 30.125 0.25 C 30.355469 0.34375 30.480469 0.476562 30.640625 0.664062 C 30.683594 0.714844 30.730469 0.765625 30.773438 0.820312 C 30.824219 0.878906 30.824219 0.878906 30.875 0.9375 C 30.777344 1.175781 30.632812 1.3125 30.441406 1.480469 C 30.410156 1.507812 30.378906 1.535156 30.347656 1.5625 C 30.09375 1.789062 29.828125 2.007812 29.5625 2.21875 C 29.34375 2.398438 29.132812 2.585938 28.917969 2.769531 C 28.878906 2.804688 28.839844 2.839844 28.796875 2.875 C 28.71875 2.941406 28.636719 3.011719 28.558594 3.082031 C 27.539062 3.96875 27.539062 3.96875 27.0625 4.3125 C 26.957031 4.203125 26.851562 4.09375 26.746094 3.984375 C 26.699219 3.9375 26.699219 3.9375 26.652344 3.890625 C 26.4375 3.664062 26.4375 3.664062 26.433594 3.492188 C 26.523438 3.332031 26.632812 3.234375 26.773438 3.113281 C 26.828125 3.0625 26.886719 3.015625 26.945312 2.964844 C 27.175781 2.769531 27.410156 2.578125 27.640625 2.390625 C 27.808594 2.253906 27.964844 2.113281 28.125 1.96875 C 28.339844 1.773438 28.554688 1.589844 28.78125 1.40625 C 29.066406 1.175781 29.339844 0.933594 29.609375 0.6875 C 29.777344 0.539062 29.949219 0.394531 30.125 0.25 Z M 30.125 0.25 "/>
<path style=" stroke:none;fill-rule:nonzero;fill:#ffffff;fill-opacity:1;" d="M 27.0625 22.8125 C 27.171875 22.914062 27.171875 22.914062 27.28125 23.050781 C 27.410156 23.207031 27.539062 23.359375 27.6875 23.5 C 27.617188 23.707031 27.566406 23.753906 27.402344 23.890625 C 27.140625 24.109375 26.890625 24.339844 26.644531 24.574219 C 26.558594 24.65625 26.46875 24.738281 26.382812 24.820312 C 26.335938 24.863281 26.292969 24.902344 26.25 24.945312 C 25.972656 25.207031 25.691406 25.460938 25.414062 25.71875 C 25.308594 25.816406 25.199219 25.917969 25.09375 26.015625 C 25.058594 26.046875 25.023438 26.082031 24.984375 26.117188 C 24.917969 26.179688 24.847656 26.242188 24.78125 26.304688 C 24.566406 26.503906 24.347656 26.691406 24.125 26.875 C 23.84375 26.644531 23.601562 26.410156 23.375 26.125 C 23.441406 26.058594 23.441406 26.058594 23.511719 25.988281 C 23.625 25.875 23.738281 25.761719 23.851562 25.648438 C 23.933594 25.5625 23.933594 25.5625 24.019531 25.476562 C 24.101562 25.394531 24.101562 25.394531 24.1875 25.308594 C 24.367188 25.128906 24.554688 24.96875 24.742188 24.800781 C 24.964844 24.609375 25.175781 24.40625 25.390625 24.203125 C 25.769531 23.84375 26.15625 23.484375 26.542969 23.132812 C 26.683594 23.007812 26.683594 23.007812 26.789062 22.886719 C 26.875 22.8125 26.875 22.8125 27.0625 22.8125 Z M 27.0625 22.8125 "/>
<path style=" stroke:none;fill-rule:nonzero;fill:#ffffff;fill-opacity:1;" d="M 3.8125 10.4375 C 4.023438 10.527344 4.167969 10.644531 4.332031 10.804688 C 4.375 10.847656 4.421875 10.890625 4.46875 10.933594 C 4.5625 11.0625 4.5625 11.0625 4.546875 11.183594 C 4.492188 11.332031 4.433594 11.398438 4.316406 11.5 C 4.261719 11.554688 4.261719 11.554688 4.203125 11.609375 C 4.160156 11.644531 4.121094 11.679688 4.078125 11.71875 C 4.035156 11.757812 3.992188 11.796875 3.949219 11.835938 C 3.863281 11.914062 3.777344 11.996094 3.6875 12.074219 C 3.539062 12.207031 3.394531 12.34375 3.246094 12.480469 C 3.148438 12.570312 3.046875 12.664062 2.949219 12.753906 C 2.78125 12.910156 2.613281 13.0625 2.445312 13.21875 C 2.378906 13.28125 2.3125 13.34375 2.242188 13.40625 C 2.066406 13.570312 1.886719 13.734375 1.710938 13.902344 C 1.675781 13.9375 1.640625 13.972656 1.601562 14.007812 C 1.53125 14.074219 1.460938 14.140625 1.390625 14.210938 C 1.144531 14.4375 1.144531 14.4375 0.9375 14.4375 C 0.78125 14.300781 0.78125 14.300781 0.613281 14.125 C 0.527344 14.039062 0.527344 14.039062 0.441406 13.949219 C 0.398438 13.902344 0.355469 13.859375 0.3125 13.8125 C 0.40625 13.597656 0.527344 13.457031 0.695312 13.292969 C 0.742188 13.25 0.785156 13.203125 0.832031 13.15625 C 0.964844 13.03125 1.101562 12.910156 1.238281 12.789062 C 1.492188 12.570312 1.738281 12.34375 1.980469 12.113281 C 2.066406 12.03125 2.15625 11.949219 2.242188 11.867188 C 2.285156 11.824219 2.328125 11.785156 2.375 11.742188 C 2.847656 11.300781 3.320312 10.859375 3.8125 10.4375 Z M 3.8125 10.4375 "/>
<path style=" stroke:none;fill-rule:nonzero;fill:#ffffff;fill-opacity:1;" d="M 29.4375 7.25 C 29.648438 7.320312 29.707031 7.386719 29.847656 7.550781 C 29.902344 7.613281 29.902344 7.613281 29.960938 7.679688 C 30.054688 7.804688 30.125 7.921875 30.1875 8.0625 C 29.929688 8.328125 29.664062 8.582031 29.382812 8.820312 C 29.234375 8.953125 29.085938 9.082031 28.9375 9.214844 C 28.867188 9.277344 28.867188 9.277344 28.792969 9.34375 C 28.757812 9.375 28.722656 9.40625 28.6875 9.4375 C 28.476562 9.347656 28.332031 9.230469 28.167969 9.070312 C 28.125 9.027344 28.078125 8.984375 28.03125 8.941406 C 27.9375 8.8125 27.9375 8.8125 27.933594 8.691406 C 28.03125 8.503906 28.179688 8.378906 28.335938 8.242188 C 28.402344 8.183594 28.472656 8.121094 28.539062 8.0625 C 28.574219 8.03125 28.609375 8 28.644531 7.96875 C 28.8125 7.820312 28.976562 7.667969 29.140625 7.519531 C 29.238281 7.429688 29.339844 7.339844 29.4375 7.25 Z M 29.4375 7.25 "/>
<path style=" stroke:none;fill-rule:nonzero;fill:#ffffff;fill-opacity:1;" d="M 28.375 21.4375 C 28.417969 21.4375 28.457031 21.4375 28.5 21.4375 C 28.601562 21.539062 28.601562 21.539062 28.714844 21.675781 C 28.847656 21.832031 28.976562 21.984375 29.125 22.125 C 29.035156 22.335938 28.917969 22.476562 28.753906 22.636719 C 28.6875 22.703125 28.6875 22.703125 28.625 22.769531 C 28.5 22.875 28.5 22.875 28.3125 22.9375 C 28.207031 22.828125 28.101562 22.71875 27.996094 22.609375 C 27.964844 22.578125 27.933594 22.546875 27.902344 22.515625 C 27.6875 22.285156 27.6875 22.285156 27.683594 22.117188 C 27.769531 21.96875 27.863281 21.882812 27.996094 21.773438 C 28.039062 21.738281 28.085938 21.699219 28.128906 21.660156 C 28.171875 21.628906 28.210938 21.597656 28.25 21.5625 C 28.292969 21.519531 28.332031 21.480469 28.375 21.4375 Z M 28.375 21.4375 "/>
<path style=" stroke:none;fill-rule:nonzero;fill:#ffffff;fill-opacity:1;" d="M 5.3125 9.0625 C 5.574219 9.28125 5.824219 9.503906 6.0625 9.75 C 5.96875 9.972656 5.84375 10.109375 5.664062 10.269531 C 5.617188 10.3125 5.566406 10.359375 5.519531 10.40625 C 5.375 10.5 5.375 10.5 5.25 10.503906 C 5.070312 10.410156 4.960938 10.277344 4.828125 10.121094 C 4.777344 10.0625 4.726562 10.007812 4.675781 9.945312 C 4.640625 9.902344 4.601562 9.859375 4.5625 9.8125 C 4.792969 9.53125 5.027344 9.289062 5.3125 9.0625 Z M 5.3125 9.0625 "/>
<path style=" stroke:none;fill-rule:nonzero;fill:#ffffff;fill-opacity:1;" d="M 15.4375 13.5625 C 15.578125 13.710938 15.578125 13.710938 15.730469 13.90625 C 15.804688 14.003906 15.804688 14.003906 15.882812 14.101562 C 15.921875 14.148438 15.960938 14.199219 16 14.25 C 15.90625 14.472656 15.78125 14.609375 15.601562 14.769531 C 15.554688 14.8125 15.503906 14.859375 15.457031 14.90625 C 15.3125 15 15.3125 15 15.1875 15.003906 C 15.007812 14.910156 14.917969 14.78125 14.796875 14.621094 C 14.753906 14.5625 14.707031 14.507812 14.664062 14.445312 C 14.628906 14.402344 14.597656 14.359375 14.5625 14.3125 C 14.65625 14.089844 14.785156 13.957031 14.964844 13.796875 C 15.015625 13.753906 15.0625 13.707031 15.113281 13.664062 C 15.25 13.5625 15.25 13.5625 15.4375 13.5625 Z M 15.4375 13.5625 "/>
<path style=" stroke:none;fill-rule:nonzero;fill:#ffffff;fill-opacity:1;" d="M 13 11.0625 C 13.242188 11.15625 13.359375 11.304688 13.515625 11.507812 C 13.558594 11.566406 13.605469 11.621094 13.648438 11.679688 C 13.699219 11.746094 13.699219 11.746094 13.75 11.8125 C 13.574219 11.992188 13.398438 12.167969 13.210938 12.335938 C 13.175781 12.367188 13.140625 12.402344 13.101562 12.433594 C 13.070312 12.457031 13.035156 12.476562 13 12.5 C 12.753906 12.417969 12.679688 12.292969 12.519531 12.089844 C 12.46875 12.027344 12.417969 11.964844 12.367188 11.898438 C 12.328125 11.847656 12.289062 11.800781 12.25 11.75 C 12.429688 11.570312 12.605469 11.394531 12.800781 11.230469 C 12.839844 11.199219 12.875 11.167969 12.914062 11.132812 C 12.941406 11.109375 12.972656 11.085938 13 11.0625 Z M 13 11.0625 "/>
<path style=" stroke:none;fill-rule:nonzero;fill:#ffffff;fill-opacity:1;" d="M 10 13.5625 C 10.265625 13.773438 10.492188 13.972656 10.6875 14.25 C 10.683594 14.371094 10.683594 14.371094 10.625 14.5 C 10.480469 14.632812 10.480469 14.632812 10.308594 14.765625 C 10.25 14.808594 10.195312 14.855469 10.132812 14.898438 C 10.089844 14.933594 10.046875 14.964844 10 15 C 9.769531 14.90625 9.644531 14.773438 9.484375 14.585938 C 9.441406 14.535156 9.394531 14.484375 9.351562 14.429688 C 9.316406 14.390625 9.285156 14.351562 9.25 14.3125 C 9.332031 14.066406 9.457031 13.992188 9.660156 13.832031 C 9.722656 13.78125 9.785156 13.730469 9.851562 13.679688 C 9.902344 13.640625 9.949219 13.601562 10 13.5625 Z M 10 13.5625 "/>
<path style=" stroke:none;fill-rule:nonzero;fill:#ffffff;fill-opacity:1;" d="M 11.5 12.3125 C 11.730469 12.390625 11.800781 12.488281 11.953125 12.675781 C 12 12.730469 12.042969 12.785156 12.089844 12.839844 C 12.1875 13 12.1875 13 12.191406 13.128906 C 12.097656 13.304688 11.964844 13.394531 11.808594 13.515625 C 11.75 13.558594 11.695312 13.605469 11.632812 13.648438 C 11.589844 13.683594 11.546875 13.714844 11.5 13.75 C 11.257812 13.65625 11.140625 13.507812 10.984375 13.304688 C 10.941406 13.246094 10.894531 13.191406 10.851562 13.132812 C 10.816406 13.089844 10.785156 13.046875 10.75 13 C 10.925781 12.820312 11.101562 12.644531 11.289062 12.476562 C 11.324219 12.445312 11.359375 12.410156 11.398438 12.378906 C 11.429688 12.355469 11.464844 12.335938 11.5 12.3125 Z M 11.5 12.3125 "/>
</g>
</svg>