<svg xmlns="http://www.w3.org/2000/svg" xmlns:xlink="http://www.w3.org/1999/xlink" width="32px" height="32px" viewBox="0 0 32 32" version="1.1">
<g id="surface1">
<path style=" stroke:none;fill-rule:nonzero;fill:#ffffff;fill-opacity:1;" d="M 17.773438 2.695312 C 18.335938 3.125 18.609375 3.6875 18.75 4.375 C 18.828125 5.066406 18.644531 5.679688 18.25 6.25 C 18.09375 6.410156 17.929688 6.554688 17.75 6.6875 C 17.792969 7 17.917969 7.28125 18.039062 7.574219 C 18.058594 7.628906 18.082031 7.683594 18.105469 7.738281 C 18.175781 7.914062 18.246094 8.085938 18.316406 8.261719 C 18.386719 8.4375 18.457031 8.613281 18.527344 8.785156 C 18.574219 8.894531 18.617188 9.003906 18.660156 9.113281 C 18.679688 9.160156 18.703125 9.210938 18.722656 9.261719 C 18.738281 9.304688 18.757812 9.347656 18.773438 9.390625 C 18.8125 9.5 18.8125 9.5 18.8125 9.625 C 18.878906 9.609375 18.878906 9.609375 18.949219 9.589844 C 19.421875 9.511719 19.84375 9.703125 20.234375 9.957031 C 20.726562 10.328125 20.917969 10.757812 21.003906 11.359375 C 21.015625 11.433594 21.027344 11.503906 21.039062 11.582031 C 21.050781 11.664062 21.050781 11.664062 21.0625 11.75 C 21.101562 11.765625 21.136719 11.777344 21.175781 11.792969 C 21.574219 11.945312 21.972656 12.101562 22.371094 12.253906 C 22.519531 12.308594 22.667969 12.367188 22.816406 12.421875 C 23.03125 12.507812 23.246094 12.589844 23.460938 12.671875 C 23.566406 12.710938 23.566406 12.710938 23.675781 12.753906 C 24.03125 12.890625 24.382812 13.027344 24.734375 13.167969 C 24.800781 13.191406 24.867188 13.21875 24.933594 13.246094 C 25.058594 13.296875 25.183594 13.347656 25.308594 13.394531 C 25.363281 13.417969 25.421875 13.441406 25.476562 13.460938 C 25.527344 13.480469 25.574219 13.5 25.625 13.519531 C 25.757812 13.570312 25.757812 13.570312 25.9375 13.5625 C 26.035156 13.464844 26.035156 13.464844 26.128906 13.335938 C 26.46875 12.929688 26.964844 12.605469 27.5 12.546875 C 27.640625 12.542969 27.78125 12.539062 27.921875 12.539062 C 27.972656 12.539062 28.023438 12.539062 28.074219 12.539062 C 28.464844 12.546875 28.78125 12.613281 29.125 12.8125 C 29.1875 12.847656 29.253906 12.882812 29.320312 12.921875 C 29.855469 13.339844 30.246094 13.8125 30.375 14.5 C 30.429688 15.246094 30.351562 15.894531 29.875 16.5 C 29.414062 17.011719 28.929688 17.351562 28.234375 17.394531 C 27.742188 17.414062 27.316406 17.410156 26.871094 17.171875 C 26.710938 17.109375 26.664062 17.125 26.5 17.1875 C 26.371094 17.296875 26.253906 17.40625 26.136719 17.527344 C 26.101562 17.5625 26.066406 17.597656 26.027344 17.636719 C 25.910156 17.757812 25.789062 17.875 25.667969 17.996094 C 25.582031 18.085938 25.496094 18.171875 25.410156 18.257812 C 25.175781 18.492188 24.941406 18.726562 24.707031 18.960938 C 24.464844 19.207031 24.21875 19.449219 23.972656 19.695312 C 23.511719 20.160156 23.046875 20.625 22.585938 21.089844 C 22.058594 21.617188 21.53125 22.144531 21.003906 22.675781 C 19.917969 23.761719 18.832031 24.847656 17.75 25.9375 C 17.808594 26.117188 17.867188 26.292969 17.941406 26.46875 C 18.164062 27.066406 18.101562 27.726562 17.875 28.3125 C 17.527344 28.957031 16.996094 29.464844 16.285156 29.679688 C 15.578125 29.84375 14.929688 29.746094 14.296875 29.394531 C 13.75 29.042969 13.46875 28.582031 13.234375 27.992188 C 13.09375 27.269531 13.152344 26.578125 13.550781 25.953125 C 13.722656 25.714844 13.90625 25.507812 14.125 25.3125 C 14.167969 25.3125 14.207031 25.3125 14.25 25.3125 C 14.027344 24.660156 13.789062 24.019531 13.539062 23.378906 C 13.523438 23.339844 13.511719 23.300781 13.496094 23.261719 C 13.355469 22.898438 13.210938 22.535156 13.070312 22.175781 C 13.007812 22.011719 12.945312 21.851562 12.882812 21.691406 C 12.824219 21.539062 12.765625 21.390625 12.707031 21.238281 C 12.679688 21.171875 12.65625 21.101562 12.628906 21.03125 C 12.605469 20.972656 12.582031 20.914062 12.558594 20.851562 C 12.503906 20.695312 12.464844 20.539062 12.4375 20.375 C 12.390625 20.378906 12.34375 20.378906 12.296875 20.382812 C 11.679688 20.40625 11.179688 20.289062 10.71875 19.859375 C 10.273438 19.339844 10.167969 18.792969 10.1875 18.125 C 10.152344 18.113281 10.117188 18.101562 10.082031 18.089844 C 9.75 17.984375 9.429688 17.859375 9.105469 17.726562 C 9.011719 17.6875 8.914062 17.644531 8.820312 17.605469 C 8.671875 17.546875 8.523438 17.484375 8.375 17.421875 C 8.230469 17.359375 8.085938 17.300781 7.9375 17.242188 C 7.875 17.214844 7.875 17.214844 7.804688 17.183594 C 7.515625 17.066406 7.3125 17.039062 7 17.125 C 6.800781 17.261719 6.714844 17.480469 6.605469 17.6875 C 6.585938 17.722656 6.566406 17.761719 6.546875 17.796875 C 6.484375 17.917969 6.421875 18.035156 6.359375 18.152344 C 6.199219 18.457031 6.039062 18.761719 5.875 19.0625 C 5.855469 19.101562 5.835938 19.136719 5.8125 19.175781 C 5.757812 19.28125 5.695312 19.386719 5.636719 19.496094 C 5.585938 19.585938 5.585938 19.585938 5.535156 19.679688 C 5.503906 19.722656 5.46875 19.769531 5.4375 19.8125 C 5.375 19.8125 5.3125 19.8125 5.25 19.8125 C 5.117188 19.570312 4.980469 19.324219 4.847656 19.082031 C 4.800781 19 4.753906 18.917969 4.710938 18.835938 C 4.667969 18.753906 4.621094 18.675781 4.578125 18.597656 C 4.535156 18.515625 4.488281 18.433594 4.445312 18.355469 C 4.335938 18.164062 4.238281 17.976562 4.152344 17.777344 C 3.871094 17.164062 3.476562 16.9375 2.894531 16.664062 C 2.8125 16.625 2.730469 16.582031 2.648438 16.542969 C 2.527344 16.480469 2.40625 16.421875 2.285156 16.363281 C 2.019531 16.230469 1.761719 16.09375 1.503906 15.949219 C 1.441406 15.917969 1.378906 15.882812 1.316406 15.847656 C 1.273438 15.816406 1.230469 15.78125 1.1875 15.75 C 1.1875 15.6875 1.1875 15.625 1.1875 15.5625 C 1.226562 15.542969 1.265625 15.519531 1.308594 15.496094 C 1.390625 15.453125 1.390625 15.453125 1.476562 15.40625 C 1.539062 15.375 1.601562 15.339844 1.664062 15.304688 C 1.800781 15.230469 1.9375 15.15625 2.074219 15.082031 C 2.378906 14.910156 2.679688 14.746094 3.003906 14.617188 C 3.9375 14.226562 4.273438 13.40625 4.675781 12.53125 C 4.75 12.375 4.75 12.375 4.8125 12.3125 C 4.820312 12.132812 4.824219 11.957031 4.824219 11.777344 C 4.824219 11.722656 4.828125 11.664062 4.828125 11.609375 C 4.828125 11.421875 4.832031 11.234375 4.832031 11.046875 C 4.832031 10.917969 4.835938 10.789062 4.835938 10.660156 C 4.839844 10.324219 4.84375 9.984375 4.847656 9.644531 C 4.847656 9.296875 4.851562 8.949219 4.855469 8.601562 C 4.863281 7.921875 4.867188 7.242188 4.875 6.5625 C 4.785156 6.550781 4.785156 6.550781 4.695312 6.535156 C 4.242188 6.453125 3.878906 6.054688 3.625 5.6875 C 3.351562 5.1875 3.300781 4.664062 3.453125 4.117188 C 3.636719 3.570312 4 3.148438 4.507812 2.863281 C 4.996094 2.671875 5.628906 2.652344 6.117188 2.847656 C 6.644531 3.128906 7.058594 3.550781 7.25 4.125 C 8.300781 4.144531 9.355469 4.167969 10.4375 4.1875 C 10.4375 4.515625 10.4375 4.847656 10.4375 5.1875 C 8.859375 5.21875 8.859375 5.21875 7.25 5.25 C 7.148438 5.457031 7.042969 5.664062 6.9375 5.875 C 6.644531 6.222656 6.324219 6.480469 5.875 6.5625 C 5.859375 7.289062 5.851562 8.019531 5.851562 8.746094 C 5.851562 9.082031 5.847656 9.421875 5.839844 9.757812 C 5.785156 12.105469 5.785156 12.105469 6.875 14.125 C 7.136719 14.390625 7.40625 14.535156 7.753906 14.671875 C 7.832031 14.707031 7.90625 14.742188 7.984375 14.777344 C 8.128906 14.84375 8.277344 14.910156 8.425781 14.976562 C 8.6875 15.089844 8.929688 15.226562 9.171875 15.371094 C 9.269531 15.429688 9.269531 15.429688 9.371094 15.484375 C 9.414062 15.511719 9.457031 15.535156 9.5 15.5625 C 9.5 15.625 9.5 15.6875 9.5 15.75 C 9.003906 16.027344 9.003906 16.027344 8.5 16.3125 C 8.734375 16.410156 8.972656 16.511719 9.207031 16.609375 C 9.273438 16.636719 9.339844 16.664062 9.40625 16.695312 C 9.828125 16.871094 10.253906 17.035156 10.6875 17.1875 C 10.707031 17.148438 10.722656 17.109375 10.742188 17.066406 C 10.824219 16.914062 10.898438 16.863281 11.046875 16.773438 C 11.085938 16.75 11.128906 16.722656 11.171875 16.695312 C 11.664062 16.445312 12.203125 16.417969 12.742188 16.539062 C 13.261719 16.726562 13.667969 17.078125 13.9375 17.5625 C 14.175781 18.128906 14.164062 18.695312 13.945312 19.265625 C 13.84375 19.488281 13.761719 19.613281 13.570312 19.777344 C 13.421875 19.917969 13.421875 19.917969 13.445312 20.054688 C 13.53125 20.402344 13.640625 20.730469 13.773438 21.058594 C 13.792969 21.109375 13.8125 21.160156 13.832031 21.214844 C 13.875 21.324219 13.921875 21.433594 13.964844 21.546875 C 14.03125 21.714844 14.097656 21.886719 14.167969 22.058594 C 14.257812 22.289062 14.347656 22.515625 14.4375 22.742188 C 14.605469 23.171875 14.773438 23.597656 14.9375 24.023438 C 14.964844 24.089844 14.988281 24.15625 15.015625 24.222656 C 15.039062 24.28125 15.0625 24.34375 15.085938 24.402344 C 15.105469 24.453125 15.125 24.503906 15.144531 24.558594 C 15.1875 24.6875 15.1875 24.6875 15.1875 24.875 C 15.242188 24.871094 15.296875 24.871094 15.351562 24.867188 C 15.832031 24.851562 16.207031 24.894531 16.65625 25.070312 C 16.824219 25.136719 16.824219 25.136719 17.0625 25.125 C 17.195312 25.019531 17.308594 24.914062 17.425781 24.792969 C 17.480469 24.742188 17.480469 24.742188 17.535156 24.6875 C 17.65625 24.566406 17.773438 24.445312 17.894531 24.324219 C 17.980469 24.238281 18.066406 24.152344 18.152344 24.066406 C 18.390625 23.835938 18.621094 23.601562 18.855469 23.367188 C 19.050781 23.171875 19.246094 22.976562 19.441406 22.78125 C 19.902344 22.320312 20.363281 21.859375 20.824219 21.398438 C 21.296875 20.925781 21.773438 20.449219 22.25 19.976562 C 22.660156 19.566406 23.066406 19.160156 23.472656 18.753906 C 23.71875 18.507812 23.960938 18.265625 24.207031 18.023438 C 24.4375 17.792969 24.664062 17.5625 24.894531 17.335938 C 24.976562 17.25 25.0625 17.164062 25.144531 17.082031 C 25.261719 16.96875 25.375 16.851562 25.488281 16.738281 C 25.523438 16.703125 25.558594 16.671875 25.59375 16.636719 C 25.695312 16.535156 25.695312 16.535156 25.8125 16.375 C 25.8125 16.238281 25.8125 16.238281 25.75 16.125 C 25.4375 15.195312 25.4375 15.195312 25.5 14.6875 C 25.519531 14.644531 25.542969 14.605469 25.5625 14.5625 C 25.519531 14.554688 25.472656 14.546875 25.425781 14.539062 C 25.25 14.5 25.085938 14.445312 24.917969 14.378906 C 24.851562 14.355469 24.785156 14.328125 24.71875 14.304688 C 24.648438 14.277344 24.578125 14.25 24.507812 14.222656 C 24.433594 14.195312 24.359375 14.167969 24.285156 14.136719 C 24.089844 14.0625 23.894531 13.988281 23.699219 13.914062 C 23.507812 13.839844 23.3125 13.765625 23.117188 13.6875 C 22.308594 13.378906 21.496094 13.066406 20.6875 12.75 C 20.65625 12.777344 20.628906 12.800781 20.597656 12.828125 C 20.539062 12.878906 20.539062 12.878906 20.480469 12.929688 C 20.421875 12.980469 20.421875 12.980469 20.363281 13.03125 C 20.226562 13.144531 20.085938 13.226562 19.925781 13.300781 C 19.847656 13.339844 19.847656 13.339844 19.769531 13.375 C 19.246094 13.597656 18.6875 13.546875 18.164062 13.335938 C 17.640625 13.0625 17.328125 12.675781 17.144531 12.121094 C 17.003906 11.617188 17.050781 11.171875 17.25 10.6875 C 17.40625 10.40625 17.582031 10.164062 17.8125 9.9375 C 17.792969 9.886719 17.792969 9.886719 17.773438 9.835938 C 17.632812 9.488281 17.496094 9.144531 17.359375 8.796875 C 17.308594 8.667969 17.253906 8.539062 17.203125 8.40625 C 17.128906 8.222656 17.054688 8.035156 16.984375 7.851562 C 16.960938 7.792969 16.9375 7.734375 16.910156 7.675781 C 16.890625 7.621094 16.871094 7.566406 16.847656 7.511719 C 16.828125 7.464844 16.808594 7.414062 16.789062 7.367188 C 16.75 7.25 16.75 7.25 16.75 7.125 C 16.667969 7.128906 16.667969 7.128906 16.582031 7.132812 C 15.757812 7.148438 15.15625 7.007812 14.550781 6.433594 C 14.207031 6.070312 13.9375 5.699219 13.9375 5.1875 C 13.070312 5.1875 12.203125 5.1875 11.3125 5.1875 C 11.3125 4.859375 11.3125 4.527344 11.3125 4.1875 C 12.179688 4.1875 13.046875 4.1875 13.9375 4.1875 C 14 3.910156 14 3.910156 14.0625 3.625 C 14.375 2.996094 14.894531 2.601562 15.539062 2.359375 C 16.316406 2.117188 17.09375 2.257812 17.773438 2.695312 Z M 15.1875 3.75 C 14.921875 4.152344 14.792969 4.519531 14.875 5 C 14.996094 5.453125 15.242188 5.738281 15.625 6 C 15.988281 6.179688 16.40625 6.195312 16.789062 6.074219 C 17.25 5.867188 17.507812 5.578125 17.710938 5.121094 C 17.796875 4.710938 17.761719 4.367188 17.5625 4 C 17.304688 3.636719 17.050781 3.417969 16.628906 3.269531 C 16.089844 3.1875 15.566406 3.347656 15.1875 3.75 Z M 4.542969 4.140625 C 4.40625 4.359375 4.363281 4.558594 4.375 4.8125 C 4.480469 5.179688 4.636719 5.34375 4.9375 5.5625 C 5.152344 5.671875 5.386719 5.648438 5.625 5.625 C 5.898438 5.515625 6.105469 5.320312 6.25 5.0625 C 6.332031 4.785156 6.335938 4.570312 6.246094 4.296875 C 6.078125 4.058594 5.886719 3.882812 5.625 3.75 C 5.148438 3.691406 4.890625 3.800781 4.542969 4.140625 Z M 18.390625 10.824219 C 18.203125 11.058594 18.054688 11.265625 18.070312 11.578125 C 18.125 11.878906 18.210938 12.097656 18.4375 12.3125 C 18.714844 12.492188 18.921875 12.535156 19.25 12.5 C 19.554688 12.390625 19.78125 12.222656 19.9375 11.9375 C 20.03125 11.640625 20.027344 11.390625 19.902344 11.105469 C 19.730469 10.8125 19.515625 10.667969 19.191406 10.570312 C 18.867188 10.558594 18.644531 10.621094 18.390625 10.824219 Z M 5.3125 13.5 C 5.296875 13.539062 5.28125 13.574219 5.265625 13.613281 C 4.804688 14.6875 4.265625 15.179688 3.1875 15.625 C 3.359375 15.78125 3.519531 15.890625 3.738281 15.972656 C 4.625 16.335938 4.9375 16.960938 5.3125 17.8125 C 5.46875 17.640625 5.578125 17.480469 5.660156 17.261719 C 6.023438 16.375 6.648438 16.0625 7.5 15.6875 C 7.328125 15.53125 7.167969 15.421875 6.949219 15.339844 C 6.0625 14.976562 5.75 14.351562 5.375 13.5 C 5.355469 13.5 5.332031 13.5 5.3125 13.5 Z M 26.855469 14.015625 C 26.582031 14.367188 26.445312 14.738281 26.5 15.1875 C 26.625 15.667969 26.839844 15.96875 27.25 16.25 C 27.613281 16.445312 27.988281 16.472656 28.378906 16.359375 C 28.8125 16.195312 29.140625 15.855469 29.335938 15.445312 C 29.425781 15.003906 29.417969 14.585938 29.1875 14.1875 C 28.949219 13.878906 28.691406 13.667969 28.3125 13.5625 C 27.71875 13.496094 27.273438 13.570312 26.855469 14.015625 Z M 11.351562 17.859375 C 11.191406 18.136719 11.15625 18.367188 11.210938 18.679688 C 11.292969 18.964844 11.425781 19.136719 11.667969 19.304688 C 12.019531 19.425781 12.308594 19.4375 12.644531 19.273438 C 12.871094 19.074219 13.035156 18.910156 13.085938 18.601562 C 13.101562 18.246094 13.058594 18.023438 12.8125 17.75 C 12.554688 17.523438 12.351562 17.457031 12.015625 17.476562 C 11.730469 17.523438 11.53125 17.628906 11.351562 17.859375 Z M 14.398438 26.5 C 14.164062 26.84375 14.132812 27.21875 14.1875 27.625 C 14.335938 28.089844 14.578125 28.386719 15 28.625 C 15.355469 28.785156 15.6875 28.800781 16.058594 28.683594 C 16.433594 28.527344 16.722656 28.269531 16.933594 27.925781 C 17.097656 27.496094 17.117188 27.113281 16.933594 26.683594 C 16.714844 26.246094 16.390625 26.03125 15.9375 25.875 C 15.300781 25.761719 14.792969 26.003906 14.398438 26.5 Z M 14.398438 26.5 "/>
<path style=" stroke:none;fill-rule:nonzero;fill:#ffffff;fill-opacity:1;" d="M 3.5 -0.0390625 C 3.613281 -0.0390625 3.726562 -0.0390625 3.839844 -0.0429688 C 4.148438 -0.0429688 4.453125 -0.0429688 4.761719 -0.0390625 C 5.09375 -0.0390625 5.425781 -0.0429688 5.757812 -0.0429688 C 6.40625 -0.0429688 7.058594 -0.0429688 7.707031 -0.0429688 C 8.234375 -0.0429688 8.765625 -0.0429688 9.292969 -0.0429688 C 9.367188 -0.0429688 9.441406 -0.0429688 9.519531 -0.0429688 C 9.671875 -0.0429688 9.828125 -0.0429688 9.980469 -0.0429688 C 11.414062 -0.0429688 12.847656 -0.0429688 14.277344 -0.0390625 C 15.507812 -0.0390625 16.738281 -0.0390625 17.964844 -0.0390625 C 19.394531 -0.0429688 20.820312 -0.0429688 22.25 -0.0429688 C 22.402344 -0.0429688 22.554688 -0.0429688 22.707031 -0.0429688 C 22.78125 -0.0429688 22.859375 -0.0429688 22.933594 -0.0429688 C 23.460938 -0.0429688 23.988281 -0.0429688 24.515625 -0.0429688 C 25.160156 -0.0429688 25.804688 -0.0429688 26.445312 -0.0429688 C 26.773438 -0.0390625 27.101562 -0.0390625 27.429688 -0.0429688 C 27.730469 -0.0429688 28.03125 -0.0429688 28.332031 -0.0390625 C 28.441406 -0.0390625 28.550781 -0.0390625 28.65625 -0.0390625 C 29.609375 -0.046875 30.398438 0.148438 31.125 0.8125 C 31.898438 1.691406 32.019531 2.601562 32.015625 3.742188 C 32.015625 3.824219 32.015625 3.90625 32.015625 3.992188 C 32.015625 4.214844 32.011719 4.4375 32.011719 4.660156 C 32.011719 4.894531 32.011719 5.128906 32.011719 5.363281 C 32.011719 5.804688 32.011719 6.25 32.007812 6.691406 C 32.007812 7.195312 32.007812 7.699219 32.007812 8.203125 C 32.003906 9.242188 32.003906 10.277344 32 11.3125 C 31.671875 11.3125 31.339844 11.3125 31 11.3125 C 31 11.207031 31 11.105469 31 11 C 30.992188 10.023438 30.988281 9.046875 30.980469 8.070312 C 30.980469 7.566406 30.976562 7.066406 30.972656 6.5625 C 30.972656 6.125 30.96875 5.6875 30.964844 5.25 C 30.964844 5.019531 30.964844 4.785156 30.960938 4.554688 C 30.960938 4.296875 30.960938 4.035156 30.957031 3.777344 C 30.957031 3.703125 30.957031 3.625 30.957031 3.546875 C 30.949219 2.90625 30.878906 2.375 30.5625 1.8125 C 30.542969 1.769531 30.519531 1.722656 30.5 1.675781 C 30.417969 1.527344 30.34375 1.507812 30.1875 1.4375 C 30.128906 1.394531 30.070312 1.355469 30.007812 1.3125 C 29.554688 1.023438 29.066406 0.992188 28.542969 0.992188 C 28.496094 0.992188 28.453125 0.992188 28.40625 0.992188 C 28.261719 0.992188 28.113281 0.992188 27.964844 0.992188 C 27.855469 0.992188 27.75 0.992188 27.644531 0.992188 C 27.347656 0.992188 27.054688 0.992188 26.761719 0.992188 C 26.441406 0.992188 26.125 0.992188 25.808594 0.992188 C 25.1875 0.988281 24.5625 0.988281 23.941406 0.988281 C 23.4375 0.988281 22.929688 0.988281 22.425781 0.988281 C 20.992188 0.988281 19.558594 0.988281 18.128906 0.988281 C 18.050781 0.988281 17.972656 0.988281 17.894531 0.988281 C 17.816406 0.988281 17.738281 0.988281 17.660156 0.988281 C 16.40625 0.988281 15.152344 0.988281 13.898438 0.988281 C 12.609375 0.984375 11.324219 0.984375 10.035156 0.984375 C 9.3125 0.984375 8.589844 0.984375 7.867188 0.984375 C 7.253906 0.984375 6.636719 0.984375 6.023438 0.984375 C 5.707031 0.984375 5.394531 0.984375 5.082031 0.984375 C 4.792969 0.984375 4.503906 0.984375 4.21875 0.984375 C 4.113281 0.984375 4.011719 0.984375 3.90625 0.984375 C 2.84375 0.976562 2.84375 0.976562 1.875 1.375 C 1.84375 1.410156 1.808594 1.441406 1.773438 1.476562 C 1.6875 1.5625 1.6875 1.5625 1.5625 1.5625 C 1.542969 1.597656 1.527344 1.636719 1.507812 1.671875 C 1.464844 1.757812 1.421875 1.839844 1.375 1.925781 C 1.019531 2.578125 1.042969 3.277344 1.046875 4 C 1.046875 4.109375 1.046875 4.214844 1.046875 4.324219 C 1.046875 4.617188 1.046875 4.914062 1.046875 5.210938 C 1.046875 5.527344 1.046875 5.847656 1.046875 6.167969 C 1.046875 6.789062 1.046875 7.414062 1.046875 8.039062 C 1.046875 8.546875 1.046875 9.054688 1.046875 9.5625 C 1.046875 9.632812 1.046875 9.707031 1.046875 9.78125 C 1.046875 9.925781 1.046875 10.074219 1.046875 10.21875 C 1.046875 11.597656 1.046875 12.972656 1.046875 14.347656 C 1.046875 15.527344 1.046875 16.707031 1.046875 17.886719 C 1.046875 19.257812 1.046875 20.628906 1.046875 22 C 1.046875 22.148438 1.046875 22.292969 1.046875 22.4375 C 1.046875 22.511719 1.046875 22.582031 1.046875 22.65625 C 1.046875 23.164062 1.046875 23.671875 1.046875 24.175781 C 1.046875 24.792969 1.046875 25.414062 1.046875 26.03125 C 1.046875 26.34375 1.046875 26.660156 1.046875 26.976562 C 1.046875 27.261719 1.046875 27.550781 1.046875 27.839844 C 1.046875 27.945312 1.046875 28.050781 1.046875 28.152344 C 1.042969 28.980469 1.046875 29.785156 1.640625 30.421875 C 2.257812 30.996094 3.027344 31.019531 3.835938 31.019531 C 3.957031 31.019531 3.957031 31.019531 4.078125 31.023438 C 4.300781 31.023438 4.519531 31.023438 4.742188 31.023438 C 4.972656 31.027344 5.203125 31.027344 5.4375 31.03125 C 5.871094 31.03125 6.308594 31.035156 6.746094 31.035156 C 7.246094 31.039062 7.742188 31.042969 8.242188 31.046875 C 9.265625 31.050781 10.289062 31.058594 11.3125 31.0625 C 11.3125 31.371094 11.3125 31.679688 11.3125 32 C 10.160156 32.007812 9.011719 32.011719 7.859375 32.015625 C 7.324219 32.019531 6.789062 32.019531 6.253906 32.023438 C 5.789062 32.027344 5.320312 32.027344 4.855469 32.03125 C 4.609375 32.03125 4.363281 32.03125 4.117188 32.03125 C 3.882812 32.035156 3.652344 32.035156 3.417969 32.035156 C 3.292969 32.035156 3.167969 32.039062 3.042969 32.039062 C 2.207031 32.035156 1.496094 31.753906 0.875 31.1875 C 0.0390625 30.269531 -0.0078125 29.238281 -0.0078125 28.066406 C -0.0078125 27.957031 -0.0078125 27.851562 -0.0078125 27.742188 C -0.0078125 27.445312 -0.0078125 27.148438 -0.0078125 26.851562 C -0.0078125 26.53125 -0.0078125 26.210938 -0.0078125 25.890625 C -0.0117188 25.265625 -0.0117188 24.640625 -0.0117188 24.011719 C -0.0117188 23.503906 -0.0117188 22.992188 -0.0117188 22.484375 C -0.0117188 21.039062 -0.0117188 19.59375 -0.0117188 18.148438 C -0.0117188 18.070312 -0.0117188 17.992188 -0.0117188 17.910156 C -0.0117188 17.835938 -0.0117188 17.757812 -0.0117188 17.675781 C -0.0117188 16.410156 -0.0117188 15.148438 -0.0117188 13.886719 C -0.015625 12.585938 -0.015625 11.289062 -0.015625 9.992188 C -0.015625 9.261719 -0.015625 8.535156 -0.015625 7.804688 C -0.015625 7.183594 -0.015625 6.566406 -0.015625 5.945312 C -0.015625 5.628906 -0.015625 5.3125 -0.015625 4.996094 C -0.015625 4.707031 -0.015625 4.414062 -0.015625 4.125 C -0.015625 4.019531 -0.015625 3.917969 -0.015625 3.8125 C -0.0195312 2.738281 0.046875 1.664062 0.832031 0.84375 C 1.640625 0.125 2.457031 -0.046875 3.5 -0.0390625 Z M 3.5 -0.0390625 "/>
<path style=" stroke:none;fill-rule:nonzero;fill:#ffffff;fill-opacity:1;" d="M 31 12.25 C 31.328125 12.25 31.660156 12.25 32 12.25 C 32.003906 14.386719 32.003906 16.523438 32.007812 18.65625 C 32.007812 18.910156 32.007812 19.164062 32.007812 19.414062 C 32.007812 19.492188 32.007812 19.492188 32.007812 19.566406 C 32.007812 20.378906 32.007812 21.191406 32.007812 22.003906 C 32.011719 22.839844 32.011719 23.675781 32.011719 24.507812 C 32.011719 25.023438 32.011719 25.539062 32.011719 26.050781 C 32.015625 26.40625 32.015625 26.757812 32.015625 27.113281 C 32.015625 27.316406 32.015625 27.519531 32.015625 27.722656 C 32.023438 30.265625 32.023438 30.265625 31.167969 31.15625 C 30.171875 32.039062 29.210938 32.042969 27.9375 32.035156 C 27.765625 32.035156 27.59375 32.035156 27.425781 32.035156 C 27.054688 32.035156 26.6875 32.035156 26.320312 32.03125 C 25.789062 32.03125 25.257812 32.03125 24.726562 32.027344 C 23.863281 32.027344 23.003906 32.027344 22.140625 32.023438 C 21.304688 32.019531 20.464844 32.019531 19.628906 32.015625 C 19.578125 32.015625 19.527344 32.015625 19.472656 32.015625 C 19.210938 32.015625 18.953125 32.015625 18.695312 32.015625 C 16.546875 32.011719 14.398438 32.007812 12.25 32 C 12.25 31.691406 12.25 31.382812 12.25 31.0625 C 12.335938 31.0625 12.421875 31.0625 12.511719 31.0625 C 14.546875 31.058594 16.582031 31.050781 18.621094 31.046875 C 18.871094 31.042969 19.121094 31.042969 19.371094 31.042969 C 19.445312 31.042969 19.445312 31.042969 19.523438 31.042969 C 20.332031 31.039062 21.140625 31.039062 21.945312 31.035156 C 22.777344 31.035156 23.605469 31.03125 24.433594 31.027344 C 24.945312 31.027344 25.457031 31.027344 25.96875 31.023438 C 26.320312 31.023438 26.671875 31.023438 27.023438 31.019531 C 27.226562 31.019531 27.425781 31.019531 27.628906 31.019531 C 27.847656 31.019531 28.070312 31.019531 28.289062 31.015625 C 28.382812 31.019531 28.382812 31.019531 28.480469 31.019531 C 29.183594 31.011719 29.832031 30.914062 30.359375 30.421875 C 30.902344 29.839844 30.957031 29.113281 30.953125 28.347656 C 30.957031 28.246094 30.957031 28.246094 30.957031 28.140625 C 30.957031 27.910156 30.957031 27.679688 30.957031 27.449219 C 30.957031 27.28125 30.957031 27.117188 30.960938 26.949219 C 30.960938 26.59375 30.960938 26.238281 30.960938 25.882812 C 30.964844 25.367188 30.964844 24.851562 30.964844 24.339844 C 30.96875 23.503906 30.972656 22.667969 30.972656 21.832031 C 30.976562 21.019531 30.976562 20.210938 30.980469 19.398438 C 30.980469 19.347656 30.980469 19.296875 30.980469 19.246094 C 30.980469 18.996094 30.980469 18.746094 30.984375 18.492188 C 30.988281 16.414062 30.996094 14.332031 31 12.25 Z M 31 12.25 "/>
<path style=" stroke:none;fill-rule:nonzero;fill:#ffffff;fill-opacity:1;" d="M 6.5625 25.375 C 7.023438 25.699219 7.324219 26.070312 7.4375 26.625 C 7.492188 27.230469 7.386719 27.675781 6.996094 28.144531 C 6.609375 28.542969 6.238281 28.695312 5.6875 28.71875 C 5.179688 28.699219 4.789062 28.554688 4.414062 28.210938 C 4.023438 27.78125 3.890625 27.324219 3.914062 26.746094 C 3.972656 26.277344 4.152344 25.914062 4.503906 25.59375 C 5.101562 25.136719 5.882812 25.019531 6.5625 25.375 Z M 5.003906 26.574219 C 4.90625 26.832031 4.921875 27.046875 5 27.3125 C 5.128906 27.503906 5.222656 27.597656 5.445312 27.667969 C 5.707031 27.710938 5.84375 27.703125 6.085938 27.585938 C 6.308594 27.382812 6.421875 27.242188 6.464844 26.941406 C 6.421875 26.632812 6.28125 26.449219 6.039062 26.257812 C 5.601562 26.070312 5.304688 26.234375 5.003906 26.574219 Z M 5.003906 26.574219 "/>
<path style=" stroke:none;fill-rule:nonzero;fill:#ffffff;fill-opacity:1;" d="M 28.875 3.5625 C 29.269531 3.859375 29.511719 4.207031 29.625 4.6875 C 29.695312 5.238281 29.621094 5.738281 29.277344 6.191406 C 28.949219 6.542969 28.53125 6.78125 28.046875 6.824219 C 27.425781 6.835938 27.015625 6.695312 26.558594 6.261719 C 26.207031 5.867188 26.101562 5.433594 26.113281 4.914062 C 26.15625 4.332031 26.4375 3.941406 26.875 3.5625 C 27.484375 3.175781 28.261719 3.199219 28.875 3.5625 Z M 27.3125 4.5625 C 27.175781 4.734375 27.128906 4.84375 27.097656 5.058594 C 27.140625 5.367188 27.28125 5.550781 27.523438 5.742188 C 27.726562 5.828125 27.84375 5.84375 28.0625 5.8125 C 28.332031 5.671875 28.515625 5.539062 28.625 5.25 C 28.644531 4.953125 28.601562 4.746094 28.4375 4.5 C 28.039062 4.234375 27.675781 4.234375 27.3125 4.5625 Z M 27.3125 4.5625 "/>
<path style=" stroke:none;fill-rule:nonzero;fill:#ffffff;fill-opacity:1;" d="M 11.230469 7.851562 C 11.648438 8.101562 11.929688 8.433594 12.085938 8.894531 C 12.210938 9.4375 12.160156 9.953125 11.875 10.4375 C 11.578125 10.832031 11.171875 11.089844 10.6875 11.1875 C 10.105469 11.238281 9.652344 11.148438 9.199219 10.769531 C 8.859375 10.445312 8.65625 10.078125 8.613281 9.609375 C 8.601562 8.984375 8.742188 8.578125 9.175781 8.121094 C 9.746094 7.613281 10.542969 7.535156 11.230469 7.851562 Z M 9.8125 8.9375 C 9.675781 9.109375 9.628906 9.21875 9.597656 9.433594 C 9.640625 9.742188 9.78125 9.925781 10.023438 10.117188 C 10.226562 10.203125 10.34375 10.21875 10.5625 10.1875 C 10.832031 10.046875 11.015625 9.914062 11.125 9.625 C 11.144531 9.328125 11.101562 9.121094 10.9375 8.875 C 10.539062 8.609375 10.175781 8.609375 9.8125 8.9375 Z M 9.8125 8.9375 "/>
<path style=" stroke:none;fill-rule:nonzero;fill:#ffffff;fill-opacity:1;" d="M 22.0625 24.875 C 22.390625 24.875 22.722656 24.875 23.0625 24.875 C 23.0625 25.203125 23.0625 25.535156 23.0625 25.875 C 22.734375 25.875 22.402344 25.875 22.0625 25.875 C 22.0625 25.546875 22.0625 25.214844 22.0625 24.875 Z M 22.0625 24.875 "/>
<path style=" stroke:none;fill-rule:nonzero;fill:#ffffff;fill-opacity:1;" d="M 28.1875 21.125 C 28.515625 21.125 28.847656 21.125 29.1875 21.125 C 29.1875 21.453125 29.1875 21.785156 29.1875 22.125 C 28.859375 22.125 28.527344 22.125 28.1875 22.125 C 28.1875 21.796875 28.1875 21.464844 28.1875 21.125 Z M 28.1875 21.125 "/>
<path style=" stroke:none;fill-rule:nonzero;fill:#ffffff;fill-opacity:1;" d="M 17.0625 16.5 C 17.390625 16.5 17.722656 16.5 18.0625 16.5 C 18.0625 16.828125 18.0625 17.160156 18.0625 17.5 C 17.734375 17.5 17.402344 17.5 17.0625 17.5 C 17.0625 17.171875 17.0625 16.839844 17.0625 16.5 Z M 17.0625 16.5 "/>
</g>
</svg>