<svg xmlns="http://www.w3.org/2000/svg" xmlns:xlink="http://www.w3.org/1999/xlink" width="32px" height="32px" viewBox="0 0 32 32" version="1.1">
    <g id="surface1">
        <path style=" stroke:none;fill-rule:nonzero;fill:#ffffff;fill-opacity:1;" d="M 15.257812 1.078125 C 15.492188 1.25 15.71875 1.4375 15.9375 1.625 C 16.171875 1.546875 16.320312 1.453125 16.5 1.273438 C 17.484375 0.367188 18.851562 -0.0390625 20.171875 -0.03125 C 20.289062 -0.0234375 20.289062 -0.0234375 20.40625 -0.0234375 C 22.023438 0 23.367188 0.671875 24.5 1.8125 C 25.664062 3.03125 26.03125 4.539062 26.015625 6.171875 C 25.96875 7.914062 25.023438 9.25 23.828125 10.429688 C 23.765625 10.492188 23.703125 10.554688 23.640625 10.617188 C 23.484375 10.78125 23.320312 10.9375 23.15625 11.101562 C 22.992188 11.265625 22.828125 11.429688 22.65625 11.59375 C 22.335938 11.921875 22.015625 12.242188 21.6875 12.5625 C 21.851562 12.695312 22.023438 12.828125 22.195312 12.960938 C 22.960938 13.554688 23.65625 14.164062 24.25 14.9375 C 24.296875 14.992188 24.34375 15.054688 24.390625 15.109375 C 25.351562 16.34375 25.945312 17.734375 26.3125 19.25 C 26.320312 19.296875 26.335938 19.34375 26.34375 19.390625 C 26.65625 20.742188 26.640625 22.398438 26.3125 23.75 C 26.296875 23.828125 26.296875 23.828125 26.273438 23.90625 C 25.90625 25.40625 25.28125 26.789062 24.3125 28 C 24.226562 28.109375 24.140625 28.21875 24.0625 28.328125 C 24 28.40625 23.9375 28.484375 23.875 28.5625 C 23.65625 28.46875 23.5 28.335938 23.328125 28.179688 C 23.28125 28.132812 23.226562 28.085938 23.179688 28.039062 C 23.140625 28.007812 23.101562 27.976562 23.0625 27.9375 C 23.15625 27.71875 23.289062 27.5625 23.4375 27.390625 C 24.484375 26.125 25.054688 24.585938 25.375 23 C 24.09375 23 22.820312 23 21.5 23 C 21.5 23.578125 21.5 24.15625 21.5 24.75 C 21.296875 25.117188 21.210938 25.257812 20.914062 25.507812 C 20.851562 25.5625 20.789062 25.625 20.734375 25.679688 C 20.578125 25.828125 20.414062 25.976562 20.257812 26.117188 C 20.085938 26.265625 19.929688 26.414062 19.765625 26.570312 C 19.453125 26.859375 19.132812 27.148438 18.8125 27.4375 C 18.929688 27.6875 19.09375 27.851562 19.289062 28.03125 C 19.359375 28.101562 19.429688 28.171875 19.5 28.234375 C 19.609375 28.34375 19.71875 28.445312 19.835938 28.554688 C 20.539062 29.210938 20.539062 29.210938 20.578125 29.578125 C 20.570312 29.65625 20.570312 29.734375 20.5625 29.8125 C 21.1875 29.476562 21.820312 29.085938 22.3125 28.5625 C 22.539062 28.65625 22.664062 28.789062 22.828125 28.96875 C 22.890625 29.046875 22.890625 29.046875 22.960938 29.117188 C 23.0625 29.25 23.0625 29.25 23.0625 29.375 C 22.9375 29.484375 22.8125 29.585938 22.679688 29.6875 C 22.640625 29.71875 22.601562 29.75 22.5625 29.78125 C 20.648438 31.25 18.4375 32.03125 16.015625 32.015625 C 15.945312 32.015625 15.945312 32.015625 15.867188 32.015625 C 15.132812 32.015625 14.40625 31.992188 13.6875 31.8125 C 13.640625 31.804688 13.601562 31.789062 13.554688 31.78125 C 13.242188 31.695312 12.929688 31.601562 12.625 31.5 C 12.585938 31.484375 12.539062 31.46875 12.5 31.460938 C 9.90625 30.585938 7.828125 28.648438 6.5625 26.25 C 6.164062 25.453125 5.898438 24.617188 5.6875 23.75 C 5.679688 23.703125 5.664062 23.65625 5.65625 23.609375 C 5.34375 22.257812 5.359375 20.601562 5.6875 19.25 C 5.703125 19.195312 5.710938 19.148438 5.726562 19.09375 C 5.914062 18.34375 6.15625 17.632812 6.5 16.9375 C 6.523438 16.890625 6.539062 16.851562 6.5625 16.804688 C 6.984375 15.960938 7.476562 15.203125 8.125 14.515625 C 8.234375 14.390625 8.34375 14.265625 8.453125 14.132812 C 8.992188 13.507812 9.6875 13.015625 10.375 12.5625 C 10.351562 12.515625 10.320312 12.46875 10.296875 12.421875 C 10.039062 11.96875 9.898438 11.585938 10 11.0625 C 10.15625 10.578125 10.4375 10.265625 10.796875 9.914062 C 10.859375 9.859375 10.914062 9.804688 10.96875 9.742188 C 11.117188 9.59375 11.273438 9.445312 11.421875 9.296875 C 11.585938 9.140625 11.742188 8.976562 11.898438 8.820312 C 12.203125 8.523438 12.5 8.226562 12.804688 7.929688 C 13.140625 7.585938 13.484375 7.25 13.828125 6.90625 C 14.53125 6.210938 15.234375 5.507812 15.9375 4.8125 C 16.125 4.898438 16.257812 4.992188 16.398438 5.140625 C 16.4375 5.179688 16.476562 5.21875 16.523438 5.257812 C 16.5625 5.304688 16.609375 5.351562 16.648438 5.390625 C 16.742188 5.484375 16.835938 5.578125 16.921875 5.671875 C 17.070312 5.820312 17.210938 5.96875 17.351562 6.109375 C 17.492188 6.25 17.632812 6.390625 17.773438 6.53125 C 17.8125 6.578125 17.859375 6.625 17.898438 6.664062 C 18.125 6.898438 18.320312 7.070312 18.625 7.1875 C 18.828125 7.179688 18.914062 7.140625 19.078125 7.015625 C 19.195312 6.882812 19.195312 6.882812 19.234375 6.703125 C 19.101562 6.109375 18.296875 5.53125 17.875 5.109375 C 17.835938 5.070312 17.789062 5.023438 17.75 4.984375 C 17.53125 4.757812 17.304688 4.53125 17.085938 4.3125 C 16.898438 4.125 16.71875 3.945312 16.539062 3.757812 C 16.3125 3.539062 16.09375 3.3125 15.875 3.085938 C 15.789062 3.007812 15.703125 2.921875 15.617188 2.835938 C 14.625 1.820312 13.5 1.0625 12.03125 1.039062 C 10.59375 1.039062 9.398438 1.445312 8.351562 2.453125 C 7.382812 3.460938 7.023438 4.71875 7.046875 6.09375 C 7.109375 7.953125 8.375 9.148438 9.625 10.375 C 9.570312 10.445312 9.515625 10.507812 9.460938 10.578125 C 9.429688 10.609375 9.398438 10.648438 9.367188 10.6875 C 9.21875 10.851562 9.046875 10.984375 8.875 11.125 C 8.664062 10.921875 8.453125 10.710938 8.242188 10.5 C 8.164062 10.429688 8.09375 10.359375 8.023438 10.289062 C 6.898438 9.203125 6.03125 7.828125 5.984375 6.21875 C 5.96875 4.539062 6.351562 3.09375 7.5 1.8125 C 7.539062 1.765625 7.578125 1.726562 7.617188 1.679688 C 9.585938 -0.421875 12.976562 -0.554688 15.257812 1.078125 Z M 17 2.1875 C 16.914062 2.289062 16.835938 2.398438 16.75 2.5 C 16.789062 2.539062 16.820312 2.570312 16.859375 2.609375 C 17.210938 2.960938 17.5625 3.304688 17.90625 3.648438 C 18.085938 3.828125 18.265625 4.007812 18.445312 4.1875 C 18.617188 4.359375 18.789062 4.53125 18.960938 4.703125 C 19.03125 4.765625 19.09375 4.835938 19.164062 4.898438 C 20.179688 5.90625 20.179688 5.90625 20.21875 6.671875 C 20.203125 7.125 20.078125 7.476562 19.757812 7.804688 C 19.382812 8.117188 19.023438 8.203125 18.539062 8.1875 C 18.195312 8.148438 17.976562 8.015625 17.703125 7.820312 C 17.65625 7.796875 17.609375 7.773438 17.5625 7.75 C 17.359375 7.828125 17.234375 7.9375 17.085938 8.085938 C 17.039062 8.132812 16.992188 8.179688 16.945312 8.21875 C 16.898438 8.273438 16.851562 8.320312 16.804688 8.367188 C 16.75 8.421875 16.703125 8.46875 16.648438 8.523438 C 16.476562 8.695312 16.3125 8.859375 16.140625 9.03125 C 16.023438 9.148438 15.90625 9.265625 15.789062 9.382812 C 15.546875 9.625 15.296875 9.875 15.054688 10.117188 C 14.773438 10.40625 14.484375 10.6875 14.203125 10.976562 C 13.929688 11.25 13.65625 11.523438 13.382812 11.796875 C 13.265625 11.914062 13.148438 12.023438 13.03125 12.140625 C 12.875 12.304688 12.710938 12.46875 12.546875 12.632812 C 12.5 12.679688 12.453125 12.726562 12.398438 12.78125 C 12.359375 12.820312 12.3125 12.867188 12.265625 12.914062 C 12.226562 12.953125 12.1875 12.992188 12.148438 13.03125 C 12.023438 13.164062 12 13.242188 11.984375 13.421875 C 12.007812 13.679688 12.0625 13.765625 12.25 13.9375 C 12.460938 14.015625 12.460938 14.015625 12.6875 14 C 13.03125 13.804688 13.296875 13.539062 13.570312 13.257812 C 13.617188 13.210938 13.671875 13.15625 13.71875 13.109375 C 13.882812 12.945312 14.046875 12.78125 14.203125 12.617188 C 14.320312 12.507812 14.429688 12.390625 14.546875 12.28125 C 14.8125 12.015625 15.078125 11.742188 15.34375 11.476562 C 15.648438 11.171875 15.953125 10.867188 16.257812 10.5625 C 16.875 9.9375 17.5 9.3125 18.125 8.6875 C 18.320312 8.78125 18.453125 8.882812 18.609375 9.039062 C 18.648438 9.078125 18.6875 9.117188 18.726562 9.15625 C 18.757812 9.1875 18.78125 9.21875 18.8125 9.25 C 18.726562 9.4375 18.640625 9.5625 18.5 9.703125 C 18.4375 9.765625 18.4375 9.765625 18.382812 9.820312 C 18.335938 9.867188 18.296875 9.90625 18.25 9.953125 C 18.203125 9.992188 18.15625 10.039062 18.117188 10.085938 C 17.960938 10.234375 17.8125 10.382812 17.664062 10.53125 C 17.5625 10.632812 17.460938 10.734375 17.359375 10.84375 C 17.085938 11.109375 16.8125 11.382812 16.539062 11.65625 C 16.101562 12.085938 15.664062 12.523438 15.226562 12.953125 C 15.078125 13.109375 14.921875 13.257812 14.773438 13.414062 C 14.679688 13.507812 14.585938 13.59375 14.492188 13.6875 C 14.453125 13.734375 14.40625 13.773438 14.359375 13.820312 C 14.320312 13.859375 14.28125 13.898438 14.242188 13.9375 C 14.195312 13.984375 14.195312 13.984375 14.140625 14.039062 C 14.023438 14.171875 14 14.25 13.984375 14.421875 C 14.007812 14.679688 14.0625 14.765625 14.25 14.9375 C 14.460938 15.015625 14.460938 15.015625 14.6875 15 C 15.015625 14.8125 15.265625 14.570312 15.523438 14.304688 C 15.570312 14.257812 15.609375 14.210938 15.65625 14.164062 C 15.804688 14.023438 15.953125 13.875 16.09375 13.726562 C 16.195312 13.625 16.296875 13.523438 16.40625 13.421875 C 16.671875 13.15625 16.9375 12.882812 17.203125 12.617188 C 17.476562 12.34375 17.75 12.070312 18.023438 11.796875 C 18.554688 11.257812 19.09375 10.726562 19.625 10.1875 C 19.820312 10.28125 19.953125 10.382812 20.109375 10.539062 C 20.148438 10.578125 20.1875 10.617188 20.226562 10.65625 C 20.257812 10.6875 20.28125 10.71875 20.3125 10.75 C 20.21875 10.976562 20.085938 11.117188 19.914062 11.289062 C 19.828125 11.367188 19.828125 11.367188 19.734375 11.453125 C 19.703125 11.484375 19.671875 11.515625 19.640625 11.546875 C 19.546875 11.640625 19.453125 11.734375 19.359375 11.828125 C 19.085938 12.09375 18.8125 12.359375 18.539062 12.625 C 18.375 12.789062 18.203125 12.953125 18.039062 13.117188 C 17.976562 13.179688 17.914062 13.242188 17.851562 13.304688 C 17.757812 13.390625 17.671875 13.476562 17.578125 13.5625 C 17.53125 13.617188 17.476562 13.664062 17.429688 13.71875 C 17.28125 13.914062 17.257812 14.0625 17.25 14.3125 C 17.328125 14.492188 17.390625 14.59375 17.546875 14.710938 C 17.757812 14.765625 17.921875 14.765625 18.125 14.6875 C 18.335938 14.53125 18.515625 14.351562 18.695312 14.164062 C 18.75 14.109375 18.804688 14.054688 18.859375 14 C 19.015625 13.851562 19.164062 13.695312 19.3125 13.546875 C 19.46875 13.390625 19.625 13.226562 19.789062 13.070312 C 20.054688 12.804688 20.320312 12.539062 20.585938 12.273438 C 20.890625 11.960938 21.195312 11.65625 21.5 11.351562 C 21.796875 11.054688 22.09375 10.757812 22.390625 10.460938 C 22.515625 10.335938 22.640625 10.210938 22.765625 10.085938 C 24.015625 8.835938 25.015625 7.632812 25.03125 5.78125 C 25.015625 4.414062 24.492188 3.273438 23.546875 2.289062 C 22.5 1.289062 21.226562 0.96875 19.820312 0.984375 C 18.773438 1.015625 17.757812 1.460938 17 2.1875 Z M 15.84375 6.328125 C 15.8125 6.359375 15.773438 6.398438 15.734375 6.4375 C 15.695312 6.476562 15.65625 6.515625 15.609375 6.554688 C 15.570312 6.601562 15.523438 6.648438 15.476562 6.695312 C 15.429688 6.742188 15.382812 6.789062 15.335938 6.835938 C 15.171875 7 15.015625 7.15625 14.859375 7.3125 C 14.75 7.421875 14.640625 7.53125 14.53125 7.640625 C 14.304688 7.867188 14.078125 8.09375 13.851562 8.328125 C 13.554688 8.617188 13.265625 8.914062 12.96875 9.210938 C 12.742188 9.429688 12.515625 9.65625 12.289062 9.882812 C 12.1875 9.992188 12.078125 10.101562 11.96875 10.210938 C 11.820312 10.359375 11.664062 10.515625 11.515625 10.664062 C 11.46875 10.710938 11.421875 10.75 11.375 10.796875 C 11.335938 10.84375 11.296875 10.882812 11.257812 10.921875 C 11.21875 10.960938 11.179688 11 11.148438 11.03125 C 11.023438 11.164062 11 11.242188 10.984375 11.421875 C 11.007812 11.679688 11.0625 11.765625 11.25 11.9375 C 11.460938 12.015625 11.460938 12.015625 11.6875 12 C 12.015625 11.8125 12.273438 11.5625 12.539062 11.289062 C 12.578125 11.242188 12.625 11.203125 12.671875 11.15625 C 12.828125 11 12.976562 10.851562 13.125 10.703125 C 13.226562 10.59375 13.335938 10.492188 13.4375 10.382812 C 13.710938 10.109375 13.984375 9.835938 14.257812 9.5625 C 14.539062 9.28125 14.820312 9 15.101562 8.71875 C 15.648438 8.164062 16.203125 7.617188 16.75 7.0625 C 16.648438 6.835938 16.523438 6.6875 16.34375 6.515625 C 16.296875 6.46875 16.242188 6.414062 16.195312 6.367188 C 16.046875 6.234375 16 6.195312 15.84375 6.328125 Z M 20.71875 13.453125 C 20.679688 13.484375 20.648438 13.523438 20.609375 13.5625 C 20.554688 13.617188 20.554688 13.617188 20.492188 13.679688 C 20.453125 13.726562 20.40625 13.773438 20.367188 13.820312 C 20.273438 13.914062 20.1875 14 20.09375 14.09375 C 19.953125 14.242188 19.8125 14.390625 19.671875 14.539062 C 19.53125 14.679688 19.390625 14.820312 19.257812 14.960938 C 19.210938 15.007812 19.171875 15.046875 19.132812 15.09375 C 18.757812 15.476562 18.34375 15.6875 17.804688 15.71875 C 17.320312 15.695312 16.96875 15.523438 16.625 15.1875 C 16.507812 15.015625 16.507812 15.015625 16.4375 14.875 C 16.203125 14.96875 16.0625 15.117188 15.890625 15.304688 C 15.5 15.703125 15.148438 15.9375 14.585938 15.953125 C 14.1875 15.953125 13.8125 15.851562 13.507812 15.585938 C 13.367188 15.421875 13.257812 15.273438 13.171875 15.078125 C 13.117188 15.007812 13.117188 15.007812 13.0625 14.9375 C 12.882812 14.90625 12.882812 14.90625 12.6875 14.9375 C 12.234375 14.953125 11.859375 14.890625 11.507812 14.585938 C 11.203125 14.257812 11.054688 13.882812 11 13.4375 C 9.164062 14.296875 7.757812 16.335938 7.0625 18.1875 C 6.945312 18.515625 6.84375 18.851562 6.75 19.1875 C 6.734375 19.234375 6.71875 19.28125 6.703125 19.335938 C 6.679688 19.578125 6.78125 19.671875 6.929688 19.859375 C 6.960938 19.890625 6.984375 19.921875 7.015625 19.960938 C 7.382812 20.414062 7.765625 20.84375 8.164062 21.265625 C 8.21875 21.328125 8.21875 21.328125 8.28125 21.390625 C 9.226562 22.414062 10.09375 23.164062 11.53125 23.242188 C 12.523438 23.273438 13.523438 23.164062 14.5 23 C 14.578125 23.5625 14.632812 24.125 14.65625 24.6875 C 14.65625 24.726562 14.65625 24.773438 14.664062 24.8125 C 14.703125 26.023438 14.5 26.867188 13.664062 27.765625 C 13.015625 28.453125 12.289062 29.0625 11.554688 29.648438 C 11.515625 29.679688 11.476562 29.710938 11.4375 29.75 C 11.4375 29.789062 11.4375 29.835938 11.4375 29.875 C 13.382812 30.945312 15.953125 31.414062 18.125 30.8125 C 18.203125 30.789062 18.203125 30.789062 18.289062 30.765625 C 18.90625 30.609375 18.90625 30.609375 19.5 30.375 C 19.539062 30.085938 19.570312 29.804688 19.414062 29.546875 C 19.296875 29.40625 19.171875 29.28125 19.03125 29.15625 C 18.960938 29.085938 18.960938 29.085938 18.890625 29.015625 C 18.742188 28.867188 18.59375 28.726562 18.4375 28.578125 C 18.335938 28.484375 18.234375 28.382812 18.132812 28.28125 C 17.882812 28.039062 17.625 27.804688 17.375 27.5625 C 17.46875 27.335938 17.601562 27.203125 17.789062 27.046875 C 17.851562 26.992188 17.90625 26.9375 17.96875 26.882812 C 18 26.859375 18.039062 26.828125 18.070312 26.804688 C 18.273438 26.617188 18.476562 26.429688 18.6875 26.242188 C 18.859375 26.070312 19.039062 25.914062 19.226562 25.757812 C 19.28125 25.710938 19.28125 25.710938 19.335938 25.664062 C 19.429688 25.578125 19.53125 25.492188 19.632812 25.40625 C 20.851562 24.15625 20.5 24.054688 20.5 22 C 22.148438 22 23.796875 22 25.5 22 C 25.507812 20.695312 25.507812 20.695312 25.3125 19.4375 C 25.304688 19.390625 25.289062 19.34375 25.28125 19.296875 C 24.710938 16.851562 23.1875 14.921875 21.171875 13.484375 C 20.992188 13.375 20.890625 13.3125 20.71875 13.453125 Z M 6.5 20.75 C 6.476562 21.703125 6.46875 22.632812 6.6875 23.5625 C 6.695312 23.609375 6.710938 23.664062 6.71875 23.710938 C 7.078125 25.234375 7.796875 26.664062 8.875 27.804688 C 8.992188 27.929688 9.09375 28.054688 9.203125 28.1875 C 9.398438 28.414062 9.625 28.609375 9.851562 28.804688 C 9.90625 28.851562 9.90625 28.851562 9.953125 28.898438 C 10.148438 29.054688 10.328125 29.164062 10.5625 29.25 C 11.0625 28.820312 11.554688 28.375 12.03125 27.921875 C 12.0625 27.890625 12.101562 27.859375 12.140625 27.828125 C 13.242188 26.8125 13.242188 26.8125 13.703125 25.4375 C 13.710938 24.953125 13.632812 24.46875 13.5 24 C 13.460938 24.007812 13.421875 24.015625 13.382812 24.015625 C 12.859375 24.09375 12.34375 24.140625 11.828125 24.171875 C 11.78125 24.171875 11.742188 24.171875 11.695312 24.171875 C 10.523438 24.21875 9.671875 24.023438 8.796875 23.226562 C 8.023438 22.507812 7.328125 21.695312 6.664062 20.867188 C 6.632812 20.828125 6.59375 20.789062 6.5625 20.75 C 6.539062 20.75 6.523438 20.75 6.5 20.75 Z M 6.5 20.75 "/>
        <path style=" stroke:none;fill-rule:nonzero;fill:#ffffff;fill-opacity:1;" d="M 18.5 16.5 C 18.828125 16.5 19.15625 16.5 19.5 16.5 C 19.5 17.328125 19.5 18.148438 19.5 19 C 18.90625 19.046875 18.320312 19.085938 17.726562 19.101562 C 17.679688 19.101562 17.640625 19.101562 17.59375 19.109375 C 15.726562 19.15625 15.726562 19.15625 15.015625 18.53125 C 14.671875 18.1875 14.375 17.796875 14.125 17.375 C 14.351562 17.09375 14.585938 16.851562 14.875 16.625 C 14.90625 16.664062 14.929688 16.703125 14.960938 16.742188 C 15.351562 17.273438 15.796875 17.875 16.476562 18.007812 C 17.148438 18.09375 17.828125 18.046875 18.5 18 C 18.5 17.507812 18.5 17.007812 18.5 16.5 Z M 18.5 16.5 "/>
        <path style=" stroke:none;fill-rule:nonzero;fill:#ffffff;fill-opacity:1;" d="M 15.4375 21 C 15.8125 21 16.179688 21 16.5625 21 C 16.5625 21.328125 16.5625 21.65625 16.5625 22 C 16.1875 22 15.820312 22 15.4375 22 C 15.4375 21.671875 15.4375 21.34375 15.4375 21 Z M 15.4375 21 "/>
        <path style=" stroke:none;fill-rule:nonzero;fill:#ffffff;fill-opacity:1;" d="M 17.5 21 C 17.851562 21 18.203125 21 18.5625 21 C 18.5625 21.328125 18.5625 21.65625 18.5625 22 C 18.210938 22 17.859375 22 17.5 22 C 17.5 21.671875 17.5 21.34375 17.5 21 Z M 17.5 21 "/>
        <path style=" stroke:none;fill-rule:nonzero;fill:#ffffff;fill-opacity:1;" d="M 13.4375 21 C 13.789062 21 14.140625 21 14.5 21 C 14.5 21.328125 14.5 21.65625 14.5 22 C 14.148438 22 13.796875 22 13.4375 22 C 13.4375 21.671875 13.4375 21.34375 13.4375 21 Z M 13.4375 21 "/>
    </g>
</svg>