<svg xmlns="http://www.w3.org/2000/svg" xmlns:xlink="http://www.w3.org/1999/xlink" width="32px" height="32px" viewBox="0 0 32 32" version="1.1">
    <g id="surface1">
        <path style=" stroke:none;fill-rule:nonzero;fill:#ffffff;fill-opacity:1;" d="M 15.976562 -0.015625 C 16.039062 -0.015625 16.101562 -0.015625 16.171875 -0.015625 C 17.085938 -0.015625 17.976562 0 18.875 0.1875 C 18.9375 0.203125 19 0.210938 19.0625 0.226562 C 22.554688 0.953125 25.390625 2.664062 27.875 5.1875 C 27.789062 5.398438 27.679688 5.523438 27.507812 5.671875 C 27.445312 5.734375 27.445312 5.734375 27.382812 5.796875 C 27.25 5.875 27.25 5.875 27.132812 5.859375 C 26.96875 5.804688 26.890625 5.726562 26.773438 5.601562 C 26.734375 5.554688 26.6875 5.507812 26.648438 5.460938 C 26.601562 5.414062 26.554688 5.367188 26.507812 5.320312 C 26.054688 4.851562 25.585938 4.445312 25.0625 4.0625 C 24.992188 4.007812 24.921875 3.953125 24.851562 3.90625 C 23.703125 3.054688 21.78125 1.6875 20.3125 1.6875 C 20.335938 1.765625 20.335938 1.765625 20.359375 1.851562 C 20.523438 2.359375 20.679688 2.867188 20.835938 3.382812 C 20.921875 3.640625 21 3.90625 21.085938 4.164062 C 21.117188 4.265625 21.148438 4.367188 21.179688 4.46875 C 21.203125 4.546875 21.203125 4.546875 21.226562 4.625 C 21.304688 4.875 21.382812 5.132812 21.460938 5.390625 C 21.492188 5.492188 21.523438 5.59375 21.5625 5.695312 C 21.578125 5.75 21.59375 5.796875 21.609375 5.851562 C 21.703125 6.164062 21.796875 6.46875 21.898438 6.78125 C 21.960938 6.976562 22.023438 7.179688 22.085938 7.382812 C 22.117188 7.476562 22.148438 7.570312 22.179688 7.664062 C 22.476562 8.570312 22.539062 9.445312 22.554688 10.398438 C 22.5625 10.71875 22.578125 11.046875 22.59375 11.375 C 22.601562 11.460938 22.601562 11.460938 22.601562 11.546875 C 22.609375 11.664062 22.617188 11.78125 22.625 11.898438 C 22.648438 12.320312 22.664062 12.75 22.679688 13.171875 C 22.6875 13.3125 22.695312 13.445312 22.703125 13.585938 C 22.734375 14.257812 22.734375 14.257812 22.539062 14.476562 C 22.445312 14.554688 22.445312 14.554688 22.34375 14.625 C 22.265625 14.6875 22.1875 14.75 22.117188 14.8125 C 22.078125 14.84375 22.039062 14.875 21.992188 14.90625 C 21.789062 15.070312 21.601562 15.257812 21.40625 15.4375 C 21.328125 15.515625 21.25 15.585938 21.171875 15.65625 C 21.132812 15.695312 21.09375 15.734375 21.046875 15.765625 C 20.84375 15.960938 20.640625 16.148438 20.429688 16.34375 C 20.171875 16.578125 19.914062 16.820312 19.65625 17.0625 C 19.335938 17.367188 19.007812 17.664062 18.679688 17.96875 C 18.421875 18.210938 18.15625 18.453125 17.898438 18.695312 C 17.515625 19.046875 17.132812 19.398438 16.75 19.75 C 16.609375 19.609375 16.578125 19.515625 16.523438 19.320312 C 16.5 19.257812 16.484375 19.195312 16.460938 19.132812 C 16.4375 19.0625 16.421875 19 16.398438 18.929688 C 16.351562 18.78125 16.304688 18.640625 16.257812 18.492188 C 16.1875 18.265625 16.117188 18.039062 16.046875 17.804688 C 15.976562 17.585938 15.90625 17.367188 15.835938 17.148438 C 15.820312 17.078125 15.796875 17.015625 15.78125 16.945312 C 15.554688 16.25 15.117188 15.734375 14.640625 15.195312 C 14.570312 15.117188 14.5 15.039062 14.429688 14.960938 C 14.398438 14.929688 14.367188 14.898438 14.335938 14.859375 C 14.234375 14.726562 14.148438 14.578125 14.0625 14.4375 C 14.3125 14.234375 14.554688 14.023438 14.8125 13.8125 C 15.304688 14.304688 15.757812 14.828125 16.1875 15.375 C 16.265625 15.460938 16.265625 15.460938 16.34375 15.554688 C 16.570312 15.875 16.671875 16.265625 16.789062 16.632812 C 16.835938 16.765625 16.875 16.898438 16.921875 17.023438 C 17.125 17.65625 17.125 17.65625 17.125 17.875 C 17.476562 17.617188 17.796875 17.34375 18.101562 17.023438 C 18.265625 16.859375 18.4375 16.710938 18.617188 16.554688 C 18.835938 16.359375 19.046875 16.15625 19.265625 15.953125 C 19.578125 15.65625 19.90625 15.351562 20.226562 15.054688 C 20.53125 14.773438 20.835938 14.492188 21.140625 14.203125 C 21.179688 14.171875 21.226562 14.132812 21.265625 14.09375 C 21.445312 13.921875 21.445312 13.921875 21.625 13.75 C 21.632812 13.632812 21.632812 13.632812 21.625 13.5 C 21.617188 13.445312 21.617188 13.390625 21.617188 13.335938 C 21.617188 13.28125 21.609375 13.21875 21.609375 13.15625 C 21.609375 13.09375 21.601562 13.039062 21.601562 12.976562 C 21.585938 12.632812 21.570312 12.296875 21.554688 11.953125 C 21.546875 11.8125 21.539062 11.671875 21.53125 11.53125 C 21.53125 11.429688 21.53125 11.429688 21.523438 11.328125 C 21.507812 10.960938 21.5 10.59375 21.5 10.226562 C 21.5 8.679688 20.953125 7.257812 20.46875 5.796875 C 20.226562 5.0625 20 4.328125 19.773438 3.59375 C 19.695312 3.335938 19.609375 3.078125 19.53125 2.820312 C 19.492188 2.703125 19.453125 2.578125 19.421875 2.460938 C 19.375 2.3125 19.328125 2.164062 19.28125 2.015625 C 19.257812 1.953125 19.234375 1.882812 19.21875 1.820312 C 19.1875 1.734375 19.1875 1.734375 19.164062 1.640625 C 19.125 1.5 19.125 1.5 19.125 1.3125 C 15.234375 0.6875 11.367188 1.15625 8 3.3125 C 7.90625 3.375 7.90625 3.375 7.804688 3.4375 C 6.890625 4.023438 6.078125 4.726562 5.3125 5.5 C 5.09375 5.40625 4.960938 5.28125 4.796875 5.117188 C 4.75 5.070312 4.710938 5.023438 4.664062 4.976562 C 4.632812 4.945312 4.59375 4.914062 4.5625 4.875 C 4.664062 4.632812 4.828125 4.460938 5.015625 4.28125 C 5.0625 4.226562 5.0625 4.226562 5.117188 4.179688 C 5.492188 3.8125 5.890625 3.5 6.3125 3.1875 C 6.351562 3.15625 6.398438 3.125 6.4375 3.09375 C 8.375 1.671875 10.539062 0.71875 12.890625 0.234375 C 12.9375 0.226562 12.984375 0.21875 13.03125 0.203125 C 14.007812 0.015625 14.976562 -0.0234375 15.976562 -0.015625 Z M 15.976562 -0.015625 "/>
        <path style=" stroke:none;fill-rule:nonzero;fill:#ffffff;fill-opacity:1;" d="M 3.875 5.5 C 4.210938 5.59375 4.4375 5.828125 4.6875 6.0625 C 4.546875 6.320312 4.375 6.539062 4.1875 6.765625 C 3.632812 7.460938 3.15625 8.210938 2.75 9 C 2.796875 9.015625 2.84375 9.03125 2.890625 9.054688 C 3.054688 9.117188 3.203125 9.195312 3.351562 9.28125 C 3.414062 9.3125 3.46875 9.351562 3.523438 9.382812 C 3.585938 9.414062 3.648438 9.445312 3.703125 9.484375 C 3.773438 9.523438 3.835938 9.554688 3.898438 9.59375 C 4.296875 9.820312 4.6875 10.046875 5.085938 10.273438 C 5.210938 10.351562 5.335938 10.421875 5.460938 10.5 C 5.75 10.65625 6.023438 10.828125 6.296875 11.015625 C 6.335938 11.046875 6.382812 11.078125 6.429688 11.109375 C 6.5625 11.195312 6.5625 11.195312 6.664062 11.28125 C 6.875 11.421875 7.015625 11.445312 7.265625 11.414062 C 7.5 11.367188 7.726562 11.304688 7.953125 11.234375 C 8.148438 11.179688 8.335938 11.132812 8.53125 11.078125 C 9.078125 10.929688 9.625 10.789062 10.164062 10.640625 C 10.398438 10.570312 10.632812 10.507812 10.867188 10.445312 C 10.9375 10.429688 11.007812 10.40625 11.085938 10.382812 C 11.148438 10.367188 11.21875 10.351562 11.28125 10.335938 C 11.375 10.304688 11.375 10.304688 11.460938 10.28125 C 11.632812 10.25 11.765625 10.234375 11.9375 10.25 C 12.070312 10.382812 12.1875 10.5 12.296875 10.648438 C 12.351562 10.710938 12.351562 10.710938 12.398438 10.773438 C 12.5 10.890625 12.59375 11.007812 12.6875 11.125 C 12.734375 11.179688 12.773438 11.234375 12.820312 11.296875 C 12.898438 11.390625 12.976562 11.492188 13.054688 11.585938 C 13.21875 11.78125 13.375 11.976562 13.539062 12.164062 C 13.789062 12.453125 14.023438 12.75 14.25 13.0625 C 14.164062 13.273438 14.054688 13.398438 13.882812 13.546875 C 13.84375 13.59375 13.796875 13.632812 13.757812 13.671875 C 13.625 13.75 13.625 13.75 13.5 13.75 C 13.320312 13.664062 13.234375 13.539062 13.109375 13.382812 C 13.0625 13.320312 13.015625 13.257812 12.960938 13.195312 C 12.914062 13.132812 12.867188 13.0625 12.8125 13 C 12.71875 12.890625 12.632812 12.773438 12.539062 12.664062 C 12.492188 12.609375 12.445312 12.554688 12.398438 12.492188 C 12.289062 12.359375 12.179688 12.226562 12.0625 12.09375 C 12.03125 12.054688 12 12.015625 11.96875 11.984375 C 11.90625 11.90625 11.84375 11.835938 11.78125 11.765625 C 11.5625 11.515625 11.5625 11.515625 11.5625 11.375 C 11.507812 11.390625 11.453125 11.40625 11.398438 11.421875 C 10.875 11.5625 10.359375 11.703125 9.84375 11.84375 C 9.578125 11.914062 9.3125 11.984375 9.046875 12.0625 C 8.789062 12.132812 8.53125 12.203125 8.273438 12.265625 C 8.171875 12.296875 8.078125 12.320312 7.976562 12.351562 C 7.84375 12.390625 7.703125 12.421875 7.570312 12.460938 C 7.453125 12.492188 7.453125 12.492188 7.328125 12.523438 C 7.039062 12.578125 6.84375 12.53125 6.585938 12.390625 C 6.546875 12.367188 6.507812 12.34375 6.460938 12.320312 C 6.414062 12.289062 6.367188 12.265625 6.328125 12.234375 C 6.273438 12.210938 6.226562 12.179688 6.179688 12.15625 C 5.710938 11.890625 5.25 11.625 4.789062 11.351562 C 4.3125 11.070312 3.828125 10.789062 3.351562 10.515625 C 3.273438 10.46875 3.195312 10.421875 3.117188 10.375 C 3.007812 10.3125 2.898438 10.25 2.789062 10.1875 C 2.726562 10.148438 2.664062 10.117188 2.59375 10.078125 C 2.4375 9.984375 2.4375 9.984375 2.25 10 C 1.585938 11.664062 1.0625 13.421875 1.046875 15.21875 C 1.046875 15.28125 1.046875 15.335938 1.046875 15.390625 C 1.046875 15.570312 1.046875 15.75 1.046875 15.929688 C 1.039062 15.992188 1.039062 16.054688 1.039062 16.117188 C 1.039062 17.320312 1.171875 18.453125 1.4375 19.625 C 2.125 19.578125 2.804688 19.476562 3.492188 19.382812 C 3.640625 19.359375 3.789062 19.335938 3.9375 19.3125 C 4 19.304688 4 19.304688 4.070312 19.296875 C 4.328125 19.257812 4.554688 19.25 4.8125 19.25 C 4.875 19.742188 4.875 19.742188 4.9375 20.25 C 3.359375 20.46875 3.359375 20.46875 1.75 20.6875 C 2.398438 22.398438 3.109375 23.890625 4.25 25.3125 C 4.289062 25.367188 4.289062 25.367188 4.328125 25.414062 C 5.03125 26.296875 5.851562 27.132812 6.75 27.8125 C 6.632812 28.015625 6.507812 28.210938 6.359375 28.390625 C 6.328125 28.4375 6.296875 28.484375 6.265625 28.523438 C 6.234375 28.5625 6.210938 28.59375 6.1875 28.625 C 5.554688 28.34375 5.039062 27.75 4.5625 27.265625 C 4.53125 27.242188 4.5 27.210938 4.46875 27.179688 C 4 26.710938 3.578125 26.226562 3.1875 25.6875 C 3.132812 25.617188 3.078125 25.546875 3.03125 25.476562 C 2.648438 24.960938 2.3125 24.429688 2 23.875 C 1.976562 23.828125 1.953125 23.789062 1.921875 23.742188 C 1.132812 22.335938 0.601562 20.8125 0.265625 19.234375 C 0.25 19.179688 0.242188 19.125 0.226562 19.0625 C 0.0234375 18.054688 -0.0234375 17.0625 -0.0234375 16.039062 C -0.0234375 15.976562 -0.0234375 15.914062 -0.0234375 15.851562 C -0.0234375 14.835938 0.0390625 13.867188 0.25 12.875 C 0.257812 12.820312 0.273438 12.757812 0.28125 12.703125 C 0.804688 10.132812 1.992188 7.382812 3.875 5.5 Z M 3.875 5.5 "/>
        <path style=" stroke:none;fill-rule:nonzero;fill:#ffffff;fill-opacity:1;" d="M 30 21.375 C 30.273438 21.40625 30.5 21.445312 30.75 21.5625 C 30.820312 21.601562 30.820312 21.601562 30.890625 21.632812 C 30.945312 21.664062 30.945312 21.664062 31 21.6875 C 30.4375 23.265625 29.609375 24.6875 28.5625 26 C 28.515625 26.0625 28.460938 26.132812 28.40625 26.195312 C 27.617188 27.171875 26.703125 28.078125 25.6875 28.8125 C 25.617188 28.867188 25.546875 28.921875 25.46875 28.96875 C 24.960938 29.351562 24.429688 29.6875 23.875 30 C 23.8125 30.039062 23.8125 30.039062 23.742188 30.078125 C 22.296875 30.890625 20.726562 31.4375 19.101562 31.765625 C 19.054688 31.78125 19.015625 31.789062 18.96875 31.796875 C 17.992188 31.984375 17.015625 32.023438 16.015625 32.015625 C 15.960938 32.015625 15.898438 32.015625 15.835938 32.015625 C 14.9375 32.015625 14.070312 31.984375 13.1875 31.8125 C 13.132812 31.804688 13.078125 31.789062 13.015625 31.78125 C 10.875 31.390625 8.59375 30.5625 6.875 29.1875 C 6.953125 28.960938 7.046875 28.789062 7.195312 28.609375 C 7.226562 28.5625 7.265625 28.515625 7.296875 28.476562 C 7.320312 28.4375 7.351562 28.40625 7.375 28.375 C 7.5625 28.414062 7.703125 28.476562 7.859375 28.578125 C 7.90625 28.601562 7.953125 28.632812 7.992188 28.664062 C 8.046875 28.695312 8.09375 28.726562 8.140625 28.75 C 8.664062 29.078125 9.195312 29.367188 9.75 29.625 C 9.820312 29.65625 9.820312 29.65625 9.882812 29.6875 C 11.742188 30.539062 13.773438 30.984375 15.8125 30.9375 C 15.203125 30.40625 15.203125 30.40625 14.578125 29.890625 C 14.304688 29.671875 14.046875 29.4375 13.78125 29.203125 C 13.5625 29.007812 13.328125 28.820312 13.09375 28.632812 C 12.9375 28.5 12.9375 28.5 12.6875 28.1875 C 12.96875 27.84375 12.96875 27.84375 13.25 27.5 C 13.53125 27.570312 13.609375 27.648438 13.820312 27.84375 C 14.046875 28.054688 14.273438 28.257812 14.515625 28.453125 C 14.789062 28.679688 15.0625 28.914062 15.328125 29.140625 C 15.375 29.179688 15.414062 29.210938 15.453125 29.25 C 15.53125 29.320312 15.609375 29.390625 15.695312 29.460938 C 15.953125 29.6875 16.21875 29.914062 16.484375 30.140625 C 16.617188 30.25 16.75 30.367188 16.875 30.484375 C 16.9375 30.539062 16.992188 30.585938 17.054688 30.640625 C 17.101562 30.6875 17.15625 30.734375 17.203125 30.78125 C 17.601562 31.007812 18.125 30.84375 18.554688 30.765625 C 18.617188 30.757812 18.679688 30.75 18.742188 30.734375 C 19.25 30.640625 19.742188 30.515625 20.226562 30.375 C 20.4375 30.3125 20.4375 30.3125 20.5625 30.3125 C 20.539062 30.273438 20.523438 30.226562 20.5 30.1875 C 20.484375 30.023438 20.46875 29.859375 20.453125 29.695312 C 20.445312 29.648438 20.445312 29.59375 20.4375 29.539062 C 20.421875 29.375 20.414062 29.203125 20.398438 29.039062 C 20.390625 28.921875 20.375 28.804688 20.367188 28.6875 C 20.351562 28.4375 20.328125 28.195312 20.304688 27.945312 C 20.28125 27.632812 20.257812 27.320312 20.226562 27 C 20.210938 26.757812 20.1875 26.515625 20.171875 26.273438 C 20.164062 26.15625 20.148438 26.046875 20.140625 25.929688 C 20 24.242188 20 24.242188 20.21875 23.929688 C 20.28125 23.851562 20.351562 23.773438 20.421875 23.703125 C 20.5 23.617188 20.578125 23.53125 20.648438 23.445312 C 20.6875 23.398438 20.726562 23.359375 20.765625 23.3125 C 20.9375 23.117188 21.101562 22.90625 21.265625 22.703125 C 21.289062 22.664062 21.320312 22.625 21.351562 22.585938 C 21.46875 22.4375 21.578125 22.289062 21.6875 22.125 C 22.023438 22.21875 22.25 22.453125 22.5 22.6875 C 22.460938 22.898438 22.390625 23.015625 22.257812 23.171875 C 22.21875 23.21875 22.179688 23.265625 22.140625 23.3125 C 22.101562 23.359375 22.0625 23.398438 22.023438 23.453125 C 21.945312 23.539062 21.867188 23.632812 21.796875 23.71875 C 21.757812 23.757812 21.726562 23.804688 21.695312 23.84375 C 21.648438 23.890625 21.609375 23.945312 21.5625 24 C 21.523438 24.039062 21.484375 24.070312 21.453125 24.109375 C 21.1875 24.390625 21.09375 24.59375 21.101562 24.976562 C 21.117188 25.140625 21.132812 25.296875 21.148438 25.460938 C 21.15625 25.546875 21.164062 25.632812 21.171875 25.71875 C 21.1875 25.953125 21.210938 26.179688 21.234375 26.40625 C 21.257812 26.632812 21.28125 26.867188 21.296875 27.09375 C 21.320312 27.359375 21.34375 27.625 21.375 27.890625 C 21.4375 28.570312 21.476562 29.25 21.5 29.9375 C 23.398438 29.109375 25.0625 28.0625 26.5625 26.625 C 26.617188 26.570312 26.671875 26.515625 26.734375 26.460938 C 27.101562 26.101562 27.4375 25.71875 27.75 25.3125 C 27.773438 25.28125 27.804688 25.242188 27.828125 25.210938 C 28.734375 24.03125 29.429688 22.75 30 21.375 Z M 30 21.375 "/>
        <path style=" stroke:none;fill-rule:nonzero;fill:#ffffff;fill-opacity:1;" d="M 28.4375 5.9375 C 30.398438 7.84375 31.476562 10.921875 31.875 13.5625 C 31.882812 13.632812 31.898438 13.703125 31.90625 13.773438 C 32.007812 14.445312 32.023438 15.109375 32.023438 15.789062 C 32.023438 15.976562 32.023438 16.15625 32.023438 16.34375 C 32.023438 17.4375 31.898438 18.507812 31.65625 19.578125 C 31.640625 19.640625 31.632812 19.695312 31.617188 19.757812 C 31.539062 20.117188 31.4375 20.460938 31.3125 20.8125 C 30.65625 20.695312 30.65625 20.695312 30.375 20.5625 C 30.429688 20.046875 30.554688 19.546875 30.671875 19.046875 C 30.9375 17.898438 30.953125 16.789062 30.945312 15.625 C 30.945312 15.46875 30.945312 15.320312 30.945312 15.164062 C 30.945312 14.796875 30.9375 14.429688 30.9375 14.0625 C 30.890625 14.078125 30.84375 14.101562 30.796875 14.125 C 29.515625 14.65625 28.226562 15.171875 26.929688 15.6875 C 26.882812 15.710938 26.835938 15.726562 26.789062 15.75 C 26.625 15.8125 26.625 15.8125 26.390625 15.875 C 25.914062 16.023438 25.914062 16.023438 25.570312 16.375 C 25.484375 16.609375 25.421875 16.835938 25.375 17.078125 C 25.351562 17.171875 25.328125 17.257812 25.304688 17.34375 C 25.25 17.578125 25.195312 17.8125 25.140625 18.046875 C 25.046875 18.460938 24.945312 18.875 24.84375 19.289062 C 24.828125 19.335938 24.820312 19.375 24.8125 19.421875 C 24.632812 20.125 24.398438 20.617188 23.875 21.125 C 23.796875 21.21875 23.71875 21.320312 23.640625 21.414062 C 23.578125 21.492188 23.515625 21.570312 23.453125 21.648438 C 23.421875 21.6875 23.390625 21.726562 23.359375 21.773438 C 23.28125 21.867188 23.203125 21.96875 23.125 22.0625 C 22.90625 21.921875 22.703125 21.78125 22.507812 21.609375 C 22.46875 21.578125 22.429688 21.546875 22.398438 21.507812 C 22.367188 21.484375 22.34375 21.460938 22.3125 21.4375 C 22.539062 21.078125 22.804688 20.765625 23.078125 20.4375 C 23.109375 20.398438 23.148438 20.351562 23.179688 20.3125 C 23.210938 20.273438 23.242188 20.234375 23.273438 20.195312 C 23.328125 20.132812 23.328125 20.132812 23.375 20.0625 C 23.421875 20 23.460938 19.945312 23.507812 19.882812 C 23.664062 19.601562 23.671875 19.304688 23.695312 18.984375 C 23.804688 17.789062 23.976562 16.101562 24.9375 15.265625 C 26.289062 14.265625 28.140625 13.796875 29.75 13.359375 C 29.960938 13.304688 30.164062 13.234375 30.367188 13.148438 C 30.5625 13.0625 30.5625 13.0625 30.75 13.0625 C 30.148438 10.78125 29.320312 8.601562 27.796875 6.765625 C 27.6875 6.625 27.6875 6.625 27.6875 6.5 C 27.8125 6.398438 27.929688 6.304688 28.0625 6.210938 C 28.117188 6.171875 28.117188 6.171875 28.171875 6.132812 C 28.257812 6.0625 28.351562 6 28.4375 5.9375 Z M 28.4375 5.9375 "/>
        <path style=" stroke:none;fill-rule:nonzero;fill:#ffffff;fill-opacity:1;" d="M 8.789062 18.828125 C 8.828125 18.859375 8.859375 18.890625 8.898438 18.929688 C 8.9375 18.96875 8.976562 19 9.015625 19.039062 C 9.101562 19.125 9.1875 19.210938 9.273438 19.289062 C 9.34375 19.359375 9.34375 19.359375 9.414062 19.421875 C 9.453125 19.46875 9.5 19.515625 9.546875 19.554688 C 9.679688 19.679688 9.820312 19.796875 9.960938 19.914062 C 10.625 20.476562 10.625 20.476562 10.6875 20.882812 C 10.695312 21.148438 10.671875 21.40625 10.640625 21.664062 C 10.609375 22.0625 10.609375 22.46875 10.59375 22.867188 C 10.59375 23.0625 10.585938 23.257812 10.578125 23.445312 C 10.578125 23.625 10.570312 23.8125 10.5625 23.992188 C 10.5625 24.125 10.554688 24.257812 10.554688 24.390625 C 10.546875 24.476562 10.546875 24.5625 10.546875 24.640625 C 10.539062 24.757812 10.539062 24.757812 10.53125 24.867188 C 10.570312 25.109375 10.65625 25.203125 10.835938 25.367188 C 10.945312 25.453125 11.070312 25.539062 11.1875 25.625 C 11.296875 25.71875 11.414062 25.8125 11.523438 25.898438 C 11.609375 25.96875 11.609375 25.96875 11.695312 26.039062 C 11.898438 26.203125 12.09375 26.367188 12.296875 26.53125 C 12.328125 26.5625 12.359375 26.59375 12.390625 26.617188 C 12.46875 26.679688 12.546875 26.75 12.625 26.8125 C 12.585938 27.054688 12.476562 27.179688 12.3125 27.359375 C 12.242188 27.4375 12.242188 27.4375 12.171875 27.507812 C 12.132812 27.546875 12.101562 27.585938 12.0625 27.625 C 11.796875 27.539062 11.632812 27.40625 11.429688 27.210938 C 11.148438 26.953125 10.851562 26.703125 10.546875 26.453125 C 10.375 26.3125 10.375 26.3125 10.273438 26.203125 C 9.960938 25.890625 9.734375 25.820312 9.296875 25.8125 C 9.234375 25.8125 9.164062 25.8125 9.09375 25.8125 C 9.023438 25.8125 8.953125 25.8125 8.882812 25.8125 C 8.710938 25.8125 8.546875 25.8125 8.375 25.8125 C 8.375 25.484375 8.375 25.15625 8.375 24.8125 C 8.75 24.8125 9.117188 24.8125 9.5 24.8125 C 9.523438 24.335938 9.546875 23.859375 9.570312 23.390625 C 9.578125 23.164062 9.585938 22.945312 9.59375 22.726562 C 9.703125 21.703125 9.703125 21.703125 9.398438 20.773438 C 9.234375 20.59375 9.054688 20.453125 8.84375 20.320312 C 8.710938 20.226562 8.632812 20.101562 8.53125 19.96875 C 8.304688 19.78125 8.101562 19.796875 7.820312 19.820312 C 7.53125 19.851562 7.25 19.898438 6.96875 19.9375 C 6.851562 19.960938 6.734375 19.976562 6.617188 19.992188 C 6.328125 20.03125 6.039062 20.078125 5.75 20.125 C 5.710938 19.796875 5.664062 19.46875 5.625 19.125 C 6.15625 19.015625 6.6875 18.929688 7.21875 18.851562 C 7.367188 18.828125 7.515625 18.8125 7.671875 18.789062 C 7.765625 18.773438 7.859375 18.757812 7.953125 18.742188 C 8 18.742188 8.046875 18.734375 8.09375 18.726562 C 8.5625 18.65625 8.5625 18.65625 8.789062 18.828125 Z M 8.789062 18.828125 "/>
        <path style=" stroke:none;fill-rule:nonzero;fill:#ffffff;fill-opacity:1;" d="M 27.125 23 C 27.351562 23.085938 27.539062 23.1875 27.734375 23.320312 C 27.789062 23.351562 27.835938 23.390625 27.890625 23.421875 C 27.921875 23.445312 27.960938 23.476562 28 23.5 C 27.46875 24.585938 26.554688 25.546875 25.6875 26.375 C 25.539062 26.25 25.398438 26.125 25.25 26 C 25.171875 25.9375 25.171875 25.9375 25.09375 25.867188 C 25 25.75 25 25.75 25.007812 25.632812 C 25.085938 25.453125 25.195312 25.351562 25.34375 25.21875 C 26.023438 24.554688 26.578125 23.773438 27.125 23 Z M 27.125 23 "/>
        <path style=" stroke:none;fill-rule:nonzero;fill:#ffffff;fill-opacity:1;" d="M 19.3125 4.8125 C 19.5625 5.617188 19.804688 6.421875 20.0625 7.25 C 19.71875 7.382812 19.414062 7.476562 19.0625 7.5625 C 18.953125 7.226562 18.851562 6.890625 18.742188 6.554688 C 18.703125 6.4375 18.671875 6.328125 18.632812 6.210938 C 18.578125 6.046875 18.53125 5.882812 18.476562 5.71875 C 18.453125 5.640625 18.453125 5.640625 18.429688 5.5625 C 18.3125 5.203125 18.3125 5.203125 18.3125 5.0625 C 18.445312 5.023438 18.578125 4.976562 18.703125 4.9375 C 18.78125 4.914062 18.851562 4.890625 18.929688 4.867188 C 19.125 4.8125 19.125 4.8125 19.3125 4.8125 Z M 19.3125 4.8125 "/>
        <path style=" stroke:none;fill-rule:nonzero;fill:#ffffff;fill-opacity:1;" d="M 24.25 26.1875 C 24.476562 26.28125 24.585938 26.40625 24.734375 26.601562 C 24.789062 26.679688 24.789062 26.679688 24.851562 26.757812 C 24.882812 26.796875 24.90625 26.835938 24.9375 26.875 C 24.84375 27.125 24.6875 27.234375 24.46875 27.390625 C 24.40625 27.4375 24.34375 27.476562 24.28125 27.523438 C 24.125 27.625 24.125 27.625 24 27.625 C 23.90625 27.507812 23.828125 27.382812 23.742188 27.257812 C 23.671875 27.15625 23.671875 27.15625 23.601562 27.054688 C 23.5 26.875 23.5 26.875 23.5 26.75 C 23.609375 26.664062 23.726562 26.578125 23.84375 26.5 C 24.054688 26.351562 24.054688 26.351562 24.25 26.1875 Z M 24.25 26.1875 "/>
        <path style=" stroke:none;fill-rule:nonzero;fill:#ffffff;fill-opacity:1;" d="M 18.75 3 C 18.796875 3.132812 18.84375 3.265625 18.882812 3.398438 C 18.90625 3.46875 18.929688 3.546875 18.953125 3.617188 C 19 3.8125 19 3.8125 19 4 C 18.882812 4.046875 18.757812 4.085938 18.640625 4.125 C 18.570312 4.15625 18.507812 4.179688 18.4375 4.203125 C 18.148438 4.273438 18.148438 4.273438 18 4.1875 C 17.921875 4.007812 17.921875 4.007812 17.859375 3.789062 C 17.835938 3.71875 17.8125 3.640625 17.789062 3.570312 C 17.75 3.375 17.75 3.375 17.8125 3.1875 C 17.992188 3.109375 17.992188 3.109375 18.21875 3.046875 C 18.289062 3.023438 18.359375 3 18.4375 2.976562 C 18.625 2.9375 18.625 2.9375 18.75 3 Z M 18.75 3 "/>
        <path style=" stroke:none;fill-rule:nonzero;fill:#ffffff;fill-opacity:1;" d="M 16.5 25.25 C 16.828125 25.25 17.15625 25.25 17.5 25.25 C 17.5 25.578125 17.5 25.90625 17.5 26.25 C 17.171875 26.25 16.84375 26.25 16.5 26.25 C 16.5 25.921875 16.5 25.59375 16.5 25.25 Z M 16.5 25.25 "/>
        <path style=" stroke:none;fill-rule:nonzero;fill:#ffffff;fill-opacity:1;" d="M 12.6875 17.75 C 13.015625 17.75 13.34375 17.75 13.6875 17.75 C 13.6875 18.078125 13.6875 18.40625 13.6875 18.75 C 13.359375 18.75 13.03125 18.75 12.6875 18.75 C 12.6875 18.421875 12.6875 18.09375 12.6875 17.75 Z M 12.6875 17.75 "/>
        <path style=" stroke:none;fill-rule:nonzero;fill:#ffffff;fill-opacity:1;" d="M 27.25 16.9375 C 27.578125 16.9375 27.90625 16.9375 28.25 16.9375 C 28.25 17.265625 28.25 17.59375 28.25 17.9375 C 27.921875 17.9375 27.59375 17.9375 27.25 17.9375 C 27.25 17.609375 27.25 17.28125 27.25 16.9375 Z M 27.25 16.9375 "/>
        <path style=" stroke:none;fill-rule:nonzero;fill:#ffffff;fill-opacity:1;" d="M 19 12.75 C 19.328125 12.75 19.65625 12.75 20 12.75 C 20 13.078125 20 13.40625 20 13.75 C 19.671875 13.75 19.34375 13.75 19 13.75 C 19 13.421875 19 13.09375 19 12.75 Z M 19 12.75 "/>
        <path style=" stroke:none;fill-rule:nonzero;fill:#ffffff;fill-opacity:1;" d="M 25.5 9.8125 C 25.828125 9.8125 26.15625 9.8125 26.5 9.8125 C 26.5 10.140625 26.5 10.46875 26.5 10.8125 C 26.171875 10.8125 25.84375 10.8125 25.5 10.8125 C 25.5 10.484375 25.5 10.15625 25.5 9.8125 Z M 25.5 9.8125 "/>
        <path style=" stroke:none;fill-rule:nonzero;fill:#ffffff;fill-opacity:1;" d="M 6.75 8.9375 C 7.078125 8.9375 7.40625 8.9375 7.75 8.9375 C 7.75 9.265625 7.75 9.59375 7.75 9.9375 C 7.421875 9.9375 7.09375 9.9375 6.75 9.9375 C 6.75 9.609375 6.75 9.28125 6.75 8.9375 Z M 6.75 8.9375 "/>
        <path style=" stroke:none;fill-rule:nonzero;fill:#ffffff;fill-opacity:1;" d="M 6.5 24.8125 C 6.828125 24.8125 7.15625 24.8125 7.5 24.8125 C 7.5 25.140625 7.5 25.46875 7.5 25.8125 C 7.34375 25.8125 7.195312 25.8125 7.03125 25.8125 C 6.984375 25.820312 6.9375 25.820312 6.890625 25.820312 C 6.78125 25.820312 6.671875 25.8125 6.5625 25.8125 C 6.5 25.75 6.5 25.75 6.492188 25.539062 C 6.492188 25.453125 6.492188 25.367188 6.5 25.28125 C 6.5 25.125 6.5 24.96875 6.5 24.8125 Z M 6.5 24.8125 "/>
        <path style=" stroke:none;fill-rule:nonzero;fill:#ffffff;fill-opacity:1;" d="M 2.8125 15.5 C 3.125 15.5 3.429688 15.5 3.75 15.5 C 3.75 15.828125 3.75 16.15625 3.75 16.5 C 3.4375 16.5 3.132812 16.5 2.8125 16.5 C 2.8125 16.171875 2.8125 15.84375 2.8125 15.5 Z M 2.8125 15.5 "/>
    </g>
</svg>