<svg xmlns="http://www.w3.org/2000/svg" xmlns:xlink="http://www.w3.org/1999/xlink" width="32px" height="32px" viewBox="0 0 32 32" version="1.1">
    <g id="surface1">
        <path style=" stroke:none;fill-rule:nonzero;fill:#ffffff;fill-opacity:1;" d="M 16.882812 12.90625 C 16.945312 12.953125 17 13.007812 17.0625 13.0625 C 17.132812 13.125 17.132812 13.125 17.210938 13.1875 C 17.992188 13.875 18.742188 14.609375 19.375 15.4375 C 19.421875 15.5 19.46875 15.554688 19.523438 15.617188 C 20.5 16.835938 21.570312 18.492188 21.421875 20.117188 C 21.34375 20.570312 21.164062 20.890625 20.796875 21.179688 C 20.242188 21.53125 19.671875 21.476562 19.0625 21.34375 C 17 20.84375 15.367188 19.367188 13.875 17.9375 C 13.789062 17.851562 13.789062 17.851562 13.695312 17.765625 C 13.328125 17.40625 13.007812 17.03125 12.6875 16.625 C 12.640625 16.5625 12.585938 16.5 12.539062 16.4375 C 12.125 15.921875 11.773438 15.382812 11.4375 14.8125 C 11.414062 14.773438 11.390625 14.734375 11.367188 14.695312 C 10.835938 13.789062 10.367188 12.679688 10.625 11.625 C 10.75 11.25 10.96875 10.953125 11.296875 10.742188 C 13.148438 9.875 15.570312 11.757812 16.882812 12.90625 Z M 11.6875 11.75 C 11.515625 12.007812 11.523438 12.203125 11.5625 12.5 C 11.945312 14.046875 12.914062 15.382812 13.984375 16.53125 C 14.101562 16.664062 14.226562 16.804688 14.34375 16.9375 C 14.757812 17.414062 15.203125 17.851562 15.6875 18.25 C 15.71875 18.273438 15.75 18.304688 15.789062 18.328125 C 16.890625 19.25 18.476562 20.546875 20 20.4375 C 20.179688 20.359375 20.28125 20.296875 20.390625 20.140625 C 20.617188 19.421875 20.164062 18.570312 19.828125 17.9375 C 19.421875 17.195312 19.421875 17.195312 18.875 16.5625 C 18.835938 16.664062 18.835938 16.664062 18.796875 16.773438 C 18.578125 17.367188 18.265625 18.109375 17.6875 18.4375 C 17.398438 18.429688 17.234375 18.28125 17.015625 18.109375 C 16.945312 18.0625 16.882812 18.015625 16.8125 17.960938 C 16.75 17.914062 16.6875 17.859375 16.625 17.8125 C 16.523438 17.734375 16.429688 17.664062 16.328125 17.59375 C 16.257812 17.539062 16.195312 17.484375 16.125 17.4375 C 16.21875 17.234375 16.328125 17.085938 16.476562 16.921875 C 16.539062 16.859375 16.539062 16.859375 16.59375 16.789062 C 16.625 16.757812 16.65625 16.71875 16.6875 16.6875 C 16.875 16.789062 17.039062 16.90625 17.195312 17.046875 C 17.359375 17.210938 17.359375 17.210938 17.5625 17.1875 C 17.601562 17.109375 17.640625 17.03125 17.6875 16.953125 C 17.703125 16.90625 17.726562 16.867188 17.75 16.820312 C 17.953125 16.382812 17.9375 15.875 17.773438 15.421875 C 17.476562 14.773438 17.078125 14.460938 16.4375 14.164062 C 15.828125 14.039062 15.359375 14.164062 14.8125 14.4375 C 14.84375 14.710938 15.023438 14.882812 15.203125 15.078125 C 15.226562 15.117188 15.257812 15.15625 15.296875 15.1875 C 15.351562 15.265625 15.414062 15.335938 15.476562 15.40625 C 15.585938 15.523438 15.6875 15.648438 15.796875 15.765625 C 15.867188 15.851562 15.867188 15.851562 15.9375 15.9375 C 15.851562 16.140625 15.742188 16.273438 15.585938 16.421875 C 15.546875 16.460938 15.507812 16.5 15.46875 16.539062 C 15.421875 16.578125 15.421875 16.578125 15.375 16.625 C 14.765625 16.367188 14.320312 15.585938 13.9375 15.0625 C 13.898438 15.007812 13.851562 14.953125 13.8125 14.890625 C 13.78125 14.84375 13.742188 14.796875 13.703125 14.75 C 13.679688 14.703125 13.648438 14.664062 13.617188 14.617188 C 13.5625 14.5 13.5625 14.5 13.578125 14.367188 C 13.65625 14.179688 13.789062 14.070312 13.9375 13.9375 C 13.976562 13.898438 14.015625 13.867188 14.0625 13.828125 C 14.390625 13.554688 14.71875 13.390625 15.125 13.25 C 15.226562 13.210938 15.335938 13.164062 15.4375 13.125 C 14.671875 12.3125 13.265625 11.625 12.140625 11.554688 C 11.945312 11.570312 11.84375 11.640625 11.6875 11.75 Z M 11.6875 11.75 "/>
        <path style=" stroke:none;fill-rule:nonzero;fill:#ffffff;fill-opacity:1;" d="M 16.820312 8.023438 C 17.664062 8.640625 18.46875 9.304688 19.25 10 C 19.210938 10.226562 19.132812 10.320312 18.96875 10.476562 C 18.804688 10.625 18.804688 10.625 18.6875 10.8125 C 18.476562 10.71875 18.335938 10.609375 18.171875 10.445312 C 17.765625 10.078125 17.328125 9.742188 16.882812 9.414062 C 16.757812 9.320312 16.640625 9.226562 16.515625 9.132812 C 14.117188 7.328125 10.867188 5.351562 7.734375 5.765625 C 7.085938 5.898438 6.492188 6.257812 6.125 6.8125 C 5.46875 7.992188 5.695312 9.484375 6.046875 10.726562 C 6.546875 12.414062 7.398438 14.054688 8.421875 15.476562 C 8.445312 15.53125 8.46875 15.578125 8.5 15.625 C 8.421875 15.867188 8.3125 15.90625 8.09375 16.039062 C 8.039062 16.078125 7.976562 16.117188 7.914062 16.164062 C 7.75 16.25 7.75 16.25 7.625 16.25 C 7.546875 16.148438 7.546875 16.148438 7.453125 16 C 7.414062 15.945312 7.382812 15.890625 7.34375 15.835938 C 7.304688 15.78125 7.265625 15.71875 7.226562 15.65625 C 7.195312 15.59375 7.15625 15.53125 7.109375 15.46875 C 5.664062 13.140625 4.25 10.289062 4.726562 7.460938 C 4.953125 6.53125 5.429688 5.742188 6.242188 5.226562 C 9.617188 3.34375 14.101562 6.0625 16.820312 8.023438 Z M 16.820312 8.023438 "/>
        <path style=" stroke:none;fill-rule:nonzero;fill:#ffffff;fill-opacity:1;" d="M 28.875 19.25 C 29.320312 20.210938 29.742188 21.171875 30.0625 22.1875 C 30.078125 22.234375 30.09375 22.273438 30.109375 22.320312 C 30.46875 23.421875 30.648438 24.53125 30.65625 25.6875 C 30.65625 25.773438 30.65625 25.851562 30.65625 25.929688 C 30.640625 27.195312 30.257812 28.445312 29.375 29.375 C 28.117188 30.546875 26.5625 30.679688 24.929688 30.632812 C 23.632812 30.578125 22.335938 30.148438 21.125 29.6875 C 21.226562 29.375 21.335938 29.0625 21.4375 28.75 C 21.726562 28.789062 21.984375 28.867188 22.257812 28.960938 C 24.023438 29.554688 26.03125 29.976562 27.8125 29.1875 C 28.039062 29.0625 28.234375 28.914062 28.4375 28.75 C 28.476562 28.71875 28.515625 28.6875 28.554688 28.65625 C 29.15625 28.148438 29.5 27.203125 29.5625 26.4375 C 29.703125 24.195312 29.070312 21.9375 28.007812 19.96875 C 27.9375 19.8125 27.9375 19.8125 28 19.625 C 28.164062 19.523438 28.164062 19.523438 28.375 19.421875 C 28.4375 19.390625 28.507812 19.359375 28.578125 19.328125 C 28.75 19.25 28.75 19.25 28.875 19.25 Z M 28.875 19.25 "/>
        <path style=" stroke:none;fill-rule:nonzero;fill:#ffffff;fill-opacity:1;" d="M 16.125 5.125 C 16.039062 5.351562 15.9375 5.539062 15.804688 5.734375 C 15.773438 5.789062 15.734375 5.835938 15.703125 5.890625 C 15.679688 5.921875 15.648438 5.960938 15.625 6 C 15.40625 5.921875 15.21875 5.828125 15.03125 5.695312 C 14.976562 5.664062 14.921875 5.625 14.867188 5.59375 C 14.78125 5.53125 14.78125 5.53125 14.6875 5.476562 C 12.726562 4.210938 10.59375 3.171875 8.3125 2.625 C 8.273438 2.617188 8.234375 2.601562 8.1875 2.59375 C 6.875 2.273438 5.234375 2.234375 4.015625 2.90625 C 3.132812 3.492188 2.671875 4.28125 2.460938 5.304688 C 2.429688 5.554688 2.414062 5.804688 2.40625 6.054688 C 2.398438 6.101562 2.398438 6.15625 2.390625 6.203125 C 2.390625 6.320312 2.382812 6.445312 2.375 6.5625 C 2.046875 6.5625 1.71875 6.5625 1.375 6.5625 C 1.320312 5.15625 1.546875 3.851562 2.492188 2.757812 C 6.0625 -0.90625 12.84375 2.851562 16.125 5.125 Z M 16.125 5.125 "/>
        <path style=" stroke:none;fill-rule:nonzero;fill:#ffffff;fill-opacity:1;" d="M 9.898438 6.664062 C 10.296875 6.84375 10.585938 7.171875 10.78125 7.554688 C 10.867188 8.046875 10.84375 8.414062 10.601562 8.859375 C 10.34375 9.21875 10 9.421875 9.5625 9.5 C 9.320312 9.515625 9.109375 9.5 8.875 9.4375 C 8.445312 10.3125 8.726562 11.320312 9.023438 12.195312 C 9.234375 12.796875 9.507812 13.375 9.8125 13.9375 C 9.835938 13.976562 9.851562 14.015625 9.875 14.046875 C 10.367188 14.96875 10.976562 15.8125 11.625 16.625 C 11.671875 16.679688 11.71875 16.742188 11.765625 16.804688 C 12.21875 17.367188 12.703125 17.914062 13.234375 18.414062 C 13.3125 18.5 13.3125 18.5 13.375 18.6875 C 13.148438 18.914062 12.921875 19.140625 12.6875 19.375 C 12.429688 19.171875 12.21875 18.960938 12 18.710938 C 11.882812 18.570312 11.757812 18.4375 11.632812 18.304688 C 11.226562 17.867188 10.859375 17.414062 10.5 16.9375 C 10.46875 16.898438 10.445312 16.867188 10.414062 16.828125 C 8.890625 14.820312 7.460938 12.414062 7.625 9.8125 C 7.679688 9.484375 7.765625 9.210938 7.921875 8.921875 C 8.023438 8.695312 7.984375 8.5625 7.9375 8.3125 C 7.882812 7.835938 7.953125 7.453125 8.25 7.0625 C 8.742188 6.640625 9.257812 6.5 9.898438 6.664062 Z M 9.03125 7.757812 C 8.921875 7.929688 8.921875 7.929688 8.9375 8.132812 C 8.984375 8.320312 8.984375 8.320312 9.140625 8.4375 C 9.3125 8.515625 9.3125 8.515625 9.515625 8.460938 C 9.703125 8.382812 9.703125 8.382812 9.8125 8.1875 C 9.796875 7.992188 9.78125 7.859375 9.671875 7.695312 C 9.429688 7.546875 9.242188 7.570312 9.03125 7.757812 Z M 9.03125 7.757812 "/>
        <path style=" stroke:none;fill-rule:nonzero;fill:#ffffff;fill-opacity:1;" d="M 19.3125 12.625 C 19.570312 12.828125 19.78125 13.039062 20 13.289062 C 20.117188 13.429688 20.242188 13.5625 20.367188 13.695312 C 20.773438 14.132812 21.140625 14.585938 21.5 15.0625 C 21.53125 15.101562 21.554688 15.132812 21.585938 15.171875 C 23.09375 17.15625 24.578125 19.601562 24.375 22.1875 C 24.234375 22.953125 23.890625 23.546875 23.25 24 C 22.164062 24.5625 21.015625 24.4375 19.875 24.125 C 19.796875 24.101562 19.71875 24.085938 19.640625 24.0625 C 19.148438 23.914062 19.148438 23.914062 19.0625 23.765625 C 19.0625 23.5625 19.132812 23.421875 19.21875 23.234375 C 19.242188 23.164062 19.273438 23.101562 19.304688 23.03125 C 19.328125 22.976562 19.351562 22.929688 19.375 22.875 C 19.414062 22.882812 19.453125 22.898438 19.484375 22.90625 C 19.679688 22.960938 19.867188 23.007812 20.0625 23.0625 C 20.101562 23.070312 20.140625 23.085938 20.1875 23.09375 C 21.03125 23.328125 21.945312 23.523438 22.75 23.0625 C 23.070312 22.804688 23.242188 22.46875 23.3125 22.0625 C 23.429688 20.632812 22.851562 19.296875 22.1875 18.0625 C 22.164062 18.023438 22.148438 17.992188 22.125 17.953125 C 21.632812 17.03125 21.023438 16.1875 20.375 15.375 C 20.328125 15.320312 20.28125 15.257812 20.234375 15.203125 C 19.921875 14.804688 19.585938 14.4375 19.242188 14.0625 C 19.03125 13.835938 18.828125 13.609375 18.625 13.375 C 18.84375 13.117188 19.070312 12.859375 19.3125 12.625 Z M 19.3125 12.625 "/>
        <path style=" stroke:none;fill-rule:nonzero;fill:#ffffff;fill-opacity:1;" d="M 19.125 7.4375 C 19.492188 7.695312 19.820312 7.984375 20.148438 8.28125 C 20.289062 8.414062 20.429688 8.539062 20.578125 8.671875 C 20.773438 8.835938 20.953125 9.015625 21.132812 9.203125 C 21.171875 9.234375 21.210938 9.273438 21.25 9.3125 C 21.304688 9.367188 21.359375 9.421875 21.421875 9.484375 C 21.664062 9.65625 21.828125 9.648438 22.109375 9.625 C 22.554688 9.609375 22.890625 9.65625 23.25 9.9375 C 23.539062 10.21875 23.71875 10.53125 23.75 10.9375 C 23.742188 11.171875 23.734375 11.40625 23.632812 11.617188 C 23.609375 11.765625 23.609375 11.765625 23.757812 11.921875 C 23.820312 11.984375 23.890625 12.054688 23.953125 12.117188 C 24.226562 12.398438 24.476562 12.679688 24.71875 12.992188 C 24.75 13.03125 24.773438 13.0625 24.804688 13.101562 C 24.859375 13.179688 24.921875 13.25 24.976562 13.328125 C 25.09375 13.476562 25.21875 13.625 25.335938 13.773438 C 25.65625 14.164062 25.953125 14.5625 26.25 14.96875 C 26.28125 15.015625 26.320312 15.0625 26.351562 15.109375 C 26.546875 15.375 26.71875 15.648438 26.875 15.9375 C 26.765625 16.023438 26.65625 16.109375 26.546875 16.1875 C 26.484375 16.242188 26.421875 16.289062 26.359375 16.335938 C 26.1875 16.4375 26.1875 16.4375 26.0625 16.421875 C 25.84375 16.335938 25.742188 16.132812 25.609375 15.953125 C 25.554688 15.859375 25.492188 15.773438 25.429688 15.6875 C 25.398438 15.648438 25.367188 15.601562 25.335938 15.5625 C 24.6875 14.648438 23.984375 13.78125 23.25 12.9375 C 23.203125 12.882812 23.15625 12.828125 23.109375 12.773438 C 23.007812 12.65625 22.914062 12.546875 22.8125 12.4375 C 22.765625 12.445312 22.71875 12.460938 22.671875 12.46875 C 22.25 12.546875 21.875 12.523438 21.5 12.3125 C 21.179688 12.070312 21 11.820312 20.875 11.4375 C 20.867188 11.304688 20.875 11.179688 20.890625 11.046875 C 20.921875 10.726562 20.9375 10.46875 20.75 10.195312 C 20.59375 10.054688 20.421875 9.9375 20.25 9.8125 C 20.171875 9.742188 20.09375 9.664062 20.023438 9.585938 C 19.546875 9.109375 19.015625 8.6875 18.5 8.25 C 18.625 8.039062 18.75 7.851562 18.921875 7.671875 C 18.953125 7.625 18.992188 7.578125 19.039062 7.539062 C 19.0625 7.5 19.09375 7.46875 19.125 7.4375 Z M 21.875 10.8125 C 21.804688 10.929688 21.804688 10.929688 21.8125 11.0625 C 21.914062 11.28125 21.984375 11.367188 22.1875 11.5 C 22.359375 11.484375 22.46875 11.460938 22.609375 11.359375 C 22.726562 11.195312 22.71875 11.078125 22.6875 10.875 C 22.5625 10.703125 22.492188 10.632812 22.28125 10.59375 C 22.09375 10.632812 22.007812 10.679688 21.875 10.8125 Z M 21.875 10.8125 "/>
        <path style=" stroke:none;fill-rule:nonzero;fill:#ffffff;fill-opacity:1;" d="M 2.625 25.75 C 2.953125 25.75 3.28125 25.75 3.625 25.75 C 3.632812 25.898438 3.632812 26.054688 3.640625 26.210938 C 3.671875 26.851562 3.84375 27.414062 4.3125 27.875 C 4.765625 28.195312 5.226562 28.328125 5.773438 28.351562 C 6.007812 28.359375 6.007812 28.359375 6.25 28.375 C 6.25 28.703125 6.25 29.03125 6.25 29.375 C 6.101562 29.382812 5.945312 29.382812 5.789062 29.390625 C 5.148438 29.421875 4.585938 29.59375 4.125 30.0625 C 3.804688 30.515625 3.671875 30.976562 3.648438 31.523438 C 3.640625 31.757812 3.640625 31.757812 3.625 32 C 3.296875 32 2.96875 32 2.625 32 C 2.617188 31.851562 2.617188 31.695312 2.609375 31.539062 C 2.578125 30.890625 2.398438 30.351562 1.9375 29.875 C 1.5 29.523438 1.023438 29.421875 0.46875 29.398438 C 0.320312 29.390625 0.164062 29.382812 0 29.375 C 0 29.046875 0 28.71875 0 28.375 C 0.15625 28.367188 0.304688 28.359375 0.460938 28.359375 C 1.132812 28.3125 1.640625 28.179688 2.125 27.6875 C 2.445312 27.234375 2.578125 26.773438 2.601562 26.226562 C 2.609375 25.992188 2.609375 25.992188 2.625 25.75 Z M 3.0625 28.125 C 2.960938 28.234375 2.960938 28.234375 2.851562 28.359375 C 2.703125 28.539062 2.5625 28.679688 2.375 28.8125 C 2.476562 29.078125 2.664062 29.203125 2.875 29.375 C 2.992188 29.515625 2.992188 29.515625 3.0625 29.625 C 3.328125 29.523438 3.453125 29.335938 3.625 29.125 C 3.765625 29.007812 3.765625 29.007812 3.875 28.9375 C 3.773438 28.671875 3.585938 28.546875 3.375 28.375 C 3.3125 28.289062 3.25 28.210938 3.1875 28.125 C 3.148438 28.125 3.101562 28.125 3.0625 28.125 Z M 3.0625 28.125 "/>
        <path style=" stroke:none;fill-rule:nonzero;fill:#ffffff;fill-opacity:1;" d="M 28.375 0 C 28.703125 0 29.03125 0 29.375 0 C 29.382812 0.148438 29.382812 0.304688 29.390625 0.460938 C 29.421875 1.101562 29.59375 1.664062 30.0625 2.125 C 30.515625 2.445312 30.976562 2.578125 31.523438 2.601562 C 31.757812 2.609375 31.757812 2.609375 32 2.625 C 32 2.953125 32 3.28125 32 3.625 C 31.851562 3.632812 31.695312 3.632812 31.539062 3.640625 C 30.898438 3.671875 30.335938 3.84375 29.875 4.3125 C 29.554688 4.765625 29.421875 5.226562 29.398438 5.773438 C 29.390625 6.007812 29.390625 6.007812 29.375 6.25 C 29.046875 6.25 28.71875 6.25 28.375 6.25 C 28.367188 6.101562 28.367188 5.945312 28.359375 5.789062 C 28.328125 5.140625 28.148438 4.601562 27.6875 4.125 C 27.25 3.773438 26.773438 3.671875 26.21875 3.648438 C 26.070312 3.640625 25.914062 3.632812 25.75 3.625 C 25.75 3.296875 25.75 2.96875 25.75 2.625 C 25.90625 2.617188 26.054688 2.609375 26.21875 2.609375 C 26.882812 2.5625 27.390625 2.429688 27.875 1.9375 C 28.195312 1.484375 28.328125 1.023438 28.351562 0.476562 C 28.359375 0.242188 28.359375 0.242188 28.375 0 Z M 28.8125 2.375 C 28.710938 2.484375 28.710938 2.484375 28.601562 2.609375 C 28.453125 2.789062 28.3125 2.929688 28.125 3.0625 C 28.226562 3.328125 28.414062 3.453125 28.625 3.625 C 28.742188 3.765625 28.742188 3.765625 28.8125 3.875 C 29.078125 3.773438 29.203125 3.585938 29.375 3.375 C 29.515625 3.257812 29.515625 3.257812 29.625 3.1875 C 29.523438 2.921875 29.335938 2.796875 29.125 2.625 C 29.0625 2.539062 29 2.460938 28.9375 2.375 C 28.898438 2.375 28.851562 2.375 28.8125 2.375 Z M 28.8125 2.375 "/>
        <path style=" stroke:none;fill-rule:nonzero;fill:#ffffff;fill-opacity:1;" d="M 12 19.9375 C 12.375 20.195312 12.671875 20.484375 12.976562 20.820312 C 13.117188 20.953125 13.117188 20.953125 13.28125 20.921875 C 13.328125 20.90625 13.382812 20.890625 13.4375 20.875 C 13.882812 20.835938 14.257812 20.851562 14.625 21.125 C 14.914062 21.390625 15.109375 21.664062 15.132812 22.0625 C 15.140625 22.265625 15.125 22.429688 15.0625 22.625 C 15.101562 22.640625 15.132812 22.65625 15.171875 22.679688 C 15.304688 22.742188 15.414062 22.820312 15.53125 22.898438 C 15.570312 22.929688 15.617188 22.960938 15.65625 22.992188 C 15.703125 23.023438 15.75 23.054688 15.796875 23.09375 C 17.25 24.125 18.8125 25.085938 20.5 25.6875 C 20.46875 26.0625 20.351562 26.351562 20.1875 26.6875 C 18.34375 26.039062 16.617188 25.070312 15.070312 23.875 C 15.03125 23.84375 14.992188 23.820312 14.953125 23.789062 C 14.875 23.726562 14.804688 23.671875 14.734375 23.617188 C 14.617188 23.523438 14.617188 23.523438 14.4375 23.4375 C 14.242188 23.476562 14.242188 23.476562 14.0625 23.5625 C 13.609375 23.601562 13.28125 23.507812 12.890625 23.28125 C 12.640625 23.007812 12.4375 22.695312 12.4375 22.3125 C 12.445312 22.25 12.453125 22.1875 12.453125 22.125 C 12.46875 21.882812 12.460938 21.78125 12.320312 21.578125 C 12.15625 21.414062 11.992188 21.273438 11.8125 21.125 C 11.71875 21.039062 11.617188 20.953125 11.523438 20.867188 C 11.453125 20.804688 11.382812 20.75 11.3125 20.6875 C 11.53125 20.429688 11.757812 20.171875 12 19.9375 Z M 13.507812 21.945312 C 13.421875 22.070312 13.421875 22.070312 13.445312 22.25 C 13.484375 22.453125 13.484375 22.453125 13.6875 22.5625 C 13.851562 22.554688 13.851562 22.554688 14 22.5 C 14.140625 22.328125 14.140625 22.328125 14.109375 22.15625 C 14.070312 21.992188 14.070312 21.992188 13.9375 21.875 C 13.757812 21.851562 13.664062 21.851562 13.507812 21.945312 Z M 13.507812 21.945312 "/>
        <path style=" stroke:none;fill-rule:nonzero;fill:#ffffff;fill-opacity:1;" d="M 24.375 15.75 C 24.484375 15.90625 24.59375 16.054688 24.6875 16.21875 C 24.71875 16.265625 24.75 16.3125 24.78125 16.367188 C 25.054688 16.796875 25.3125 17.234375 25.554688 17.6875 C 25.625 17.8125 25.695312 17.9375 25.765625 18.054688 C 26.359375 19.132812 26.835938 20.304688 27.125 21.5 C 27.148438 21.578125 27.164062 21.65625 27.1875 21.742188 C 27.476562 23.046875 27.476562 24.546875 26.789062 25.726562 C 26.648438 25.9375 26.484375 26.125 26.3125 26.3125 C 26.03125 26.085938 25.789062 25.851562 25.5625 25.5625 C 25.601562 25.523438 25.601562 25.523438 25.632812 25.476562 C 26.320312 24.632812 26.34375 23.5625 26.234375 22.523438 C 25.9375 20.398438 24.820312 18.25 23.578125 16.523438 C 23.554688 16.46875 23.53125 16.421875 23.5 16.375 C 23.578125 16.132812 23.6875 16.09375 23.90625 15.953125 C 23.992188 15.898438 23.992188 15.898438 24.085938 15.835938 C 24.25 15.75 24.25 15.75 24.375 15.75 Z M 24.375 15.75 "/>
        <path style=" stroke:none;fill-rule:nonzero;fill:#ffffff;fill-opacity:1;" d="M 5.9375 15.578125 C 6.085938 15.632812 6.140625 15.695312 6.234375 15.828125 C 6.28125 15.890625 6.28125 15.890625 6.328125 15.953125 C 6.359375 15.992188 6.390625 16.039062 6.421875 16.085938 C 6.46875 16.15625 6.46875 16.15625 6.523438 16.226562 C 6.617188 16.359375 6.71875 16.492188 6.8125 16.625 C 7.546875 17.648438 8.335938 18.617188 9.1875 19.546875 C 9.304688 19.679688 9.421875 19.8125 9.539062 19.945312 C 9.726562 20.164062 9.921875 20.359375 10.125 20.5625 C 10.25 20.6875 10.359375 20.804688 10.46875 20.9375 C 10.742188 21.257812 11.023438 21.578125 11.375 21.8125 C 11.34375 22.078125 11.265625 22.210938 11.078125 22.398438 C 11.03125 22.445312 10.992188 22.484375 10.945312 22.53125 C 10.8125 22.625 10.8125 22.625 10.695312 22.617188 C 10.515625 22.546875 10.414062 22.4375 10.28125 22.296875 C 10.226562 22.25 10.171875 22.195312 10.117188 22.140625 C 10.0625 22.078125 10.007812 22.023438 9.953125 21.960938 C 9.890625 21.90625 9.835938 21.851562 9.78125 21.796875 C 9.507812 21.515625 9.234375 21.226562 8.976562 20.929688 C 8.804688 20.734375 8.625 20.546875 8.445312 20.351562 C 8.148438 20.039062 7.859375 19.71875 7.585938 19.375 C 7.46875 19.234375 7.359375 19.09375 7.242188 18.953125 C 6.484375 18.046875 5.789062 17.101562 5.125 16.125 C 5.6875 15.546875 5.6875 15.546875 5.9375 15.578125 Z M 5.9375 15.578125 "/>
        <path style=" stroke:none;fill-rule:nonzero;fill:#ffffff;fill-opacity:1;" d="M 2.9375 9.5 C 2.953125 9.53125 2.960938 9.570312 2.976562 9.601562 C 3.640625 11.40625 4.460938 13.125 5.5 14.75 C 5.3125 14.90625 5.125 15.046875 4.921875 15.171875 C 4.875 15.195312 4.828125 15.226562 4.789062 15.25 C 4.75 15.273438 4.71875 15.289062 4.6875 15.3125 C 4.5 15.140625 4.367188 14.96875 4.242188 14.742188 C 4.1875 14.65625 4.1875 14.65625 4.132812 14.554688 C 4.070312 14.460938 4.070312 14.460938 4.015625 14.359375 C 3.976562 14.289062 3.9375 14.226562 3.898438 14.15625 C 3.617188 13.671875 3.359375 13.1875 3.125 12.6875 C 3.054688 12.554688 2.992188 12.421875 2.921875 12.289062 C 2.65625 11.742188 2.421875 11.195312 2.210938 10.625 C 2.179688 10.539062 2.179688 10.539062 2.140625 10.453125 C 2.125 10.398438 2.101562 10.34375 2.085938 10.28125 C 2.054688 10.210938 2.054688 10.210938 2.03125 10.132812 C 1.992188 9.984375 2 9.898438 2.0625 9.75 C 2.226562 9.671875 2.226562 9.671875 2.4375 9.609375 C 2.5 9.585938 2.570312 9.570312 2.640625 9.546875 C 2.8125 9.5 2.8125 9.5 2.9375 9.5 Z M 2.9375 9.5 "/>
        <path style=" stroke:none;fill-rule:nonzero;fill:#ffffff;fill-opacity:1;" d="M 5.5625 20.375 C 5.9375 20.664062 6.140625 20.976562 6.203125 21.445312 C 6.234375 21.882812 6.109375 22.296875 5.820312 22.632812 C 5.445312 22.984375 5.109375 23.09375 4.59375 23.078125 C 4.210938 23.039062 3.960938 22.929688 3.703125 22.640625 C 3.40625 22.28125 3.273438 21.921875 3.296875 21.453125 C 3.34375 21.039062 3.507812 20.75 3.8125 20.46875 C 4.3125 20.085938 5.023438 20.0625 5.5625 20.375 Z M 4.453125 21.320312 C 4.296875 21.492188 4.296875 21.492188 4.3125 21.695312 C 4.367188 21.875 4.367188 21.875 4.484375 22 C 4.679688 22.085938 4.789062 22.070312 5 22 C 5.132812 21.898438 5.132812 21.898438 5.1875 21.75 C 5.179688 21.53125 5.164062 21.421875 5.015625 21.257812 C 4.773438 21.132812 4.65625 21.164062 4.453125 21.320312 Z M 4.453125 21.320312 "/>
        <path style=" stroke:none;fill-rule:nonzero;fill:#ffffff;fill-opacity:1;" d="M 29.9375 10.0625 C 30.3125 10.351562 30.515625 10.664062 30.578125 11.132812 C 30.609375 11.570312 30.484375 11.984375 30.195312 12.320312 C 29.820312 12.671875 29.484375 12.78125 28.96875 12.765625 C 28.585938 12.726562 28.335938 12.617188 28.078125 12.328125 C 27.78125 11.96875 27.648438 11.609375 27.671875 11.140625 C 27.71875 10.726562 27.882812 10.4375 28.1875 10.15625 C 28.6875 9.773438 29.398438 9.75 29.9375 10.0625 Z M 28.828125 11.007812 C 28.671875 11.179688 28.671875 11.179688 28.6875 11.382812 C 28.742188 11.5625 28.742188 11.5625 28.859375 11.6875 C 29.054688 11.773438 29.164062 11.757812 29.375 11.6875 C 29.507812 11.585938 29.507812 11.585938 29.5625 11.4375 C 29.554688 11.21875 29.539062 11.109375 29.390625 10.945312 C 29.148438 10.820312 29.03125 10.851562 28.828125 11.007812 Z M 28.828125 11.007812 "/>
        <path style=" stroke:none;fill-rule:nonzero;fill:#ffffff;fill-opacity:1;" d="M 22.4375 2.5625 C 22.8125 2.851562 23.015625 3.164062 23.078125 3.632812 C 23.109375 4.070312 22.984375 4.484375 22.695312 4.820312 C 22.320312 5.171875 21.984375 5.28125 21.46875 5.265625 C 21.085938 5.226562 20.835938 5.117188 20.578125 4.828125 C 20.28125 4.46875 20.148438 4.109375 20.171875 3.640625 C 20.21875 3.226562 20.382812 2.9375 20.6875 2.65625 C 21.1875 2.273438 21.898438 2.25 22.4375 2.5625 Z M 21.328125 3.507812 C 21.171875 3.679688 21.171875 3.679688 21.1875 3.882812 C 21.242188 4.0625 21.242188 4.0625 21.359375 4.1875 C 21.554688 4.273438 21.664062 4.257812 21.875 4.1875 C 22.007812 4.085938 22.007812 4.085938 22.0625 3.9375 C 22.054688 3.71875 22.039062 3.609375 21.890625 3.445312 C 21.648438 3.320312 21.53125 3.351562 21.328125 3.507812 Z M 21.328125 3.507812 "/>
        <path style=" stroke:none;fill-rule:nonzero;fill:#ffffff;fill-opacity:1;" d="M 11.125 26.914062 C 11.476562 27.148438 11.695312 27.476562 11.8125 27.875 C 11.867188 28.320312 11.835938 28.695312 11.5625 29.0625 C 11.210938 29.4375 10.898438 29.625 10.382812 29.640625 C 10.015625 29.632812 9.726562 29.578125 9.4375 29.328125 C 9.117188 28.984375 8.9375 28.632812 8.914062 28.15625 C 8.929688 27.742188 9.046875 27.4375 9.328125 27.140625 C 9.84375 26.664062 10.507812 26.601562 11.125 26.914062 Z M 9.9375 28 C 9.929688 28.242188 9.945312 28.375 10.109375 28.5625 C 10.304688 28.648438 10.421875 28.625 10.625 28.5625 C 10.757812 28.460938 10.757812 28.460938 10.8125 28.3125 C 10.804688 28.117188 10.78125 27.984375 10.671875 27.820312 C 10.382812 27.632812 10.148438 27.757812 9.9375 28 Z M 9.9375 28 "/>
        <path style=" stroke:none;fill-rule:nonzero;fill:#ffffff;fill-opacity:1;" d="M 14.875 24.9375 C 15.164062 25.03125 15.382812 25.195312 15.617188 25.375 C 16.640625 26.132812 17.726562 26.882812 18.875 27.4375 C 18.835938 27.679688 18.765625 27.867188 18.65625 28.078125 C 18.625 28.140625 18.59375 28.195312 18.5625 28.25 C 18.546875 28.289062 18.523438 28.335938 18.5 28.375 C 18.25 28.335938 18.078125 28.265625 17.867188 28.132812 C 17.773438 28.078125 17.773438 28.078125 17.671875 28.023438 C 17.578125 27.960938 17.578125 27.960938 17.46875 27.898438 C 17.40625 27.859375 17.335938 27.8125 17.265625 27.773438 C 16.242188 27.148438 15.265625 26.46875 14.3125 25.75 C 14.40625 25.546875 14.523438 25.382812 14.664062 25.203125 C 14.703125 25.15625 14.742188 25.101562 14.78125 25.054688 C 14.8125 25.015625 14.84375 24.976562 14.875 24.9375 Z M 14.875 24.9375 "/>
    </g>
</svg>