<svg xmlns="http://www.w3.org/2000/svg" xmlns:xlink="http://www.w3.org/1999/xlink" width="32px" height="32px" viewBox="0 0 32 32" version="1.1">
    <g id="surface1">
        <path style=" stroke:none;fill-rule:nonzero;fill:#ffffff;fill-opacity:1;" d="M 18.75 0.1875 C 18.835938 0.203125 18.835938 0.203125 18.929688 0.21875 C 21.273438 0.625 23.515625 1.601562 25.4375 3 C 25.476562 3.023438 25.507812 3.054688 25.546875 3.078125 C 26.085938 3.476562 26.578125 3.914062 27.0625 4.375 C 27.101562 4.414062 27.148438 4.453125 27.1875 4.5 C 27.78125 5.070312 28.328125 5.648438 28.8125 6.3125 C 28.867188 6.382812 28.921875 6.453125 28.976562 6.53125 C 29.351562 7.039062 29.6875 7.570312 30 8.125 C 30.023438 8.171875 30.046875 8.210938 30.078125 8.257812 C 31 9.898438 31.59375 11.703125 31.875 13.5625 C 31.882812 13.632812 31.898438 13.703125 31.90625 13.773438 C 32.015625 14.515625 32.023438 15.25 32.015625 16 C 32.015625 16.0625 32.015625 16.132812 32.015625 16.195312 C 32.015625 17.140625 32 18.070312 31.8125 19 C 31.796875 19.09375 31.796875 19.09375 31.773438 19.195312 C 31.15625 22.304688 29.742188 24.960938 27.5625 27.25 C 27.492188 27.328125 27.492188 27.328125 27.414062 27.40625 C 27.101562 27.726562 26.765625 28.015625 26.414062 28.296875 C 26.34375 28.351562 26.273438 28.40625 26.195312 28.46875 C 25.5 29.023438 24.773438 29.492188 24 29.9375 C 23.921875 29.984375 23.851562 30.023438 23.773438 30.070312 C 20.171875 32.101562 15.71875 32.507812 11.75 31.5 C 11.695312 31.484375 11.648438 31.476562 11.59375 31.460938 C 9.382812 30.890625 7.320312 29.765625 5.625 28.25 C 5.585938 28.21875 5.546875 28.1875 5.507812 28.148438 C 4.695312 27.445312 3.953125 26.679688 3.3125 25.8125 C 3.265625 25.757812 3.21875 25.695312 3.171875 25.632812 C 2.726562 25.0625 2.359375 24.445312 2 23.8125 C 1.96875 23.765625 1.945312 23.710938 1.914062 23.664062 C 1.023438 22.078125 0.40625 20.296875 0.125 18.5 C 0.117188 18.429688 0.101562 18.359375 0.09375 18.289062 C -0.0078125 17.570312 -0.0234375 16.859375 -0.0234375 16.140625 C -0.0234375 16.078125 -0.0234375 16.015625 -0.0234375 15.945312 C -0.0234375 14.945312 0.0390625 13.984375 0.25 13 C 0.265625 12.929688 0.28125 12.867188 0.296875 12.796875 C 0.90625 9.945312 2.195312 7.296875 4.179688 5.148438 C 4.273438 5.046875 4.359375 4.945312 4.453125 4.835938 C 4.742188 4.507812 5.039062 4.21875 5.375 3.9375 C 5.429688 3.890625 5.484375 3.835938 5.546875 3.789062 C 7.703125 1.882812 10.484375 0.648438 13.3125 0.1875 C 13.375 0.179688 13.429688 0.164062 13.492188 0.15625 C 15.210938 -0.125 17.03125 -0.101562 18.75 0.1875 Z M 8.5 2.9375 C 8.5 2.960938 8.5 2.976562 8.5 3 C 8.5625 3 8.625 2.992188 8.695312 2.992188 C 10.648438 2.921875 10.648438 2.921875 11.0625 3.257812 C 11.171875 3.375 11.265625 3.5 11.359375 3.625 C 11.515625 3.851562 11.515625 3.851562 11.75 3.976562 C 12.023438 4.015625 12.289062 3.984375 12.5625 3.9375 C 12.578125 3.890625 12.59375 3.84375 12.609375 3.804688 C 12.867188 3.21875 13.4375 2.617188 14 2.3125 C 14.625 2.078125 15.351562 2.140625 16.007812 2.164062 C 16.195312 2.171875 16.390625 2.171875 16.578125 2.164062 C 18.015625 2.148438 18.015625 2.148438 18.390625 2.414062 C 18.507812 2.53125 18.601562 2.65625 18.703125 2.789062 C 18.90625 3.070312 19.070312 3.226562 19.421875 3.296875 C 20.085938 3.375 20.757812 3.34375 21.421875 3.3125 C 21.703125 3.304688 21.976562 3.296875 22.257812 3.296875 C 22.796875 3.289062 23.335938 3.273438 23.875 3.25 C 22.5 2.140625 20.570312 1.585938 18.859375 1.234375 C 18.820312 1.226562 18.773438 1.21875 18.726562 1.203125 C 17.820312 1.03125 16.914062 0.976562 15.992188 0.984375 C 15.914062 0.984375 15.914062 0.984375 15.84375 0.984375 C 13.289062 0.992188 10.703125 1.625 8.5 2.9375 Z M 13.625 4 C 13.476562 4.3125 13.492188 4.609375 13.5625 4.9375 C 13.242188 4.953125 12.921875 4.960938 12.59375 4.960938 C 12.484375 4.960938 12.375 4.960938 12.265625 4.96875 C 11.351562 5.007812 11.351562 5.007812 11.078125 4.789062 C 10.96875 4.671875 10.875 4.554688 10.78125 4.4375 C 10.53125 4.140625 10.335938 3.976562 9.945312 3.914062 C 9.578125 3.882812 9.21875 3.882812 8.851562 3.890625 C 8.625 3.898438 8.398438 3.898438 8.171875 3.890625 C 7.21875 3.890625 7.21875 3.890625 6.421875 4.359375 C 6.320312 4.453125 6.234375 4.554688 6.148438 4.65625 C 6.007812 4.8125 5.84375 4.945312 5.6875 5.085938 C 5.398438 5.351562 5.125 5.625 4.859375 5.90625 C 4.804688 5.96875 4.804688 5.96875 4.75 6.023438 C 4.5625 6.203125 4.5625 6.203125 4.5 6.4375 C 4.570312 6.4375 4.648438 6.429688 4.726562 6.429688 C 5 6.421875 5.273438 6.421875 5.554688 6.421875 C 5.671875 6.421875 5.789062 6.421875 5.914062 6.414062 C 6.085938 6.414062 6.257812 6.414062 6.429688 6.414062 C 6.484375 6.414062 6.53125 6.40625 6.585938 6.40625 C 6.882812 6.414062 7.015625 6.453125 7.226562 6.671875 C 7.289062 6.734375 7.34375 6.804688 7.40625 6.875 C 7.695312 7.203125 7.921875 7.320312 8.359375 7.351562 C 8.570312 7.359375 8.78125 7.351562 8.992188 7.351562 C 9.101562 7.351562 9.21875 7.351562 9.328125 7.351562 C 9.570312 7.359375 9.804688 7.351562 10.039062 7.351562 C 10.34375 7.34375 10.640625 7.351562 10.945312 7.359375 C 11.179688 7.359375 11.414062 7.359375 11.640625 7.359375 C 11.757812 7.359375 11.867188 7.359375 11.976562 7.359375 C 12.65625 7.375 12.65625 7.375 13.226562 7.0625 C 13.335938 6.953125 13.429688 6.84375 13.53125 6.726562 C 13.734375 6.5 13.859375 6.382812 14.179688 6.351562 C 14.304688 6.351562 14.429688 6.351562 14.554688 6.367188 C 14.625 6.367188 14.6875 6.367188 14.757812 6.367188 C 14.976562 6.375 15.1875 6.382812 15.398438 6.390625 C 16.640625 6.46875 16.640625 6.46875 17.742188 5.960938 C 17.898438 5.84375 18.03125 5.765625 18.203125 5.679688 C 18.242188 5.65625 18.289062 5.632812 18.335938 5.609375 C 18.367188 5.59375 18.40625 5.578125 18.4375 5.5625 C 18.476562 5.617188 18.507812 5.679688 18.546875 5.734375 C 18.789062 6.0625 19.039062 6.320312 19.4375 6.421875 C 19.953125 6.484375 20.476562 6.46875 21 6.460938 C 21.226562 6.453125 21.453125 6.453125 21.6875 6.453125 C 22.117188 6.445312 22.546875 6.445312 22.984375 6.429688 C 23.476562 6.421875 23.96875 6.421875 24.460938 6.414062 C 25.476562 6.40625 26.484375 6.390625 27.5 6.375 C 27.4375 6.296875 27.382812 6.210938 27.320312 6.132812 C 27.289062 6.085938 27.257812 6.046875 27.21875 6 C 27.117188 5.859375 27 5.734375 26.882812 5.617188 C 26.835938 5.570312 26.789062 5.523438 26.75 5.484375 C 26.703125 5.4375 26.65625 5.390625 26.609375 5.34375 C 26.546875 5.28125 26.546875 5.28125 26.484375 5.21875 C 26.390625 5.125 26.304688 5.039062 26.210938 4.960938 C 26.0625 4.8125 26.0625 4.8125 25.9375 4.664062 C 25.609375 4.320312 25.351562 4.21875 24.890625 4.195312 C 24.625 4.195312 24.367188 4.195312 24.101562 4.210938 C 23.890625 4.210938 23.671875 4.21875 23.453125 4.21875 C 22.84375 4.226562 22.226562 4.234375 21.617188 4.257812 C 21.234375 4.265625 20.859375 4.265625 20.484375 4.273438 C 20.34375 4.273438 20.195312 4.273438 20.054688 4.28125 C 18.867188 4.328125 18.867188 4.328125 18.476562 3.976562 C 18.351562 3.851562 18.242188 3.726562 18.125 3.585938 C 17.90625 3.328125 17.765625 3.1875 17.40625 3.132812 C 17.210938 3.117188 17.210938 3.117188 17.015625 3.125 C 16.945312 3.125 16.867188 3.125 16.796875 3.125 C 16.648438 3.125 16.5 3.125 16.351562 3.132812 C 16.117188 3.140625 15.898438 3.132812 15.671875 3.125 C 14.804688 3.125 14.109375 3.21875 13.625 4 Z M 17.773438 7.0625 C 17.101562 7.476562 16.296875 7.351562 15.546875 7.3125 C 15.351562 7.304688 15.148438 7.304688 14.953125 7.296875 C 14.898438 7.296875 14.835938 7.289062 14.773438 7.289062 C 14.539062 7.28125 14.34375 7.289062 14.164062 7.453125 C 14.070312 7.5625 13.976562 7.671875 13.882812 7.78125 C 13.609375 8.09375 13.390625 8.234375 12.976562 8.28125 C 12.664062 8.296875 12.367188 8.296875 12.054688 8.296875 C 11.921875 8.296875 11.789062 8.296875 11.65625 8.296875 C 11.382812 8.296875 11.101562 8.296875 10.828125 8.289062 C 10.476562 8.28125 10.117188 8.289062 9.765625 8.289062 C 9.492188 8.296875 9.21875 8.289062 8.945312 8.289062 C 8.8125 8.289062 8.679688 8.289062 8.554688 8.289062 C 7.476562 8.304688 7.476562 8.304688 7.148438 8.015625 C 7.046875 7.921875 6.960938 7.8125 6.867188 7.710938 C 6.6875 7.484375 6.570312 7.382812 6.28125 7.335938 C 6.164062 7.328125 6.046875 7.328125 5.929688 7.328125 C 5.835938 7.328125 5.835938 7.328125 5.742188 7.328125 C 5.609375 7.328125 5.476562 7.328125 5.351562 7.328125 C 5.148438 7.335938 4.953125 7.328125 4.75 7.320312 C 4.132812 7.296875 4.132812 7.296875 3.570312 7.523438 C 3.367188 7.742188 3.234375 7.984375 3.117188 8.25 C 3.039062 8.429688 2.945312 8.585938 2.851562 8.757812 C 2.789062 8.875 2.726562 8.984375 2.671875 9.109375 C 2.632812 9.164062 2.601562 9.226562 2.570312 9.289062 C 2.1875 9.960938 2.1875 9.960938 2 10.6875 C 11.257812 10.6875 20.523438 10.6875 30.0625 10.6875 C 29.835938 10.117188 29.617188 9.570312 29.328125 9.03125 C 29.28125 8.945312 29.28125 8.945312 29.242188 8.859375 C 29.179688 8.742188 29.117188 8.632812 29.046875 8.515625 C 28.96875 8.367188 28.90625 8.234375 28.851562 8.070312 C 28.734375 7.773438 28.59375 7.546875 28.3125 7.375 C 27.6875 7.210938 26.992188 7.265625 26.34375 7.28125 C 26.085938 7.289062 25.820312 7.289062 25.554688 7.289062 C 25.0625 7.289062 24.5625 7.296875 24.0625 7.304688 C 23.171875 7.320312 22.28125 7.335938 21.390625 7.335938 C 21.078125 7.34375 20.765625 7.34375 20.453125 7.351562 C 20.257812 7.359375 20.0625 7.359375 19.867188 7.359375 C 19.78125 7.359375 19.6875 7.359375 19.601562 7.367188 C 18.914062 7.382812 18.914062 7.382812 18.648438 7.195312 C 18.515625 7.0625 18.515625 7.0625 18.40625 6.921875 C 18.375 6.882812 18.34375 6.851562 18.3125 6.8125 C 18.0625 6.8125 17.976562 6.914062 17.773438 7.0625 Z M 1.625 11.6875 C 1.585938 11.8125 1.546875 11.9375 1.507812 12.0625 C 1.484375 12.140625 1.460938 12.210938 1.4375 12.28125 C 1.359375 12.53125 1.359375 12.53125 1.3125 12.9375 C 11.007812 12.9375 20.703125 12.9375 30.6875 12.9375 C 30.648438 12.625 30.617188 12.359375 30.53125 12.0625 C 30.515625 12.007812 30.5 11.953125 30.484375 11.890625 C 30.453125 11.75 30.453125 11.75 30.375 11.6875 C 30.21875 11.679688 30.070312 11.679688 29.921875 11.679688 C 29.84375 11.679688 29.84375 11.679688 29.773438 11.679688 C 29.609375 11.679688 29.4375 11.679688 29.273438 11.679688 C 29.15625 11.679688 29.039062 11.679688 28.921875 11.679688 C 28.59375 11.679688 28.265625 11.679688 27.9375 11.679688 C 27.585938 11.679688 27.234375 11.679688 26.882812 11.679688 C 26.265625 11.679688 25.65625 11.679688 25.046875 11.679688 C 24.15625 11.679688 23.273438 11.679688 22.390625 11.679688 C 20.953125 11.679688 19.523438 11.679688 18.085938 11.679688 C 16.695312 11.679688 15.296875 11.6875 13.90625 11.6875 C 13.84375 11.6875 13.84375 11.6875 13.773438 11.6875 C 13.34375 11.6875 12.914062 11.6875 12.484375 11.6875 C 8.859375 11.6875 5.242188 11.6875 1.625 11.6875 Z M 1.125 13.9375 C 0.976562 14.648438 0.976562 14.648438 1 15.5 C 10.898438 15.5 20.796875 15.5 31 15.5 C 31.023438 14.695312 31.023438 14.695312 30.875 13.9375 C 21.054688 13.9375 11.242188 13.9375 1.125 13.9375 Z M 1 16.5 C 1 16.96875 1 16.96875 1.03125 17.4375 C 1.03125 17.492188 1.039062 17.554688 1.039062 17.609375 C 1.046875 17.75 1.046875 17.75 1.125 17.8125 C 1.28125 17.820312 1.4375 17.820312 1.601562 17.820312 C 1.671875 17.820312 1.671875 17.820312 1.75 17.820312 C 1.921875 17.820312 2.09375 17.820312 2.265625 17.820312 C 2.390625 17.820312 2.507812 17.820312 2.632812 17.820312 C 2.976562 17.820312 3.3125 17.820312 3.65625 17.820312 C 4.015625 17.820312 4.382812 17.820312 4.75 17.820312 C 5.382812 17.820312 6.015625 17.820312 6.65625 17.820312 C 7.570312 17.820312 8.484375 17.820312 9.40625 17.820312 C 10.890625 17.820312 12.382812 17.820312 13.867188 17.820312 C 15.3125 17.820312 16.757812 17.8125 18.203125 17.8125 C 18.273438 17.8125 18.273438 17.8125 18.335938 17.8125 C 18.789062 17.8125 19.234375 17.8125 19.679688 17.8125 C 20.59375 17.8125 21.5 17.8125 22.414062 17.8125 C 22.453125 17.8125 22.5 17.8125 22.539062 17.8125 C 25.335938 17.8125 28.140625 17.8125 30.9375 17.8125 C 31.007812 17.359375 31 16.96875 31 16.5 C 21.101562 16.5 11.203125 16.5 1 16.5 Z M 1.25 18.8125 C 1.296875 19.273438 1.296875 19.273438 1.398438 19.710938 C 1.414062 19.773438 1.429688 19.828125 1.445312 19.890625 C 1.46875 19.945312 1.484375 20 1.5 20.0625 C 1.515625 20.125 1.53125 20.179688 1.554688 20.242188 C 1.609375 20.515625 1.609375 20.515625 1.75 20.75 C 1.945312 20.757812 2.140625 20.757812 2.328125 20.757812 C 2.421875 20.757812 2.421875 20.757812 2.515625 20.757812 C 2.71875 20.757812 2.921875 20.757812 3.125 20.757812 C 3.265625 20.757812 3.40625 20.757812 3.546875 20.757812 C 3.914062 20.757812 4.28125 20.757812 4.648438 20.757812 C 5.03125 20.75 5.40625 20.75 5.78125 20.75 C 6.523438 20.75 7.257812 20.75 8 20.75 C 8 21.0625 8 21.367188 8 21.6875 C 8.070312 21.6875 8.140625 21.6875 8.21875 21.6875 C 8.484375 21.6875 8.75 21.6875 9.015625 21.6875 C 9.132812 21.6875 9.25 21.6875 9.359375 21.6875 C 9.53125 21.6875 9.695312 21.6875 9.859375 21.695312 C 9.914062 21.695312 9.960938 21.695312 10.015625 21.6875 C 10.242188 21.695312 10.382812 21.703125 10.5625 21.851562 C 10.632812 21.929688 10.703125 22.007812 10.773438 22.085938 C 10.960938 22.273438 11.148438 22.25 11.398438 22.25 C 11.460938 22.25 11.523438 22.25 11.585938 22.25 C 11.648438 22.25 11.710938 22.257812 11.773438 22.257812 C 11.96875 22.257812 12.125 22.242188 12.3125 22.1875 C 12.4375 22.054688 12.4375 22.054688 12.546875 21.90625 C 12.765625 21.671875 12.921875 21.59375 13.242188 21.578125 C 13.4375 21.578125 13.640625 21.578125 13.835938 21.59375 C 14 21.601562 14.15625 21.601562 14.320312 21.609375 C 14.789062 21.617188 15.25 21.632812 15.710938 21.65625 C 16.960938 21.773438 16.960938 21.773438 18.125 21.4375 C 18.273438 21.28125 18.40625 21.117188 18.539062 20.9375 C 18.796875 20.585938 19.039062 20.328125 19.476562 20.242188 C 20.289062 20.132812 21.125 20.171875 21.945312 20.203125 C 22.210938 20.210938 22.484375 20.210938 22.757812 20.210938 C 23.015625 20.210938 23.28125 20.21875 23.539062 20.21875 C 23.664062 20.226562 23.789062 20.226562 23.914062 20.226562 C 24.085938 20.234375 24.265625 20.234375 24.4375 20.242188 C 24.484375 20.242188 24.539062 20.242188 24.59375 20.242188 C 24.890625 20.257812 25.023438 20.3125 25.234375 20.53125 C 25.265625 20.570312 25.304688 20.609375 25.335938 20.648438 C 25.476562 20.789062 25.578125 20.804688 25.773438 20.8125 C 25.859375 20.8125 25.859375 20.8125 25.953125 20.8125 C 26.023438 20.8125 26.085938 20.8125 26.15625 20.8125 C 26.226562 20.8125 26.289062 20.820312 26.367188 20.820312 C 26.507812 20.820312 26.65625 20.820312 26.796875 20.820312 C 27.015625 20.820312 27.234375 20.820312 27.460938 20.828125 C 28.1875 20.867188 28.1875 20.867188 28.84375 20.609375 C 28.992188 20.445312 28.992188 20.445312 29.125 20.265625 C 29.28125 20.09375 29.367188 20.070312 29.601562 20.046875 C 29.710938 20.046875 29.828125 20.046875 29.945312 20.054688 C 30.148438 20.054688 30.351562 20.0625 30.5625 20.0625 C 30.648438 19.648438 30.726562 19.234375 30.8125 18.8125 C 21.054688 18.8125 11.304688 18.8125 1.25 18.8125 Z M 29.539062 21.195312 C 29.5 21.25 29.453125 21.3125 29.40625 21.367188 C 29.15625 21.640625 28.992188 21.734375 28.625 21.765625 C 28.460938 21.765625 28.296875 21.765625 28.125 21.765625 C 28.039062 21.765625 27.953125 21.765625 27.859375 21.765625 C 27.671875 21.765625 27.492188 21.765625 27.304688 21.757812 C 27.070312 21.757812 26.828125 21.757812 26.59375 21.757812 C 26.40625 21.757812 26.226562 21.757812 26.039062 21.75 C 25.953125 21.75 25.867188 21.75 25.78125 21.75 C 25.078125 21.757812 25.078125 21.757812 24.882812 21.585938 C 24.835938 21.53125 24.835938 21.53125 24.789062 21.46875 C 24.625 21.265625 24.484375 21.21875 24.21875 21.1875 C 23.96875 21.171875 23.726562 21.164062 23.484375 21.164062 C 23.375 21.164062 23.265625 21.15625 23.164062 21.15625 C 22.9375 21.148438 22.710938 21.148438 22.492188 21.148438 C 22.257812 21.148438 22.03125 21.140625 21.804688 21.132812 C 20.570312 21.023438 20.570312 21.023438 19.4375 21.375 C 19.273438 21.539062 19.140625 21.695312 19 21.875 C 18.703125 22.265625 18.460938 22.515625 17.96875 22.585938 C 17.304688 22.640625 16.640625 22.609375 15.976562 22.578125 C 15.515625 22.5625 15.054688 22.546875 14.59375 22.539062 C 14.4375 22.539062 14.273438 22.53125 14.117188 22.523438 C 13.601562 22.492188 13.601562 22.492188 13.140625 22.6875 C 13.046875 22.789062 12.953125 22.890625 12.867188 22.992188 C 12.734375 23.140625 12.671875 23.171875 12.484375 23.195312 C 12.390625 23.195312 12.296875 23.195312 12.203125 23.195312 C 12.132812 23.195312 12.132812 23.195312 12.054688 23.195312 C 11.953125 23.195312 11.84375 23.195312 11.742188 23.195312 C 11.585938 23.1875 11.429688 23.1875 11.273438 23.1875 C 11.171875 23.1875 11.070312 23.1875 10.96875 23.1875 C 10.921875 23.1875 10.875 23.1875 10.828125 23.1875 C 10.617188 23.179688 10.484375 23.171875 10.328125 23.023438 C 10.296875 22.984375 10.265625 22.945312 10.226562 22.90625 C 10.054688 22.703125 9.9375 22.65625 9.671875 22.640625 C 9.546875 22.640625 9.421875 22.640625 9.304688 22.648438 C 9.203125 22.648438 9.203125 22.648438 9.101562 22.648438 C 8.890625 22.648438 8.679688 22.65625 8.46875 22.65625 C 8.328125 22.664062 8.1875 22.664062 8.046875 22.664062 C 7.695312 22.671875 7.351562 22.679688 7 22.6875 C 7 22.375 7 22.070312 7 21.75 C 5.390625 21.75 3.78125 21.75 2.125 21.75 C 2.476562 22.5625 2.476562 22.5625 2.882812 23.34375 C 2.90625 23.390625 2.929688 23.4375 2.960938 23.476562 C 3.03125 23.609375 3.109375 23.742188 3.1875 23.875 C 3.203125 23.914062 3.21875 23.953125 3.234375 24 C 3.304688 24.15625 3.367188 24.257812 3.5 24.375 C 3.820312 24.453125 4.132812 24.445312 4.460938 24.445312 C 4.554688 24.445312 4.65625 24.445312 4.757812 24.445312 C 5.023438 24.445312 5.296875 24.445312 5.5625 24.445312 C 5.789062 24.445312 6.015625 24.445312 6.234375 24.445312 C 6.765625 24.453125 7.296875 24.445312 7.828125 24.445312 C 8.375 24.445312 8.921875 24.445312 9.46875 24.453125 C 9.945312 24.453125 10.414062 24.453125 10.882812 24.453125 C 11.164062 24.453125 11.445312 24.453125 11.726562 24.453125 C 11.992188 24.460938 12.25 24.460938 12.515625 24.453125 C 12.617188 24.453125 12.710938 24.453125 12.804688 24.453125 C 13.5625 24.46875 13.960938 24.242188 14.5 23.75 C 14.710938 23.609375 14.78125 23.609375 15.023438 23.601562 C 15.085938 23.601562 15.15625 23.601562 15.226562 23.601562 C 15.304688 23.59375 15.375 23.59375 15.453125 23.59375 C 15.5625 23.59375 15.5625 23.59375 15.679688 23.59375 C 15.84375 23.59375 16.007812 23.585938 16.164062 23.585938 C 16.414062 23.585938 16.65625 23.578125 16.90625 23.578125 C 17.0625 23.570312 17.21875 23.570312 17.375 23.570312 C 17.484375 23.570312 17.484375 23.570312 17.59375 23.5625 C 18.117188 23.570312 18.117188 23.570312 18.335938 23.734375 C 18.375 23.78125 18.421875 23.828125 18.46875 23.875 C 18.804688 24.21875 19.148438 24.203125 19.617188 24.210938 C 19.695312 24.210938 19.78125 24.210938 19.867188 24.21875 C 20.039062 24.21875 20.21875 24.21875 20.390625 24.21875 C 20.570312 24.21875 20.742188 24.226562 20.921875 24.234375 C 21.890625 24.3125 21.890625 24.3125 22.765625 24.015625 C 22.890625 23.882812 22.992188 23.742188 23.101562 23.59375 C 23.335938 23.273438 23.570312 23.070312 23.96875 23 C 24.757812 22.90625 25.570312 22.9375 26.367188 22.960938 C 26.703125 22.96875 27.03125 22.96875 27.367188 22.96875 C 28.015625 22.976562 28.664062 22.984375 29.3125 23 C 29.390625 22.84375 29.46875 22.6875 29.546875 22.53125 C 29.570312 22.484375 29.59375 22.4375 29.617188 22.398438 C 29.96875 21.757812 29.96875 21.757812 30.125 21.0625 C 29.804688 21.023438 29.804688 21.023438 29.539062 21.195312 Z M 23.59375 24.53125 C 23.367188 24.828125 23.195312 25.03125 22.828125 25.125 C 22.164062 25.21875 21.484375 25.1875 20.820312 25.164062 C 20.601562 25.15625 20.382812 25.15625 20.164062 25.15625 C 19.945312 25.15625 19.734375 25.15625 19.523438 25.148438 C 19.421875 25.148438 19.320312 25.148438 19.21875 25.148438 C 18.34375 25.140625 18.34375 25.140625 18 24.8125 C 17.960938 24.765625 17.921875 24.71875 17.875 24.671875 C 17.65625 24.476562 17.421875 24.484375 17.140625 24.492188 C 17.085938 24.492188 17.023438 24.484375 16.96875 24.484375 C 16.851562 24.484375 16.726562 24.484375 16.609375 24.484375 C 16.429688 24.484375 16.25 24.484375 16.070312 24.476562 C 15.953125 24.476562 15.835938 24.476562 15.71875 24.476562 C 15.640625 24.476562 15.640625 24.476562 15.5625 24.46875 C 15.210938 24.484375 15.046875 24.5625 14.796875 24.8125 C 14.054688 25.5 12.984375 25.34375 12.039062 25.335938 C 11.757812 25.328125 11.484375 25.328125 11.210938 25.335938 C 10.695312 25.335938 10.179688 25.328125 9.65625 25.328125 C 9.070312 25.320312 8.476562 25.320312 7.890625 25.320312 C 6.671875 25.328125 5.460938 25.320312 4.25 25.3125 C 4.3125 25.390625 4.367188 25.476562 4.429688 25.554688 C 4.460938 25.59375 4.5 25.640625 4.53125 25.6875 C 4.859375 26.125 5.257812 26.515625 5.640625 26.90625 C 5.679688 26.945312 5.710938 26.976562 5.75 27.015625 C 5.820312 27.09375 5.898438 27.164062 5.976562 27.242188 C 6.125 27.375 6.125 27.375 6.265625 27.53125 C 6.921875 28.164062 7.6875 28.09375 8.554688 28.085938 C 8.78125 28.078125 9 28.085938 9.21875 28.085938 C 9.648438 28.085938 10.085938 28.085938 10.515625 28.085938 C 10.867188 28.085938 11.21875 28.085938 11.570312 28.085938 C 11.640625 28.085938 11.640625 28.085938 11.71875 28.085938 C 11.820312 28.085938 11.921875 28.085938 12.023438 28.085938 C 12.976562 28.085938 13.929688 28.085938 14.882812 28.085938 C 15.703125 28.078125 16.515625 28.085938 17.335938 28.085938 C 18.28125 28.09375 19.234375 28.09375 20.179688 28.09375 C 20.28125 28.09375 20.382812 28.085938 20.484375 28.085938 C 20.539062 28.085938 20.585938 28.085938 20.640625 28.085938 C 20.992188 28.085938 21.335938 28.09375 21.6875 28.09375 C 22.117188 28.09375 22.546875 28.09375 22.96875 28.09375 C 23.1875 28.085938 23.40625 28.085938 23.625 28.09375 C 24.773438 28.125 24.773438 28.125 25.742188 27.585938 C 25.828125 27.492188 25.914062 27.40625 26 27.3125 C 26.125 27.195312 26.257812 27.085938 26.390625 26.96875 C 26.507812 26.851562 26.632812 26.742188 26.75 26.625 C 26.8125 26.570312 26.867188 26.507812 26.929688 26.453125 C 27.46875 25.929688 27.921875 25.359375 28.375 24.757812 C 28.398438 24.71875 28.429688 24.679688 28.460938 24.640625 C 28.492188 24.601562 28.515625 24.5625 28.546875 24.523438 C 28.570312 24.492188 28.59375 24.460938 28.617188 24.421875 C 28.703125 24.289062 28.757812 24.148438 28.8125 24 C 28.21875 23.976562 27.625 23.953125 27.03125 23.945312 C 26.757812 23.9375 26.484375 23.929688 26.210938 23.921875 C 24.742188 23.78125 24.742188 23.78125 23.59375 24.53125 Z M 8.5 29 C 8.71875 29.179688 8.875 29.289062 9.117188 29.40625 C 9.171875 29.4375 9.234375 29.46875 9.289062 29.492188 C 9.351562 29.523438 9.414062 29.554688 9.476562 29.578125 C 9.539062 29.609375 9.601562 29.640625 9.671875 29.671875 C 11.375 30.46875 13.289062 31 15.179688 31.015625 C 15.226562 31.015625 15.28125 31.015625 15.328125 31.015625 C 16.421875 31.023438 17.492188 31.023438 18.5625 30.8125 C 18.625 30.796875 18.6875 30.789062 18.75 30.773438 C 20.4375 30.445312 21.976562 29.835938 23.5 29.0625 C 23.5 29.039062 23.5 29.023438 23.5 29 C 18.546875 29 13.601562 29 8.5 29 Z M 8.5 29 "/>
        <path style=" stroke:none;fill-rule:nonzero;fill:#ffffff;fill-opacity:1;" d="M 16.4375 26 C 16.765625 26 17.09375 26 17.4375 26 C 17.4375 26.328125 17.4375 26.65625 17.4375 27 C 17.28125 27 17.132812 27 16.96875 27 C 16.921875 27.007812 16.875 27.007812 16.828125 27.007812 C 16.71875 27.007812 16.609375 27 16.5 27 C 16.4375 26.9375 16.4375 26.9375 16.429688 26.726562 C 16.429688 26.640625 16.429688 26.554688 16.4375 26.46875 C 16.4375 26.3125 16.4375 26.15625 16.4375 26 Z M 16.4375 26 "/>
        <path style=" stroke:none;fill-rule:nonzero;fill:#ffffff;fill-opacity:1;" d="M 14.625 26 C 14.953125 26 15.28125 26 15.625 26 C 15.625 26.15625 15.625 26.304688 15.625 26.46875 C 15.632812 26.515625 15.632812 26.5625 15.632812 26.609375 C 15.632812 26.71875 15.625 26.828125 15.625 26.9375 C 15.5625 27 15.5625 27 15.351562 27.007812 C 15.265625 27.007812 15.179688 27.007812 15.09375 27 C 14.9375 27 14.78125 27 14.625 27 C 14.625 26.671875 14.625 26.34375 14.625 26 Z M 14.625 26 "/>
    </g>
</svg>