<svg xmlns="http://www.w3.org/2000/svg" xmlns:xlink="http://www.w3.org/1999/xlink" width="32px" height="32px" viewBox="0 0 32 32" version="1.1">
<g id="surface1">
<path style=" stroke:none;fill-rule:nonzero;fill:#ffffff;fill-opacity:1;" d="M 14.8125 0.0390625 C 14.695312 0.0507812 14.324219 0.09375 14 0.132812 C 9.054688 0.695312 4.488281 3.792969 1.976562 8.289062 C 1.0625 9.925781 0.398438 11.960938 0.117188 14 C 0.0078125 14.78125 0.0078125 17.21875 0.117188 18 C 0.773438 22.761719 3.3125 26.800781 7.289062 29.414062 C 11.074219 31.914062 15.894531 32.644531 20.34375 31.394531 C 26.148438 29.769531 30.632812 24.875 31.710938 18.976562 C 32.6875 13.695312 31.070312 8.460938 27.304688 4.695312 C 24.8125 2.207031 21.8125 0.699219 18.25 0.15625 C 17.625 0.0625 15.300781 -0.0195312 14.8125 0.0390625 Z M 17.507812 1.0625 C 20.78125 1.386719 23.988281 2.867188 26.363281 5.148438 C 28.792969 7.488281 30.289062 10.363281 30.855469 13.78125 C 31.011719 14.757812 31.011719 17.242188 30.855469 18.21875 C 30.320312 21.445312 28.96875 24.164062 26.78125 26.429688 C 24.507812 28.792969 21.601562 30.292969 18.21875 30.855469 C 17.242188 31.011719 14.761719 31.011719 13.78125 30.855469 C 12.164062 30.585938 10.824219 30.167969 9.40625 29.476562 C 5.789062 27.707031 3.007812 24.53125 1.761719 20.738281 C -0.210938 14.726562 1.6875 8.28125 6.625 4.273438 C 7.625 3.460938 9.042969 2.632812 10.335938 2.09375 C 11.5 1.613281 13.15625 1.195312 14.375 1.070312 C 15.136719 0.992188 16.757812 0.988281 17.507812 1.0625 Z M 17.507812 1.0625 "/>
<path style=" stroke:none;fill-rule:nonzero;fill:#ffffff;fill-opacity:1;" d="M 14.875 1.539062 C 13.65625 1.648438 12.273438 1.945312 11.21875 2.3125 C 10.914062 2.425781 10.648438 2.519531 10.636719 2.53125 C 10.625 2.542969 10.925781 3.363281 10.96875 3.425781 C 10.976562 3.429688 11.324219 3.324219 11.738281 3.1875 C 15.085938 2.070312 18.738281 2.3125 21.925781 3.875 C 24.667969 5.21875 26.78125 7.332031 28.125 10.074219 C 30.15625 14.207031 29.9375 19.03125 27.550781 23 C 27.332031 23.363281 26.976562 23.894531 26.757812 24.1875 C 26.210938 24.90625 24.851562 26.257812 24.117188 26.800781 C 23.625 27.167969 22.082031 28.132812 21.863281 28.199219 C 21.78125 28.230469 22.164062 29.0625 22.257812 29.0625 C 22.375 29.0625 23.355469 28.511719 24 28.085938 C 28.207031 25.289062 30.679688 20.488281 30.476562 15.5 C 30.386719 13.324219 29.929688 11.5 28.992188 9.59375 C 26.898438 5.335938 22.84375 2.375 18.125 1.65625 C 17.488281 1.5625 15.445312 1.488281 14.875 1.539062 Z M 14.875 1.539062 "/>
<path style=" stroke:none;fill-rule:nonzero;fill:#ffffff;fill-opacity:1;" d="M 8 3.925781 C 4.695312 6.136719 2.488281 9.457031 1.757812 13.3125 C 1.175781 16.386719 1.613281 19.574219 3 22.40625 C 4.875 26.21875 8.429688 29.074219 12.5625 30.082031 C 15.113281 30.707031 17.90625 30.605469 20.398438 29.8125 L 21.179688 29.5625 L 21.023438 29.144531 C 20.9375 28.914062 20.855469 28.707031 20.835938 28.679688 C 20.824219 28.65625 20.511719 28.738281 20.144531 28.855469 C 15.460938 30.375 10.273438 29.1875 6.679688 25.769531 C 5.519531 24.65625 4.601562 23.398438 3.875 21.925781 C 1.554688 17.199219 2.195312 11.585938 5.519531 7.46875 C 6.332031 6.460938 7.824219 5.144531 8.863281 4.53125 L 9.242188 4.300781 L 9.074219 4.007812 C 8.707031 3.363281 8.820312 3.375 8 3.925781 Z M 8 3.925781 "/>
<path style=" stroke:none;fill-rule:nonzero;fill:#ffffff;fill-opacity:1;" d="M 21.5 5.3125 C 21.398438 5.519531 21.3125 5.707031 21.3125 5.738281 C 21.3125 5.769531 21.386719 5.824219 21.488281 5.867188 C 21.761719 5.992188 23.007812 6.835938 23.324219 7.117188 C 23.480469 7.261719 23.636719 7.375 23.667969 7.375 C 23.699219 7.375 23.863281 7.21875 24.023438 7.023438 L 24.324219 6.679688 L 24.0625 6.449219 C 23.4375 5.90625 21.960938 4.9375 21.769531 4.9375 C 21.726562 4.9375 21.605469 5.105469 21.5 5.3125 Z M 21.5 5.3125 "/>
<path style=" stroke:none;fill-rule:nonzero;fill:#ffffff;fill-opacity:1;" d="M 15.417969 5.0625 C 14.769531 5.230469 14.085938 5.769531 13.789062 6.355469 C 13.023438 7.867188 13.925781 9.636719 15.613281 9.949219 C 17.230469 10.25 18.742188 8.71875 18.445312 7.085938 C 18.230469 5.914062 17.304688 5.082031 16.148438 5.03125 C 15.875 5.011719 15.550781 5.03125 15.417969 5.0625 Z M 16.789062 6.226562 C 16.976562 6.335938 17.164062 6.523438 17.28125 6.71875 C 17.449219 6.988281 17.46875 7.074219 17.46875 7.492188 C 17.460938 8.03125 17.382812 8.242188 17.023438 8.585938 C 16.460938 9.136719 15.523438 9.117188 14.945312 8.550781 C 14.664062 8.273438 14.554688 8.039062 14.519531 7.625 C 14.457031 6.988281 14.757812 6.449219 15.324219 6.164062 C 15.789062 5.925781 16.34375 5.949219 16.789062 6.226562 Z M 16.789062 6.226562 "/>
<path style=" stroke:none;fill-rule:nonzero;fill:#ffffff;fill-opacity:1;" d="M 24.949219 7.988281 C 24.773438 8.148438 24.625 8.304688 24.625 8.332031 C 24.625 8.355469 24.769531 8.550781 24.9375 8.757812 C 25.949219 9.976562 26.75 11.570312 27.164062 13.1875 C 27.351562 13.9375 27.5 14.980469 27.5 15.574219 L 27.5 16 L 28.5 16 L 28.5 15.726562 C 28.5 15.21875 28.367188 14.164062 28.21875 13.425781 C 27.929688 12.011719 27.363281 10.605469 26.570312 9.335938 C 26.207031 8.761719 25.382812 7.679688 25.3125 7.6875 C 25.292969 7.695312 25.132812 7.824219 24.949219 7.988281 Z M 24.949219 7.988281 "/>
<path style=" stroke:none;fill-rule:nonzero;fill:#ffffff;fill-opacity:1;" d="M 13.5 19.5 L 13.5 27 L 18.5 27 L 18.5 12 L 13.5 12 Z M 17.5 19.5 L 17.5 26 L 14.5 26 L 14.5 13 L 17.5 13 Z M 17.5 19.5 "/>
</g>
</svg>