<svg xmlns="http://www.w3.org/2000/svg" xmlns:xlink="http://www.w3.org/1999/xlink" width="32px" height="32px" viewBox="0 0 32 32" version="1.1">
    <g id="surface1">
        <path style=" stroke:none;fill-rule:nonzero;fill:#ffffff;fill-opacity:1;" d="M 18.8125 0.1875 C 18.867188 0.195312 18.929688 0.210938 18.984375 0.21875 C 21.585938 0.695312 24.007812 1.835938 26.0625 3.5 C 26.09375 3.53125 26.132812 3.554688 26.164062 3.585938 C 27.046875 4.296875 27.867188 5.101562 28.5625 6 C 28.609375 6.054688 28.65625 6.117188 28.703125 6.179688 C 30.320312 8.195312 31.351562 10.65625 31.8125 13.1875 C 31.820312 13.242188 31.835938 13.289062 31.84375 13.34375 C 32.171875 15.078125 32.148438 17.085938 31.8125 18.8125 C 31.804688 18.867188 31.789062 18.929688 31.78125 18.984375 C 31.304688 21.585938 30.164062 24.007812 28.5 26.0625 C 28.46875 26.09375 28.445312 26.132812 28.414062 26.164062 C 27.703125 27.046875 26.898438 27.867188 26 28.5625 C 25.945312 28.609375 25.882812 28.65625 25.820312 28.703125 C 23.804688 30.320312 21.34375 31.351562 18.8125 31.8125 C 18.757812 31.820312 18.710938 31.835938 18.65625 31.84375 C 16.921875 32.171875 14.914062 32.148438 13.1875 31.8125 C 13.132812 31.804688 13.070312 31.789062 13.015625 31.78125 C 10.414062 31.304688 7.992188 30.164062 5.9375 28.5 C 5.90625 28.46875 5.867188 28.445312 5.835938 28.414062 C 4.953125 27.703125 4.132812 26.898438 3.4375 26 C 3.390625 25.945312 3.34375 25.882812 3.296875 25.820312 C 1.679688 23.804688 0.648438 21.34375 0.1875 18.8125 C 0.179688 18.757812 0.164062 18.710938 0.15625 18.65625 C -0.171875 16.921875 -0.148438 14.914062 0.1875 13.1875 C 0.195312 13.132812 0.210938 13.070312 0.21875 13.015625 C 0.695312 10.414062 1.835938 7.992188 3.5 5.9375 C 3.53125 5.90625 3.554688 5.867188 3.585938 5.835938 C 4.296875 4.953125 5.101562 4.132812 6 3.4375 C 6.054688 3.390625 6.117188 3.34375 6.179688 3.296875 C 8.195312 1.679688 10.65625 0.648438 13.1875 0.1875 C 13.242188 0.179688 13.289062 0.164062 13.34375 0.15625 C 15.078125 -0.171875 17.085938 -0.148438 18.8125 0.1875 Z M 4.875 6 C 4.679688 6.226562 4.492188 6.453125 4.3125 6.6875 C 4.265625 6.75 4.210938 6.8125 4.164062 6.875 C 1.757812 9.890625 0.726562 13.859375 1.140625 17.671875 C 1.242188 18.578125 1.4375 19.445312 1.6875 20.3125 C 6.140625 20.3125 10.59375 20.3125 15.1875 20.3125 C 15.1875 20.6875 15.1875 21.054688 15.1875 21.4375 C 10.875 21.4375 6.5625 21.4375 2.125 21.4375 C 2.25 21.804688 2.367188 22.140625 2.53125 22.484375 C 2.546875 22.53125 2.570312 22.578125 2.59375 22.625 C 3.046875 23.59375 3.046875 23.59375 3.6875 24.4375 C 3.828125 24.453125 3.828125 24.453125 4 24.453125 C 4.0625 24.453125 4.132812 24.453125 4.195312 24.453125 C 4.304688 24.453125 4.304688 24.453125 4.421875 24.453125 C 4.5 24.453125 4.570312 24.453125 4.65625 24.453125 C 4.867188 24.453125 5.085938 24.453125 5.296875 24.453125 C 5.53125 24.453125 5.757812 24.453125 5.992188 24.453125 C 6.390625 24.453125 6.796875 24.453125 7.195312 24.453125 C 7.773438 24.453125 8.359375 24.453125 8.9375 24.445312 C 9.875 24.445312 10.820312 24.445312 11.757812 24.445312 C 12.679688 24.445312 13.59375 24.445312 14.507812 24.445312 C 14.5625 24.445312 14.617188 24.445312 14.679688 24.445312 C 14.960938 24.445312 15.242188 24.445312 15.523438 24.445312 C 17.867188 24.445312 20.21875 24.4375 22.5625 24.4375 C 22.5625 24.789062 22.5625 25.140625 22.5625 25.5 C 16.601562 25.5 10.640625 25.5 4.5 25.5 C 4.804688 25.90625 4.804688 25.90625 5.132812 26.273438 C 5.203125 26.34375 5.203125 26.34375 5.273438 26.414062 C 5.320312 26.460938 5.367188 26.507812 5.421875 26.554688 C 5.492188 26.632812 5.492188 26.632812 5.570312 26.710938 C 5.929688 27.0625 6.289062 27.382812 6.6875 27.6875 C 6.757812 27.742188 6.828125 27.804688 6.90625 27.859375 C 9.9375 30.242188 13.890625 31.296875 17.710938 30.859375 C 21.484375 30.390625 25.179688 28.5 27.554688 25.484375 C 27.601562 25.429688 27.640625 25.367188 27.6875 25.3125 C 27.734375 25.25 27.789062 25.1875 27.835938 25.125 C 30.195312 22.164062 31.257812 18.25 30.882812 14.492188 C 30.734375 13.148438 30.484375 11.664062 29.875 10.4375 C 24.742188 10.4375 19.601562 10.4375 14.3125 10.4375 C 14.3125 10.0625 14.3125 9.695312 14.3125 9.3125 C 19.265625 9.3125 24.210938 9.3125 29.3125 9.3125 C 29.226562 9.054688 29.164062 8.875 29.03125 8.65625 C 29 8.601562 28.96875 8.554688 28.9375 8.5 C 28.890625 8.414062 28.890625 8.414062 28.84375 8.335938 C 28.789062 8.25 28.789062 8.25 28.734375 8.164062 C 28.476562 7.734375 28.1875 7.335938 27.875 6.9375 C 27.851562 6.890625 27.820312 6.84375 27.789062 6.796875 C 27.648438 6.578125 27.53125 6.40625 27.273438 6.320312 C 27.070312 6.304688 26.875 6.304688 26.671875 6.3125 C 26.59375 6.3125 26.515625 6.3125 26.4375 6.3125 C 26.234375 6.3125 26.023438 6.3125 25.8125 6.320312 C 25.601562 6.320312 25.382812 6.320312 25.164062 6.320312 C 24.75 6.328125 24.335938 6.328125 23.929688 6.335938 C 23.460938 6.34375 22.984375 6.34375 22.515625 6.34375 C 21.554688 6.351562 20.585938 6.359375 19.625 6.375 C 19.625 6 19.625 5.632812 19.625 5.25 C 21.828125 5.25 24.039062 5.25 26.3125 5.25 C 26.007812 4.882812 25.6875 4.609375 25.3125 4.3125 C 25.273438 4.28125 25.234375 4.25 25.195312 4.226562 C 24.617188 3.765625 24.023438 3.359375 23.375 3 C 23.328125 2.976562 23.289062 2.953125 23.242188 2.921875 C 17.914062 -0.078125 11.226562 0.632812 4.875 6 Z M 4.875 6 "/>
        <path style=" stroke:none;fill-rule:nonzero;fill:#ffffff;fill-opacity:1;" d="M 17.625 20.3125 C 18.71875 20.3125 19.8125 20.3125 20.9375 20.3125 C 20.9375 20.6875 20.9375 21.054688 20.9375 21.4375 C 19.84375 21.4375 18.75 21.4375 17.625 21.4375 C 17.625 21.0625 17.625 20.695312 17.625 20.3125 Z M 17.625 20.3125 "/>
        <path style=" stroke:none;fill-rule:nonzero;fill:#ffffff;fill-opacity:1;" d="M 9.4375 9.3125 C 10.40625 9.3125 11.375 9.3125 12.375 9.3125 C 12.375 9.6875 12.375 10.054688 12.375 10.4375 C 11.40625 10.4375 10.4375 10.4375 9.4375 10.4375 C 9.4375 10.0625 9.4375 9.695312 9.4375 9.3125 Z M 9.4375 9.3125 "/>
    </g>
</svg>