<svg xmlns="http://www.w3.org/2000/svg" xmlns:xlink="http://www.w3.org/1999/xlink" width="32px" height="32px" viewBox="0 0 32 32" version="1.1">
    <g id="surface1">
        <path style=" stroke:none;fill-rule:nonzero;fill:#ffffff;fill-opacity:1;" d="M 15.304688 -0.015625 C 15.367188 -0.015625 15.421875 -0.015625 15.484375 -0.015625 C 15.664062 -0.015625 15.851562 -0.015625 16.039062 -0.015625 C 16.101562 -0.015625 16.164062 -0.015625 16.234375 -0.015625 C 17.148438 -0.015625 18.039062 0.0078125 18.9375 0.1875 C 18.992188 0.195312 19.046875 0.210938 19.109375 0.21875 C 21.695312 0.734375 24.078125 1.835938 26.125 3.5 C 26.15625 3.523438 26.195312 3.554688 26.226562 3.585938 C 27.101562 4.296875 27.945312 5.09375 28.625 6 C 28.648438 6.03125 28.679688 6.070312 28.703125 6.101562 C 30.289062 8.164062 31.351562 10.539062 31.828125 13.09375 C 31.84375 13.179688 31.84375 13.179688 31.859375 13.257812 C 32.414062 16.40625 31.773438 19.796875 30.5 22.6875 C 30.46875 22.757812 30.46875 22.757812 30.4375 22.828125 C 29.8125 24.257812 28.945312 25.617188 27.875 26.75 C 27.804688 26.828125 27.742188 26.90625 27.671875 26.984375 C 26.710938 28.085938 25.554688 29.015625 24.296875 29.75 C 24.21875 29.789062 24.140625 29.835938 24.070312 29.882812 C 21.648438 31.328125 18.851562 32.03125 16.046875 32.023438 C 15.984375 32.023438 15.921875 32.023438 15.859375 32.023438 C 14.84375 32.023438 13.867188 31.953125 12.875 31.75 C 12.820312 31.742188 12.757812 31.726562 12.703125 31.710938 C 11.484375 31.453125 10.304688 31.046875 9.1875 30.5 C 9.132812 30.476562 9.085938 30.453125 9.03125 30.421875 C 6.914062 29.382812 4.953125 27.867188 3.5 26 C 3.453125 25.9375 3.398438 25.875 3.351562 25.8125 C 0.820312 22.632812 -0.351562 18.523438 0.0546875 14.484375 C 0.367188 11.71875 1.28125 8.953125 2.9375 6.6875 C 2.960938 6.65625 2.984375 6.617188 3.015625 6.585938 C 3.1875 6.34375 3.375 6.109375 3.5625 5.875 C 3.59375 5.84375 3.617188 5.804688 3.648438 5.773438 C 4.34375 4.914062 5.117188 4.101562 6 3.4375 C 6.03125 3.414062 6.070312 3.382812 6.101562 3.359375 C 8.453125 1.554688 11.1875 0.445312 14.125 0.0625 C 14.164062 0.0546875 14.203125 0.0546875 14.25 0.046875 C 14.601562 0 14.953125 -0.0078125 15.304688 -0.015625 Z M 13.3125 1.1875 C 13.25 1.203125 13.1875 1.210938 13.125 1.226562 C 10.453125 1.78125 7.960938 2.96875 5.96875 4.851562 C 5.84375 4.96875 5.710938 5.085938 5.578125 5.203125 C 5.382812 5.359375 5.21875 5.546875 5.054688 5.742188 C 4.976562 5.828125 4.898438 5.921875 4.8125 6.007812 C 4.492188 6.351562 4.210938 6.710938 3.9375 7.09375 C 3.898438 7.140625 3.867188 7.1875 3.828125 7.242188 C 3.632812 7.507812 3.632812 7.507812 3.5 7.8125 C 3.71875 8.03125 4.398438 7.953125 4.6875 7.953125 C 6.078125 7.953125 7.015625 7.5 8.101562 6.664062 C 9.757812 5.390625 11.492188 4.8125 13.546875 4.554688 C 15.09375 4.367188 16.46875 4.015625 17.867188 3.320312 C 19.296875 2.617188 20.867188 2.328125 22.421875 2.828125 C 22.8125 2.960938 23.195312 3.101562 23.570312 3.257812 C 23.859375 3.367188 24.148438 3.46875 24.4375 3.5625 C 24.203125 3.289062 23.90625 3.132812 23.59375 2.953125 C 23.539062 2.921875 23.476562 2.890625 23.414062 2.859375 C 21.953125 2.039062 20.390625 1.5 18.75 1.1875 C 18.703125 1.179688 18.648438 1.164062 18.601562 1.15625 C 16.9375 0.828125 14.976562 0.851562 13.3125 1.1875 Z M 18.085938 4.273438 C 16.554688 5.03125 15 5.320312 13.320312 5.539062 C 11.359375 5.804688 9.882812 6.515625 8.320312 7.710938 C 7.25 8.53125 6.101562 8.890625 4.757812 8.890625 C 4.664062 8.890625 4.664062 8.890625 4.570312 8.890625 C 4.015625 8.882812 3.484375 8.828125 2.9375 8.75 C 2.117188 10.007812 1.546875 11.585938 1.3125 13.0625 C 3.523438 13.132812 5.289062 12.398438 6.90625 10.898438 C 8.351562 9.5625 9.992188 8.796875 11.992188 8.867188 C 12.789062 8.914062 13.515625 9.210938 14.25 9.5 C 15.84375 10.117188 17.265625 10.265625 18.875 9.5625 C 19.507812 9.257812 20.070312 8.867188 20.632812 8.445312 C 21.609375 7.710938 22.554688 7.203125 23.8125 7.328125 C 24.851562 7.484375 25.59375 8.039062 26.34375 8.742188 C 26.710938 9.078125 27.09375 9.390625 27.5 9.6875 C 27.539062 9.710938 27.570312 9.742188 27.609375 9.765625 C 28.085938 10.117188 28.585938 10.398438 29.125 10.65625 C 29.179688 10.679688 29.234375 10.710938 29.289062 10.734375 C 29.601562 10.882812 29.90625 10.992188 30.25 11.0625 C 29.679688 9.421875 28.875 7.898438 27.75 6.5625 C 27.6875 6.484375 27.617188 6.398438 27.554688 6.320312 C 27.484375 6.242188 27.421875 6.164062 27.351562 6.085938 C 27.320312 6.046875 27.289062 6.007812 27.257812 5.96875 C 26.898438 5.546875 26.515625 5.4375 26 5.273438 C 25.171875 4.992188 24.375 4.648438 23.578125 4.289062 C 21.632812 3.421875 20.023438 3.320312 18.085938 4.273438 Z M 21.109375 9.304688 C 19.546875 10.476562 17.742188 11.210938 15.757812 10.96875 C 15.046875 10.84375 14.382812 10.59375 13.710938 10.320312 C 12.390625 9.789062 11.09375 9.601562 9.734375 10.140625 C 8.890625 10.523438 8.21875 11.054688 7.53125 11.671875 C 5.867188 13.164062 4.007812 14.023438 1.742188 14 C 1.679688 14 1.625 14 1.5625 14 C 1.414062 14 1.273438 14 1.125 14 C 1.085938 14.304688 1.054688 14.601562 1.0625 14.90625 C 1.0625 14.960938 1.0625 15.015625 1.0625 15.070312 C 1.0625 15.109375 1.0625 15.148438 1.0625 15.1875 C 1.109375 15.210938 1.15625 15.226562 1.203125 15.25 C 2.609375 15.890625 3.875 16.59375 5 17.65625 C 5.6875 18.304688 6.40625 18.867188 7.375 18.90625 C 8.320312 18.875 9 18.320312 9.742188 17.78125 C 11.390625 16.585938 13.195312 15.914062 15.265625 16.21875 C 15.90625 16.359375 16.507812 16.625 17.109375 16.875 C 17.796875 17.15625 18.460938 17.351562 19.203125 17.34375 C 19.265625 17.335938 19.320312 17.335938 19.375 17.335938 C 21.078125 17.296875 22.3125 16.304688 23.539062 15.21875 C 25.046875 13.890625 26.773438 13.15625 28.796875 13.171875 C 28.929688 13.171875 29.054688 13.171875 29.1875 13.171875 C 29.742188 13.171875 30.265625 13.21875 30.8125 13.3125 C 30.8125 13.273438 30.804688 13.234375 30.804688 13.195312 C 30.789062 13.0625 30.789062 13.0625 30.773438 12.921875 C 30.765625 12.867188 30.757812 12.804688 30.75 12.75 C 30.75 12.710938 30.75 12.671875 30.742188 12.625 C 30.726562 12.476562 30.703125 12.382812 30.625 12.25 C 30.40625 12.117188 30.164062 12.046875 29.914062 11.976562 C 29.773438 11.929688 29.625 11.882812 29.484375 11.835938 C 29.375 11.796875 29.375 11.796875 29.265625 11.757812 C 27.945312 11.289062 26.8125 10.453125 25.789062 9.515625 C 25.078125 8.882812 24.28125 8.179688 23.265625 8.226562 C 22.414062 8.359375 21.773438 8.796875 21.109375 9.304688 Z M 23.859375 16.242188 C 22.367188 17.609375 20.8125 18.3125 18.773438 18.273438 C 17.851562 18.234375 17.03125 17.890625 16.1875 17.539062 C 15.523438 17.257812 14.898438 17.085938 14.171875 17.09375 C 14.109375 17.101562 14.046875 17.101562 13.984375 17.101562 C 12.539062 17.132812 11.304688 17.804688 10.179688 18.65625 C 9.132812 19.460938 8.140625 19.921875 6.8125 19.8125 C 5.789062 19.625 5.070312 19.015625 4.328125 18.335938 C 2.859375 16.976562 2.859375 16.976562 1.0625 16.3125 C 1.015625 17.382812 1.195312 18.429688 1.429688 19.46875 C 1.445312 19.539062 1.460938 19.601562 1.476562 19.671875 C 1.507812 19.796875 1.539062 19.921875 1.570312 20.046875 C 1.609375 20.195312 1.640625 20.335938 1.671875 20.484375 C 1.734375 20.726562 1.796875 20.914062 1.9375 21.125 C 2.1875 21.273438 2.445312 21.328125 2.726562 21.375 C 2.867188 21.398438 3 21.429688 3.140625 21.453125 C 3.320312 21.492188 3.5 21.53125 3.6875 21.570312 C 4.015625 21.640625 4.335938 21.734375 4.65625 21.84375 C 4.742188 21.867188 4.742188 21.867188 4.828125 21.898438 C 5.570312 22.15625 6.296875 22.484375 7.015625 22.804688 C 8.570312 23.484375 10.085938 23.914062 11.75 23.3125 C 12.015625 23.210938 12.273438 23.085938 12.53125 22.953125 C 14.078125 22.179688 15.617188 21.867188 17.3125 21.625 C 19.132812 21.367188 20.609375 20.851562 22.070312 19.71875 C 23.710938 18.4375 25.414062 18.117188 27.460938 18.351562 C 28.421875 18.492188 29.453125 18.75 30.351562 19.132812 C 30.515625 19.203125 30.515625 19.203125 30.75 19.1875 C 30.789062 18.953125 30.828125 18.71875 30.875 18.484375 C 30.882812 18.414062 30.890625 18.351562 30.90625 18.28125 C 31.03125 17.546875 31.070312 16.835938 31.070312 16.101562 C 31.070312 15.960938 31.070312 15.820312 31.070312 15.6875 C 31.070312 15.242188 31.0625 14.8125 31 14.375 C 28.460938 13.390625 25.71875 14.507812 23.859375 16.242188 Z M 22.804688 20.398438 C 21.195312 21.703125 19.4375 22.296875 17.40625 22.570312 C 15.96875 22.765625 15.96875 22.765625 14.5625 23.125 C 14.523438 23.140625 14.484375 23.148438 14.445312 23.164062 C 13.867188 23.351562 13.328125 23.617188 12.78125 23.882812 C 12.195312 24.171875 11.648438 24.390625 11 24.5 C 10.945312 24.507812 10.898438 24.515625 10.84375 24.53125 C 10.710938 24.546875 10.578125 24.554688 10.4375 24.5625 C 10.375 24.5625 10.3125 24.570312 10.25 24.570312 C 8.953125 24.609375 7.789062 24.179688 6.625 23.664062 C 4.59375 22.75 4.59375 22.75 2.4375 22.25 C 2.570312 22.703125 2.757812 23.078125 3 23.476562 C 3.039062 23.539062 3.070312 23.59375 3.109375 23.65625 C 3.421875 24.171875 3.757812 24.65625 4.125 25.125 C 4.171875 25.1875 4.21875 25.242188 4.265625 25.304688 C 4.632812 25.765625 5.03125 26.195312 5.4375 26.625 C 5.484375 26.671875 5.523438 26.71875 5.570312 26.765625 C 5.84375 27.046875 6.140625 27.296875 6.445312 27.546875 C 6.5625 27.632812 6.671875 27.726562 6.78125 27.820312 C 7.28125 28.25 7.820312 28.59375 8.375 28.9375 C 8.445312 28.984375 8.445312 28.984375 8.515625 29.023438 C 8.648438 29.109375 8.789062 29.1875 8.921875 29.265625 C 8.984375 29.304688 8.984375 29.304688 9.054688 29.34375 C 9.179688 29.421875 9.179688 29.421875 9.375 29.5 C 9.570312 29.429688 9.695312 29.3125 9.835938 29.164062 C 9.882812 29.125 9.921875 29.078125 9.960938 29.039062 C 10 28.992188 10.046875 28.945312 10.09375 28.90625 C 11.125 27.84375 12.460938 27.070312 13.976562 27.046875 C 14.671875 27.039062 15.273438 27.070312 15.9375 27.3125 C 16 27.335938 16.054688 27.351562 16.117188 27.375 C 16.179688 27.398438 16.25 27.421875 16.3125 27.453125 C 16.382812 27.476562 16.453125 27.5 16.523438 27.523438 C 16.65625 27.578125 16.789062 27.625 16.929688 27.679688 C 18.039062 28.09375 19.03125 28.054688 20.125 27.625 C 21.234375 27.101562 21.953125 26.132812 22.65625 25.171875 C 23.90625 23.460938 25.40625 22.164062 27.554688 21.789062 C 28.359375 21.679688 29.195312 21.734375 30 21.75 C 30.070312 21.5625 30.140625 21.367188 30.21875 21.179688 C 30.234375 21.125 30.257812 21.070312 30.273438 21.015625 C 30.296875 20.96875 30.3125 20.914062 30.335938 20.859375 C 30.359375 20.789062 30.359375 20.789062 30.390625 20.710938 C 30.445312 20.539062 30.476562 20.367188 30.5 20.1875 C 27.90625 19.28125 25.132812 18.492188 22.804688 20.398438 Z M 24.257812 24.695312 C 23.890625 25.101562 23.570312 25.53125 23.25 25.96875 C 22.1875 27.429688 21.007812 28.546875 19.171875 28.890625 C 18.117188 29.039062 17.179688 28.789062 16.1875 28.4375 C 14.90625 27.96875 13.734375 27.757812 12.445312 28.359375 C 11.679688 28.742188 11.085938 29.265625 10.5 29.875 C 10.578125 30.039062 10.640625 30.039062 10.8125 30.09375 C 10.867188 30.117188 10.914062 30.132812 10.96875 30.148438 C 11.03125 30.171875 11.085938 30.1875 11.140625 30.203125 C 11.234375 30.234375 11.234375 30.234375 11.320312 30.265625 C 15.257812 31.53125 19.414062 31.140625 23.085938 29.265625 C 23.601562 29 24.09375 28.71875 24.5625 28.375 C 24.601562 28.34375 24.640625 28.320312 24.679688 28.289062 C 25.210938 27.90625 25.710938 27.507812 26.1875 27.0625 C 26.273438 26.984375 26.359375 26.914062 26.453125 26.835938 C 26.914062 26.429688 27.304688 25.984375 27.6875 25.5 C 27.726562 25.453125 27.765625 25.40625 27.804688 25.359375 C 28.890625 24.125 28.890625 24.125 29.5 22.6875 C 27.40625 22.617188 25.703125 23.117188 24.257812 24.695312 Z M 24.257812 24.695312 "/>
        <path style=" stroke:none;fill-rule:nonzero;fill:#ffffff;fill-opacity:1;" d="M 20.515625 12.59375 C 21.007812 13 21.226562 13.414062 21.304688 14.046875 C 21.335938 14.65625 21.125 15.09375 20.71875 15.546875 C 20.25 15.960938 19.8125 16.09375 19.1875 16.078125 C 18.648438 16.023438 18.242188 15.765625 17.875 15.375 C 17.476562 14.859375 17.429688 14.320312 17.5 13.6875 C 17.671875 13.132812 17.984375 12.71875 18.492188 12.4375 C 19.171875 12.125 19.898438 12.179688 20.515625 12.59375 Z M 18.59375 13.671875 C 18.46875 13.9375 18.445312 14.148438 18.5 14.4375 C 18.648438 14.742188 18.828125 14.914062 19.125 15.0625 C 19.398438 15.117188 19.578125 15.085938 19.828125 14.953125 C 20.070312 14.75 20.21875 14.601562 20.3125 14.296875 C 20.3125 13.921875 20.171875 13.679688 19.921875 13.40625 C 19.40625 13.117188 18.984375 13.242188 18.59375 13.671875 Z M 18.59375 13.671875 "/>
        <path style=" stroke:none;fill-rule:nonzero;fill:#ffffff;fill-opacity:1;" d="M 11.921875 12.21875 C 12.273438 12.585938 12.445312 13.0625 12.46875 13.5625 C 12.4375 14.125 12.226562 14.601562 11.828125 15 C 11.359375 15.398438 10.890625 15.484375 10.28125 15.460938 C 9.75 15.398438 9.351562 15.140625 9 14.75 C 8.625 14.203125 8.554688 13.6875 8.648438 13.039062 C 8.773438 12.554688 9.125 12.164062 9.539062 11.890625 C 10.375 11.445312 11.226562 11.601562 11.921875 12.21875 Z M 9.90625 12.90625 C 9.65625 13.203125 9.601562 13.367188 9.625 13.75 C 9.75 14.085938 9.929688 14.28125 10.25 14.4375 C 10.539062 14.46875 10.757812 14.460938 11.015625 14.34375 C 11.257812 14.125 11.421875 13.9375 11.453125 13.609375 C 11.429688 13.257812 11.328125 13.054688 11.0625 12.8125 C 10.65625 12.578125 10.257812 12.570312 9.90625 12.90625 Z M 9.90625 12.90625 "/>
        <path style=" stroke:none;fill-rule:nonzero;fill:#ffffff;fill-opacity:1;" d="M 19.210938 23.828125 C 19.546875 24.0625 19.789062 24.335938 19.875 24.75 C 19.929688 25.25 19.867188 25.65625 19.5625 26.0625 C 19.148438 26.421875 18.796875 26.523438 18.257812 26.515625 C 17.84375 26.484375 17.59375 26.304688 17.320312 26.007812 C 17.054688 25.679688 16.976562 25.375 16.984375 24.953125 C 17.03125 24.546875 17.203125 24.226562 17.5 23.9375 C 18.03125 23.609375 18.648438 23.492188 19.210938 23.828125 Z M 18.0625 24.8125 C 17.984375 24.992188 17.984375 24.992188 18 25.1875 C 18.085938 25.375 18.085938 25.375 18.25 25.5 C 18.476562 25.546875 18.578125 25.53125 18.78125 25.40625 C 18.890625 25.25 18.890625 25.25 18.875 25.03125 C 18.835938 24.804688 18.835938 24.804688 18.65625 24.6875 C 18.398438 24.585938 18.28125 24.640625 18.0625 24.8125 Z M 18.0625 24.8125 "/>
        <path style=" stroke:none;fill-rule:nonzero;fill:#ffffff;fill-opacity:1;" d="M 17.9375 6.3125 C 18.28125 6.601562 18.414062 6.992188 18.46875 7.429688 C 18.445312 7.796875 18.328125 8.148438 18.085938 8.429688 C 17.726562 8.757812 17.335938 8.914062 16.84375 8.898438 C 16.375 8.835938 16.078125 8.617188 15.773438 8.257812 C 15.523438 7.882812 15.515625 7.5 15.5625 7.0625 C 15.671875 6.640625 15.96875 6.367188 16.3125 6.125 C 16.867188 5.84375 17.4375 5.976562 17.9375 6.3125 Z M 16.703125 7.101562 C 16.546875 7.242188 16.546875 7.242188 16.523438 7.4375 C 16.546875 7.632812 16.546875 7.632812 16.695312 7.78125 C 16.867188 7.890625 16.867188 7.890625 17.070312 7.875 C 17.25 7.828125 17.25 7.828125 17.375 7.703125 C 17.460938 7.507812 17.445312 7.398438 17.375 7.1875 C 17.265625 7.0625 17.265625 7.0625 17.125 7 C 16.875 6.976562 16.875 6.976562 16.703125 7.101562 Z M 16.703125 7.101562 "/>
        <path style=" stroke:none;fill-rule:nonzero;fill:#ffffff;fill-opacity:1;" d="M 9.5 25.625 C 9.820312 25.90625 10.039062 26.195312 10.085938 26.625 C 10.085938 27.125 10.054688 27.484375 9.710938 27.859375 C 9.328125 28.21875 8.953125 28.28125 8.4375 28.265625 C 8.0625 28.226562 7.804688 28.070312 7.546875 27.804688 C 7.28125 27.46875 7.164062 27.078125 7.1875 26.65625 C 7.25 26.234375 7.484375 25.867188 7.8125 25.59375 C 8.398438 25.304688 8.929688 25.296875 9.5 25.625 Z M 8.25 26.625 C 8.179688 26.742188 8.179688 26.742188 8.1875 26.875 C 8.242188 27.046875 8.242188 27.046875 8.375 27.1875 C 8.585938 27.265625 8.585938 27.265625 8.8125 27.25 C 8.976562 27.164062 8.976562 27.164062 9.0625 27 C 9.109375 26.8125 9.109375 26.8125 9.0625 26.625 C 8.921875 26.46875 8.921875 26.46875 8.75 26.375 C 8.5 26.375 8.429688 26.460938 8.25 26.625 Z M 8.25 26.625 "/>
        <path style=" stroke:none;fill-rule:nonzero;fill:#ffffff;fill-opacity:1;" d="M 14.390625 18.632812 C 14.679688 18.945312 14.828125 19.296875 14.851562 19.71875 C 14.828125 20.148438 14.6875 20.507812 14.375 20.804688 C 13.9375 21.148438 13.546875 21.171875 13 21.125 C 12.585938 21.015625 12.296875 20.726562 12.0625 20.375 C 11.890625 19.953125 11.875 19.5625 12.046875 19.140625 C 12.21875 18.789062 12.507812 18.460938 12.890625 18.328125 C 13.453125 18.203125 13.9375 18.257812 14.390625 18.632812 Z M 13.0625 19.375 C 12.953125 19.523438 12.9375 19.601562 12.953125 19.78125 C 13.007812 19.953125 13.039062 20.023438 13.1875 20.125 C 13.414062 20.15625 13.523438 20.148438 13.71875 20.03125 C 13.828125 19.875 13.828125 19.875 13.8125 19.65625 C 13.773438 19.429688 13.773438 19.429688 13.59375 19.3125 C 13.367188 19.21875 13.28125 19.265625 13.0625 19.375 Z M 13.0625 19.375 "/>
        <path style=" stroke:none;fill-rule:nonzero;fill:#ffffff;fill-opacity:1;" d="M 16.4375 1.6875 C 16.765625 1.6875 17.09375 1.6875 17.4375 1.6875 C 17.4375 2 17.4375 2.304688 17.4375 2.625 C 17.109375 2.625 16.78125 2.625 16.4375 2.625 C 16.4375 2.3125 16.4375 2.007812 16.4375 1.6875 Z M 16.4375 1.6875 "/>
        <path style=" stroke:none;fill-rule:nonzero;fill:#ffffff;fill-opacity:1;" d="M 14.625 1.6875 C 14.953125 1.6875 15.28125 1.6875 15.625 1.6875 C 15.625 2 15.625 2.304688 15.625 2.625 C 15.296875 2.625 14.96875 2.625 14.625 2.625 C 14.625 2.3125 14.625 2.007812 14.625 1.6875 Z M 14.625 1.6875 "/>
    </g>
</svg>