<svg xmlns="http://www.w3.org/2000/svg" xmlns:xlink="http://www.w3.org/1999/xlink" width="32px" height="32px" viewBox="0 0 32 32" version="1.1">
    <g id="surface1">
        <path style=" stroke:none;fill-rule:nonzero;fill:#ffffff;fill-opacity:1;" d="M 19.5 11.6875 C 19.539062 11.71875 19.585938 11.75 19.625 11.78125 C 19.96875 12.054688 20.234375 12.40625 20.5 12.75 C 20.53125 12.796875 20.570312 12.835938 20.601562 12.882812 C 21.453125 14.046875 21.640625 15.554688 21.476562 16.945312 C 21.3125 17.90625 20.90625 18.734375 20.3125 19.5 C 20.28125 19.539062 20.25 19.585938 20.21875 19.625 C 19.945312 19.96875 19.59375 20.234375 19.25 20.5 C 19.203125 20.53125 19.164062 20.570312 19.117188 20.601562 C 17.953125 21.453125 16.445312 21.640625 15.054688 21.476562 C 14.09375 21.3125 13.265625 20.90625 12.5 20.3125 C 12.460938 20.28125 12.414062 20.25 12.375 20.21875 C 12.03125 19.945312 11.765625 19.59375 11.5 19.25 C 11.46875 19.203125 11.429688 19.164062 11.398438 19.117188 C 10.546875 17.953125 10.359375 16.445312 10.523438 15.054688 C 10.6875 14.09375 11.09375 13.265625 11.6875 12.5 C 11.71875 12.460938 11.75 12.414062 11.78125 12.375 C 12.054688 12.03125 12.40625 11.765625 12.75 11.5 C 12.796875 11.46875 12.835938 11.429688 12.882812 11.398438 C 14.84375 9.96875 17.648438 10.25 19.5 11.6875 Z M 13.4375 12.3125 C 13.359375 12.367188 13.359375 12.367188 13.28125 12.421875 C 12.382812 13.085938 11.734375 14.148438 11.5625 15.25 C 11.40625 16.4375 11.625 17.570312 12.3125 18.5625 C 12.34375 18.617188 12.382812 18.664062 12.421875 18.71875 C 13.085938 19.617188 14.148438 20.265625 15.25 20.4375 C 16.4375 20.59375 17.570312 20.375 18.5625 19.6875 C 18.617188 19.65625 18.664062 19.617188 18.71875 19.578125 C 19.617188 18.914062 20.265625 17.851562 20.4375 16.75 C 20.59375 15.5625 20.375 14.429688 19.6875 13.4375 C 19.65625 13.382812 19.617188 13.335938 19.578125 13.28125 C 18.914062 12.382812 17.851562 11.734375 16.75 11.5625 C 15.5625 11.40625 14.429688 11.625 13.4375 12.3125 Z M 13.4375 12.3125 "/>
        <path style=" stroke:none;fill-rule:nonzero;fill:#ffffff;fill-opacity:1;" d="M 26.875 19.6875 C 26.984375 19.71875 27.09375 19.742188 27.203125 19.773438 C 27.289062 19.796875 27.289062 19.796875 27.382812 19.820312 C 27.554688 19.875 27.710938 19.929688 27.875 20 C 27.84375 20.054688 27.84375 20.054688 27.8125 20.117188 C 27.742188 20.296875 27.695312 20.4375 27.6875 20.625 C 27.789062 20.789062 27.914062 20.898438 28.046875 21.03125 C 28.453125 21.476562 28.546875 22.054688 28.53125 22.632812 C 28.492188 23.328125 28.195312 23.945312 27.695312 24.429688 C 27.210938 24.820312 26.625 25.007812 26.015625 25.015625 C 25.96875 25.015625 25.921875 25.015625 25.882812 25.015625 C 25.601562 25.015625 25.382812 24.96875 25.125 24.875 C 24.859375 24.890625 24.789062 24.953125 24.5625 25.125 C 24.335938 24.898438 24.109375 24.671875 23.875 24.4375 C 23.914062 24.3125 23.960938 24.1875 24 24.0625 C 23.9375 23.898438 23.9375 23.898438 23.828125 23.75 C 23.453125 23.210938 23.429688 22.578125 23.5 21.9375 C 23.671875 21.265625 24.0625 20.6875 24.664062 20.328125 C 25.289062 20 25.953125 19.882812 26.65625 20.03125 C 26.6875 20.039062 26.71875 20.054688 26.75 20.0625 C 26.789062 19.9375 26.835938 19.8125 26.875 19.6875 Z M 24.875 21.5 C 24.617188 21.84375 24.476562 22.195312 24.5 22.625 C 24.585938 23.054688 24.765625 23.453125 25.125 23.71875 C 25.515625 23.953125 25.859375 24.054688 26.3125 23.960938 C 26.820312 23.804688 27.117188 23.5625 27.367188 23.09375 C 27.523438 22.75 27.539062 22.4375 27.429688 22.070312 C 27.25 21.632812 27.007812 21.320312 26.585938 21.117188 C 25.976562 20.890625 25.335938 21.039062 24.875 21.5 Z M 24.875 21.5 "/>
        <path style=" stroke:none;fill-rule:nonzero;fill:#ffffff;fill-opacity:1;" d="M 8.0625 16.4375 C 8.0625 16.625 8.0625 16.8125 8.0625 17 C 8.117188 16.992188 8.179688 16.984375 8.234375 16.976562 C 8.695312 16.976562 9.171875 17.273438 9.5 17.585938 C 9.945312 18.078125 10.015625 18.578125 10.015625 19.21875 C 9.984375 19.65625 9.8125 19.960938 9.5625 20.3125 C 9.523438 20.375 9.476562 20.4375 9.4375 20.5 C 9.515625 20.585938 9.515625 20.585938 9.59375 20.671875 C 9.703125 20.789062 9.75 20.835938 9.75 21 C 9.664062 21.179688 9.53125 21.265625 9.375 21.390625 C 9.3125 21.4375 9.257812 21.476562 9.195312 21.523438 C 9.132812 21.570312 9.132812 21.570312 9.0625 21.625 C 8.84375 21.53125 8.8125 21.507812 8.703125 21.28125 C 8.625 21.148438 8.625 21.148438 8.5 21.0625 C 8.3125 21.03125 8.125 21.023438 7.9375 21.023438 C 7.390625 21.007812 6.9375 20.828125 6.53125 20.46875 C 6.09375 19.976562 5.945312 19.421875 5.976562 18.773438 C 6.046875 18.164062 6.351562 17.71875 6.820312 17.328125 C 6.9375 17.25 6.9375 17.25 7.0625 17.25 C 7.039062 17 7.023438 16.757812 7 16.5 C 7.359375 16.460938 7.703125 16.429688 8.0625 16.4375 Z M 7.226562 18.390625 C 7.054688 18.609375 7 18.78125 7 19.0625 C 7.046875 19.4375 7.203125 19.625 7.492188 19.851562 C 7.757812 20.023438 7.976562 20.007812 8.28125 19.96875 C 8.585938 19.835938 8.765625 19.65625 8.9375 19.375 C 9.03125 19.117188 9.007812 18.914062 8.9375 18.648438 C 8.765625 18.359375 8.578125 18.132812 8.25 18.015625 C 7.835938 17.945312 7.515625 18.085938 7.226562 18.390625 Z M 7.226562 18.390625 "/>
        <path style=" stroke:none;fill-rule:nonzero;fill:#ffffff;fill-opacity:1;" d="M 25.4375 3.125 C 25.671875 3.140625 25.789062 3.265625 25.960938 3.421875 C 26.109375 3.539062 26.109375 3.539062 26.25 3.625 C 26.4375 3.59375 26.4375 3.59375 26.625 3.5 C 27.140625 3.4375 27.578125 3.5 28 3.8125 C 28.335938 4.15625 28.515625 4.507812 28.515625 5 C 28.515625 5.085938 28.515625 5.085938 28.515625 5.1875 C 28.5 5.375 28.5 5.375 28.421875 5.5625 C 28.40625 5.625 28.390625 5.6875 28.375 5.75 C 28.46875 5.921875 28.46875 5.921875 28.625 6.070312 C 28.875 6.34375 28.875 6.34375 28.882812 6.5 C 28.78125 6.6875 28.632812 6.773438 28.46875 6.890625 C 28.398438 6.9375 28.335938 6.976562 28.273438 7.023438 C 28.226562 7.054688 28.171875 7.09375 28.125 7.125 C 27.96875 6.96875 27.828125 6.828125 27.703125 6.648438 C 27.570312 6.476562 27.570312 6.476562 27.351562 6.476562 C 27.265625 6.484375 27.1875 6.484375 27.109375 6.492188 C 26.554688 6.515625 26.257812 6.40625 25.84375 6.03125 C 25.65625 5.84375 25.546875 5.640625 25.5 5.375 C 25.507812 5.226562 25.523438 5.070312 25.53125 4.921875 C 25.546875 4.65625 25.539062 4.484375 25.359375 4.265625 C 25.203125 4.140625 25.046875 4.03125 24.875 3.9375 C 24.945312 3.828125 25.015625 3.710938 25.085938 3.601562 C 25.125 3.539062 25.164062 3.476562 25.203125 3.414062 C 25.3125 3.25 25.3125 3.25 25.4375 3.125 Z M 26.632812 4.640625 C 26.539062 4.789062 26.507812 4.882812 26.5 5.0625 C 26.585938 5.28125 26.65625 5.359375 26.867188 5.46875 C 27.0625 5.515625 27.0625 5.515625 27.234375 5.421875 C 27.367188 5.320312 27.367188 5.320312 27.4375 5.25 C 27.460938 5.007812 27.46875 4.867188 27.34375 4.65625 C 27.109375 4.515625 26.867188 4.484375 26.632812 4.640625 Z M 26.632812 4.640625 "/>
        <path style=" stroke:none;fill-rule:nonzero;fill:#ffffff;fill-opacity:1;" d="M 8.3125 6.1875 C 8.414062 6.304688 8.507812 6.421875 8.609375 6.546875 C 8.632812 6.585938 8.65625 6.617188 8.6875 6.65625 C 8.765625 6.757812 8.765625 6.757812 8.875 6.9375 C 8.796875 7.171875 8.695312 7.226562 8.5 7.375 C 8.140625 7.664062 7.820312 7.976562 7.5 8.3125 C 7.28125 8.21875 7.125 8.085938 6.953125 7.929688 C 6.90625 7.882812 6.851562 7.835938 6.804688 7.789062 C 6.765625 7.757812 6.726562 7.726562 6.6875 7.6875 C 6.859375 7.28125 7.84375 6.1875 8.3125 6.1875 Z M 8.3125 6.1875 "/>
        <path style=" stroke:none;fill-rule:nonzero;fill:#ffffff;fill-opacity:1;" d="M 4.875 4.4375 C 5.132812 4.65625 5.390625 4.882812 5.625 5.125 C 5.523438 5.382812 5.335938 5.546875 5.140625 5.734375 C 4.851562 6.023438 4.578125 6.3125 4.3125 6.625 C 4.109375 6.53125 3.945312 6.414062 3.765625 6.273438 C 3.71875 6.234375 3.664062 6.195312 3.617188 6.15625 C 3.578125 6.125 3.539062 6.09375 3.5 6.0625 C 3.59375 5.734375 3.8125 5.523438 4.046875 5.28125 C 4.085938 5.242188 4.125 5.203125 4.164062 5.164062 C 4.398438 4.914062 4.632812 4.679688 4.875 4.4375 Z M 4.875 4.4375 "/>
        <path style=" stroke:none;fill-rule:nonzero;fill:#ffffff;fill-opacity:1;" d="M 23.5625 6.0625 C 23.828125 6.171875 24.023438 6.359375 24.234375 6.546875 C 24.273438 6.578125 24.3125 6.609375 24.359375 6.648438 C 24.46875 6.742188 24.578125 6.835938 24.6875 6.9375 C 24.742188 6.984375 24.789062 7.03125 24.84375 7.078125 C 24.96875 7.1875 24.96875 7.1875 25.125 7.375 C 25.125 7.570312 25.054688 7.632812 24.921875 7.773438 C 24.859375 7.820312 24.804688 7.867188 24.75 7.921875 C 24.6875 7.96875 24.632812 8.023438 24.570312 8.070312 C 24.53125 8.109375 24.484375 8.148438 24.4375 8.1875 C 24.109375 7.914062 23.796875 7.625 23.476562 7.335938 C 23.320312 7.195312 23.164062 7.0625 23 6.9375 C 23.039062 6.6875 23.15625 6.546875 23.3125 6.359375 C 23.359375 6.304688 23.40625 6.25 23.453125 6.1875 C 23.492188 6.148438 23.523438 6.109375 23.5625 6.0625 Z M 23.5625 6.0625 "/>
        <path style=" stroke:none;fill-rule:nonzero;fill:#ffffff;fill-opacity:1;" d="M 8.25 24.5 C 8.515625 24.648438 8.75 24.828125 8.992188 25.023438 C 9.28125 25.257812 9.570312 25.476562 9.875 25.6875 C 9.804688 25.8125 9.734375 25.929688 9.671875 26.054688 C 9.632812 26.125 9.59375 26.1875 9.554688 26.257812 C 9.4375 26.4375 9.4375 26.4375 9.25 26.5625 C 8.671875 26.179688 8.125 25.796875 7.625 25.3125 C 7.71875 25.09375 7.851562 24.9375 8.007812 24.765625 C 8.054688 24.71875 8.101562 24.664062 8.148438 24.617188 C 8.195312 24.554688 8.195312 24.554688 8.25 24.5 Z M 8.25 24.5 "/>
        <path style=" stroke:none;fill-rule:nonzero;fill:#ffffff;fill-opacity:1;" d="M 20.75 8.375 C 21.398438 8.601562 21.945312 9.164062 22.4375 9.625 C 22.40625 9.882812 22.273438 10 22.09375 10.171875 C 22.039062 10.21875 21.984375 10.273438 21.929688 10.320312 C 21.890625 10.359375 21.851562 10.398438 21.8125 10.4375 C 21.625 10.351562 21.492188 10.257812 21.34375 10.125 C 21.0625 9.867188 20.765625 9.648438 20.46875 9.429688 C 20.3125 9.3125 20.3125 9.3125 20.25 9.1875 C 20.328125 9.046875 20.40625 8.90625 20.5 8.773438 C 20.523438 8.734375 20.546875 8.695312 20.570312 8.65625 C 20.632812 8.5625 20.6875 8.46875 20.75 8.375 Z M 20.75 8.375 "/>
        <path style=" stroke:none;fill-rule:nonzero;fill:#ffffff;fill-opacity:1;" d="M 4.625 25.9375 C 4.867188 25.960938 4.976562 26.078125 5.140625 26.25 C 5.1875 26.289062 5.226562 26.335938 5.273438 26.382812 C 5.375 26.5 5.375 26.5 5.375 26.625 C 5.414062 26.640625 5.445312 26.65625 5.484375 26.671875 C 5.648438 26.765625 5.757812 26.875 5.890625 27.007812 C 5.9375 27.054688 5.976562 27.101562 6.023438 27.148438 C 6.054688 27.179688 6.09375 27.210938 6.125 27.25 C 6.03125 27.46875 5.898438 27.625 5.742188 27.796875 C 5.695312 27.84375 5.648438 27.898438 5.601562 27.945312 C 5.570312 27.984375 5.539062 28.023438 5.5 28.0625 C 5.132812 27.90625 4.882812 27.59375 4.609375 27.320312 C 4.546875 27.265625 4.484375 27.203125 4.429688 27.148438 C 4.375 27.09375 4.3125 27.039062 4.257812 26.984375 C 4.210938 26.929688 4.15625 26.882812 4.101562 26.828125 C 4 26.6875 4 26.6875 4.007812 26.554688 C 4.078125 26.398438 4.179688 26.3125 4.3125 26.203125 C 4.359375 26.171875 4.40625 26.132812 4.453125 26.09375 C 4.484375 26.0625 4.523438 26.03125 4.5625 26 C 4.585938 25.976562 4.601562 25.960938 4.625 25.9375 Z M 4.625 25.9375 "/>
        <path style=" stroke:none;fill-rule:nonzero;fill:#ffffff;fill-opacity:1;" d="M 10.9375 4.5625 C 11 4.703125 11.0625 4.851562 11.125 4.992188 C 11.140625 5.03125 11.164062 5.070312 11.179688 5.117188 C 11.3125 5.421875 11.3125 5.421875 11.3125 5.5625 C 11.257812 5.59375 11.257812 5.59375 11.195312 5.625 C 11.023438 5.710938 10.84375 5.804688 10.671875 5.890625 C 10.609375 5.921875 10.554688 5.953125 10.492188 5.992188 C 10.398438 6.03125 10.398438 6.03125 10.3125 6.078125 C 10.234375 6.125 10.234375 6.125 10.148438 6.164062 C 10 6.25 10 6.25 9.867188 6.351562 C 9.75 6.4375 9.75 6.4375 9.625 6.4375 C 9.4375 6.34375 9.367188 6.210938 9.265625 6.039062 C 9.203125 5.945312 9.203125 5.945312 9.140625 5.851562 C 9.0625 5.6875 9.0625 5.6875 9.125 5.5 C 9.234375 5.421875 9.234375 5.421875 9.375 5.34375 C 9.421875 5.3125 9.476562 5.28125 9.53125 5.25 C 9.585938 5.21875 9.632812 5.1875 9.6875 5.15625 C 9.742188 5.132812 9.796875 5.101562 9.851562 5.070312 C 10.742188 4.5625 10.742188 4.5625 10.9375 4.5625 Z M 10.9375 4.5625 "/>
        <path style=" stroke:none;fill-rule:nonzero;fill:#ffffff;fill-opacity:1;" d="M 20.875 4.5 C 21.25 4.601562 21.578125 4.75 21.921875 4.9375 C 21.960938 4.953125 22 4.976562 22.039062 5 C 22.28125 5.132812 22.515625 5.28125 22.75 5.4375 C 22.710938 5.664062 22.617188 5.820312 22.5 6.015625 C 22.460938 6.070312 22.429688 6.125 22.390625 6.1875 C 22.367188 6.226562 22.335938 6.265625 22.3125 6.3125 C 21.921875 6.25 21.609375 6.0625 21.265625 5.882812 C 21.195312 5.851562 21.132812 5.8125 21.0625 5.78125 C 21 5.75 20.9375 5.710938 20.875 5.679688 C 20.8125 5.648438 20.757812 5.617188 20.695312 5.585938 C 20.5625 5.5 20.5625 5.5 20.5 5.3125 C 20.578125 5.117188 20.578125 5.117188 20.6875 4.890625 C 20.71875 4.820312 20.757812 4.75 20.789062 4.671875 C 20.820312 4.617188 20.84375 4.554688 20.875 4.5 Z M 20.875 4.5 "/>
        <path style=" stroke:none;fill-rule:nonzero;fill:#ffffff;fill-opacity:1;" d="M 26.875 26.367188 C 27.046875 26.460938 27.164062 26.585938 27.296875 26.71875 C 27.34375 26.773438 27.398438 26.828125 27.445312 26.882812 C 27.484375 26.921875 27.523438 26.960938 27.5625 27 C 27.460938 27.265625 27.257812 27.445312 27.0625 27.640625 C 27.023438 27.679688 26.984375 27.71875 26.945312 27.75 C 26.671875 28.023438 26.382812 28.273438 26.0625 28.5 C 25.953125 28.398438 25.851562 28.296875 25.75 28.1875 C 25.71875 28.15625 25.6875 28.125 25.65625 28.09375 C 25.570312 28 25.570312 28 25.4375 27.8125 C 25.453125 27.59375 25.546875 27.5 25.703125 27.359375 C 25.742188 27.320312 25.78125 27.28125 25.820312 27.242188 C 25.867188 27.203125 25.90625 27.171875 25.953125 27.125 C 26.039062 27.054688 26.117188 26.976562 26.203125 26.898438 C 26.265625 26.84375 26.265625 26.84375 26.328125 26.789062 C 26.429688 26.695312 26.515625 26.601562 26.609375 26.5 C 26.75 26.375 26.75 26.375 26.875 26.367188 Z M 26.875 26.367188 "/>
        <path style=" stroke:none;fill-rule:nonzero;fill:#ffffff;fill-opacity:1;" d="M 23.25 24.9375 C 23.351562 25.054688 23.445312 25.171875 23.546875 25.296875 C 23.570312 25.335938 23.59375 25.367188 23.625 25.40625 C 23.703125 25.507812 23.703125 25.507812 23.8125 25.6875 C 23.742188 25.898438 23.703125 25.921875 23.53125 26.046875 C 23.484375 26.078125 23.4375 26.109375 23.390625 26.140625 C 23.34375 26.171875 23.296875 26.210938 23.25 26.242188 C 23.179688 26.289062 23.179688 26.289062 23.109375 26.34375 C 22.96875 26.4375 22.828125 26.53125 22.6875 26.625 C 22.640625 26.65625 22.59375 26.6875 22.546875 26.71875 C 22.5 26.75 22.460938 26.78125 22.414062 26.8125 C 22.375 26.835938 22.335938 26.859375 22.296875 26.890625 C 22.1875 26.9375 22.1875 26.9375 22 26.875 C 21.882812 26.710938 21.882812 26.710938 21.765625 26.5 C 21.734375 26.4375 21.695312 26.367188 21.648438 26.296875 C 21.5625 26.125 21.5625 26.125 21.5625 26 C 21.71875 25.898438 21.867188 25.804688 22.03125 25.703125 C 22.375 25.492188 22.710938 25.273438 23.023438 25.007812 C 23.125 24.9375 23.125 24.9375 23.25 24.9375 Z M 23.25 24.9375 "/>
        <path style=" stroke:none;fill-rule:nonzero;fill:#ffffff;fill-opacity:1;" d="M 28.5625 24.125 C 28.929688 24.234375 29.195312 24.414062 29.5 24.625 C 29.28125 25.046875 29.023438 25.414062 28.734375 25.78125 C 28.6875 25.835938 28.648438 25.890625 28.609375 25.9375 C 28.507812 26.0625 28.414062 26.1875 28.3125 26.3125 C 28.054688 26.257812 27.929688 26.148438 27.734375 25.96875 C 27.679688 25.914062 27.625 25.859375 27.5625 25.804688 C 27.523438 25.765625 27.484375 25.726562 27.4375 25.6875 C 27.460938 25.65625 27.484375 25.625 27.507812 25.601562 C 27.75 25.28125 27.984375 24.953125 28.210938 24.625 C 28.242188 24.578125 28.28125 24.53125 28.3125 24.476562 C 28.398438 24.359375 28.476562 24.242188 28.5625 24.125 Z M 28.5625 24.125 "/>
        <path style=" stroke:none;fill-rule:nonzero;fill:#ffffff;fill-opacity:1;" d="M 6.0625 8.375 C 6.148438 8.429688 6.242188 8.492188 6.328125 8.546875 C 6.375 8.585938 6.429688 8.617188 6.476562 8.648438 C 6.609375 8.742188 6.742188 8.835938 6.875 8.9375 C 6.820312 9.210938 6.671875 9.414062 6.515625 9.640625 C 6.460938 9.726562 6.398438 9.804688 6.34375 9.890625 C 6.320312 9.929688 6.289062 9.96875 6.265625 10.015625 C 6.125 10.210938 6 10.421875 5.875 10.625 C 5.625 10.585938 5.445312 10.507812 5.234375 10.375 C 5.171875 10.335938 5.117188 10.304688 5.0625 10.265625 C 5.023438 10.242188 4.976562 10.210938 4.9375 10.1875 C 5.039062 9.914062 5.171875 9.671875 5.328125 9.421875 C 5.351562 9.382812 5.375 9.335938 5.398438 9.296875 C 5.601562 8.96875 5.8125 8.664062 6.0625 8.375 Z M 6.0625 8.375 "/>
        <path style=" stroke:none;fill-rule:nonzero;fill:#ffffff;fill-opacity:1;" d="M 6.5625 22.4375 C 6.671875 22.570312 6.671875 22.570312 6.789062 22.742188 C 7.015625 23.070312 7.265625 23.367188 7.523438 23.664062 C 7.625 23.8125 7.625 23.8125 7.625 23.945312 C 7.546875 24.09375 7.453125 24.179688 7.328125 24.296875 C 7.28125 24.328125 7.242188 24.367188 7.195312 24.40625 C 7.0625 24.5 6.96875 24.539062 6.8125 24.5625 C 6.476562 24.171875 6.140625 23.78125 5.828125 23.375 C 5.789062 23.320312 5.75 23.265625 5.703125 23.210938 C 5.625 23.0625 5.625 23.0625 5.625 22.929688 C 5.71875 22.75 5.851562 22.679688 6.023438 22.578125 C 6.085938 22.53125 6.148438 22.492188 6.210938 22.453125 C 6.375 22.375 6.375 22.375 6.5625 22.4375 Z M 6.5625 22.4375 "/>
        <path style=" stroke:none;fill-rule:nonzero;fill:#ffffff;fill-opacity:1;" d="M 10.3125 21.6875 C 10.570312 21.773438 10.726562 21.890625 10.921875 22.078125 C 11.21875 22.351562 11.53125 22.585938 11.875 22.8125 C 11.789062 23.039062 11.6875 23.226562 11.554688 23.421875 C 11.523438 23.476562 11.484375 23.523438 11.453125 23.578125 C 11.429688 23.609375 11.398438 23.648438 11.375 23.6875 C 11.09375 23.59375 10.875 23.4375 10.640625 23.265625 C 10.601562 23.242188 10.5625 23.210938 10.523438 23.1875 C 10.226562 22.976562 9.953125 22.75 9.6875 22.5 C 9.71875 22.242188 9.851562 22.125 10.03125 21.953125 C 10.085938 21.90625 10.140625 21.851562 10.195312 21.804688 C 10.234375 21.765625 10.273438 21.726562 10.3125 21.6875 Z M 10.3125 21.6875 "/>
        <path style=" stroke:none;fill-rule:nonzero;fill:#ffffff;fill-opacity:1;" d="M 5.1875 19.8125 C 5.203125 19.851562 5.21875 19.882812 5.234375 19.921875 C 5.3125 20.085938 5.382812 20.25 5.453125 20.414062 C 5.484375 20.46875 5.507812 20.523438 5.53125 20.585938 C 5.554688 20.640625 5.585938 20.695312 5.609375 20.75 C 5.632812 20.804688 5.65625 20.859375 5.679688 20.914062 C 5.742188 21.039062 5.804688 21.15625 5.867188 21.273438 C 5.9375 21.4375 5.9375 21.4375 5.945312 21.570312 C 5.835938 21.757812 5.679688 21.820312 5.5 21.921875 C 5.429688 21.960938 5.359375 22 5.289062 22.039062 C 5.203125 22.078125 5.203125 22.078125 5.125 22.125 C 4.984375 22 4.898438 21.882812 4.820312 21.710938 C 4.796875 21.664062 4.773438 21.617188 4.757812 21.578125 C 4.734375 21.53125 4.710938 21.484375 4.6875 21.4375 C 4.671875 21.382812 4.648438 21.335938 4.625 21.289062 C 4.1875 20.335938 4.1875 20.335938 4.1875 20.125 C 4.328125 20.070312 4.476562 20.023438 4.617188 19.96875 C 4.65625 19.953125 4.695312 19.9375 4.742188 19.921875 C 5.046875 19.8125 5.046875 19.8125 5.1875 19.8125 Z M 5.1875 19.8125 "/>
        <path style=" stroke:none;fill-rule:nonzero;fill:#ffffff;fill-opacity:1;" d="M 25.8125 8.257812 C 25.976562 8.328125 26.023438 8.398438 26.117188 8.546875 C 26.148438 8.601562 26.179688 8.648438 26.210938 8.695312 C 26.25 8.75 26.28125 8.796875 26.3125 8.851562 C 26.34375 8.898438 26.375 8.953125 26.414062 9 C 26.9375 9.8125 26.9375 9.8125 26.9375 10.0625 C 26.507812 10.28125 26.507812 10.28125 26.0625 10.5 C 25.976562 10.367188 25.898438 10.242188 25.8125 10.101562 C 25.554688 9.703125 25.289062 9.320312 25 8.9375 C 25.09375 8.71875 25.210938 8.59375 25.398438 8.445312 C 25.445312 8.40625 25.492188 8.367188 25.546875 8.328125 C 25.6875 8.25 25.6875 8.25 25.8125 8.257812 Z M 25.8125 8.257812 "/>
        <path style=" stroke:none;fill-rule:nonzero;fill:#ffffff;fill-opacity:1;" d="M 2.875 6.75 C 3.179688 6.921875 3.46875 7.101562 3.75 7.3125 C 3.65625 7.585938 3.515625 7.8125 3.359375 8.046875 C 3.304688 8.125 3.257812 8.203125 3.203125 8.28125 C 3.179688 8.320312 3.15625 8.359375 3.132812 8.398438 C 3 8.59375 2.875 8.796875 2.75 9 C 2.5 8.960938 2.320312 8.882812 2.109375 8.75 C 2.046875 8.710938 1.992188 8.679688 1.9375 8.640625 C 1.898438 8.617188 1.851562 8.585938 1.8125 8.5625 C 1.90625 8.304688 2.03125 8.070312 2.171875 7.828125 C 2.1875 7.796875 2.210938 7.757812 2.234375 7.71875 C 2.429688 7.382812 2.648438 7.0625 2.875 6.75 Z M 2.875 6.75 "/>
        <path style=" stroke:none;fill-rule:nonzero;fill:#ffffff;fill-opacity:1;" d="M 24.6875 28.257812 C 24.867188 28.335938 24.9375 28.453125 25.046875 28.609375 C 25.09375 28.664062 25.132812 28.71875 25.171875 28.78125 C 25.25 28.9375 25.25 28.9375 25.234375 29.0625 C 25.148438 29.28125 24.921875 29.375 24.726562 29.492188 C 24.679688 29.515625 24.640625 29.546875 24.59375 29.578125 C 24.234375 29.789062 23.867188 29.992188 23.5 30.1875 C 23.25 29.757812 23.25 29.757812 23 29.3125 C 23.21875 29.09375 23.414062 28.960938 23.671875 28.8125 C 23.921875 28.679688 24.164062 28.546875 24.382812 28.375 C 24.5625 28.25 24.5625 28.25 24.6875 28.257812 Z M 24.6875 28.257812 "/>
        <path style=" stroke:none;fill-rule:nonzero;fill:#ffffff;fill-opacity:1;" d="M 6.75 27.875 C 7.015625 27.90625 7.210938 28.070312 7.421875 28.234375 C 7.492188 28.289062 7.570312 28.34375 7.648438 28.398438 C 7.6875 28.429688 7.726562 28.453125 7.765625 28.484375 C 7.984375 28.640625 8.210938 28.789062 8.4375 28.9375 C 8.34375 29.265625 8.1875 29.53125 8 29.8125 C 7.6875 29.78125 7.484375 29.632812 7.234375 29.460938 C 7.195312 29.429688 7.148438 29.40625 7.109375 29.375 C 6.789062 29.15625 6.484375 28.929688 6.1875 28.6875 C 6.242188 28.601562 6.304688 28.507812 6.359375 28.421875 C 6.398438 28.375 6.429688 28.320312 6.460938 28.273438 C 6.554688 28.140625 6.648438 28.007812 6.75 27.875 Z M 6.75 27.875 "/>
        <path style=" stroke:none;fill-rule:nonzero;fill:#ffffff;fill-opacity:1;" d="M 4.5 11.0625 C 4.828125 11.164062 5.132812 11.273438 5.4375 11.4375 C 5.398438 11.648438 5.34375 11.851562 5.273438 12.0625 C 5.257812 12.117188 5.234375 12.171875 5.21875 12.234375 C 5.195312 12.289062 5.179688 12.351562 5.15625 12.40625 C 5.117188 12.53125 5.078125 12.648438 5.039062 12.765625 C 5.015625 12.8125 5 12.867188 4.984375 12.921875 C 4.945312 13.046875 4.90625 13.179688 4.875 13.3125 C 4.59375 13.289062 4.34375 13.25 4.078125 13.15625 C 4 13.125 4 13.125 3.921875 13.101562 C 3.890625 13.085938 3.851562 13.078125 3.8125 13.0625 C 3.867188 12.859375 3.929688 12.648438 3.984375 12.445312 C 4 12.390625 4.015625 12.328125 4.03125 12.273438 C 4.320312 11.242188 4.320312 11.242188 4.5 11.0625 Z M 4.5 11.0625 "/>
        <path style=" stroke:none;fill-rule:nonzero;fill:#ffffff;fill-opacity:1;" d="M 22.8125 1.5 C 23.15625 1.59375 23.445312 1.757812 23.75 1.9375 C 23.804688 1.960938 23.851562 1.992188 23.90625 2.015625 C 24.148438 2.15625 24.390625 2.289062 24.625 2.4375 C 24.59375 2.703125 24.5 2.867188 24.34375 3.078125 C 24.296875 3.140625 24.257812 3.195312 24.21875 3.25 C 24.1875 3.289062 24.15625 3.335938 24.125 3.375 C 23.835938 3.273438 23.585938 3.125 23.320312 2.976562 C 23.28125 2.953125 23.234375 2.929688 23.1875 2.90625 C 23.0625 2.828125 22.9375 2.757812 22.8125 2.6875 C 22.773438 2.664062 22.726562 2.640625 22.679688 2.617188 C 22.578125 2.554688 22.476562 2.5 22.375 2.4375 C 22.625 1.78125 22.625 1.78125 22.8125 1.5 Z M 22.8125 1.5 "/>
        <path style=" stroke:none;fill-rule:nonzero;fill:#ffffff;fill-opacity:1;" d="M 3.0625 23.640625 C 3.21875 23.695312 3.25 23.757812 3.335938 23.898438 C 3.359375 23.9375 3.382812 23.976562 3.414062 24.023438 C 3.4375 24.070312 3.46875 24.117188 3.492188 24.164062 C 3.546875 24.25 3.601562 24.34375 3.65625 24.4375 C 3.6875 24.476562 3.710938 24.523438 3.734375 24.570312 C 3.875 24.789062 4.03125 24.984375 4.1875 25.1875 C 3.953125 25.429688 3.71875 25.625 3.4375 25.8125 C 3.234375 25.726562 3.132812 25.640625 3.007812 25.460938 C 2.960938 25.390625 2.960938 25.390625 2.914062 25.320312 C 2.875 25.273438 2.84375 25.226562 2.8125 25.179688 C 2.78125 25.132812 2.75 25.085938 2.710938 25.03125 C 2.1875 24.273438 2.1875 24.273438 2.1875 24.0625 C 2.34375 23.953125 2.34375 23.953125 2.546875 23.835938 C 2.617188 23.789062 2.679688 23.75 2.75 23.710938 C 2.9375 23.625 2.9375 23.625 3.0625 23.640625 Z M 3.0625 23.640625 "/>
        <path style=" stroke:none;fill-rule:nonzero;fill:#ffffff;fill-opacity:1;" d="M 1.375 9.4375 C 1.703125 9.539062 2.007812 9.648438 2.3125 9.8125 C 2.25 10.1875 2.109375 10.53125 1.96875 10.890625 C 1.945312 10.960938 1.921875 11.03125 1.898438 11.101562 C 1.867188 11.164062 1.84375 11.234375 1.820312 11.304688 C 1.796875 11.359375 1.773438 11.421875 1.75 11.484375 C 1.6875 11.625 1.6875 11.625 1.5625 11.6875 C 1.414062 11.65625 1.265625 11.617188 1.125 11.578125 C 1.039062 11.554688 0.960938 11.53125 0.882812 11.507812 C 0.6875 11.4375 0.6875 11.4375 0.625 11.3125 C 0.65625 11.195312 0.65625 11.195312 0.703125 11.046875 C 0.71875 10.992188 0.742188 10.945312 0.757812 10.890625 C 0.78125 10.835938 0.796875 10.773438 0.820312 10.71875 C 0.84375 10.664062 0.859375 10.609375 0.882812 10.546875 C 1.023438 10.164062 1.171875 9.789062 1.375 9.4375 Z M 1.375 9.4375 "/>
        <path style=" stroke:none;fill-rule:nonzero;fill:#ffffff;fill-opacity:1;" d="M 17.9375 3.625 C 19.351562 3.875 19.351562 3.875 20 4.125 C 19.96875 4.234375 19.945312 4.34375 19.914062 4.453125 C 19.890625 4.539062 19.890625 4.539062 19.867188 4.632812 C 19.8125 4.804688 19.757812 4.960938 19.6875 5.125 C 19.59375 5.101562 19.59375 5.101562 19.5 5.078125 C 18.921875 4.929688 18.335938 4.796875 17.75 4.6875 C 17.765625 4.53125 17.789062 4.382812 17.8125 4.226562 C 17.8125 4.179688 17.820312 4.140625 17.828125 4.09375 C 17.867188 3.765625 17.867188 3.765625 17.9375 3.625 Z M 17.9375 3.625 "/>
        <path style=" stroke:none;fill-rule:nonzero;fill:#ffffff;fill-opacity:1;" d="M 7.1875 2.5625 C 7.429688 2.65625 7.515625 2.773438 7.640625 3 C 7.6875 3.078125 7.6875 3.078125 7.742188 3.164062 C 7.8125 3.3125 7.8125 3.3125 7.8125 3.5 C 7.695312 3.59375 7.578125 3.679688 7.445312 3.765625 C 7.117188 3.984375 6.804688 4.210938 6.5 4.476562 C 6.375 4.5625 6.375 4.5625 6.1875 4.5625 C 6.046875 4.414062 6.046875 4.414062 5.890625 4.21875 C 5.84375 4.15625 5.796875 4.09375 5.742188 4.023438 C 5.703125 3.976562 5.664062 3.929688 5.625 3.875 C 5.71875 3.617188 5.90625 3.484375 6.125 3.328125 C 6.164062 3.296875 6.195312 3.273438 6.234375 3.242188 C 6.546875 3.007812 6.867188 2.78125 7.1875 2.5625 Z M 7.1875 2.5625 "/>
        <path style=" stroke:none;fill-rule:nonzero;fill:#ffffff;fill-opacity:1;" d="M 20.8125 26.4375 C 20.875 26.570312 20.9375 26.703125 21 26.828125 C 21.03125 26.90625 21.070312 26.976562 21.109375 27.054688 C 21.1875 27.25 21.1875 27.25 21.1875 27.4375 C 20.976562 27.515625 20.765625 27.601562 20.5625 27.679688 C 20.5 27.703125 20.4375 27.726562 20.382812 27.75 C 19.5625 28.0625 19.5625 28.0625 19.1875 28.0625 C 19.148438 27.929688 19.101562 27.796875 19.0625 27.671875 C 19.03125 27.554688 19.03125 27.554688 18.992188 27.445312 C 18.9375 27.25 18.9375 27.25 18.9375 27.0625 C 18.992188 27.046875 18.992188 27.046875 19.054688 27.023438 C 19.226562 26.96875 19.398438 26.914062 19.5625 26.859375 C 19.625 26.835938 19.6875 26.820312 19.742188 26.796875 C 20 26.710938 20.257812 26.625 20.5 26.515625 C 20.6875 26.4375 20.6875 26.4375 20.8125 26.4375 Z M 20.8125 26.4375 "/>
        <path style=" stroke:none;fill-rule:nonzero;fill:#ffffff;fill-opacity:1;" d="M 10.5625 26.1875 C 10.882812 26.226562 11.140625 26.328125 11.429688 26.460938 C 11.765625 26.609375 12.09375 26.75 12.4375 26.875 C 12.40625 26.984375 12.382812 27.09375 12.351562 27.203125 C 12.328125 27.289062 12.328125 27.289062 12.304688 27.382812 C 12.25 27.554688 12.195312 27.710938 12.125 27.875 C 11.75 27.835938 11.429688 27.6875 11.085938 27.53125 C 11.023438 27.507812 10.96875 27.484375 10.90625 27.460938 C 10.664062 27.351562 10.421875 27.242188 10.1875 27.125 C 10.226562 26.882812 10.296875 26.695312 10.40625 26.484375 C 10.4375 26.421875 10.46875 26.367188 10.5 26.3125 C 10.53125 26.25 10.53125 26.25 10.5625 26.1875 Z M 10.5625 26.1875 "/>
        <path style=" stroke:none;fill-rule:nonzero;fill:#ffffff;fill-opacity:1;" d="M 29.5625 7.375 C 29.664062 7.523438 29.664062 7.523438 29.773438 7.71875 C 29.8125 7.789062 29.84375 7.851562 29.890625 7.929688 C 29.90625 7.960938 29.929688 8 29.945312 8.039062 C 30.007812 8.148438 30.070312 8.257812 30.132812 8.367188 C 30.429688 8.90625 30.429688 8.90625 30.5 9.125 C 30.359375 9.195312 30.210938 9.273438 30.070312 9.34375 C 30.03125 9.367188 29.992188 9.382812 29.945312 9.40625 C 29.640625 9.5625 29.640625 9.5625 29.5 9.5625 C 29.476562 9.507812 29.476562 9.507812 29.445312 9.460938 C 29.367188 9.304688 29.28125 9.148438 29.203125 8.992188 C 29.171875 8.9375 29.148438 8.882812 29.117188 8.828125 C 29 8.601562 28.882812 8.375 28.726562 8.164062 C 28.625 8 28.625 8 28.617188 7.867188 C 28.71875 7.695312 28.851562 7.617188 29.023438 7.515625 C 29.085938 7.46875 29.148438 7.429688 29.210938 7.390625 C 29.375 7.3125 29.375 7.3125 29.5625 7.375 Z M 29.5625 7.375 "/>
        <path style=" stroke:none;fill-rule:nonzero;fill:#ffffff;fill-opacity:1;" d="M 10.0625 1.1875 C 10.125 1.320312 10.171875 1.453125 10.226562 1.59375 C 10.257812 1.664062 10.28125 1.734375 10.3125 1.8125 C 10.375 2 10.375 2 10.375 2.125 C 10.140625 2.242188 9.898438 2.359375 9.664062 2.46875 C 9.578125 2.507812 9.5 2.554688 9.414062 2.59375 C 9.304688 2.648438 9.1875 2.703125 9.070312 2.757812 C 9 2.796875 8.929688 2.828125 8.859375 2.859375 C 8.6875 2.9375 8.6875 2.9375 8.5625 2.9375 C 8.453125 2.78125 8.453125 2.78125 8.335938 2.578125 C 8.296875 2.507812 8.257812 2.4375 8.21875 2.367188 C 8.125 2.1875 8.125 2.1875 8.125 2 C 9.828125 1.070312 9.828125 1.070312 10.0625 1.1875 Z M 10.0625 1.1875 "/>
        <path style=" stroke:none;fill-rule:nonzero;fill:#ffffff;fill-opacity:1;" d="M 22.15625 29.695312 C 22.3125 29.75 22.3125 29.75 22.414062 29.898438 C 22.4375 29.960938 22.460938 30.023438 22.484375 30.085938 C 22.53125 30.179688 22.53125 30.179688 22.570312 30.273438 C 22.625 30.4375 22.625 30.4375 22.625 30.625 C 22.4375 30.703125 22.25 30.78125 22.0625 30.859375 C 22.015625 30.882812 21.960938 30.90625 21.90625 30.929688 C 21.007812 31.3125 21.007812 31.3125 20.625 31.3125 C 20.539062 30.984375 20.460938 30.65625 20.375 30.3125 C 20.484375 30.273438 20.585938 30.234375 20.695312 30.195312 C 20.835938 30.140625 20.976562 30.085938 21.117188 30.03125 C 21.1875 30.007812 21.257812 29.984375 21.328125 29.953125 C 21.398438 29.929688 21.46875 29.90625 21.53125 29.882812 C 21.59375 29.859375 21.65625 29.835938 21.726562 29.8125 C 22.03125 29.6875 22.03125 29.6875 22.15625 29.695312 Z M 22.15625 29.695312 "/>
        <path style=" stroke:none;fill-rule:nonzero;fill:#ffffff;fill-opacity:1;" d="M 9.25 29.375 C 9.3125 29.40625 9.3125 29.40625 9.382812 29.429688 C 9.578125 29.515625 9.78125 29.59375 9.984375 29.679688 C 10.085938 29.726562 10.085938 29.726562 10.1875 29.765625 C 10.289062 29.804688 10.289062 29.804688 10.390625 29.851562 C 10.453125 29.875 10.515625 29.898438 10.578125 29.929688 C 10.734375 29.992188 10.898438 30.0625 11.0625 30.125 C 10.960938 30.460938 10.859375 30.796875 10.75 31.125 C 10.484375 31.085938 10.242188 30.992188 9.992188 30.890625 C 9.929688 30.867188 9.929688 30.867188 9.867188 30.84375 C 9.515625 30.695312 9.164062 30.539062 8.8125 30.375 C 8.851562 30.117188 8.9375 29.929688 9.0625 29.703125 C 9.117188 29.609375 9.117188 29.609375 9.171875 29.515625 C 9.195312 29.46875 9.226562 29.421875 9.25 29.375 Z M 9.25 29.375 "/>
        <path style=" stroke:none;fill-rule:nonzero;fill:#ffffff;fill-opacity:1;" d="M 29.875 21.5625 C 30.226562 21.664062 30.554688 21.757812 30.875 21.9375 C 30.6875 22.601562 30.359375 23.226562 30 23.8125 C 29.757812 23.742188 29.546875 23.648438 29.328125 23.523438 C 29.28125 23.5 29.226562 23.46875 29.179688 23.4375 C 29.140625 23.421875 29.101562 23.398438 29.0625 23.375 C 29.078125 23.34375 29.09375 23.3125 29.109375 23.273438 C 29.523438 22.429688 29.523438 22.429688 29.875 21.5625 Z M 29.875 21.5625 "/>
        <path style=" stroke:none;fill-rule:nonzero;fill:#ffffff;fill-opacity:1;" d="M 30.6875 18.8125 C 30.820312 18.828125 30.945312 18.851562 31.078125 18.875 C 31.148438 18.882812 31.226562 18.890625 31.296875 18.90625 C 31.453125 18.929688 31.601562 18.960938 31.75 19 C 31.648438 19.695312 31.46875 20.398438 31.25 21.0625 C 31.140625 21.03125 31.03125 21.007812 30.921875 20.976562 C 30.835938 20.953125 30.835938 20.953125 30.742188 20.929688 C 30.570312 20.875 30.414062 20.820312 30.25 20.75 C 30.335938 20.304688 30.429688 19.867188 30.539062 19.429688 C 30.554688 19.367188 30.570312 19.3125 30.585938 19.25 C 30.617188 19.101562 30.65625 18.960938 30.6875 18.8125 Z M 30.6875 18.8125 "/>
        <path style=" stroke:none;fill-rule:nonzero;fill:#ffffff;fill-opacity:1;" d="M 30.9375 10.0625 C 31.007812 10.21875 31.007812 10.21875 31.078125 10.429688 C 31.109375 10.5 31.132812 10.578125 31.15625 10.65625 C 31.171875 10.695312 31.179688 10.734375 31.195312 10.773438 C 31.234375 10.890625 31.273438 11.007812 31.3125 11.125 C 31.335938 11.203125 31.367188 11.273438 31.390625 11.351562 C 31.414062 11.421875 31.4375 11.492188 31.460938 11.5625 C 31.5 11.757812 31.492188 11.875 31.4375 12.0625 C 31.320312 12.09375 31.195312 12.125 31.078125 12.15625 C 31.007812 12.171875 30.9375 12.1875 30.867188 12.210938 C 30.6875 12.25 30.6875 12.25 30.5 12.25 C 30.414062 12.015625 30.335938 11.78125 30.257812 11.539062 C 30.226562 11.460938 30.203125 11.382812 30.171875 11.304688 C 30.132812 11.1875 30.09375 11.070312 30.054688 10.953125 C 30.03125 10.882812 30.007812 10.820312 29.984375 10.742188 C 29.9375 10.5625 29.921875 10.476562 30 10.3125 C 30.164062 10.21875 30.164062 10.21875 30.367188 10.140625 C 30.46875 10.09375 30.46875 10.09375 30.570312 10.054688 C 30.75 10 30.75 10 30.9375 10.0625 Z M 30.9375 10.0625 "/>
        <path style=" stroke:none;fill-rule:nonzero;fill:#ffffff;fill-opacity:1;" d="M 13.875 3.6875 C 13.9375 4.015625 14 4.34375 14.0625 4.6875 C 13.914062 4.726562 13.765625 4.757812 13.609375 4.796875 C 13.203125 4.898438 12.804688 5.015625 12.40625 5.140625 C 12.25 5.1875 12.25 5.1875 12.125 5.1875 C 12.070312 5.054688 12.023438 4.921875 11.96875 4.796875 C 11.9375 4.71875 11.914062 4.648438 11.882812 4.570312 C 11.8125 4.375 11.8125 4.375 11.8125 4.1875 C 12 4.125 12.1875 4.070312 12.375 4.007812 C 12.421875 3.992188 12.476562 3.976562 12.53125 3.953125 C 12.976562 3.8125 13.398438 3.6875 13.875 3.6875 Z M 13.875 3.6875 "/>
        <path style=" stroke:none;fill-rule:nonzero;fill:#ffffff;fill-opacity:1;" d="M 1.875 21 C 1.992188 21.257812 2.101562 21.507812 2.21875 21.765625 C 2.265625 21.875 2.265625 21.875 2.3125 21.984375 C 2.34375 22.054688 2.375 22.125 2.40625 22.195312 C 2.4375 22.257812 2.460938 22.328125 2.492188 22.390625 C 2.546875 22.53125 2.59375 22.664062 2.625 22.8125 C 2.507812 22.890625 2.382812 22.960938 2.265625 23.03125 C 2.195312 23.078125 2.132812 23.117188 2.0625 23.164062 C 1.875 23.25 1.875 23.25 1.742188 23.242188 C 1.585938 23.171875 1.5625 23.117188 1.5 22.960938 C 1.476562 22.90625 1.460938 22.859375 1.4375 22.8125 C 1.414062 22.765625 1.398438 22.710938 1.375 22.65625 C 1.34375 22.585938 1.34375 22.585938 1.3125 22.507812 C 1.25 22.359375 1.1875 22.210938 1.125 22.0625 C 1.09375 21.992188 1.070312 21.921875 1.039062 21.851562 C 0.875 21.460938 0.875 21.460938 0.875 21.3125 C 1.015625 21.257812 1.164062 21.210938 1.304688 21.15625 C 1.34375 21.140625 1.382812 21.125 1.429688 21.109375 C 1.734375 21 1.734375 21 1.875 21 Z M 1.875 21 "/>
        <path style=" stroke:none;fill-rule:nonzero;fill:#ffffff;fill-opacity:1;" d="M 1.1875 18.25 C 1.25 18.515625 1.3125 18.78125 1.375 19.046875 C 1.390625 19.117188 1.414062 19.195312 1.429688 19.273438 C 1.445312 19.34375 1.460938 19.414062 1.484375 19.492188 C 1.5 19.554688 1.515625 19.625 1.53125 19.6875 C 1.5625 19.875 1.5625 19.875 1.5625 20.1875 C 1.234375 20.273438 0.90625 20.351562 0.5625 20.4375 C 0.210938 19.015625 0.210938 19.015625 0.125 18.375 C 0.234375 18.351562 0.335938 18.335938 0.445312 18.3125 C 0.507812 18.304688 0.5625 18.289062 0.625 18.28125 C 0.8125 18.25 0.992188 18.25 1.1875 18.25 Z M 1.1875 18.25 "/>
        <path style=" stroke:none;fill-rule:nonzero;fill:#ffffff;fill-opacity:1;" d="M 19.9375 0.4375 C 20.179688 0.507812 20.414062 0.578125 20.65625 0.640625 C 20.726562 0.664062 20.789062 0.679688 20.859375 0.703125 C 21.226562 0.8125 21.585938 0.921875 21.9375 1.0625 C 21.835938 1.414062 21.742188 1.742188 21.5625 2.0625 C 20.9375 1.875 20.3125 1.6875 19.6875 1.5 C 19.703125 1.390625 19.726562 1.289062 19.742188 1.179688 C 19.75 1.117188 19.765625 1.0625 19.773438 1 C 19.8125 0.804688 19.875 0.625 19.9375 0.4375 Z M 19.9375 0.4375 "/>
        <path style=" stroke:none;fill-rule:nonzero;fill:#ffffff;fill-opacity:1;" d="M 23.375 18.9375 C 23.71875 19.046875 24.046875 19.164062 24.375 19.3125 C 24.164062 20 23.804688 20.617188 23.375 21.1875 C 23.132812 21.101562 22.960938 20.992188 22.765625 20.835938 C 22.710938 20.796875 22.664062 20.757812 22.609375 20.71875 C 22.554688 20.671875 22.554688 20.671875 22.5 20.625 C 22.523438 20.585938 22.539062 20.546875 22.5625 20.507812 C 22.851562 19.992188 23.117188 19.46875 23.375 18.9375 Z M 23.375 18.9375 "/>
        <path style=" stroke:none;fill-rule:nonzero;fill:#ffffff;fill-opacity:1;" d="M 3.625 14.0625 C 3.757812 14.070312 3.882812 14.078125 4.015625 14.085938 C 4.085938 14.09375 4.164062 14.09375 4.234375 14.101562 C 4.421875 14.125 4.523438 14.164062 4.6875 14.25 C 4.671875 14.507812 4.648438 14.757812 4.625 15.015625 C 4.625 15.085938 4.617188 15.15625 4.609375 15.226562 C 4.609375 15.296875 4.601562 15.367188 4.59375 15.4375 C 4.59375 15.507812 4.585938 15.570312 4.578125 15.632812 C 4.5625 15.796875 4.539062 15.960938 4.5 16.125 C 4.28125 16.195312 4.085938 16.195312 3.859375 16.1875 C 3.789062 16.1875 3.726562 16.1875 3.65625 16.1875 C 3.601562 16.1875 3.554688 16.1875 3.5 16.1875 C 3.484375 15.46875 3.492188 14.773438 3.625 14.0625 Z M 3.625 14.0625 "/>
        <path style=" stroke:none;fill-rule:nonzero;fill:#ffffff;fill-opacity:1;" d="M 27.4375 10.875 C 27.992188 12.210938 27.992188 12.210938 28.125 12.875 C 27.992188 12.921875 27.867188 12.960938 27.734375 13 C 27.664062 13.03125 27.585938 13.054688 27.515625 13.078125 C 27.242188 13.140625 27.242188 13.140625 27.0625 13.0625 C 26.992188 12.9375 26.992188 12.9375 26.945312 12.78125 C 26.929688 12.726562 26.90625 12.664062 26.890625 12.609375 C 26.867188 12.515625 26.867188 12.515625 26.835938 12.421875 C 26.796875 12.304688 26.757812 12.1875 26.726562 12.0625 C 26.710938 12.015625 26.695312 11.960938 26.671875 11.90625 C 26.625 11.75 26.625 11.75 26.554688 11.585938 C 26.5 11.4375 26.5 11.4375 26.5 11.25 C 26.632812 11.1875 26.765625 11.125 26.898438 11.0625 C 26.96875 11.03125 27.046875 10.992188 27.125 10.953125 C 27.3125 10.875 27.3125 10.875 27.4375 10.875 Z M 27.4375 10.875 "/>
        <path style=" stroke:none;fill-rule:nonzero;fill:#ffffff;fill-opacity:1;" d="M 11.0625 8.5 C 11.15625 8.625 11.234375 8.742188 11.320312 8.875 C 11.351562 8.929688 11.351562 8.929688 11.390625 8.984375 C 11.445312 9.070312 11.507812 9.164062 11.5625 9.25 C 11.46875 9.492188 11.320312 9.609375 11.125 9.765625 C 10.796875 10.023438 10.492188 10.289062 10.1875 10.5625 C 9.96875 10.46875 9.8125 10.335938 9.640625 10.179688 C 9.59375 10.132812 9.539062 10.085938 9.492188 10.039062 C 9.453125 10.007812 9.414062 9.976562 9.375 9.9375 C 9.460938 9.734375 9.5625 9.617188 9.726562 9.484375 C 9.773438 9.445312 9.8125 9.40625 9.859375 9.367188 C 9.90625 9.328125 9.953125 9.289062 10 9.25 C 10.085938 9.171875 10.171875 9.101562 10.25 9.023438 C 10.851562 8.5 10.851562 8.5 11.0625 8.5 Z M 11.0625 8.5 "/>
        <path style=" stroke:none;fill-rule:nonzero;fill:#ffffff;fill-opacity:1;" d="M 13.875 7.25 C 13.960938 7.578125 14.039062 7.90625 14.125 8.25 C 14.023438 8.289062 14.023438 8.289062 13.914062 8.320312 C 13.25 8.546875 13.25 8.546875 12.609375 8.835938 C 12.5 8.875 12.5 8.875 12.25 8.875 C 12.1875 8.757812 12.125 8.632812 12.0625 8.515625 C 12.03125 8.445312 11.992188 8.375 11.953125 8.304688 C 11.875 8.125 11.875 8.125 11.875 7.9375 C 13.460938 7.25 13.460938 7.25 13.875 7.25 Z M 13.875 7.25 "/>
        <path style=" stroke:none;fill-rule:nonzero;fill:#ffffff;fill-opacity:1;" d="M 15.390625 3.492188 C 15.429688 3.492188 15.476562 3.492188 15.523438 3.492188 C 15.664062 3.492188 15.804688 3.492188 15.945312 3.5 C 16.039062 3.5 16.140625 3.5 16.234375 3.5 C 16.46875 3.5 16.703125 3.5 16.9375 3.5 C 16.9375 3.609375 16.9375 3.710938 16.9375 3.820312 C 16.945312 3.882812 16.945312 3.9375 16.945312 4 C 16.9375 4.1875 16.9375 4.1875 16.875 4.5625 C 16.234375 4.5625 15.59375 4.5625 14.9375 4.5625 C 14.84375 4.375 14.851562 4.195312 14.84375 3.992188 C 14.835938 3.914062 14.828125 3.828125 14.820312 3.75 C 14.820312 3.6875 14.8125 3.625 14.8125 3.5625 C 15 3.46875 15.1875 3.492188 15.390625 3.492188 Z M 15.390625 3.492188 "/>
        <path style=" stroke:none;fill-rule:nonzero;fill:#ffffff;fill-opacity:1;" d="M 18.0625 27.3125 C 18.09375 27.445312 18.125 27.578125 18.15625 27.703125 C 18.171875 27.78125 18.1875 27.851562 18.210938 27.929688 C 18.25 28.125 18.25 28.125 18.25 28.3125 C 17.53125 28.46875 16.859375 28.507812 16.125 28.5 C 16.125 28.171875 16.125 27.84375 16.125 27.5 C 16.273438 27.421875 16.398438 27.421875 16.5625 27.40625 C 16.625 27.398438 16.6875 27.390625 16.75 27.390625 C 16.820312 27.382812 16.882812 27.375 16.953125 27.375 C 17.015625 27.367188 17.085938 27.359375 17.148438 27.351562 C 17.453125 27.328125 17.757812 27.304688 18.0625 27.3125 Z M 18.0625 27.3125 "/>
        <path style=" stroke:none;fill-rule:nonzero;fill:#ffffff;fill-opacity:1;" d="M 19.875 23 C 19.953125 23.132812 20.023438 23.265625 20.09375 23.390625 C 20.132812 23.453125 20.132812 23.453125 20.164062 23.507812 C 20.21875 23.609375 20.265625 23.710938 20.3125 23.8125 C 20.25 24 20.25 24 20.054688 24.101562 C 19.96875 24.140625 19.882812 24.179688 19.796875 24.21875 C 19.75 24.234375 19.703125 24.25 19.65625 24.273438 C 18.664062 24.6875 18.664062 24.6875 18.3125 24.6875 C 18.273438 24.554688 18.226562 24.421875 18.1875 24.296875 C 18.15625 24.179688 18.15625 24.179688 18.117188 24.070312 C 18.0625 23.875 18.0625 23.875 18.0625 23.6875 C 18.101562 23.671875 18.140625 23.65625 18.179688 23.648438 C 18.351562 23.578125 18.523438 23.515625 18.695312 23.453125 C 18.757812 23.429688 18.8125 23.40625 18.875 23.382812 C 19.179688 23.265625 19.5625 23 19.875 23 Z M 19.875 23 "/>
        <path style=" stroke:none;fill-rule:nonzero;fill:#ffffff;fill-opacity:1;" d="M 4.5625 17.0625 C 4.59375 17.203125 4.617188 17.34375 4.648438 17.484375 C 4.679688 17.632812 4.703125 17.78125 4.734375 17.921875 C 4.75 17.984375 4.75 17.984375 4.765625 18.046875 C 4.789062 18.164062 4.8125 18.289062 4.835938 18.40625 C 4.875 18.625 4.875 18.625 4.875 19 C 4.546875 19.085938 4.21875 19.164062 3.875 19.25 C 3.820312 18.992188 3.773438 18.726562 3.71875 18.46875 C 3.703125 18.398438 3.6875 18.320312 3.671875 18.25 C 3.601562 17.867188 3.546875 17.515625 3.5625 17.125 C 3.898438 17.070312 4.21875 17.054688 4.5625 17.0625 Z M 4.5625 17.0625 "/>
        <path style=" stroke:none;fill-rule:nonzero;fill:#ffffff;fill-opacity:1;" d="M 27.4375 16.875 C 28.3125 16.875 28.3125 16.875 28.5 16.9375 C 28.429688 17.632812 28.335938 18.3125 28.1875 19 C 28.101562 18.992188 28.023438 18.984375 27.9375 18.976562 C 27.890625 18.96875 27.84375 18.96875 27.796875 18.960938 C 27.570312 18.929688 27.351562 18.867188 27.125 18.8125 C 27.226562 18.171875 27.328125 17.53125 27.4375 16.875 Z M 27.4375 16.875 "/>
        <path style=" stroke:none;fill-rule:nonzero;fill:#ffffff;fill-opacity:1;" d="M 23.1875 10.5 C 23.296875 10.640625 23.390625 10.773438 23.484375 10.921875 C 23.515625 10.96875 23.546875 11.007812 23.570312 11.054688 C 24.1875 12.015625 24.1875 12.015625 24.1875 12.257812 C 24.09375 12.4375 23.96875 12.46875 23.796875 12.546875 C 23.734375 12.578125 23.671875 12.609375 23.609375 12.632812 C 23.421875 12.695312 23.367188 12.695312 23.1875 12.625 C 23.109375 12.53125 23.109375 12.53125 23.054688 12.414062 C 23.03125 12.375 23.007812 12.328125 22.984375 12.289062 C 22.960938 12.242188 22.9375 12.195312 22.90625 12.148438 C 22.734375 11.8125 22.539062 11.492188 22.3125 11.1875 C 22.40625 10.960938 22.523438 10.851562 22.71875 10.703125 C 22.765625 10.664062 22.8125 10.625 22.859375 10.585938 C 23 10.5 23 10.5 23.1875 10.5 Z M 23.1875 10.5 "/>
        <path style=" stroke:none;fill-rule:nonzero;fill:#ffffff;fill-opacity:1;" d="M 12.9375 0.25 C 12.96875 0.390625 13 0.53125 13.03125 0.671875 C 13.046875 0.757812 13.0625 0.835938 13.085938 0.914062 C 13.125 1.125 13.125 1.125 13.125 1.3125 C 13.085938 1.320312 13.054688 1.328125 13.015625 1.335938 C 12.851562 1.382812 12.6875 1.421875 12.53125 1.460938 C 12.46875 1.476562 12.414062 1.492188 12.359375 1.5 C 12.117188 1.5625 11.875 1.625 11.632812 1.695312 C 11.4375 1.75 11.4375 1.75 11.1875 1.75 C 11.085938 1.4375 10.984375 1.132812 10.875 0.8125 C 11.242188 0.671875 11.601562 0.554688 11.984375 0.460938 C 12.0625 0.4375 12.0625 0.4375 12.140625 0.421875 C 12.28125 0.382812 12.421875 0.351562 12.5625 0.3125 C 12.609375 0.304688 12.648438 0.289062 12.695312 0.273438 C 12.8125 0.25 12.8125 0.25 12.9375 0.25 Z M 12.9375 0.25 "/>
        <path style=" stroke:none;fill-rule:nonzero;fill:#ffffff;fill-opacity:1;" d="M 13.25 27.1875 C 13.921875 27.234375 14.585938 27.335938 15.25 27.4375 C 15.226562 27.765625 15.210938 28.09375 15.1875 28.4375 C 14.960938 28.492188 14.867188 28.5 14.648438 28.46875 C 14.59375 28.460938 14.53125 28.453125 14.476562 28.445312 C 14.421875 28.4375 14.359375 28.429688 14.296875 28.421875 C 14.242188 28.40625 14.1875 28.398438 14.125 28.390625 C 13.765625 28.34375 13.414062 28.273438 13.0625 28.1875 C 13.101562 27.84375 13.164062 27.523438 13.25 27.1875 Z M 13.25 27.1875 "/>
        <path style=" stroke:none;fill-rule:nonzero;fill:#ffffff;fill-opacity:1;" d="M 16.9375 0 C 17.640625 0.0234375 18.3125 0.101562 19 0.25 C 18.96875 0.601562 18.921875 0.914062 18.8125 1.25 C 18.164062 1.203125 17.523438 1.132812 16.875 1.0625 C 16.875 0.929688 16.875 0.804688 16.875 0.671875 C 16.867188 0.601562 16.867188 0.523438 16.867188 0.453125 C 16.875 0.289062 16.890625 0.15625 16.9375 0 Z M 16.9375 0 "/>
        <path style=" stroke:none;fill-rule:nonzero;fill:#ffffff;fill-opacity:1;" d="M 19.5625 30.625 C 19.617188 30.804688 19.617188 30.804688 19.664062 31.023438 C 19.6875 31.132812 19.6875 31.132812 19.710938 31.242188 C 19.75 31.4375 19.75 31.4375 19.75 31.625 C 19.507812 31.671875 19.265625 31.710938 19.015625 31.757812 C 18.898438 31.78125 18.773438 31.804688 18.648438 31.828125 C 18.570312 31.84375 18.492188 31.851562 18.414062 31.867188 C 18.304688 31.890625 18.304688 31.890625 18.195312 31.90625 C 18.023438 31.9375 17.859375 31.945312 17.6875 31.9375 C 17.664062 31.804688 17.648438 31.679688 17.625 31.546875 C 17.617188 31.476562 17.601562 31.398438 17.59375 31.328125 C 17.5625 31.125 17.5625 31.125 17.5625 30.875 C 17.609375 30.867188 17.65625 30.859375 17.703125 30.851562 C 17.90625 30.820312 18.117188 30.789062 18.328125 30.75 C 18.398438 30.742188 18.46875 30.734375 18.539062 30.71875 C 18.609375 30.710938 18.679688 30.695312 18.75 30.6875 C 18.820312 30.671875 18.882812 30.664062 18.945312 30.65625 C 19.0625 30.632812 19.179688 30.609375 19.296875 30.585938 C 19.4375 30.5625 19.4375 30.5625 19.5625 30.625 Z M 19.5625 30.625 "/>
        <path style=" stroke:none;fill-rule:nonzero;fill:#ffffff;fill-opacity:1;" d="M 11.875 30.4375 C 12.523438 30.539062 13.171875 30.671875 13.8125 30.8125 C 13.804688 30.945312 13.796875 31.070312 13.78125 31.203125 C 13.78125 31.273438 13.773438 31.351562 13.773438 31.421875 C 13.757812 31.578125 13.734375 31.71875 13.6875 31.875 C 12.984375 31.765625 12.3125 31.632812 11.625 31.4375 C 11.710938 31.109375 11.789062 30.78125 11.875 30.4375 Z M 11.875 30.4375 "/>
        <path style=" stroke:none;fill-rule:nonzero;fill:#ffffff;fill-opacity:1;" d="M 17.25 23.875 C 17.289062 24.226562 17.335938 24.578125 17.375 24.9375 C 17.054688 24.976562 16.78125 25.007812 16.46875 25.007812 C 16.398438 25.007812 16.328125 25.007812 16.25 25.007812 C 16.140625 25.007812 16.140625 25.007812 16.03125 25 C 15.921875 25 15.921875 25 15.804688 25 C 15.617188 25 15.4375 25 15.25 25 C 15.242188 24.28125 15.242188 24.28125 15.3125 23.9375 C 15.40625 23.9375 15.40625 23.9375 15.507812 23.9375 C 15.960938 23.945312 16.40625 23.9375 16.859375 23.890625 C 17 23.875 17 23.875 17.25 23.875 Z M 17.25 23.875 "/>
        <path style=" stroke:none;fill-rule:nonzero;fill:#ffffff;fill-opacity:1;" d="M 24.335938 16.242188 C 24.382812 16.242188 24.421875 16.242188 24.46875 16.242188 C 24.515625 16.242188 24.554688 16.242188 24.601562 16.242188 C 24.929688 16.242188 24.929688 16.242188 25 16.3125 C 25 16.484375 24.992188 16.65625 24.984375 16.828125 C 24.976562 16.898438 24.976562 16.898438 24.976562 16.976562 C 24.945312 17.4375 24.867188 17.867188 24.75 18.3125 C 24.5 18.382812 24.328125 18.367188 24.078125 18.296875 C 23.984375 18.273438 23.984375 18.273438 23.898438 18.25 C 23.84375 18.226562 23.796875 18.210938 23.75 18.1875 C 23.671875 17.945312 23.726562 17.773438 23.773438 17.53125 C 23.84375 17.164062 23.898438 16.804688 23.921875 16.4375 C 23.953125 16.179688 24.117188 16.242188 24.335938 16.242188 Z M 24.335938 16.242188 "/>
        <path style=" stroke:none;fill-rule:nonzero;fill:#ffffff;fill-opacity:1;" d="M 31.75 12.9375 C 31.882812 13.625 31.96875 14.296875 32 15 C 31.773438 15.070312 31.5625 15.070312 31.328125 15.0625 C 31.257812 15.0625 31.179688 15.0625 31.109375 15.0625 C 31.046875 15.0625 30.992188 15.0625 30.9375 15.0625 C 30.90625 14.820312 30.875 14.578125 30.84375 14.34375 C 30.835938 14.273438 30.828125 14.203125 30.820312 14.132812 C 30.773438 13.796875 30.734375 13.46875 30.75 13.125 C 30.867188 13.09375 30.992188 13.0625 31.109375 13.03125 C 31.210938 13.007812 31.210938 13.007812 31.3125 12.976562 C 31.5 12.9375 31.5 12.9375 31.75 12.9375 Z M 31.75 12.9375 "/>
        <path style=" stroke:none;fill-rule:nonzero;fill:#ffffff;fill-opacity:1;" d="M 8.75 10.625 C 8.835938 10.679688 8.929688 10.742188 9.015625 10.796875 C 9.0625 10.835938 9.117188 10.867188 9.164062 10.898438 C 9.296875 10.992188 9.429688 11.085938 9.5625 11.1875 C 9.523438 11.4375 9.398438 11.609375 9.265625 11.820312 C 9.046875 12.164062 8.859375 12.507812 8.6875 12.875 C 8.4375 12.835938 8.234375 12.757812 8.015625 12.65625 C 7.953125 12.625 7.890625 12.59375 7.828125 12.5625 C 7.78125 12.546875 7.734375 12.523438 7.6875 12.5 C 7.984375 11.828125 8.28125 11.195312 8.75 10.625 Z M 8.75 10.625 "/>
        <path style=" stroke:none;fill-rule:nonzero;fill:#ffffff;fill-opacity:1;" d="M 28.3125 13.8125 C 28.484375 14.53125 28.507812 15.203125 28.5 15.9375 C 28.171875 15.9375 27.84375 15.9375 27.5 15.9375 C 27.429688 15.734375 27.421875 15.5625 27.40625 15.351562 C 27.398438 15.273438 27.390625 15.195312 27.390625 15.109375 C 27.382812 15.03125 27.375 14.945312 27.375 14.859375 C 27.367188 14.78125 27.359375 14.695312 27.351562 14.609375 C 27.34375 14.40625 27.328125 14.203125 27.3125 14 C 27.453125 13.96875 27.601562 13.9375 27.742188 13.90625 C 27.820312 13.890625 27.898438 13.875 27.984375 13.851562 C 28.1875 13.8125 28.1875 13.8125 28.3125 13.8125 Z M 28.3125 13.8125 "/>
        <path style=" stroke:none;fill-rule:nonzero;fill:#ffffff;fill-opacity:1;" d="M 17.9375 7.1875 C 18.085938 7.21875 18.234375 7.25 18.382812 7.28125 C 18.429688 7.296875 18.46875 7.304688 18.515625 7.320312 C 18.84375 7.40625 19.15625 7.507812 19.46875 7.625 C 19.507812 7.640625 19.546875 7.65625 19.585938 7.671875 C 19.695312 7.71875 19.695312 7.71875 19.875 7.8125 C 19.9375 8 19.9375 8 19.851562 8.195312 C 19.804688 8.273438 19.765625 8.34375 19.71875 8.421875 C 19.703125 8.453125 19.679688 8.492188 19.65625 8.53125 C 19.609375 8.625 19.554688 8.71875 19.5 8.8125 C 19.46875 8.804688 19.429688 8.789062 19.398438 8.78125 C 19.140625 8.695312 18.882812 8.609375 18.625 8.53125 C 18.570312 8.515625 18.523438 8.5 18.46875 8.484375 C 18.359375 8.445312 18.257812 8.414062 18.148438 8.382812 C 18.101562 8.367188 18.046875 8.351562 18 8.335938 C 17.953125 8.320312 17.90625 8.3125 17.859375 8.296875 C 17.75 8.25 17.75 8.25 17.6875 8.125 C 17.710938 7.976562 17.742188 7.828125 17.773438 7.6875 C 17.789062 7.601562 17.804688 7.523438 17.828125 7.445312 C 17.875 7.25 17.875 7.25 17.9375 7.1875 Z M 17.9375 7.1875 "/>
        <path style=" stroke:none;fill-rule:nonzero;fill:#ffffff;fill-opacity:1;" d="M 12.625 23.25 C 13.859375 23.617188 13.859375 23.617188 14.4375 23.8125 C 14.414062 24.164062 14.382812 24.484375 14.25 24.8125 C 13.898438 24.773438 13.585938 24.710938 13.25 24.601562 C 13.203125 24.585938 13.164062 24.570312 13.117188 24.5625 C 12.828125 24.460938 12.539062 24.367188 12.25 24.25 C 12.28125 23.875 12.453125 23.578125 12.625 23.25 Z M 12.625 23.25 "/>
        <path style=" stroke:none;fill-rule:nonzero;fill:#ffffff;fill-opacity:1;" d="M 7.3125 13.4375 C 7.578125 13.46875 7.835938 13.515625 8.09375 13.59375 C 8.171875 13.625 8.171875 13.625 8.25 13.648438 C 8.296875 13.664062 8.335938 13.671875 8.375 13.6875 C 8.359375 13.742188 8.351562 13.789062 8.335938 13.84375 C 8.210938 14.414062 8.125 14.984375 8.0625 15.5625 C 7.898438 15.5625 7.734375 15.5625 7.5625 15.5625 C 7.515625 15.570312 7.46875 15.570312 7.421875 15.570312 C 7.304688 15.570312 7.179688 15.5625 7.0625 15.5625 C 7 15.5 7 15.5 7 15.34375 C 7.039062 14.695312 7.164062 14.070312 7.3125 13.4375 Z M 7.3125 13.4375 "/>
        <path style=" stroke:none;fill-rule:nonzero;fill:#ffffff;fill-opacity:1;" d="M 0.375 12.3125 C 0.492188 12.328125 0.617188 12.351562 0.734375 12.375 C 0.804688 12.382812 0.867188 12.390625 0.9375 12.40625 C 1.085938 12.429688 1.226562 12.460938 1.375 12.5 C 1.328125 13.148438 1.226562 13.796875 1.125 14.4375 C 0.890625 14.515625 0.734375 14.476562 0.484375 14.4375 C 0.40625 14.429688 0.328125 14.414062 0.25 14.40625 C 0.15625 14.390625 0.15625 14.390625 0.0625 14.375 C 0.0859375 13.671875 0.226562 13 0.375 12.3125 Z M 0.375 12.3125 "/>
        <path style=" stroke:none;fill-rule:nonzero;fill:#ffffff;fill-opacity:1;" d="M 21.9375 21.3125 C 22.15625 21.40625 22.3125 21.539062 22.484375 21.695312 C 22.53125 21.742188 22.585938 21.789062 22.632812 21.835938 C 22.671875 21.867188 22.710938 21.898438 22.75 21.9375 C 22.296875 22.476562 21.820312 22.960938 21.25 23.375 C 21.015625 23.28125 20.90625 23.148438 20.765625 22.9375 C 20.71875 22.882812 20.679688 22.828125 20.640625 22.773438 C 20.617188 22.726562 20.59375 22.679688 20.5625 22.625 C 20.640625 22.398438 20.710938 22.351562 20.90625 22.210938 C 21.265625 21.929688 21.617188 21.632812 21.9375 21.3125 Z M 21.9375 21.3125 "/>
        <path style=" stroke:none;fill-rule:nonzero;fill:#ffffff;fill-opacity:1;" d="M 24.625 13.25 C 24.671875 13.398438 24.710938 13.539062 24.75 13.6875 C 24.757812 13.734375 24.773438 13.773438 24.78125 13.820312 C 24.898438 14.3125 24.953125 14.8125 25 15.3125 C 24.640625 15.367188 24.296875 15.382812 23.9375 15.375 C 23.882812 15.125 23.835938 14.867188 23.78125 14.609375 C 23.765625 14.539062 23.75 14.46875 23.734375 14.398438 C 23.71875 14.328125 23.710938 14.257812 23.695312 14.1875 C 23.679688 14.117188 23.664062 14.054688 23.65625 13.992188 C 23.625 13.820312 23.617188 13.671875 23.625 13.5 C 23.765625 13.445312 23.914062 13.390625 24.054688 13.34375 C 24.09375 13.328125 24.132812 13.3125 24.179688 13.296875 C 24.484375 13.179688 24.484375 13.179688 24.625 13.25 Z M 24.625 13.25 "/>
        <path style=" stroke:none;fill-rule:nonzero;fill:#ffffff;fill-opacity:1;" d="M 15.609375 6.992188 C 15.6875 6.992188 15.765625 6.992188 15.84375 6.992188 C 15.921875 6.992188 16 6.992188 16.085938 7 C 16.164062 7 16.25 7 16.335938 7 C 16.53125 7 16.734375 7 16.9375 7 C 16.9375 7.085938 16.9375 7.164062 16.9375 7.25 C 16.945312 7.296875 16.945312 7.34375 16.945312 7.390625 C 16.9375 7.617188 16.90625 7.835938 16.875 8.0625 C 16.234375 8.0625 15.59375 8.0625 14.9375 8.0625 C 14.898438 7.734375 14.851562 7.40625 14.8125 7.0625 C 15.09375 7.015625 15.328125 6.992188 15.609375 6.992188 Z M 15.609375 6.992188 "/>
        <path style=" stroke:none;fill-rule:nonzero;fill:#ffffff;fill-opacity:1;" d="M 0 15.3125 C 0.328125 15.335938 0.65625 15.351562 1 15.375 C 1.039062 16.039062 1.070312 16.703125 1.0625 17.375 C 0.539062 17.40625 0.539062 17.40625 0 17.4375 C 0 16.734375 0 16.03125 0 15.3125 Z M 0 15.3125 "/>
        <path style=" stroke:none;fill-rule:nonzero;fill:#ffffff;fill-opacity:1;" d="M 14.6875 30.9375 C 15.359375 30.929688 16.023438 30.960938 16.6875 31 C 16.71875 31.492188 16.71875 31.492188 16.75 32 C 16.046875 32 15.34375 32 14.625 32 C 14.648438 31.648438 14.664062 31.296875 14.6875 30.9375 Z M 14.6875 30.9375 "/>
        <path style=" stroke:none;fill-rule:nonzero;fill:#ffffff;fill-opacity:1;" d="M 15.320312 0 C 15.40625 0 15.40625 0 15.5 0 C 15.648438 0 15.789062 0 15.9375 0 C 15.9375 0.328125 15.9375 0.65625 15.9375 1 C 15.710938 1.023438 15.476562 1.039062 15.25 1.0625 C 15.1875 1.070312 15.125 1.078125 15.054688 1.078125 C 14.703125 1.109375 14.351562 1.132812 14 1.125 C 13.976562 1.015625 13.960938 0.90625 13.9375 0.804688 C 13.929688 0.742188 13.914062 0.679688 13.90625 0.617188 C 13.875 0.453125 13.867188 0.296875 13.875 0.125 C 14.28125 -0.078125 14.875 -0.0078125 15.320312 0 Z M 15.320312 0 "/>
        <path style=" stroke:none;fill-rule:nonzero;fill:#ffffff;fill-opacity:1;" d="M 31 16 C 31.328125 16 31.65625 16 32 16 C 32 16.21875 32 16.429688 32 16.648438 C 32.007812 16.710938 32.007812 16.765625 32.007812 16.828125 C 32.007812 17.226562 31.984375 17.609375 31.9375 18 C 31.679688 18.070312 31.492188 18.054688 31.234375 18 C 31.164062 17.992188 31.09375 17.976562 31.03125 17.96875 C 30.976562 17.960938 30.929688 17.945312 30.875 17.9375 C 30.90625 17.289062 30.9375 16.648438 31 16 Z M 31 16 "/>
    </g>
</svg>