<svg xmlns="http://www.w3.org/2000/svg" xmlns:xlink="http://www.w3.org/1999/xlink" width="32px" height="32px" viewBox="0 0 32 32" version="1.1">
    <g id="surface1">
        <path style=" stroke:none;fill-rule:nonzero;fill:#ffffff;fill-opacity:1;" d="M 18.625 12.914062 C 18.726562 13.007812 18.835938 13.101562 18.9375 13.195312 C 19.039062 13.289062 19.148438 13.382812 19.265625 13.46875 C 19.976562 14.09375 20.5625 14.953125 21.046875 15.757812 C 21.070312 15.796875 21.09375 15.84375 21.117188 15.890625 C 21.273438 16.148438 21.367188 16.390625 21.4375 16.6875 C 21.304688 16.75 21.171875 16.8125 21.039062 16.875 C 20.96875 16.90625 20.890625 16.945312 20.8125 16.984375 C 20.625 17.0625 20.625 17.0625 20.5 17.0625 C 20.46875 17 20.4375 16.929688 20.398438 16.859375 C 20.070312 16.210938 19.710938 15.523438 19.1875 15 C 19.085938 14.992188 18.976562 14.992188 18.875 14.992188 C 18.8125 14.992188 18.742188 14.992188 18.679688 14.992188 C 18.382812 14.992188 18.085938 14.992188 17.789062 15 C 17.578125 15 17.367188 15 17.15625 15 C 16.421875 14.96875 16.421875 14.96875 15.796875 15.28125 C 15.71875 15.375 15.640625 15.46875 15.5625 15.5625 C 15.453125 15.65625 15.34375 15.75 15.226562 15.84375 C 15.171875 15.882812 15.109375 15.929688 15.054688 15.976562 C 14.992188 16.03125 14.9375 16.078125 14.875 16.125 C 14.75 16.226562 14.617188 16.335938 14.492188 16.4375 C 14.4375 16.484375 14.375 16.53125 14.320312 16.578125 C 14.25 16.632812 14.1875 16.6875 14.125 16.75 C 14.117188 16.851562 14.117188 16.945312 14.117188 17.046875 C 14.117188 17.109375 14.117188 17.171875 14.117188 17.234375 C 14.117188 17.304688 14.117188 17.367188 14.117188 17.4375 C 14.117188 17.507812 14.117188 17.578125 14.117188 17.648438 C 14.117188 17.875 14.117188 18.09375 14.125 18.3125 C 14.125 18.46875 14.125 18.617188 14.125 18.765625 C 14.125 19.132812 14.125 19.507812 14.125 19.875 C 14.210938 19.898438 14.210938 19.898438 14.296875 19.914062 C 14.945312 20.078125 15.59375 20.25 16.234375 20.429688 C 16.34375 20.460938 16.453125 20.492188 16.570312 20.515625 C 16.726562 20.5625 16.890625 20.609375 17.054688 20.65625 C 17.101562 20.664062 17.148438 20.679688 17.203125 20.695312 C 17.546875 20.789062 17.546875 20.789062 17.6875 21 C 17.71875 21.15625 17.742188 21.304688 17.765625 21.46875 C 17.773438 21.507812 17.78125 21.554688 17.789062 21.601562 C 17.804688 21.703125 17.820312 21.796875 17.828125 21.898438 C 17.851562 22.039062 17.875 22.1875 17.898438 22.335938 C 17.90625 22.429688 17.921875 22.523438 17.9375 22.617188 C 17.945312 22.664062 17.945312 22.703125 17.953125 22.75 C 18.0625 23.5 18.0625 23.5 17.9375 23.75 C 17.914062 23.78125 17.882812 23.8125 17.859375 23.84375 C 17.828125 23.875 17.796875 23.90625 17.765625 23.945312 C 17.726562 23.976562 17.695312 24.015625 17.65625 24.046875 C 17.59375 24.125 17.523438 24.203125 17.453125 24.28125 C 17.421875 24.3125 17.382812 24.351562 17.351562 24.390625 C 17.203125 24.554688 17.070312 24.71875 16.929688 24.890625 C 16.882812 24.9375 16.84375 24.992188 16.796875 25.046875 C 16.679688 25.195312 16.679688 25.195312 16.5625 25.375 C 16.585938 25.40625 16.617188 25.4375 16.640625 25.476562 C 16.757812 25.625 16.875 25.773438 16.984375 25.921875 C 17.03125 25.976562 17.070312 26.023438 17.109375 26.078125 C 17.148438 26.125 17.1875 26.179688 17.226562 26.226562 C 17.265625 26.273438 17.296875 26.320312 17.335938 26.367188 C 17.4375 26.5 17.4375 26.5 17.515625 26.640625 C 17.75 26.875 18.171875 26.8125 18.492188 26.8125 C 18.632812 26.8125 18.773438 26.828125 18.921875 26.835938 C 19.195312 26.84375 19.421875 26.828125 19.6875 26.75 C 19.929688 26.507812 20.054688 26.25 20.1875 25.9375 C 20.242188 25.835938 20.296875 25.734375 20.351562 25.632812 C 20.390625 25.539062 20.4375 25.445312 20.484375 25.351562 C 20.507812 25.304688 20.53125 25.25 20.554688 25.195312 C 21.539062 23.03125 21.710938 20.398438 20.921875 18.140625 C 20.875 18 20.875 18 20.875 17.8125 C 21.007812 17.757812 21.140625 17.710938 21.273438 17.65625 C 21.382812 17.609375 21.382812 17.609375 21.5 17.570312 C 21.6875 17.5 21.6875 17.5 21.8125 17.5 C 22.828125 20.242188 22.609375 23.203125 21.445312 25.851562 C 20.265625 28.414062 18.023438 30.382812 15.414062 31.382812 C 14.789062 31.601562 14.15625 31.796875 13.5 31.875 C 13.414062 31.539062 13.351562 31.21875 13.3125 30.875 C 13.351562 30.867188 13.390625 30.851562 13.429688 30.84375 C 13.609375 30.796875 13.789062 30.75 13.96875 30.703125 C 14.03125 30.679688 14.09375 30.664062 14.164062 30.648438 C 14.25 30.625 14.25 30.625 14.34375 30.601562 C 14.398438 30.585938 14.453125 30.570312 14.507812 30.554688 C 14.726562 30.492188 14.921875 30.40625 15.125 30.3125 C 14.90625 30.078125 14.679688 29.84375 14.453125 29.617188 C 14.375 29.539062 14.304688 29.453125 14.226562 29.375 C 14.117188 29.265625 14.007812 29.148438 13.898438 29.039062 C 13.851562 28.984375 13.851562 28.984375 13.796875 28.929688 C 13.6875 28.8125 13.6875 28.8125 13.5 28.6875 C 13.28125 28.679688 13.28125 28.679688 13.0625 28.75 C 12.984375 28.765625 12.90625 28.789062 12.828125 28.804688 C 12.601562 28.859375 12.375 28.921875 12.15625 28.984375 C 12.054688 29.015625 11.960938 29.039062 11.867188 29.0625 C 11.195312 29.234375 10.789062 29.414062 10.375 30 C 10.320312 30.070312 10.257812 30.140625 10.203125 30.203125 C 10.15625 30.265625 10.109375 30.320312 10.0625 30.375 C 10.015625 30.429688 9.96875 30.492188 9.921875 30.546875 C 9.8125 30.679688 9.8125 30.679688 9.75 30.8125 C 10.359375 30.921875 10.960938 30.960938 11.578125 30.976562 C 11.671875 30.976562 11.757812 30.984375 11.851562 30.984375 C 12.070312 30.992188 12.28125 30.992188 12.5 31 C 12.546875 31.242188 12.570312 31.46875 12.5625 31.710938 C 12.5625 31.765625 12.5625 31.820312 12.5625 31.875 C 12.5625 31.914062 12.5625 31.960938 12.5625 32 C 9.804688 32.0625 7.21875 31.578125 5 29.8125 C 4.96875 29.789062 4.929688 29.757812 4.898438 29.734375 C 3.203125 28.375 1.664062 26.414062 1.1875 24.25 C 1.210938 24.070312 1.210938 24.070312 1.25 23.9375 C 1.359375 23.90625 1.46875 23.875 1.585938 23.84375 C 1.671875 23.820312 1.671875 23.820312 1.765625 23.789062 C 1.9375 23.75 1.9375 23.75 2.125 23.75 C 2.148438 23.820312 2.179688 23.898438 2.203125 23.96875 C 2.796875 25.648438 3.65625 27.351562 5.0625 28.5 C 5.148438 28.523438 5.226562 28.546875 5.3125 28.5625 C 6 28.007812 6 28.007812 6.367188 27.25 C 6.351562 27.03125 6.304688 26.835938 6.25 26.625 C 6.226562 26.460938 6.203125 26.289062 6.1875 26.125 C 6.140625 26.117188 6.09375 26.117188 6.039062 26.109375 C 5.492188 26.046875 4.859375 25.953125 4.4375 25.5625 C 3.96875 24.890625 3.757812 23.921875 3.625 23.125 C 3.6875 22.9375 3.6875 22.9375 3.867188 22.835938 C 3.945312 22.796875 4.023438 22.757812 4.101562 22.71875 C 4.140625 22.695312 4.1875 22.679688 4.226562 22.65625 C 4.320312 22.617188 4.40625 22.570312 4.492188 22.53125 C 4.632812 22.46875 4.765625 22.398438 4.898438 22.335938 C 4.984375 22.296875 5.070312 22.25 5.164062 22.210938 C 5.203125 22.195312 5.242188 22.171875 5.28125 22.148438 C 5.476562 22.0625 5.664062 21.984375 5.867188 21.929688 C 6.0625 21.898438 6.0625 21.898438 6.132812 21.765625 C 6.148438 21.71875 6.171875 21.671875 6.1875 21.625 C 6.289062 21.492188 6.390625 21.359375 6.5 21.226562 C 6.554688 21.148438 6.617188 21.070312 6.679688 20.992188 C 6.710938 20.953125 6.742188 20.914062 6.773438 20.875 C 6.96875 20.632812 7.15625 20.390625 7.34375 20.148438 C 7.554688 19.882812 7.554688 19.882812 7.625 19.8125 C 7.617188 19.210938 7.476562 18.601562 7.375 18.007812 C 7.335938 17.8125 7.304688 17.617188 7.265625 17.421875 C 7.257812 17.375 7.25 17.335938 7.242188 17.289062 C 7.203125 17.0625 7.179688 16.851562 7.1875 16.625 C 7.132812 16.617188 7.070312 16.609375 7.015625 16.609375 C 6.671875 16.554688 6.34375 16.460938 6.007812 16.367188 C 5.9375 16.34375 5.867188 16.328125 5.796875 16.304688 C 5.578125 16.242188 5.351562 16.179688 5.132812 16.125 C 4.976562 16.078125 4.828125 16.039062 4.671875 15.992188 C 4.304688 15.890625 3.929688 15.789062 3.5625 15.6875 C 3.492188 15.78125 3.421875 15.882812 3.351562 15.976562 C 3.296875 16.0625 3.296875 16.0625 3.234375 16.148438 C 3.0625 16.398438 2.9375 16.671875 2.804688 16.953125 C 2.78125 17.007812 2.75 17.0625 2.726562 17.125 C 2.226562 18.203125 1.867188 19.414062 1.867188 20.609375 C 1.867188 20.65625 1.867188 20.695312 1.867188 20.742188 C 1.867188 20.835938 1.867188 20.9375 1.867188 21.03125 C 1.867188 21.171875 1.867188 21.3125 1.867188 21.453125 C 1.867188 21.953125 1.875 22.445312 1.9375 22.9375 C 1.28125 23.078125 1.28125 23.078125 0.9375 23.0625 C 0.796875 22.46875 0.789062 21.875 0.789062 21.265625 C 0.789062 21.21875 0.789062 21.164062 0.789062 21.117188 C 0.804688 18.023438 2.070312 15.375 4.226562 13.210938 C 5.265625 12.226562 6.53125 11.484375 7.875 11 C 8.023438 11.148438 8.0625 11.265625 8.132812 11.46875 C 8.15625 11.523438 8.179688 11.585938 8.203125 11.648438 C 8.25 11.8125 8.25 11.8125 8.25 12 C 8.1875 12.023438 8.125 12.046875 8.070312 12.078125 C 6.617188 12.6875 5.257812 13.523438 4.25 14.75 C 4.710938 14.882812 5.171875 15.007812 5.632812 15.140625 C 5.84375 15.195312 6.054688 15.257812 6.273438 15.320312 C 6.515625 15.390625 6.765625 15.453125 7.007812 15.523438 C 7.085938 15.546875 7.164062 15.570312 7.242188 15.59375 C 7.351562 15.617188 7.351562 15.617188 7.460938 15.648438 C 7.523438 15.671875 7.585938 15.6875 7.648438 15.703125 C 7.789062 15.742188 7.921875 15.78125 8.0625 15.8125 C 8.140625 16.265625 8.226562 16.71875 8.304688 17.164062 C 8.34375 17.375 8.375 17.585938 8.414062 17.796875 C 8.460938 18.039062 8.5 18.28125 8.546875 18.523438 C 8.5625 18.632812 8.5625 18.632812 8.585938 18.75 C 8.804688 20 8.804688 20 8.695312 20.25 C 8.625 20.359375 8.539062 20.4375 8.453125 20.53125 C 8.382812 20.59375 8.320312 20.664062 8.257812 20.734375 C 8.210938 20.78125 8.210938 20.78125 8.15625 20.835938 C 8.007812 20.992188 7.882812 21.164062 7.75 21.34375 C 7.726562 21.375 7.695312 21.40625 7.671875 21.4375 C 7.539062 21.617188 7.40625 21.796875 7.28125 21.976562 C 6.898438 22.507812 6.53125 22.804688 5.929688 23.070312 C 5.8125 23.125 5.695312 23.179688 5.578125 23.234375 C 5.03125 23.5 5.03125 23.5 4.875 23.5 C 4.882812 23.53125 4.898438 23.570312 4.90625 23.601562 C 4.960938 23.75 5.007812 23.90625 5.0625 24.054688 C 5.078125 24.109375 5.101562 24.15625 5.117188 24.210938 C 5.140625 24.289062 5.140625 24.289062 5.171875 24.367188 C 5.1875 24.414062 5.203125 24.460938 5.21875 24.507812 C 5.25 24.625 5.25 24.625 5.25 24.75 C 5.289062 24.757812 5.335938 24.765625 5.375 24.78125 C 5.96875 24.921875 6.546875 25.117188 7.125 25.3125 C 7.375 26.828125 7.375 26.828125 7.4375 27.5 C 7.445312 27.5625 7.453125 27.625 7.460938 27.695312 C 7.429688 27.953125 7.3125 28.039062 7.125 28.210938 C 7.054688 28.273438 6.992188 28.328125 6.929688 28.390625 C 6.898438 28.421875 6.867188 28.445312 6.835938 28.476562 C 6.570312 28.734375 6.34375 29.015625 6.125 29.3125 C 6.679688 29.65625 7.226562 29.976562 7.828125 30.234375 C 7.875 30.25 7.929688 30.273438 7.976562 30.296875 C 8.171875 30.375 8.335938 30.4375 8.546875 30.445312 C 8.765625 30.335938 8.898438 30.164062 9.046875 29.976562 C 9.078125 29.9375 9.109375 29.898438 9.148438 29.859375 C 9.242188 29.742188 9.34375 29.617188 9.4375 29.5 C 9.492188 29.4375 9.546875 29.367188 9.601562 29.304688 C 9.695312 29.1875 9.78125 29.078125 9.875 28.96875 C 9.9375 28.890625 9.9375 28.890625 10 28.8125 C 10.039062 28.75 10.078125 28.695312 10.117188 28.632812 C 10.359375 28.34375 10.71875 28.28125 11.070312 28.179688 C 11.148438 28.15625 11.21875 28.132812 11.296875 28.109375 C 11.453125 28.0625 11.609375 28.023438 11.765625 27.976562 C 11.921875 27.929688 12.085938 27.882812 12.242188 27.835938 C 12.476562 27.765625 12.703125 27.695312 12.9375 27.632812 C 13.007812 27.609375 13.078125 27.585938 13.15625 27.5625 C 13.21875 27.546875 13.289062 27.53125 13.351562 27.507812 C 13.414062 27.492188 13.46875 27.476562 13.53125 27.460938 C 13.710938 27.4375 13.789062 27.460938 13.9375 27.5625 C 14.03125 27.648438 14.03125 27.648438 14.125 27.75 C 14.15625 27.789062 14.195312 27.828125 14.226562 27.867188 C 14.265625 27.90625 14.304688 27.945312 14.34375 27.992188 C 14.734375 28.421875 15.140625 28.835938 15.546875 29.25 C 15.59375 29.3125 15.648438 29.367188 15.703125 29.421875 C 15.757812 29.476562 15.804688 29.523438 15.859375 29.578125 C 15.90625 29.625 15.953125 29.671875 16 29.71875 C 16.117188 29.828125 16.117188 29.828125 16.257812 29.796875 C 17.234375 29.382812 18.070312 28.617188 18.8125 27.875 C 18.765625 27.882812 18.71875 27.882812 18.664062 27.890625 C 17.34375 28 17.34375 28 16.898438 27.695312 C 16.59375 27.398438 16.382812 27.046875 16.171875 26.679688 C 16 26.390625 15.796875 26.125 15.59375 25.859375 C 15.523438 25.765625 15.460938 25.671875 15.390625 25.578125 C 15.34375 25.507812 15.296875 25.445312 15.25 25.375 C 15.351562 25.164062 15.46875 25 15.625 24.8125 C 15.671875 24.757812 15.71875 24.695312 15.773438 24.632812 C 15.882812 24.5 16 24.359375 16.117188 24.226562 C 16.148438 24.195312 16.179688 24.15625 16.210938 24.117188 C 16.265625 24.054688 16.320312 23.984375 16.382812 23.914062 C 16.4375 23.851562 16.492188 23.789062 16.546875 23.726562 C 16.601562 23.65625 16.65625 23.59375 16.71875 23.523438 C 16.851562 23.367188 16.9375 23.257812 16.945312 23.039062 C 16.929688 22.875 16.898438 22.71875 16.859375 22.554688 C 16.84375 22.445312 16.820312 22.335938 16.804688 22.226562 C 16.789062 22.179688 16.78125 22.132812 16.773438 22.078125 C 16.75 21.929688 16.75 21.78125 16.75 21.625 C 16.695312 21.617188 16.632812 21.609375 16.578125 21.609375 C 16.242188 21.554688 15.914062 21.460938 15.585938 21.367188 C 15.523438 21.351562 15.453125 21.328125 15.382812 21.3125 C 15.234375 21.265625 15.09375 21.226562 14.945312 21.1875 C 14.726562 21.125 14.507812 21.0625 14.28125 21 C 14.140625 20.960938 14 20.921875 13.859375 20.882812 C 13.796875 20.867188 13.726562 20.84375 13.65625 20.828125 C 13.601562 20.8125 13.539062 20.789062 13.476562 20.773438 C 13.421875 20.757812 13.367188 20.742188 13.3125 20.726562 C 13.1875 20.6875 13.1875 20.6875 13.125 20.625 C 13.117188 20.515625 13.109375 20.40625 13.101562 20.296875 C 13.101562 20.226562 13.101562 20.15625 13.09375 20.078125 C 13.085938 19.78125 13.078125 19.484375 13.070312 19.1875 C 13.070312 18.9375 13.0625 18.679688 13.046875 18.421875 C 13.039062 18.148438 13.03125 17.867188 13.023438 17.585938 C 13.023438 17.476562 13.015625 17.367188 13.015625 17.257812 C 12.96875 16.382812 12.96875 16.382812 13.195312 16.0625 C 13.351562 15.921875 13.507812 15.804688 13.6875 15.6875 C 13.78125 15.609375 13.78125 15.609375 13.875 15.53125 C 13.953125 15.46875 13.953125 15.46875 14.03125 15.40625 C 14.085938 15.359375 14.140625 15.3125 14.203125 15.265625 C 14.257812 15.21875 14.3125 15.171875 14.375 15.125 C 14.492188 15.03125 14.601562 14.9375 14.71875 14.84375 C 14.773438 14.796875 14.828125 14.757812 14.882812 14.710938 C 15.0625 14.570312 15.0625 14.570312 15.210938 14.414062 C 15.6875 13.96875 16.0625 13.921875 16.703125 13.9375 C 16.859375 13.9375 17.023438 13.9375 17.1875 13.9375 C 17.265625 13.9375 17.34375 13.9375 17.421875 13.9375 C 17.65625 13.9375 17.890625 13.914062 18.125 13.875 C 15.9375 12.09375 13.390625 11.203125 10.554688 11.453125 C 10.242188 11.492188 9.929688 11.546875 9.625 11.601562 C 9.4375 11.632812 9.25 11.664062 9.0625 11.6875 C 9.03125 11.601562 9 11.515625 8.976562 11.4375 C 8.953125 11.382812 8.9375 11.335938 8.921875 11.289062 C 8.867188 11.09375 8.835938 10.890625 8.8125 10.6875 C 9.015625 10.648438 9.226562 10.609375 9.4375 10.5625 C 9.492188 10.554688 9.546875 10.546875 9.609375 10.53125 C 12.789062 9.914062 16.171875 10.796875 18.625 12.914062 Z M 18.625 12.914062 "/>
        <path style=" stroke:none;fill-rule:nonzero;fill:#ffffff;fill-opacity:1;" d="M 6.875 0.375 C 6.84375 0.742188 6.6875 1.007812 6.5 1.3125 C 6.445312 1.296875 6.382812 1.273438 6.328125 1.257812 C 5.359375 0.96875 4.320312 0.90625 3.375 1.3125 C 3.320312 1.335938 3.265625 1.359375 3.210938 1.375 C 2.726562 1.59375 2.234375 1.929688 1.9375 2.375 C 3.09375 2.398438 4.25 2.414062 5.4375 2.4375 C 5.4375 2.765625 5.4375 3.09375 5.4375 3.4375 C 4.054688 3.460938 2.671875 3.476562 1.25 3.5 C 1.117188 3.984375 1.03125 4.34375 1.03125 4.828125 C 1.039062 4.890625 1.039062 4.945312 1.039062 5.007812 C 1.0625 6.023438 1.460938 6.867188 2.164062 7.609375 C 2.898438 8.304688 3.835938 8.679688 4.84375 8.710938 C 5.765625 8.679688 6.773438 8.351562 7.4375 7.6875 C 6.757812 7.664062 6.078125 7.648438 5.375 7.625 C 5.375 7.296875 5.375 6.96875 5.375 6.625 C 6.34375 6.625 7.3125 6.625 8.3125 6.625 C 8.375 6.4375 8.4375 6.25 8.5 6.0625 C 8.5625 5.875 8.625 5.6875 8.6875 5.5 C 7.304688 5.5 5.921875 5.5 4.5 5.5 C 4.5 5.171875 4.5 4.84375 4.5 4.5 C 5.882812 4.5 7.265625 4.5 8.6875 4.5 C 8.546875 3.765625 8.546875 3.765625 8.273438 3.109375 C 8.25 3.070312 8.234375 3.023438 8.210938 2.984375 C 7.953125 2.515625 7.625 2.125 7.1875 1.8125 C 7.226562 1.578125 7.335938 1.421875 7.46875 1.234375 C 7.515625 1.179688 7.554688 1.125 7.59375 1.0625 C 7.625 1.023438 7.65625 0.984375 7.6875 0.9375 C 8.398438 1.164062 8.921875 1.992188 9.25 2.625 C 9.867188 3.921875 9.90625 5.304688 9.429688 6.65625 C 8.929688 7.875 8.023438 8.835938 6.820312 9.359375 C 5.523438 9.890625 4.132812 9.882812 2.84375 9.351562 C 1.640625 8.820312 0.75 7.8125 0.25 6.609375 C -0.203125 5.359375 -0.132812 3.945312 0.414062 2.742188 C 0.960938 1.609375 1.882812 0.71875 3.0625 0.273438 C 4.273438 -0.140625 5.710938 -0.195312 6.875 0.375 Z M 6.875 0.375 "/>
        <path style=" stroke:none;fill-rule:nonzero;fill:#ffffff;fill-opacity:1;" d="M 30.4375 5.554688 C 30.625 5.664062 30.734375 5.8125 30.859375 5.984375 C 30.890625 6.015625 30.914062 6.054688 30.945312 6.09375 C 31.914062 7.414062 32.15625 8.992188 31.984375 10.601562 C 31.9375 10.890625 31.851562 11.164062 31.75 11.4375 C 31.734375 11.476562 31.71875 11.523438 31.703125 11.5625 C 31.46875 12.1875 31.15625 12.71875 30.75 13.25 C 30.71875 13.296875 30.679688 13.34375 30.648438 13.390625 C 29.898438 14.3125 28.710938 14.984375 27.5625 15.25 C 27.507812 15.265625 27.445312 15.28125 27.390625 15.289062 C 25.867188 15.601562 24.28125 15.273438 22.976562 14.445312 C 22.320312 13.984375 21.640625 13.398438 21.25 12.6875 C 21.328125 12.445312 21.4375 12.398438 21.648438 12.265625 C 21.710938 12.226562 21.773438 12.1875 21.835938 12.148438 C 22 12.0625 22 12.0625 22.1875 12.125 C 22.265625 12.226562 22.335938 12.328125 22.40625 12.4375 C 23.109375 13.421875 24.164062 14.015625 25.335938 14.265625 C 26.625 14.46875 27.921875 14.195312 28.992188 13.453125 C 29.601562 12.976562 30.09375 12.445312 30.4375 11.75 C 29.203125 11.71875 29.203125 11.71875 27.9375 11.6875 C 27.9375 11.359375 27.9375 11.03125 27.9375 10.6875 C 28.90625 10.664062 29.875 10.648438 30.875 10.625 C 30.953125 10.148438 30.96875 9.664062 31 9.1875 C 29.367188 9.1875 27.742188 9.1875 26.0625 9.1875 C 26.0625 8.859375 26.0625 8.53125 26.0625 8.1875 C 27.632812 8.1875 29.195312 8.1875 30.8125 8.1875 C 30.4375 7.320312 30.4375 7.320312 29.9375 6.5625 C 29.882812 6.484375 29.835938 6.414062 29.78125 6.335938 C 29.75 6.289062 29.71875 6.234375 29.6875 6.1875 C 29.789062 6.078125 29.882812 5.976562 29.984375 5.875 C 30.070312 5.78125 30.070312 5.78125 30.148438 5.695312 C 30.3125 5.5625 30.3125 5.5625 30.4375 5.554688 Z M 30.4375 5.554688 "/>
        <path style=" stroke:none;fill-rule:nonzero;fill:#ffffff;fill-opacity:1;" d="M 29.5 4.6875 C 29.617188 4.796875 29.617188 4.796875 29.6875 4.875 C 29.59375 5.078125 29.476562 5.242188 29.335938 5.421875 C 29.296875 5.46875 29.257812 5.523438 29.21875 5.570312 C 29.171875 5.632812 29.171875 5.632812 29.125 5.6875 C 29.0625 5.648438 29.0625 5.648438 29 5.617188 C 27.757812 4.914062 26.429688 4.570312 25.007812 4.90625 C 24.234375 5.148438 23.539062 5.515625 22.9375 6.0625 C 22.882812 6.109375 22.882812 6.109375 22.820312 6.164062 C 21.945312 6.953125 21.5 8.179688 21.421875 9.335938 C 21.40625 10.039062 21.554688 10.695312 21.75 11.375 C 21.632812 11.429688 21.507812 11.476562 21.390625 11.53125 C 21.289062 11.578125 21.289062 11.578125 21.1875 11.617188 C 21 11.6875 21 11.6875 20.75 11.6875 C 20.203125 10.0625 20.242188 8.46875 20.976562 6.914062 C 21.203125 6.460938 21.476562 6.0625 21.8125 5.6875 C 21.859375 5.632812 21.914062 5.578125 21.960938 5.515625 C 23.953125 3.414062 27.078125 3.203125 29.5 4.6875 Z M 29.5 4.6875 "/>
        <path style=" stroke:none;fill-rule:nonzero;fill:#ffffff;fill-opacity:1;" d="M 11.609375 12.234375 C 11.679688 12.234375 11.75 12.234375 11.828125 12.234375 C 12.3125 12.242188 12.773438 12.273438 13.25 12.375 C 13.1875 12.703125 13.125 13.03125 13.0625 13.375 C 12.914062 13.359375 12.914062 13.359375 12.765625 13.34375 C 11.742188 13.25 10.757812 13.296875 9.75 13.5 C 9.601562 13.523438 9.460938 13.539062 9.3125 13.5625 C 9.265625 13.445312 9.226562 13.320312 9.1875 13.203125 C 9.15625 13.132812 9.132812 13.070312 9.109375 13 C 9.0625 12.8125 9.070312 12.742188 9.125 12.5625 C 9.296875 12.523438 9.476562 12.484375 9.65625 12.4375 C 9.726562 12.421875 9.726562 12.421875 9.796875 12.40625 C 10.40625 12.273438 10.992188 12.234375 11.609375 12.234375 Z M 11.609375 12.234375 "/>
        <path style=" stroke:none;fill-rule:nonzero;fill:#ffffff;fill-opacity:1;" d="M 8.1875 12.9375 C 8.3125 13.226562 8.4375 13.515625 8.5625 13.8125 C 8.390625 13.9375 8.242188 14.046875 8.0625 14.140625 C 8.023438 14.164062 7.976562 14.1875 7.9375 14.210938 C 7.8125 14.25 7.8125 14.25 7.679688 14.210938 C 7.539062 14.109375 7.476562 14.007812 7.390625 13.851562 C 7.359375 13.804688 7.328125 13.757812 7.304688 13.703125 C 7.25 13.5625 7.25 13.5625 7.25 13.429688 C 7.351562 13.242188 7.492188 13.195312 7.6875 13.109375 C 7.75 13.078125 7.820312 13.046875 7.890625 13.007812 C 8.0625 12.9375 8.0625 12.9375 8.1875 12.9375 Z M 8.1875 12.9375 "/>
        <path style=" stroke:none;fill-rule:nonzero;fill:#ffffff;fill-opacity:1;" d="M 25.4375 11.5 C 25.765625 11.5 26.09375 11.5 26.4375 11.5 C 26.4375 11.828125 26.4375 12.15625 26.4375 12.5 C 26.109375 12.5 25.78125 12.5 25.4375 12.5 C 25.4375 12.171875 25.4375 11.84375 25.4375 11.5 Z M 25.4375 11.5 "/>
        <path style=" stroke:none;fill-rule:nonzero;fill:#ffffff;fill-opacity:1;" d="M 22.9375 9.9375 C 23.265625 9.9375 23.59375 9.9375 23.9375 9.9375 C 23.9375 10.265625 23.9375 10.59375 23.9375 10.9375 C 23.609375 10.9375 23.28125 10.9375 22.9375 10.9375 C 22.9375 10.609375 22.9375 10.28125 22.9375 9.9375 Z M 22.9375 9.9375 "/>
        <path style=" stroke:none;fill-rule:nonzero;fill:#ffffff;fill-opacity:1;" d="M 24.0625 6.6875 C 24.390625 6.6875 24.71875 6.6875 25.0625 6.6875 C 25.0625 7.015625 25.0625 7.34375 25.0625 7.6875 C 24.734375 7.6875 24.40625 7.6875 24.0625 7.6875 C 24.0625 7.359375 24.0625 7.03125 24.0625 6.6875 Z M 24.0625 6.6875 "/>
        <path style=" stroke:none;fill-rule:nonzero;fill:#ffffff;fill-opacity:1;" d="M 3.5 6.625 C 3.828125 6.625 4.15625 6.625 4.5 6.625 C 4.5 6.953125 4.5 7.28125 4.5 7.625 C 4.171875 7.625 3.84375 7.625 3.5 7.625 C 3.5 7.296875 3.5 6.96875 3.5 6.625 Z M 3.5 6.625 "/>
    </g>
</svg>