<svg xmlns="http://www.w3.org/2000/svg" xmlns:xlink="http://www.w3.org/1999/xlink" width="32px" height="32px" viewBox="0 0 32 32" version="1.1">
    <g id="surface1">
        <path style=" stroke:none;fill-rule:nonzero;fill:#ffffff;fill-opacity:1;" d="M 12.484375 6.734375 C 12.5625 6.734375 12.5625 6.734375 12.648438 6.734375 C 13.445312 6.734375 14.21875 6.757812 15 6.9375 C 15.046875 6.945312 15.101562 6.960938 15.148438 6.96875 C 16.789062 7.3125 18.398438 8 19.75 9 C 19.8125 9.046875 19.875 9.09375 19.9375 9.132812 C 22.359375 10.929688 24.03125 13.5 24.734375 16.421875 C 24.75 16.476562 24.765625 16.523438 24.773438 16.578125 C 24.976562 17.453125 25.023438 18.304688 25.015625 19.203125 C 25.015625 19.25 25.015625 19.304688 25.015625 19.359375 C 25.015625 20.148438 24.984375 20.914062 24.8125 21.6875 C 24.796875 21.757812 24.796875 21.757812 24.78125 21.828125 C 24.101562 25.125 22.109375 27.945312 19.3125 29.789062 C 19.273438 29.820312 19.226562 29.84375 19.1875 29.875 C 19.148438 29.898438 19.109375 29.921875 19.078125 29.953125 C 17.367188 31.078125 15.210938 31.75 13.15625 31.765625 C 13.109375 31.765625 13.0625 31.765625 13.007812 31.765625 C 12.851562 31.765625 12.695312 31.765625 12.546875 31.765625 C 12.492188 31.765625 12.4375 31.765625 12.382812 31.765625 C 11.59375 31.765625 10.835938 31.734375 10.0625 31.5625 C 10.015625 31.554688 9.96875 31.546875 9.921875 31.53125 C 6.625 30.851562 3.804688 28.859375 1.960938 26.0625 C 1.929688 26.023438 1.90625 25.976562 1.875 25.9375 C 1.835938 25.882812 1.835938 25.882812 1.796875 25.828125 C 0.671875 24.109375 0 21.945312 -0.015625 19.890625 C -0.015625 19.84375 -0.015625 19.796875 -0.015625 19.742188 C -0.015625 19.578125 -0.015625 19.421875 -0.015625 19.265625 C -0.015625 19.203125 -0.015625 19.148438 -0.015625 19.09375 C -0.015625 18.296875 0.0078125 17.53125 0.1875 16.75 C 0.195312 16.703125 0.210938 16.648438 0.21875 16.601562 C 0.5625 14.960938 1.25 13.351562 2.25 12 C 2.296875 11.9375 2.34375 11.875 2.382812 11.8125 C 4.179688 9.390625 6.75 7.71875 9.671875 7.015625 C 9.726562 7 9.773438 6.984375 9.828125 6.976562 C 10.710938 6.773438 11.578125 6.726562 12.484375 6.734375 Z M 10.1875 8 C 10.140625 8.007812 10.09375 8.023438 10.039062 8.03125 C 8.195312 8.460938 6.21875 9.320312 4.875 10.6875 C 4.875 10.710938 4.875 10.726562 4.875 10.75 C 5.90625 10.75 6.9375 10.75 8 10.75 C 8 11.078125 8 11.40625 8 11.75 C 7.875 11.742188 7.757812 11.742188 7.625 11.734375 C 7.21875 11.71875 6.8125 11.710938 6.398438 11.703125 C 6.15625 11.695312 5.90625 11.6875 5.65625 11.679688 C 4.53125 11.578125 4.53125 11.578125 3.523438 11.945312 C 3.351562 12.132812 3.226562 12.335938 3.117188 12.570312 C 3.046875 12.726562 2.953125 12.859375 2.859375 13 C 2.804688 13.085938 2.757812 13.171875 2.703125 13.265625 C 2.679688 13.3125 2.648438 13.367188 2.625 13.414062 C 1.945312 14.523438 1.945312 14.523438 1.625 15.75 C 6.53125 15.75 11.445312 15.75 16.5 15.75 C 16.5 16.078125 16.5 16.40625 16.5 16.75 C 11.484375 16.75 6.476562 16.75 1.3125 16.75 C 1.078125 17.570312 1.039062 18.367188 1.039062 19.21875 C 1.039062 19.265625 1.039062 19.320312 1.039062 19.375 C 1.046875 20.921875 1.359375 22.3125 1.9375 23.75 C 5.09375 23.75 8.25 23.75 11.5 23.75 C 11.5 24.078125 11.5 24.40625 11.5 24.75 C 8.507812 24.75 5.515625 24.75 2.4375 24.75 C 2.867188 25.507812 2.867188 25.507812 3.375 26.210938 C 3.414062 26.257812 3.445312 26.304688 3.484375 26.351562 C 3.734375 26.671875 4.015625 26.960938 4.3125 27.25 C 4.625 27.5625 4.625 27.5625 4.726562 27.671875 C 4.765625 27.710938 4.804688 27.742188 4.84375 27.78125 C 4.875 27.820312 4.914062 27.851562 4.945312 27.890625 C 4.984375 27.929688 5.023438 27.960938 5.0625 28 C 5.101562 28.039062 5.148438 28.085938 5.1875 28.132812 C 5.453125 28.296875 5.664062 28.28125 5.976562 28.28125 C 6.03125 28.28125 6.09375 28.28125 6.15625 28.28125 C 6.351562 28.28125 6.546875 28.273438 6.742188 28.273438 C 6.882812 28.273438 7.015625 28.273438 7.15625 28.273438 C 7.515625 28.273438 7.875 28.273438 8.234375 28.265625 C 8.601562 28.265625 8.96875 28.265625 9.335938 28.265625 C 10.0625 28.257812 10.78125 28.257812 11.5 28.25 C 11.5 28.578125 11.5 28.90625 11.5 29.25 C 9.992188 29.25 8.492188 29.25 6.9375 29.25 C 8.242188 30.226562 10.28125 30.6875 11.890625 30.703125 C 11.9375 30.703125 11.984375 30.703125 12.03125 30.703125 C 13.460938 30.71875 13.460938 30.71875 14.875 30.5 C 14.929688 30.484375 14.976562 30.476562 15.03125 30.460938 C 15.421875 30.359375 15.804688 30.25 16.1875 30.125 C 16.234375 30.109375 16.273438 30.09375 16.320312 30.078125 C 17.890625 29.5625 19.265625 28.617188 20.476562 27.515625 C 20.515625 27.476562 20.546875 27.445312 20.585938 27.414062 C 20.617188 27.382812 20.65625 27.351562 20.6875 27.3125 C 20.734375 27.273438 20.734375 27.273438 20.78125 27.234375 C 20.914062 27.085938 21.015625 26.914062 21.125 26.75 C 20.257812 26.75 19.390625 26.75 18.5 26.75 C 18.5 26.421875 18.5 26.09375 18.5 25.75 C 18.65625 25.757812 18.65625 25.757812 18.8125 25.757812 C 19.1875 25.765625 19.570312 25.773438 19.945312 25.78125 C 20.109375 25.78125 20.273438 25.789062 20.4375 25.789062 C 20.679688 25.796875 20.914062 25.804688 21.148438 25.804688 C 21.21875 25.804688 21.296875 25.8125 21.367188 25.8125 C 21.75 25.820312 21.75 25.820312 22.0625 25.625 C 22.164062 25.484375 22.242188 25.34375 22.3125 25.1875 C 22.351562 25.117188 22.398438 25.054688 22.4375 24.984375 C 22.960938 24.09375 23.6875 22.804688 23.6875 21.75 C 19.171875 21.75 14.65625 21.75 10 21.75 C 10 21.421875 10 21.09375 10 20.75 C 14.578125 20.75 19.15625 20.75 23.875 20.75 C 23.921875 20.453125 23.945312 20.1875 23.953125 19.890625 C 23.953125 19.84375 23.953125 19.796875 23.953125 19.75 C 23.953125 19.601562 23.953125 19.453125 23.953125 19.296875 C 23.953125 19.25 23.953125 19.195312 23.953125 19.148438 C 23.953125 18.398438 23.921875 17.671875 23.75 16.9375 C 23.742188 16.890625 23.726562 16.84375 23.71875 16.789062 C 23.335938 15.15625 22.640625 13.648438 21.625 12.3125 C 21.601562 12.265625 21.585938 12.21875 21.5625 12.171875 C 21.460938 11.976562 21.375 11.875 21.1875 11.75 C 20.734375 11.640625 20.25 11.6875 19.789062 11.695312 C 19.65625 11.695312 19.515625 11.695312 19.375 11.695312 C 19.015625 11.703125 18.648438 11.703125 18.289062 11.710938 C 17.921875 11.71875 17.546875 11.71875 17.179688 11.71875 C 16.453125 11.726562 15.726562 11.734375 15 11.75 C 15 11.421875 15 11.09375 15 10.75 C 16.6875 10.75 18.382812 10.75 20.125 10.75 C 19.90625 10.476562 19.90625 10.476562 19.65625 10.257812 C 19.617188 10.226562 19.578125 10.195312 19.53125 10.164062 C 19.46875 10.117188 19.46875 10.117188 19.40625 10.070312 C 19.367188 10.039062 19.328125 10.007812 19.28125 9.976562 C 19.148438 9.875 19.015625 9.78125 18.875 9.6875 C 18.828125 9.648438 18.773438 9.609375 18.71875 9.570312 C 18.164062 9.203125 17.679688 9.195312 17.039062 9.210938 C 16.9375 9.210938 16.835938 9.210938 16.734375 9.210938 C 16.460938 9.210938 16.195312 9.21875 15.929688 9.21875 C 15.65625 9.226562 15.382812 9.226562 15.109375 9.226562 C 14.570312 9.234375 14.039062 9.242188 13.5 9.25 C 13.5 8.921875 13.5 8.59375 13.5 8.25 C 14.203125 8.25 14.90625 8.25 15.625 8.25 C 15.429688 8.15625 15.3125 8.101562 15.109375 8.0625 C 15.0625 8.046875 15.007812 8.039062 14.960938 8.03125 C 14.882812 8.015625 14.882812 8.015625 14.796875 8 C 14.75 7.984375 14.695312 7.976562 14.648438 7.960938 C 13.945312 7.820312 13.257812 7.796875 12.539062 7.796875 C 12.492188 7.796875 12.4375 7.796875 12.382812 7.796875 C 11.640625 7.796875 10.921875 7.828125 10.1875 8 Z M 10.1875 8 "/>
        <path style=" stroke:none;fill-rule:nonzero;fill:#ffffff;fill-opacity:1;" d="M 29.375 0.4375 C 29.429688 0.460938 29.429688 0.460938 29.484375 0.484375 C 30.625 0.96875 31.289062 1.695312 31.8125 2.820312 C 32.109375 3.65625 32.164062 4.804688 31.8125 5.625 C 31.789062 5.679688 31.789062 5.679688 31.765625 5.734375 C 31.28125 6.875 30.554688 7.539062 29.429688 8.0625 C 28.59375 8.359375 27.445312 8.414062 26.625 8.0625 C 26.585938 8.046875 26.546875 8.03125 26.515625 8.015625 C 25.375 7.53125 24.710938 6.804688 24.1875 5.679688 C 23.890625 4.84375 23.835938 3.695312 24.1875 2.875 C 24.203125 2.835938 24.21875 2.796875 24.234375 2.765625 C 24.71875 1.625 25.445312 0.960938 26.570312 0.4375 C 27.40625 0.140625 28.554688 0.0859375 29.375 0.4375 Z M 26.0625 2 C 26 2.085938 25.9375 2.164062 25.875 2.25 C 26.078125 2.25 26.289062 2.25 26.5 2.25 C 26.5 2.578125 26.5 2.90625 26.5 3.25 C 26.070312 3.25 25.632812 3.25 25.1875 3.25 C 24.96875 4.015625 24.953125 4.835938 25.3125 5.5625 C 25.796875 6.398438 26.390625 6.867188 27.3125 7.140625 C 27.484375 7.1875 27.632812 7.195312 27.8125 7.1875 C 27.898438 7.046875 27.976562 6.898438 28.0625 6.75 C 27.875 6.75 27.6875 6.75 27.5 6.75 C 27.5 6.421875 27.5 6.09375 27.5 5.75 C 27.875 5.75 28.242188 5.75 28.625 5.75 C 29.039062 4.773438 29.023438 3.8125 28.6875 2.8125 C 28.359375 1.984375 28.359375 1.984375 27.8125 1.3125 C 27.1875 1.234375 26.515625 1.601562 26.0625 2 Z M 29.3125 1.625 C 29.390625 1.875 29.484375 2.117188 29.59375 2.359375 C 30.109375 3.71875 30.023438 5.109375 29.453125 6.429688 C 29.390625 6.578125 29.34375 6.71875 29.3125 6.875 C 29.976562 6.648438 30.46875 6.007812 30.773438 5.398438 C 31.054688 4.6875 31.046875 3.8125 30.773438 3.101562 C 30.46875 2.5 30.023438 1.96875 29.4375 1.625 C 29.398438 1.625 29.351562 1.625 29.3125 1.625 Z M 29.3125 1.625 "/>
        <path style=" stroke:none;fill-rule:nonzero;fill:#ffffff;fill-opacity:1;" d="M 12.5 25.75 C 13.984375 25.75 15.46875 25.75 17 25.75 C 17 26.078125 17 26.40625 17 26.75 C 15.515625 26.75 14.03125 26.75 12.5 26.75 C 12.5 26.421875 12.5 26.09375 12.5 25.75 Z M 12.5 25.75 "/>
        <path style=" stroke:none;fill-rule:nonzero;fill:#ffffff;fill-opacity:1;" d="M 7 13.25 C 8.15625 13.25 9.3125 13.25 10.5 13.25 C 10.5 13.578125 10.5 13.90625 10.5 14.25 C 9.34375 14.25 8.1875 14.25 7 14.25 C 7 13.921875 7 13.59375 7 13.25 Z M 7 13.25 "/>
        <path style=" stroke:none;fill-rule:nonzero;fill:#ffffff;fill-opacity:1;" d="M 6 20.75 C 6.992188 20.75 7.976562 20.75 9 20.75 C 9 21.078125 9 21.40625 9 21.75 C 8.007812 21.75 7.023438 21.75 6 21.75 C 6 21.421875 6 21.09375 6 20.75 Z M 6 20.75 "/>
        <path style=" stroke:none;fill-rule:nonzero;fill:#ffffff;fill-opacity:1;" d="M 17.5 15.75 C 18.492188 15.75 19.476562 15.75 20.5 15.75 C 20.5 16.078125 20.5 16.40625 20.5 16.75 C 19.507812 16.75 18.523438 16.75 17.5 16.75 C 17.5 16.421875 17.5 16.09375 17.5 15.75 Z M 17.5 15.75 "/>
        <path style=" stroke:none;fill-rule:nonzero;fill:#ffffff;fill-opacity:1;" d="M 10 10.75 C 10.65625 10.75 11.320312 10.75 12 10.75 C 12 11.078125 12 11.40625 12 11.75 C 11.34375 11.75 10.679688 11.75 10 11.75 C 10 11.421875 10 11.09375 10 10.75 Z M 10 10.75 "/>
        <path style=" stroke:none;fill-rule:nonzero;fill:#ffffff;fill-opacity:1;" d="M 4 20.75 C 4.328125 20.75 4.65625 20.75 5 20.75 C 5 21.078125 5 21.40625 5 21.75 C 4.671875 21.75 4.34375 21.75 4 21.75 C 4 21.421875 4 21.09375 4 20.75 Z M 4 20.75 "/>
        <path style=" stroke:none;fill-rule:nonzero;fill:#ffffff;fill-opacity:1;" d="M 21.5 15.75 C 21.828125 15.75 22.15625 15.75 22.5 15.75 C 22.5 16.078125 22.5 16.40625 22.5 16.75 C 22.171875 16.75 21.84375 16.75 21.5 16.75 C 21.5 16.421875 21.5 16.09375 21.5 15.75 Z M 21.5 15.75 "/>
        <path style=" stroke:none;fill-rule:nonzero;fill:#ffffff;fill-opacity:1;" d="M 26 4.75 C 26.328125 4.75 26.65625 4.75 27 4.75 C 27 5.078125 27 5.40625 27 5.75 C 26.671875 5.75 26.34375 5.75 26 5.75 C 26 5.421875 26 5.09375 26 4.75 Z M 26 4.75 "/>
        <path style=" stroke:none;fill-rule:nonzero;fill:#ffffff;fill-opacity:1;" d="M 27 3.25 C 27.328125 3.25 27.65625 3.25 28 3.25 C 28 3.578125 28 3.90625 28 4.25 C 27.671875 4.25 27.34375 4.25 27 4.25 C 27 3.921875 27 3.59375 27 3.25 Z M 27 3.25 "/>
    </g>
</svg>