<svg xmlns="http://www.w3.org/2000/svg" xmlns:xlink="http://www.w3.org/1999/xlink" width="32px" height="32px" viewBox="0 0 32 32" version="1.1">
    <g id="surface1">
        <path style=" stroke:none;fill-rule:nonzero;fill:#ffffff;fill-opacity:1;" d="M 18.8125 0.1875 C 18.867188 0.195312 18.929688 0.210938 18.984375 0.21875 C 21.585938 0.695312 24.007812 1.835938 26.0625 3.5 C 26.09375 3.53125 26.132812 3.554688 26.164062 3.585938 C 27.046875 4.296875 27.867188 5.101562 28.5625 6 C 28.609375 6.054688 28.65625 6.117188 28.703125 6.179688 C 30.320312 8.195312 31.351562 10.65625 31.8125 13.1875 C 31.820312 13.242188 31.835938 13.289062 31.84375 13.34375 C 32.171875 15.078125 32.148438 17.085938 31.8125 18.8125 C 31.804688 18.867188 31.789062 18.929688 31.78125 18.984375 C 31.304688 21.585938 30.164062 24.007812 28.5 26.0625 C 28.46875 26.09375 28.445312 26.132812 28.414062 26.164062 C 27.703125 27.046875 26.898438 27.867188 26 28.5625 C 25.945312 28.609375 25.882812 28.65625 25.820312 28.703125 C 23.804688 30.320312 21.34375 31.351562 18.8125 31.8125 C 18.757812 31.820312 18.710938 31.835938 18.65625 31.84375 C 16.921875 32.171875 14.914062 32.148438 13.1875 31.8125 C 13.132812 31.804688 13.070312 31.789062 13.015625 31.78125 C 10.414062 31.304688 7.992188 30.164062 5.9375 28.5 C 5.90625 28.46875 5.867188 28.445312 5.835938 28.414062 C 4.953125 27.703125 4.132812 26.898438 3.4375 26 C 3.390625 25.945312 3.34375 25.882812 3.296875 25.820312 C 1.679688 23.804688 0.648438 21.34375 0.1875 18.8125 C 0.179688 18.757812 0.164062 18.710938 0.15625 18.65625 C -0.171875 16.921875 -0.148438 14.914062 0.1875 13.1875 C 0.195312 13.132812 0.210938 13.070312 0.21875 13.015625 C 0.695312 10.414062 1.835938 7.992188 3.5 5.9375 C 3.53125 5.90625 3.554688 5.867188 3.585938 5.835938 C 4.296875 4.953125 5.101562 4.132812 6 3.4375 C 6.054688 3.390625 6.117188 3.34375 6.179688 3.296875 C 8.195312 1.679688 10.65625 0.648438 13.1875 0.1875 C 13.242188 0.179688 13.289062 0.164062 13.34375 0.15625 C 15.078125 -0.171875 17.085938 -0.148438 18.8125 0.1875 Z M 16.5625 1.0625 C 16.5625 2.054688 16.5625 3.039062 16.5625 4.0625 C 17.039062 4.125 17.507812 4.1875 18 4.25 C 18.242188 4.296875 18.476562 4.34375 18.71875 4.398438 C 18.773438 4.414062 18.828125 4.421875 18.890625 4.4375 C 21.929688 5.179688 24.53125 7.125 26.171875 9.78125 C 27.304688 11.648438 27.90625 13.78125 27.898438 15.960938 C 27.898438 16.007812 27.898438 16.054688 27.898438 16.101562 C 27.890625 19.34375 26.53125 22.34375 24.25 24.625 C 23.28125 25.585938 22.101562 26.289062 20.875 26.875 C 20.804688 26.90625 20.734375 26.945312 20.664062 26.976562 C 19.375 27.570312 17.960938 27.773438 16.5625 27.9375 C 16.5625 28.929688 16.5625 29.914062 16.5625 30.9375 C 19.460938 30.757812 22.179688 29.9375 24.5625 28.25 C 24.65625 28.179688 24.65625 28.179688 24.757812 28.117188 C 25.890625 27.28125 26.953125 26.304688 27.796875 25.171875 C 27.875 25.0625 27.960938 24.953125 28.046875 24.84375 C 30.320312 21.882812 31.304688 17.945312 30.859375 14.25 C 30.492188 11.429688 29.40625 8.84375 27.625 6.625 C 27.601562 6.59375 27.570312 6.5625 27.546875 6.523438 C 26.882812 5.703125 26.148438 4.953125 25.3125 4.3125 C 25.273438 4.28125 25.242188 4.257812 25.203125 4.226562 C 24.617188 3.773438 24.023438 3.359375 23.375 3 C 23.3125 2.960938 23.3125 2.960938 23.242188 2.921875 C 21.15625 1.75 18.9375 1.21875 16.5625 1.0625 Z M 5.328125 5.53125 C 4.984375 5.882812 4.671875 6.242188 4.375 6.625 C 4.3125 6.710938 4.242188 6.789062 4.179688 6.875 C 3.742188 7.429688 3.34375 8 3 8.625 C 2.960938 8.695312 2.960938 8.695312 2.921875 8.757812 C 2.84375 8.898438 2.773438 9.039062 2.695312 9.1875 C 2.671875 9.226562 2.648438 9.265625 2.625 9.3125 C 2.601562 9.351562 2.578125 9.398438 2.5625 9.4375 C 2.539062 9.476562 2.523438 9.507812 2.5 9.546875 C 2.40625 9.757812 2.328125 9.976562 2.25 10.1875 C 4.515625 10.1875 6.789062 10.1875 9.125 10.1875 C 9.125 10.539062 9.125 10.890625 9.125 11.25 C 6.710938 11.25 4.296875 11.25 1.8125 11.25 C 1.515625 12.242188 1.515625 12.242188 1.296875 13.25 C 1.289062 13.304688 1.28125 13.359375 1.265625 13.421875 C 0.78125 16.335938 1.109375 19.296875 2.3125 22 C 5.492188 22 8.664062 22 11.9375 22 C 11.9375 22.351562 11.9375 22.703125 11.9375 23.0625 C 8.945312 23.0625 5.953125 23.0625 2.875 23.0625 C 3.578125 24.828125 5.140625 26.476562 6.625 27.625 C 6.6875 27.671875 6.75 27.726562 6.820312 27.78125 C 8.851562 29.390625 11.25 30.375 13.796875 30.796875 C 13.835938 30.804688 13.882812 30.8125 13.929688 30.820312 C 14.429688 30.898438 14.921875 30.90625 15.4375 30.9375 C 15.4375 22.953125 15.4375 14.976562 15.4375 6.75 C 13.726562 6.75 12.015625 6.75 10.25 6.75 C 10.25 6.398438 10.25 6.046875 10.25 5.6875 C 11.960938 5.6875 13.671875 5.6875 15.4375 5.6875 C 15.4375 4.164062 15.4375 2.632812 15.4375 1.0625 C 11.640625 1.0625 7.976562 2.898438 5.328125 5.53125 Z M 16.5625 5.1875 C 16.5625 6.421875 16.5625 7.664062 16.5625 8.9375 C 16.765625 8.976562 16.976562 9.023438 17.1875 9.0625 C 19.09375 9.5 20.773438 10.429688 21.867188 12.09375 C 22.890625 13.757812 23.296875 15.710938 22.84375 17.625 C 22.40625 19.351562 21.398438 20.890625 19.898438 21.875 C 18.953125 22.4375 17.992188 22.796875 16.898438 22.960938 C 16.695312 22.984375 16.695312 22.984375 16.5625 23.0625 C 16.5625 24.296875 16.5625 25.539062 16.5625 26.8125 C 17.039062 26.8125 17.445312 26.796875 17.90625 26.710938 C 17.992188 26.695312 17.992188 26.695312 18.085938 26.679688 C 19.953125 26.3125 21.664062 25.460938 23.09375 24.210938 C 23.179688 24.132812 23.265625 24.054688 23.359375 23.976562 C 25.414062 22.179688 26.640625 19.507812 26.851562 16.804688 C 27.03125 13.804688 26.046875 10.984375 24.070312 8.726562 C 23.648438 8.242188 23.195312 7.835938 22.6875 7.4375 C 22.648438 7.40625 22.609375 7.375 22.570312 7.34375 C 21.578125 6.5625 20.445312 6.007812 19.25 5.625 C 19.179688 5.601562 19.109375 5.578125 19.039062 5.554688 C 18.632812 5.429688 18.21875 5.335938 17.796875 5.265625 C 17.757812 5.257812 17.710938 5.25 17.664062 5.242188 C 17.289062 5.179688 16.960938 5.1875 16.5625 5.1875 Z M 16.5625 10.0625 C 16.5625 13.984375 16.5625 17.898438 16.5625 21.9375 C 17.875 21.804688 19.023438 21.34375 20 20.4375 C 20.054688 20.390625 20.109375 20.34375 20.164062 20.289062 C 21.335938 19.179688 21.914062 17.695312 22 16.09375 C 22.03125 14.585938 21.460938 13.101562 20.4375 12 C 20.367188 11.921875 20.367188 11.921875 20.289062 11.835938 C 19.289062 10.78125 18 10.203125 16.5625 10.0625 Z M 16.5625 10.0625 "/>
        <path style=" stroke:none;fill-rule:nonzero;fill:#ffffff;fill-opacity:1;" d="M 9.4375 17.875 C 10.671875 17.875 11.914062 17.875 13.1875 17.875 C 13.1875 18.25 13.1875 18.617188 13.1875 19 C 11.953125 19 10.710938 19 9.4375 19 C 9.4375 18.625 9.4375 18.257812 9.4375 17.875 Z M 9.4375 17.875 "/>
        <path style=" stroke:none;fill-rule:nonzero;fill:#ffffff;fill-opacity:1;" d="M 4.9375 14.25 C 6.054688 14.25 7.164062 14.25 8.3125 14.25 C 8.3125 14.601562 8.3125 14.953125 8.3125 15.3125 C 7.195312 15.3125 6.085938 15.3125 4.9375 15.3125 C 4.9375 14.960938 4.9375 14.609375 4.9375 14.25 Z M 4.9375 14.25 "/>
        <path style=" stroke:none;fill-rule:nonzero;fill:#ffffff;fill-opacity:1;" d="M 11.0625 26.4375 C 11.890625 26.4375 12.710938 26.4375 13.5625 26.4375 C 13.5625 26.8125 13.5625 27.179688 13.5625 27.5625 C 12.734375 27.5625 11.914062 27.5625 11.0625 27.5625 C 11.0625 27.1875 11.0625 26.820312 11.0625 26.4375 Z M 11.0625 26.4375 "/>
        <path style=" stroke:none;fill-rule:nonzero;fill:#ffffff;fill-opacity:1;" d="M 10.6875 10.1875 C 11.515625 10.1875 12.335938 10.1875 13.1875 10.1875 C 13.1875 10.539062 13.1875 10.890625 13.1875 11.25 C 12.359375 11.25 11.539062 11.25 10.6875 11.25 C 10.6875 10.898438 10.6875 10.546875 10.6875 10.1875 Z M 10.6875 10.1875 "/>
    </g>
</svg>