<svg xmlns="http://www.w3.org/2000/svg" xmlns:xlink="http://www.w3.org/1999/xlink" width="32px" height="32px" viewBox="0 0 32 32" version="1.1">
<g id="surface1">
<path style=" stroke:none;fill-rule:nonzero;fill:#ffffff;fill-opacity:1;" d="M 30.792969 0.753906 C 31.5 1.355469 31.84375 2.089844 32 3 C 32.0625 4.042969 32.023438 5.054688 31.75 6.0625 C 31.738281 6.113281 31.722656 6.160156 31.710938 6.210938 C 31.09375 8.558594 29.902344 10.679688 28.644531 12.730469 C 28.609375 12.785156 28.578125 12.839844 28.542969 12.898438 C 28.4375 13.0625 28.4375 13.0625 28.3125 13.230469 C 28.035156 13.613281 27.957031 13.851562 28.027344 14.316406 C 28.039062 14.382812 28.054688 14.449219 28.066406 14.519531 C 28.089844 14.664062 28.109375 14.808594 28.128906 14.949219 C 28.140625 15.023438 28.152344 15.09375 28.160156 15.167969 C 28.519531 18.035156 27.480469 21.148438 25.757812 23.417969 C 25.453125 23.808594 25.121094 24.175781 24.777344 24.53125 C 24.695312 24.617188 24.617188 24.703125 24.539062 24.785156 C 22.632812 26.789062 19.609375 28.132812 16.851562 28.203125 C 16.570312 28.210938 16.289062 28.210938 16.007812 28.210938 C 15.953125 28.210938 15.898438 28.210938 15.84375 28.210938 C 15.320312 28.210938 14.8125 28.203125 14.296875 28.121094 C 13.832031 28.050781 13.511719 28.039062 13.113281 28.316406 C 13.0625 28.359375 13.011719 28.398438 12.960938 28.4375 C 12.84375 28.519531 12.726562 28.601562 12.609375 28.683594 C 12.523438 28.746094 12.523438 28.746094 12.429688 28.8125 C 12.132812 29.019531 11.820312 29.199219 11.503906 29.382812 C 11.441406 29.417969 11.378906 29.457031 11.3125 29.492188 C 9.738281 30.394531 8.078125 31.234375 6.3125 31.6875 C 6.253906 31.703125 6.199219 31.71875 6.140625 31.734375 C 4.84375 32.058594 3.335938 32.261719 2.0625 31.75 C 1.996094 31.726562 1.933594 31.699219 1.863281 31.675781 C 1.09375 31.335938 0.542969 30.726562 0.234375 29.945312 C -0.605469 27.453125 0.46875 24.675781 1.5625 22.4375 C 1.585938 22.390625 1.609375 22.34375 1.632812 22.292969 C 2.074219 21.375 2.570312 20.492188 3.105469 19.625 C 3.136719 19.570312 3.171875 19.519531 3.203125 19.464844 C 3.253906 19.386719 3.253906 19.386719 3.300781 19.308594 C 3.332031 19.257812 3.363281 19.207031 3.398438 19.152344 C 3.5 19 3.5 19 3.625 18.855469 C 3.882812 18.542969 3.964844 18.34375 3.9375 17.9375 C 3.917969 17.78125 3.894531 17.621094 3.871094 17.460938 C 3.855469 17.335938 3.839844 17.207031 3.824219 17.082031 C 3.808594 16.960938 3.792969 16.835938 3.777344 16.714844 C 3.453125 14.03125 4.457031 11.101562 6 8.9375 C 6.027344 8.902344 6.050781 8.863281 6.078125 8.828125 C 6.445312 8.316406 6.859375 7.851562 7.292969 7.398438 C 7.363281 7.324219 7.433594 7.25 7.503906 7.175781 C 9.5 5.082031 12.570312 3.828125 15.4375 3.75 C 15.550781 3.746094 15.550781 3.746094 15.667969 3.742188 C 16.261719 3.730469 16.84375 3.78125 17.4375 3.839844 C 17.488281 3.847656 17.539062 3.851562 17.59375 3.855469 C 17.699219 3.871094 17.808594 3.882812 17.914062 3.902344 C 18.222656 3.949219 18.417969 3.964844 18.683594 3.769531 C 18.71875 3.742188 18.75 3.714844 18.785156 3.6875 C 18.867188 3.628906 18.945312 3.570312 19.027344 3.511719 C 19.074219 3.480469 19.117188 3.449219 19.164062 3.414062 C 21.890625 1.527344 27.597656 -1.710938 30.792969 0.753906 Z M 19.75 4.25 C 19.730469 4.292969 19.707031 4.332031 19.6875 4.375 C 19.738281 4.394531 19.738281 4.394531 19.792969 4.414062 C 19.949219 4.46875 20.109375 4.527344 20.265625 4.585938 C 20.320312 4.605469 20.375 4.625 20.429688 4.644531 C 20.484375 4.664062 20.535156 4.683594 20.589844 4.703125 C 20.640625 4.722656 20.6875 4.738281 20.738281 4.757812 C 20.875 4.8125 20.875 4.8125 20.996094 4.886719 C 21.183594 4.960938 21.304688 4.925781 21.5 4.875 C 21.6875 4.789062 21.6875 4.789062 21.875 4.675781 C 21.945312 4.636719 22.019531 4.59375 22.089844 4.550781 C 22.128906 4.53125 22.167969 4.507812 22.207031 4.484375 C 24.039062 3.433594 26.550781 2.050781 28.75 2.472656 C 29.007812 2.542969 29.199219 2.601562 29.375 2.8125 C 29.933594 4.175781 29.269531 5.964844 28.75 7.25 C 27.976562 9.078125 27.003906 10.804688 25.875 12.4375 C 25.839844 12.484375 25.808594 12.535156 25.773438 12.585938 C 25.324219 13.238281 24.867188 13.878906 24.375 14.5 C 24.320312 14.570312 24.261719 14.644531 24.207031 14.714844 C 23.898438 15.117188 23.578125 15.507812 23.25 15.894531 C 23.070312 16.105469 22.894531 16.316406 22.722656 16.53125 C 22.480469 16.828125 22.226562 17.109375 21.964844 17.390625 C 21.796875 17.570312 21.632812 17.75 21.46875 17.933594 C 20.84375 18.652344 20.175781 19.332031 19.503906 20.003906 C 19.46875 20.039062 19.4375 20.070312 19.402344 20.105469 C 19.066406 20.445312 18.726562 20.777344 18.367188 21.085938 C 18.15625 21.269531 17.960938 21.460938 17.761719 21.648438 C 17.429688 21.960938 17.09375 22.261719 16.738281 22.542969 C 16.523438 22.71875 16.316406 22.902344 16.105469 23.085938 C 15.707031 23.433594 15.296875 23.765625 14.875 24.089844 C 14.734375 24.199219 14.597656 24.308594 14.457031 24.417969 C 13.695312 25.007812 12.914062 25.550781 12.109375 26.078125 C 11.957031 26.175781 11.804688 26.277344 11.652344 26.375 C 10.972656 26.824219 10.273438 27.230469 9.5625 27.625 C 9.507812 27.65625 9.449219 27.6875 9.390625 27.71875 C 7.628906 28.691406 5.175781 29.960938 3.078125 29.480469 C 2.867188 29.417969 2.765625 29.355469 2.625 29.1875 C 2.089844 28.097656 2.570312 26.597656 2.933594 25.527344 C 3.382812 24.25 3.972656 23.03125 4.671875 21.875 C 4.707031 21.8125 4.746094 21.753906 4.78125 21.691406 C 4.8125 21.640625 4.84375 21.585938 4.878906 21.535156 C 4.980469 21.261719 4.894531 21.050781 4.792969 20.789062 C 4.757812 20.714844 4.726562 20.640625 4.691406 20.566406 C 4.558594 20.273438 4.457031 19.996094 4.375 19.6875 C 4.113281 19.917969 3.957031 20.195312 3.78125 20.492188 C 3.75 20.546875 3.714844 20.601562 3.683594 20.660156 C 2.390625 22.855469 1.148438 25.230469 0.9375 27.8125 C 0.933594 27.867188 0.929688 27.921875 0.925781 27.976562 C 0.890625 28.785156 1.078125 29.664062 1.632812 30.269531 C 2.328125 30.921875 3.132812 31.066406 4.0625 31.0625 C 7.492188 30.875 10.90625 28.75 13.625 26.8125 C 13.671875 26.78125 13.714844 26.746094 13.761719 26.714844 C 14.371094 26.28125 14.972656 25.835938 15.5625 25.375 C 15.632812 25.320312 15.703125 25.265625 15.777344 25.210938 C 16.191406 24.886719 16.597656 24.554688 16.996094 24.207031 C 17.210938 24.023438 17.429688 23.839844 17.652344 23.664062 C 18.027344 23.359375 18.371094 23.03125 18.722656 22.703125 C 18.882812 22.550781 19.042969 22.40625 19.210938 22.261719 C 19.433594 22.070312 19.640625 21.863281 19.84375 21.648438 C 19.972656 21.527344 20.101562 21.410156 20.234375 21.292969 C 20.503906 21.0625 20.753906 20.816406 21.003906 20.566406 C 21.046875 20.523438 21.085938 20.484375 21.128906 20.441406 C 21.378906 20.191406 21.613281 19.9375 21.839844 19.671875 C 21.960938 19.535156 22.085938 19.410156 22.21875 19.28125 C 22.429688 19.074219 22.628906 18.859375 22.820312 18.632812 C 22.957031 18.476562 23.101562 18.324219 23.242188 18.167969 C 23.5 17.886719 23.742188 17.597656 23.980469 17.304688 C 24.105469 17.148438 24.238281 16.996094 24.367188 16.839844 C 24.773438 16.367188 25.152344 15.871094 25.53125 15.375 C 25.613281 15.265625 25.699219 15.15625 25.785156 15.046875 C 28.324219 11.800781 31.273438 7.425781 31 3.125 C 30.914062 2.476562 30.582031 1.867188 30.070312 1.460938 C 27.175781 -0.394531 22.085938 2.554688 19.75 4.25 Z M 22.4375 5.4375 C 22.4375 5.5 22.4375 5.5625 22.4375 5.625 C 22.582031 5.734375 22.730469 5.835938 22.882812 5.933594 C 23.394531 6.273438 23.859375 6.644531 24.3125 7.0625 C 24.367188 7.113281 24.367188 7.113281 24.421875 7.164062 C 25.207031 7.894531 25.839844 8.738281 26.4375 9.625 C 27.671875 8.210938 28.558594 5.6875 28.625 3.8125 C 28.613281 3.59375 28.613281 3.59375 28.5625 3.4375 C 26.988281 2.648438 23.742188 4.742188 22.4375 5.4375 Z M 10.75 6.0625 C 10.75 6.082031 10.75 6.105469 10.75 6.125 C 10.863281 6.125 10.863281 6.125 10.976562 6.128906 C 14.550781 6.175781 17.894531 6.625 21.3125 7.6875 C 21.464844 7.734375 21.621094 7.78125 21.773438 7.828125 C 21.875 7.859375 21.875 7.859375 21.976562 7.890625 C 22.027344 7.90625 22.074219 7.921875 22.125 7.9375 C 21.789062 8.039062 21.457031 8.109375 21.109375 8.167969 C 21.054688 8.179688 20.996094 8.1875 20.9375 8.199219 C 20.75 8.230469 20.558594 8.265625 20.371094 8.296875 C 20.234375 8.320312 20.097656 8.34375 19.960938 8.367188 C 19.589844 8.429688 19.222656 8.496094 18.851562 8.558594 C 18.460938 8.625 18.074219 8.695312 17.683594 8.761719 C 17.03125 8.875 16.378906 8.988281 15.726562 9.101562 C 15.054688 9.214844 14.386719 9.332031 13.71875 9.445312 C 13.65625 9.457031 13.65625 9.457031 13.59375 9.46875 C 13.386719 9.503906 13.179688 9.539062 12.972656 9.574219 C 11.957031 9.75 10.9375 9.925781 9.921875 10.101562 C 9.847656 10.117188 9.777344 10.128906 9.703125 10.140625 C 8.808594 10.296875 8.808594 10.296875 8.507812 10.347656 C 8.390625 10.367188 8.273438 10.386719 8.152344 10.410156 C 7.84375 10.464844 7.535156 10.515625 7.222656 10.5625 C 7.160156 10.574219 7.09375 10.582031 7.023438 10.59375 C 6.898438 10.613281 6.773438 10.632812 6.648438 10.652344 C 6.3125 10.703125 6.3125 10.703125 6.027344 10.875 C 5.945312 10.988281 5.878906 11.09375 5.820312 11.222656 C 5.800781 11.261719 5.78125 11.300781 5.761719 11.34375 C 5.746094 11.382812 5.726562 11.425781 5.707031 11.46875 C 5.6875 11.511719 5.667969 11.550781 5.648438 11.59375 C 5.558594 11.789062 5.484375 11.976562 5.4375 12.1875 C 6.019531 12.121094 6.601562 12.050781 7.183594 11.976562 C 10.238281 11.582031 13.273438 11.347656 16.351562 11.355469 C 16.519531 11.355469 16.6875 11.355469 16.851562 11.355469 C 19.242188 11.359375 21.609375 11.476562 23.988281 11.734375 C 24.035156 11.738281 24.085938 11.742188 24.136719 11.75 C 24.226562 11.757812 24.316406 11.769531 24.40625 11.777344 C 24.765625 11.820312 24.765625 11.820312 25.125 11.8125 C 25.230469 11.734375 25.230469 11.734375 25.292969 11.617188 C 25.320312 11.574219 25.347656 11.535156 25.375 11.492188 C 25.414062 11.425781 25.414062 11.425781 25.453125 11.359375 C 25.480469 11.316406 25.507812 11.273438 25.535156 11.230469 C 25.609375 11.113281 25.679688 10.996094 25.75 10.875 C 25.789062 10.8125 25.789062 10.8125 25.828125 10.75 C 25.84375 10.707031 25.859375 10.667969 25.875 10.625 C 25.792969 10.457031 25.710938 10.316406 25.609375 10.160156 C 25.582031 10.117188 25.550781 10.070312 25.523438 10.027344 C 25.054688 9.316406 24.523438 8.675781 23.9375 8.0625 C 23.875 7.996094 23.875 7.996094 23.8125 7.929688 C 21.894531 5.914062 18.972656 4.820312 16.230469 4.742188 C 14.324219 4.734375 12.429688 5.148438 10.75 6.0625 Z M 9.515625 7.167969 C 9.460938 7.171875 9.410156 7.175781 9.355469 7.179688 C 8.859375 7.226562 8.589844 7.46875 8.273438 7.839844 C 8.1875 7.941406 8.09375 8.03125 7.996094 8.121094 C 7.664062 8.4375 7.359375 8.769531 7.078125 9.132812 C 7.050781 9.167969 7.023438 9.203125 6.996094 9.238281 C 6.855469 9.414062 6.855469 9.414062 6.8125 9.625 C 7.382812 9.585938 7.941406 9.496094 8.507812 9.398438 C 8.605469 9.378906 8.707031 9.363281 8.804688 9.34375 C 9.074219 9.300781 9.34375 9.253906 9.613281 9.207031 C 9.78125 9.179688 9.949219 9.148438 10.117188 9.121094 C 10.703125 9.019531 11.289062 8.917969 11.875 8.816406 C 12.421875 8.722656 12.96875 8.628906 13.515625 8.535156 C 13.984375 8.453125 14.453125 8.375 14.921875 8.292969 C 15.203125 8.242188 15.484375 8.195312 15.765625 8.148438 C 16.027344 8.101562 16.289062 8.058594 16.554688 8.011719 C 16.648438 7.996094 16.746094 7.976562 16.84375 7.960938 C 16.976562 7.941406 17.105469 7.917969 17.238281 7.894531 C 17.3125 7.878906 17.386719 7.867188 17.460938 7.855469 C 17.515625 7.839844 17.570312 7.828125 17.625 7.8125 C 17.644531 7.769531 17.667969 7.730469 17.6875 7.6875 C 16.585938 7.480469 15.488281 7.296875 14.375 7.1875 C 14.292969 7.179688 14.292969 7.179688 14.207031 7.167969 C 13.527344 7.105469 12.839844 7.113281 12.15625 7.113281 C 11.941406 7.113281 11.722656 7.113281 11.503906 7.109375 C 10.839844 7.109375 10.175781 7.117188 9.515625 7.167969 Z M 11.097656 12.484375 C 10.9375 12.5 10.777344 12.511719 10.617188 12.527344 C 9.066406 12.65625 7.523438 12.867188 5.980469 13.09375 C 5.921875 13.101562 5.867188 13.113281 5.804688 13.121094 C 5.753906 13.128906 5.699219 13.136719 5.644531 13.144531 C 5.574219 13.15625 5.574219 13.15625 5.503906 13.164062 C 5.375 13.1875 5.25 13.214844 5.125 13.25 C 5.085938 13.457031 5.042969 13.664062 5.003906 13.871094 C 4.992188 13.929688 4.980469 13.988281 4.96875 14.046875 C 4.871094 14.554688 4.804688 15.046875 4.808594 15.566406 C 4.808594 15.636719 4.808594 15.707031 4.808594 15.78125 C 4.8125 15.832031 4.8125 15.882812 4.8125 15.9375 C 5.578125 16.191406 6.574219 16.078125 7.375 16.078125 C 7.46875 16.078125 7.46875 16.078125 7.566406 16.078125 C 9.597656 16.074219 11.574219 15.832031 13.554688 15.363281 C 13.636719 15.347656 13.714844 15.328125 13.800781 15.308594 C 14.386719 15.167969 14.972656 15.023438 15.558594 14.875 C 15.601562 14.863281 15.640625 14.851562 15.683594 14.84375 C 16.066406 14.746094 16.445312 14.648438 16.824219 14.550781 C 18.535156 14.113281 20.300781 13.660156 22.082031 13.691406 C 22.273438 13.695312 22.464844 13.695312 22.652344 13.695312 C 22.792969 13.699219 22.933594 13.707031 23.070312 13.710938 C 23.519531 13.726562 23.519531 13.726562 23.917969 13.542969 C 24.261719 13.1875 24.261719 13.1875 24.4375 12.75 C 23.496094 12.621094 22.554688 12.53125 21.609375 12.460938 C 21.53125 12.457031 21.53125 12.457031 21.453125 12.449219 C 21.09375 12.421875 20.734375 12.398438 20.375 12.375 C 20.328125 12.371094 20.28125 12.367188 20.230469 12.367188 C 19.035156 12.289062 17.839844 12.296875 16.640625 12.296875 C 16.585938 12.296875 16.527344 12.296875 16.472656 12.296875 C 14.675781 12.296875 12.890625 12.328125 11.097656 12.484375 Z M 15.550781 15.851562 C 13.863281 16.300781 12.171875 16.667969 10.4375 16.875 C 10.378906 16.882812 10.316406 16.890625 10.253906 16.898438 C 9.308594 17.007812 8.363281 17.011719 7.414062 17.011719 C 7.351562 17.011719 7.292969 17.011719 7.230469 17.011719 C 6.421875 17.011719 5.617188 16.988281 4.8125 16.9375 C 4.90625 18.023438 5.109375 19.074219 5.53125 20.085938 C 5.625 20.3125 5.625 20.3125 5.6875 20.535156 C 5.761719 20.765625 5.820312 20.894531 6 21.0625 C 6.359375 21.195312 6.753906 21.203125 7.132812 21.234375 C 7.421875 21.261719 7.707031 21.308594 7.992188 21.363281 C 8.050781 21.375 8.105469 21.382812 8.164062 21.394531 C 9.644531 21.679688 11.058594 22.15625 12.449219 22.738281 C 12.496094 22.757812 12.542969 22.777344 12.59375 22.796875 C 12.832031 22.898438 13.070312 23 13.304688 23.101562 C 13.394531 23.136719 13.480469 23.175781 13.566406 23.210938 C 13.605469 23.230469 13.644531 23.246094 13.683594 23.265625 C 13.917969 23.363281 14.070312 23.398438 14.3125 23.3125 C 14.457031 23.203125 14.589844 23.089844 14.726562 22.96875 C 14.804688 22.898438 14.882812 22.832031 14.960938 22.761719 C 15 22.726562 15.039062 22.691406 15.078125 22.65625 C 15.226562 22.53125 15.375 22.40625 15.527344 22.285156 C 16.160156 21.773438 16.769531 21.230469 17.375 20.6875 C 17.234375 20.546875 17.183594 20.539062 16.992188 20.503906 C 16.9375 20.496094 16.882812 20.484375 16.824219 20.476562 C 16.734375 20.460938 16.734375 20.460938 16.644531 20.445312 C 16.582031 20.433594 16.519531 20.421875 16.453125 20.410156 C 16.246094 20.375 16.039062 20.339844 15.828125 20.304688 C 15.683594 20.277344 15.542969 20.253906 15.398438 20.230469 C 15.015625 20.164062 14.636719 20.097656 14.257812 20.03125 C 13.871094 19.964844 13.480469 19.898438 13.09375 19.832031 C 12.335938 19.699219 11.574219 19.566406 10.8125 19.4375 C 11.019531 19.367188 11.226562 19.296875 11.433594 19.230469 C 11.519531 19.199219 11.519531 19.199219 11.609375 19.171875 C 12.140625 18.992188 12.671875 18.835938 13.210938 18.6875 C 13.257812 18.675781 13.304688 18.660156 13.355469 18.648438 C 15.496094 18.058594 17.664062 17.625 19.878906 17.433594 C 20.550781 17.382812 20.550781 17.382812 21.070312 16.984375 C 21.117188 16.929688 21.167969 16.871094 21.214844 16.816406 C 21.292969 16.722656 21.292969 16.722656 21.375 16.625 C 21.433594 16.554688 21.492188 16.488281 21.554688 16.417969 C 21.710938 16.234375 21.871094 16.046875 22.027344 15.863281 C 22.125 15.75 22.222656 15.636719 22.320312 15.523438 C 22.378906 15.453125 22.441406 15.378906 22.503906 15.308594 C 22.546875 15.257812 22.546875 15.257812 22.589844 15.210938 C 22.746094 15.023438 22.882812 14.835938 23 14.625 C 20.441406 14.550781 18.003906 15.199219 15.550781 15.851562 Z M 26.9375 15.125 C 26.855469 15.210938 26.855469 15.210938 26.773438 15.328125 C 26.738281 15.371094 26.707031 15.414062 26.671875 15.457031 C 26.636719 15.503906 26.601562 15.554688 26.566406 15.601562 C 26.492188 15.699219 26.421875 15.796875 26.347656 15.894531 C 26.308594 15.941406 26.273438 15.992188 26.234375 16.042969 C 26.042969 16.292969 25.847656 16.542969 25.652344 16.789062 C 25.53125 16.941406 25.417969 17.089844 25.3125 17.25 C 25.519531 17.269531 25.730469 17.292969 25.9375 17.3125 C 25.996094 17.320312 26.054688 17.324219 26.113281 17.332031 C 26.453125 17.363281 26.785156 17.382812 27.125 17.375 C 27.242188 16.238281 27.242188 16.238281 27.0625 15.125 C 27.019531 15.125 26.980469 15.125 26.9375 15.125 Z M 23.980469 18.707031 C 23.945312 18.761719 23.910156 18.816406 23.875 18.875 C 23.804688 18.957031 23.734375 19.039062 23.664062 19.117188 C 23.628906 19.15625 23.59375 19.195312 23.558594 19.238281 C 23.375 19.445312 23.1875 19.648438 23 19.851562 C 22.855469 20.003906 22.71875 20.160156 22.582031 20.324219 C 22.535156 20.382812 22.488281 20.441406 22.4375 20.5 C 22.894531 20.582031 23.351562 20.660156 23.808594 20.742188 C 23.964844 20.765625 24.121094 20.792969 24.273438 20.820312 C 24.5 20.863281 24.722656 20.902344 24.945312 20.9375 C 25.015625 20.953125 25.085938 20.964844 25.15625 20.976562 C 25.222656 20.988281 25.285156 21 25.355469 21.011719 C 25.410156 21.019531 25.46875 21.03125 25.527344 21.042969 C 25.6875 21.0625 25.839844 21.066406 26 21.0625 C 26.257812 20.605469 26.445312 20.144531 26.609375 19.648438 C 26.628906 19.59375 26.644531 19.539062 26.664062 19.484375 C 26.785156 19.117188 26.871094 18.753906 26.9375 18.375 C 26.542969 18.324219 26.148438 18.285156 25.75 18.25 C 25.691406 18.246094 25.632812 18.238281 25.574219 18.234375 C 24.652344 18.144531 24.652344 18.144531 23.980469 18.707031 Z M 18.679688 18.507812 C 18.605469 18.519531 18.605469 18.519531 18.53125 18.53125 C 18.375 18.554688 18.222656 18.582031 18.066406 18.605469 C 18.011719 18.613281 17.960938 18.621094 17.90625 18.632812 C 17.242188 18.738281 16.578125 18.847656 15.917969 18.984375 C 15.855469 18.996094 15.792969 19.007812 15.730469 19.023438 C 15.648438 19.039062 15.648438 19.039062 15.5625 19.058594 C 15.492188 19.074219 15.492188 19.074219 15.417969 19.089844 C 15.300781 19.117188 15.300781 19.117188 15.25 19.25 C 15.652344 19.324219 16.058594 19.394531 16.460938 19.46875 C 16.597656 19.492188 16.734375 19.515625 16.875 19.542969 C 17.070312 19.578125 17.269531 19.613281 17.464844 19.648438 C 17.527344 19.65625 17.589844 19.667969 17.652344 19.679688 C 17.707031 19.691406 17.765625 19.699219 17.824219 19.710938 C 17.875 19.71875 17.925781 19.730469 17.976562 19.738281 C 18.226562 19.757812 18.386719 19.726562 18.582031 19.574219 C 18.628906 19.523438 18.679688 19.472656 18.726562 19.421875 C 18.78125 19.371094 18.832031 19.316406 18.886719 19.261719 C 18.941406 19.207031 18.996094 19.152344 19.050781 19.09375 C 19.105469 19.039062 19.160156 18.980469 19.21875 18.925781 C 19.476562 18.707031 19.476562 18.707031 19.625 18.4375 C 19.300781 18.429688 18.996094 18.457031 18.679688 18.507812 Z M 21.210938 21.660156 C 21.175781 21.699219 21.144531 21.738281 21.109375 21.78125 C 21.035156 21.863281 20.960938 21.945312 20.886719 22.027344 C 20.851562 22.066406 20.816406 22.105469 20.78125 22.144531 C 20.667969 22.269531 20.546875 22.382812 20.414062 22.492188 C 20.246094 22.632812 20.089844 22.78125 19.9375 22.9375 C 19.738281 23.136719 19.535156 23.324219 19.320312 23.507812 C 19.171875 23.640625 19.023438 23.773438 18.878906 23.90625 C 18.597656 24.160156 18.304688 24.398438 18 24.625 C 18.019531 24.667969 18.042969 24.707031 18.0625 24.75 C 19.648438 25.179688 22.105469 25.085938 23.5625 24.3125 C 23.714844 24.191406 23.847656 24.058594 23.984375 23.917969 C 24.023438 23.878906 24.058594 23.839844 24.097656 23.800781 C 24.472656 23.414062 24.804688 22.996094 25.125 22.5625 C 25.152344 22.523438 25.183594 22.484375 25.214844 22.445312 C 25.378906 22.242188 25.378906 22.242188 25.4375 22 C 25.007812 21.921875 24.574219 21.839844 24.144531 21.761719 C 23.996094 21.738281 23.851562 21.710938 23.703125 21.683594 C 23.492188 21.644531 23.28125 21.605469 23.070312 21.566406 C 23.003906 21.554688 22.941406 21.542969 22.875 21.53125 C 22.550781 21.472656 22.230469 21.421875 21.90625 21.386719 C 21.847656 21.382812 21.785156 21.375 21.722656 21.367188 C 21.480469 21.378906 21.371094 21.484375 21.210938 21.660156 Z M 6.625 22.125 C 7.546875 23.710938 9.046875 25.066406 10.6875 25.875 C 10.953125 25.695312 11.222656 25.515625 11.488281 25.335938 C 11.578125 25.273438 11.667969 25.210938 11.757812 25.152344 C 12.457031 24.691406 12.457031 24.691406 13.125 24.1875 C 13.125 24.144531 13.125 24.105469 13.125 24.0625 C 11.027344 23.179688 8.917969 22.324219 6.625 22.125 Z M 5.5 22.3125 C 3.871094 25.214844 3.871094 25.214844 3.375 28.4375 C 3.394531 28.480469 3.417969 28.519531 3.4375 28.5625 C 4.914062 29.054688 7.234375 27.753906 8.5 27.125 C 8.878906 26.925781 9.253906 26.714844 9.625 26.5 C 9.410156 26.273438 9.195312 26.101562 8.9375 25.929688 C 7.640625 25.054688 6.554688 23.910156 5.734375 22.578125 C 5.675781 22.488281 5.621094 22.402344 5.5625 22.3125 C 5.542969 22.3125 5.519531 22.3125 5.5 22.3125 Z M 16.320312 26.015625 C 16.046875 26.242188 15.761719 26.449219 15.480469 26.660156 C 15.363281 26.746094 15.25 26.835938 15.132812 26.921875 C 15.058594 26.976562 15.058594 26.976562 14.984375 27.035156 C 14.945312 27.066406 14.910156 27.09375 14.875 27.125 C 14.875 27.144531 14.875 27.167969 14.875 27.1875 C 16.605469 27.242188 16.605469 27.242188 18.3125 27 C 18.363281 26.988281 18.414062 26.976562 18.46875 26.960938 C 19.425781 26.722656 20.371094 26.394531 21.25 25.9375 C 21.25 25.917969 21.25 25.894531 21.25 25.875 C 21.183594 25.875 21.121094 25.875 21.050781 25.871094 C 18.863281 25.839844 18.863281 25.839844 18.140625 25.722656 C 18.09375 25.714844 18.042969 25.707031 17.992188 25.699219 C 17.804688 25.664062 17.625 25.625 17.441406 25.5625 C 16.941406 25.398438 16.679688 25.703125 16.320312 26.015625 Z M 16.320312 26.015625 "/>
<path style=" stroke:none;fill-rule:nonzero;fill:#ffffff;fill-opacity:1;" d="M 10.5 13.75 C 10.828125 13.75 11.160156 13.75 11.5 13.75 C 11.5 14.078125 11.5 14.410156 11.5 14.75 C 11.171875 14.75 10.839844 14.75 10.5 14.75 C 10.5 14.421875 10.5 14.089844 10.5 13.75 Z M 10.5 13.75 "/>
<path style=" stroke:none;fill-rule:nonzero;fill:#ffffff;fill-opacity:1;" d="M 8.625 13.75 C 8.953125 13.75 9.285156 13.75 9.625 13.75 C 9.625 14.078125 9.625 14.410156 9.625 14.75 C 9.296875 14.75 8.964844 14.75 8.625 14.75 C 8.625 14.421875 8.625 14.089844 8.625 13.75 Z M 8.625 13.75 "/>
</g>
</svg>