<svg xmlns="http://www.w3.org/2000/svg" xmlns:xlink="http://www.w3.org/1999/xlink" width="32px" height="32px" viewBox="0 0 32 32" version="1.1">
    <g id="surface1">
        <path style=" stroke:none;fill-rule:nonzero;fill:#ffffff;fill-opacity:1;" d="M 30.789062 0.757812 C 31.5 1.359375 31.84375 2.085938 32 3 C 32.0625 4.046875 32.023438 5.054688 31.75 6.0625 C 31.734375 6.109375 31.726562 6.164062 31.710938 6.210938 C 31.09375 8.554688 29.90625 10.679688 28.640625 12.734375 C 28.609375 12.789062 28.578125 12.84375 28.539062 12.898438 C 28.4375 13.0625 28.4375 13.0625 28.3125 13.226562 C 28.03125 13.609375 27.953125 13.851562 28.03125 14.320312 C 28.039062 14.382812 28.054688 14.453125 28.0625 14.515625 C 28.085938 14.664062 28.109375 14.804688 28.132812 14.953125 C 28.140625 15.023438 28.148438 15.09375 28.164062 15.164062 C 28.523438 18.039062 27.476562 21.148438 25.757812 23.421875 C 25.453125 23.8125 25.117188 24.171875 24.773438 24.53125 C 24.695312 24.617188 24.617188 24.703125 24.539062 24.789062 C 22.632812 26.789062 19.609375 28.132812 16.851562 28.203125 C 16.570312 28.210938 16.289062 28.210938 16.007812 28.210938 C 15.953125 28.210938 15.898438 28.210938 15.84375 28.210938 C 15.320312 28.210938 14.8125 28.203125 14.296875 28.125 C 13.835938 28.054688 13.515625 28.039062 13.117188 28.320312 C 13.0625 28.359375 13.015625 28.398438 12.960938 28.4375 C 12.84375 28.523438 12.726562 28.601562 12.609375 28.679688 C 12.523438 28.75 12.523438 28.75 12.429688 28.8125 C 12.132812 29.015625 11.820312 29.203125 11.507812 29.382812 C 11.4375 29.421875 11.375 29.453125 11.3125 29.492188 C 9.742188 30.398438 8.078125 31.234375 6.3125 31.6875 C 6.257812 31.703125 6.195312 31.71875 6.140625 31.734375 C 4.84375 32.054688 3.335938 32.257812 2.0625 31.75 C 2 31.726562 1.929688 31.703125 1.867188 31.671875 C 1.09375 31.335938 0.546875 30.726562 0.234375 29.945312 C -0.609375 27.453125 0.46875 24.671875 1.5625 22.4375 C 1.585938 22.390625 1.609375 22.34375 1.632812 22.296875 C 2.070312 21.375 2.570312 20.492188 3.109375 19.625 C 3.140625 19.570312 3.171875 19.515625 3.203125 19.460938 C 3.25 19.390625 3.25 19.390625 3.304688 19.3125 C 3.335938 19.257812 3.367188 19.203125 3.398438 19.15625 C 3.5 19 3.5 19 3.625 18.851562 C 3.882812 18.546875 3.96875 18.34375 3.9375 17.9375 C 3.921875 17.78125 3.898438 17.617188 3.875 17.460938 C 3.851562 17.335938 3.835938 17.210938 3.820312 17.078125 C 3.804688 16.960938 3.789062 16.835938 3.773438 16.71875 C 3.453125 14.03125 4.460938 11.101562 6 8.9375 C 6.023438 8.898438 6.054688 8.867188 6.078125 8.828125 C 6.445312 8.320312 6.859375 7.851562 7.289062 7.398438 C 7.359375 7.328125 7.429688 7.25 7.5 7.171875 C 9.5 5.078125 12.570312 3.828125 15.4375 3.75 C 15.554688 3.75 15.554688 3.75 15.664062 3.742188 C 16.257812 3.734375 16.84375 3.78125 17.4375 3.84375 C 17.492188 3.84375 17.539062 3.851562 17.59375 3.859375 C 17.703125 3.867188 17.804688 3.882812 17.914062 3.898438 C 18.226562 3.945312 18.414062 3.960938 18.6875 3.765625 C 18.71875 3.742188 18.75 3.71875 18.78125 3.6875 C 18.867188 3.625 18.945312 3.570312 19.03125 3.515625 C 19.070312 3.484375 19.117188 3.445312 19.164062 3.414062 C 21.890625 1.523438 27.601562 -1.710938 30.789062 0.757812 Z M 19.75 4.25 C 19.726562 4.289062 19.710938 4.335938 19.6875 4.375 C 19.742188 4.390625 19.742188 4.390625 19.789062 4.414062 C 19.953125 4.46875 20.109375 4.53125 20.265625 4.585938 C 20.320312 4.609375 20.375 4.625 20.429688 4.648438 C 20.484375 4.664062 20.539062 4.6875 20.59375 4.703125 C 20.640625 4.71875 20.6875 4.742188 20.734375 4.757812 C 20.875 4.8125 20.875 4.8125 20.992188 4.882812 C 21.1875 4.960938 21.304688 4.929688 21.5 4.875 C 21.6875 4.789062 21.6875 4.789062 21.875 4.679688 C 21.945312 4.632812 22.015625 4.59375 22.09375 4.554688 C 22.132812 4.53125 22.164062 4.507812 22.203125 4.484375 C 24.039062 3.429688 26.554688 2.046875 28.75 2.476562 C 29.007812 2.546875 29.195312 2.601562 29.375 2.8125 C 29.929688 4.171875 29.265625 5.96875 28.75 7.25 C 27.976562 9.078125 27 10.804688 25.875 12.4375 C 25.84375 12.484375 25.804688 12.53125 25.773438 12.585938 C 25.320312 13.234375 24.867188 13.875 24.375 14.5 C 24.320312 14.570312 24.265625 14.640625 24.210938 14.71875 C 23.898438 15.117188 23.578125 15.507812 23.25 15.898438 C 23.070312 16.101562 22.898438 16.320312 22.71875 16.53125 C 22.484375 16.828125 22.226562 17.109375 21.960938 17.390625 C 21.796875 17.570312 21.632812 17.75 21.46875 17.9375 C 20.84375 18.65625 20.179688 19.328125 19.5 20 C 19.46875 20.039062 19.4375 20.070312 19.398438 20.109375 C 19.0625 20.445312 18.726562 20.78125 18.367188 21.085938 C 18.15625 21.265625 17.960938 21.460938 17.765625 21.648438 C 17.429688 21.960938 17.09375 22.257812 16.742188 22.546875 C 16.523438 22.71875 16.3125 22.90625 16.109375 23.085938 C 15.703125 23.4375 15.296875 23.765625 14.875 24.09375 C 14.734375 24.195312 14.59375 24.304688 14.453125 24.414062 C 13.695312 25.007812 12.914062 25.554688 12.109375 26.078125 C 11.953125 26.171875 11.804688 26.273438 11.65625 26.375 C 10.976562 26.828125 10.273438 27.234375 9.5625 27.625 C 9.507812 27.65625 9.453125 27.6875 9.390625 27.71875 C 7.625 28.6875 5.171875 29.960938 3.078125 29.476562 C 2.867188 29.414062 2.765625 29.359375 2.625 29.1875 C 2.09375 28.101562 2.570312 26.601562 2.9375 25.53125 C 3.382812 24.25 3.96875 23.03125 4.671875 21.875 C 4.710938 21.8125 4.742188 21.757812 4.78125 21.695312 C 4.8125 21.640625 4.84375 21.585938 4.875 21.53125 C 4.984375 21.257812 4.898438 21.046875 4.789062 20.789062 C 4.757812 20.710938 4.726562 20.640625 4.695312 20.5625 C 4.5625 20.273438 4.453125 19.992188 4.375 19.6875 C 4.109375 19.914062 3.953125 20.195312 3.78125 20.492188 C 3.75 20.546875 3.71875 20.601562 3.679688 20.65625 C 2.390625 22.851562 1.148438 25.234375 0.9375 27.8125 C 0.929688 27.867188 0.929688 27.921875 0.921875 27.976562 C 0.890625 28.789062 1.078125 29.664062 1.632812 30.265625 C 2.328125 30.921875 3.132812 31.0625 4.0625 31.0625 C 7.492188 30.875 10.90625 28.75 13.625 26.8125 C 13.671875 26.78125 13.71875 26.75 13.765625 26.710938 C 14.375 26.28125 14.976562 25.835938 15.5625 25.375 C 15.632812 25.320312 15.703125 25.265625 15.773438 25.210938 C 16.195312 24.890625 16.601562 24.554688 17 24.210938 C 17.210938 24.023438 17.429688 23.84375 17.65625 23.664062 C 18.023438 23.359375 18.375 23.03125 18.71875 22.703125 C 18.882812 22.554688 19.046875 22.40625 19.210938 22.265625 C 19.4375 22.070312 19.640625 21.859375 19.84375 21.648438 C 19.976562 21.523438 20.101562 21.414062 20.234375 21.296875 C 20.5 21.0625 20.757812 20.820312 21 20.5625 C 21.046875 20.523438 21.085938 20.484375 21.132812 20.4375 C 21.375 20.195312 21.609375 19.9375 21.84375 19.671875 C 21.960938 19.539062 22.085938 19.40625 22.21875 19.28125 C 22.429688 19.070312 22.625 18.859375 22.820312 18.632812 C 22.960938 18.476562 23.101562 18.320312 23.242188 18.171875 C 23.5 17.890625 23.742188 17.601562 23.976562 17.304688 C 24.109375 17.148438 24.234375 16.992188 24.367188 16.84375 C 24.773438 16.367188 25.15625 15.875 25.53125 15.375 C 25.617188 15.265625 25.695312 15.15625 25.78125 15.046875 C 28.328125 11.804688 31.273438 7.429688 31 3.125 C 30.914062 2.476562 30.585938 1.867188 30.070312 1.460938 C 27.171875 -0.398438 22.085938 2.554688 19.75 4.25 Z M 22.4375 5.4375 C 22.4375 5.5 22.4375 5.5625 22.4375 5.625 C 22.585938 5.734375 22.726562 5.835938 22.882812 5.9375 C 23.398438 6.273438 23.859375 6.648438 24.3125 7.0625 C 24.367188 7.109375 24.367188 7.109375 24.421875 7.164062 C 25.203125 7.898438 25.835938 8.742188 26.4375 9.625 C 27.671875 8.210938 28.5625 5.6875 28.625 3.8125 C 28.617188 3.59375 28.617188 3.59375 28.5625 3.4375 C 26.984375 2.648438 23.742188 4.742188 22.4375 5.4375 Z M 10.75 6.0625 C 10.75 6.085938 10.75 6.101562 10.75 6.125 C 10.859375 6.125 10.859375 6.125 10.976562 6.125 C 14.546875 6.171875 17.898438 6.625 21.3125 7.6875 C 21.46875 7.734375 21.617188 7.78125 21.773438 7.828125 C 21.875 7.859375 21.875 7.859375 21.976562 7.890625 C 22.023438 7.90625 22.078125 7.921875 22.125 7.9375 C 21.789062 8.039062 21.453125 8.109375 21.109375 8.171875 C 21.054688 8.179688 21 8.1875 20.9375 8.195312 C 20.75 8.234375 20.5625 8.265625 20.367188 8.296875 C 20.234375 8.320312 20.09375 8.34375 19.960938 8.367188 C 19.59375 8.429688 19.21875 8.492188 18.851562 8.5625 C 18.460938 8.625 18.070312 8.695312 17.6875 8.757812 C 17.03125 8.875 16.375 8.984375 15.726562 9.101562 C 15.054688 9.21875 14.390625 9.328125 13.71875 9.445312 C 13.65625 9.460938 13.65625 9.460938 13.59375 9.46875 C 13.390625 9.5 13.179688 9.539062 12.976562 9.578125 C 11.953125 9.75 10.9375 9.929688 9.921875 10.101562 C 9.851562 10.117188 9.773438 10.125 9.703125 10.140625 C 8.804688 10.296875 8.804688 10.296875 8.507812 10.34375 C 8.390625 10.367188 8.273438 10.390625 8.15625 10.40625 C 7.84375 10.460938 7.53125 10.515625 7.226562 10.5625 C 7.15625 10.570312 7.09375 10.585938 7.023438 10.59375 C 6.898438 10.617188 6.773438 10.632812 6.648438 10.648438 C 6.3125 10.703125 6.3125 10.703125 6.023438 10.875 C 5.945312 10.992188 5.875 11.09375 5.820312 11.21875 C 5.804688 11.257812 5.78125 11.304688 5.765625 11.34375 C 5.742188 11.382812 5.726562 11.429688 5.710938 11.46875 C 5.6875 11.507812 5.671875 11.554688 5.648438 11.59375 C 5.5625 11.789062 5.484375 11.976562 5.4375 12.1875 C 6.023438 12.117188 6.601562 12.046875 7.1875 11.976562 C 10.242188 11.578125 13.273438 11.351562 16.351562 11.351562 C 16.515625 11.359375 16.6875 11.359375 16.851562 11.359375 C 19.242188 11.359375 21.609375 11.476562 23.984375 11.734375 C 24.039062 11.742188 24.085938 11.742188 24.132812 11.75 C 24.226562 11.757812 24.3125 11.765625 24.40625 11.78125 C 24.765625 11.820312 24.765625 11.820312 25.125 11.8125 C 25.226562 11.734375 25.226562 11.734375 25.296875 11.617188 C 25.320312 11.578125 25.34375 11.53125 25.375 11.492188 C 25.414062 11.429688 25.414062 11.429688 25.453125 11.359375 C 25.476562 11.320312 25.507812 11.273438 25.53125 11.226562 C 25.609375 11.109375 25.679688 10.992188 25.75 10.875 C 25.789062 10.8125 25.789062 10.8125 25.828125 10.75 C 25.84375 10.710938 25.859375 10.664062 25.875 10.625 C 25.796875 10.453125 25.710938 10.3125 25.609375 10.164062 C 25.578125 10.117188 25.554688 10.070312 25.523438 10.023438 C 25.054688 9.3125 24.523438 8.679688 23.9375 8.0625 C 23.875 8 23.875 8 23.8125 7.929688 C 21.890625 5.914062 18.96875 4.820312 16.226562 4.742188 C 14.328125 4.734375 12.429688 5.148438 10.75 6.0625 Z M 9.515625 7.171875 C 9.460938 7.171875 9.40625 7.179688 9.351562 7.179688 C 8.859375 7.226562 8.585938 7.46875 8.273438 7.84375 C 8.1875 7.9375 8.09375 8.03125 8 8.125 C 7.664062 8.4375 7.359375 8.765625 7.078125 9.132812 C 7.054688 9.164062 7.023438 9.203125 7 9.234375 C 6.851562 9.414062 6.851562 9.414062 6.8125 9.625 C 7.382812 9.585938 7.945312 9.492188 8.507812 9.398438 C 8.609375 9.382812 8.703125 9.359375 8.804688 9.34375 C 9.078125 9.296875 9.34375 9.25 9.609375 9.203125 C 9.78125 9.179688 9.945312 9.148438 10.117188 9.117188 C 10.703125 9.015625 11.289062 8.921875 11.875 8.820312 C 12.421875 8.71875 12.96875 8.625 13.515625 8.53125 C 13.984375 8.453125 14.453125 8.375 14.921875 8.289062 C 15.203125 8.242188 15.484375 8.195312 15.765625 8.148438 C 16.03125 8.101562 16.289062 8.054688 16.554688 8.007812 C 16.648438 7.992188 16.75 7.976562 16.84375 7.960938 C 16.976562 7.9375 17.109375 7.914062 17.234375 7.890625 C 17.3125 7.882812 17.382812 7.867188 17.460938 7.851562 C 17.515625 7.84375 17.570312 7.828125 17.625 7.8125 C 17.648438 7.773438 17.664062 7.726562 17.6875 7.6875 C 16.585938 7.476562 15.492188 7.296875 14.375 7.1875 C 14.289062 7.179688 14.289062 7.179688 14.203125 7.171875 C 13.523438 7.101562 12.84375 7.117188 12.15625 7.117188 C 11.9375 7.117188 11.71875 7.109375 11.5 7.109375 C 10.835938 7.109375 10.179688 7.117188 9.515625 7.171875 Z M 11.101562 12.484375 C 10.9375 12.5 10.78125 12.515625 10.617188 12.523438 C 9.0625 12.65625 7.523438 12.867188 5.984375 13.09375 C 5.921875 13.101562 5.867188 13.109375 5.804688 13.117188 C 5.75 13.125 5.703125 13.132812 5.648438 13.140625 C 5.578125 13.15625 5.578125 13.15625 5.507812 13.164062 C 5.375 13.1875 5.25 13.21875 5.125 13.25 C 5.085938 13.453125 5.046875 13.664062 5.007812 13.875 C 4.992188 13.929688 4.984375 13.984375 4.96875 14.046875 C 4.875 14.554688 4.804688 15.046875 4.8125 15.570312 C 4.8125 15.640625 4.8125 15.710938 4.8125 15.78125 C 4.8125 15.828125 4.8125 15.882812 4.8125 15.9375 C 5.578125 16.195312 6.578125 16.078125 7.375 16.078125 C 7.46875 16.078125 7.46875 16.078125 7.5625 16.078125 C 9.601562 16.078125 11.578125 15.828125 13.554688 15.367188 C 13.632812 15.34375 13.71875 15.328125 13.796875 15.304688 C 14.390625 15.171875 14.976562 15.023438 15.5625 14.875 C 15.601562 14.867188 15.640625 14.851562 15.6875 14.84375 C 16.0625 14.75 16.445312 14.648438 16.828125 14.554688 C 18.539062 14.109375 20.304688 13.65625 22.078125 13.695312 C 22.273438 13.695312 22.460938 13.695312 22.65625 13.695312 C 22.796875 13.695312 22.929688 13.703125 23.070312 13.710938 C 23.523438 13.726562 23.523438 13.726562 23.914062 13.539062 C 24.265625 13.1875 24.265625 13.1875 24.4375 12.75 C 23.5 12.617188 22.554688 12.53125 21.609375 12.460938 C 21.53125 12.453125 21.53125 12.453125 21.453125 12.445312 C 21.09375 12.421875 20.734375 12.398438 20.375 12.375 C 20.328125 12.375 20.28125 12.367188 20.234375 12.367188 C 19.039062 12.289062 17.835938 12.296875 16.640625 12.296875 C 16.585938 12.296875 16.53125 12.296875 16.46875 12.296875 C 14.671875 12.296875 12.890625 12.328125 11.101562 12.484375 Z M 15.546875 15.851562 C 13.859375 16.296875 12.171875 16.664062 10.4375 16.875 C 10.375 16.882812 10.320312 16.890625 10.257812 16.898438 C 9.3125 17.007812 8.367188 17.007812 7.414062 17.015625 C 7.351562 17.015625 7.289062 17.015625 7.226562 17.015625 C 6.421875 17.015625 5.617188 16.992188 4.8125 16.9375 C 4.90625 18.023438 5.109375 19.070312 5.53125 20.085938 C 5.625 20.3125 5.625 20.3125 5.6875 20.53125 C 5.765625 20.765625 5.820312 20.890625 6 21.0625 C 6.359375 21.195312 6.75 21.203125 7.132812 21.234375 C 7.421875 21.257812 7.703125 21.3125 7.992188 21.359375 C 8.046875 21.375 8.109375 21.382812 8.164062 21.398438 C 9.648438 21.679688 11.0625 22.15625 12.445312 22.734375 C 12.492188 22.757812 12.546875 22.78125 12.59375 22.796875 C 12.828125 22.898438 13.070312 23 13.304688 23.101562 C 13.390625 23.140625 13.476562 23.171875 13.5625 23.210938 C 13.609375 23.226562 13.648438 23.25 13.6875 23.265625 C 13.921875 23.359375 14.070312 23.398438 14.3125 23.3125 C 14.460938 23.203125 14.59375 23.09375 14.726562 22.96875 C 14.804688 22.898438 14.882812 22.828125 14.960938 22.757812 C 15 22.726562 15.039062 22.695312 15.078125 22.65625 C 15.226562 22.53125 15.375 22.40625 15.53125 22.28125 C 16.15625 21.773438 16.765625 21.234375 17.375 20.6875 C 17.234375 20.546875 17.179688 20.539062 16.992188 20.507812 C 16.9375 20.492188 16.882812 20.484375 16.828125 20.476562 C 16.734375 20.460938 16.734375 20.460938 16.648438 20.445312 C 16.585938 20.4375 16.515625 20.421875 16.453125 20.414062 C 16.25 20.375 16.039062 20.335938 15.828125 20.304688 C 15.6875 20.28125 15.539062 20.257812 15.398438 20.226562 C 15.015625 20.164062 14.640625 20.101562 14.257812 20.03125 C 13.867188 19.96875 13.484375 19.898438 13.09375 19.828125 C 12.335938 19.703125 11.570312 19.570312 10.8125 19.4375 C 11.023438 19.367188 11.226562 19.296875 11.4375 19.226562 C 11.523438 19.203125 11.523438 19.203125 11.609375 19.171875 C 12.140625 18.992188 12.671875 18.835938 13.210938 18.6875 C 13.257812 18.671875 13.304688 18.664062 13.351562 18.648438 C 15.492188 18.0625 17.664062 17.625 19.875 17.429688 C 20.554688 17.382812 20.554688 17.382812 21.070312 16.984375 C 21.117188 16.929688 21.164062 16.875 21.21875 16.8125 C 21.296875 16.71875 21.296875 16.71875 21.375 16.625 C 21.4375 16.554688 21.492188 16.484375 21.554688 16.414062 C 21.710938 16.234375 21.867188 16.046875 22.03125 15.859375 C 22.125 15.75 22.21875 15.640625 22.320312 15.523438 C 22.382812 15.453125 22.445312 15.382812 22.5 15.3125 C 22.546875 15.257812 22.546875 15.257812 22.585938 15.210938 C 22.75 15.023438 22.882812 14.835938 23 14.625 C 20.4375 14.554688 18 15.203125 15.546875 15.851562 Z M 26.9375 15.125 C 26.851562 15.210938 26.851562 15.210938 26.773438 15.328125 C 26.742188 15.367188 26.703125 15.414062 26.671875 15.460938 C 26.640625 15.507812 26.601562 15.554688 26.5625 15.601562 C 26.492188 15.695312 26.421875 15.796875 26.34375 15.890625 C 26.3125 15.945312 26.273438 15.992188 26.234375 16.039062 C 26.046875 16.296875 25.851562 16.539062 25.648438 16.789062 C 25.53125 16.9375 25.421875 17.09375 25.3125 17.25 C 25.523438 17.273438 25.726562 17.289062 25.9375 17.3125 C 25.992188 17.320312 26.054688 17.328125 26.117188 17.328125 C 26.453125 17.367188 26.78125 17.382812 27.125 17.375 C 27.242188 16.234375 27.242188 16.234375 27.0625 15.125 C 27.023438 15.125 26.976562 15.125 26.9375 15.125 Z M 23.984375 18.703125 C 23.945312 18.757812 23.914062 18.820312 23.875 18.875 C 23.804688 18.960938 23.734375 19.039062 23.664062 19.117188 C 23.632812 19.15625 23.59375 19.195312 23.5625 19.234375 C 23.375 19.445312 23.1875 19.648438 23 19.851562 C 22.859375 20.007812 22.71875 20.164062 22.585938 20.320312 C 22.539062 20.382812 22.484375 20.4375 22.4375 20.5 C 22.898438 20.578125 23.351562 20.664062 23.8125 20.742188 C 23.960938 20.765625 24.117188 20.796875 24.273438 20.820312 C 24.5 20.859375 24.71875 20.898438 24.945312 20.9375 C 25.015625 20.953125 25.085938 20.960938 25.15625 20.976562 C 25.21875 20.984375 25.289062 21 25.351562 21.007812 C 25.414062 21.023438 25.46875 21.03125 25.523438 21.039062 C 25.6875 21.0625 25.835938 21.0625 26 21.0625 C 26.257812 20.609375 26.445312 20.140625 26.609375 19.648438 C 26.625 19.59375 26.648438 19.539062 26.664062 19.484375 C 26.78125 19.117188 26.867188 18.75 26.9375 18.375 C 26.539062 18.328125 26.148438 18.28125 25.75 18.25 C 25.695312 18.242188 25.632812 18.242188 25.570312 18.234375 C 24.65625 18.140625 24.65625 18.140625 23.984375 18.703125 Z M 18.679688 18.507812 C 18.609375 18.523438 18.609375 18.523438 18.53125 18.53125 C 18.375 18.554688 18.21875 18.578125 18.0625 18.609375 C 18.015625 18.617188 17.960938 18.625 17.90625 18.632812 C 17.242188 18.734375 16.578125 18.851562 15.921875 18.984375 C 15.859375 19 15.796875 19.007812 15.734375 19.023438 C 15.648438 19.039062 15.648438 19.039062 15.5625 19.054688 C 15.492188 19.070312 15.492188 19.070312 15.421875 19.085938 C 15.296875 19.117188 15.296875 19.117188 15.25 19.25 C 15.65625 19.320312 16.054688 19.398438 16.460938 19.46875 C 16.601562 19.492188 16.734375 19.515625 16.875 19.539062 C 17.070312 19.578125 17.265625 19.609375 17.46875 19.648438 C 17.523438 19.65625 17.585938 19.671875 17.648438 19.679688 C 17.710938 19.6875 17.765625 19.703125 17.828125 19.710938 C 17.875 19.71875 17.929688 19.726562 17.976562 19.742188 C 18.226562 19.757812 18.390625 19.726562 18.578125 19.570312 C 18.632812 19.523438 18.679688 19.476562 18.726562 19.421875 C 18.78125 19.367188 18.835938 19.320312 18.890625 19.265625 C 18.9375 19.210938 18.992188 19.148438 19.046875 19.09375 C 19.109375 19.039062 19.164062 18.984375 19.21875 18.921875 C 19.476562 18.710938 19.476562 18.710938 19.625 18.4375 C 19.304688 18.429688 19 18.460938 18.679688 18.507812 Z M 21.210938 21.65625 C 21.179688 21.695312 21.140625 21.742188 21.109375 21.78125 C 21.039062 21.859375 20.960938 21.945312 20.890625 22.023438 C 20.851562 22.0625 20.820312 22.101562 20.78125 22.148438 C 20.671875 22.273438 20.546875 22.382812 20.414062 22.492188 C 20.25 22.632812 20.09375 22.78125 19.9375 22.9375 C 19.742188 23.140625 19.53125 23.328125 19.320312 23.507812 C 19.171875 23.640625 19.023438 23.773438 18.875 23.90625 C 18.59375 24.164062 18.304688 24.398438 18 24.625 C 18.023438 24.664062 18.039062 24.710938 18.0625 24.75 C 19.648438 25.179688 22.101562 25.085938 23.5625 24.3125 C 23.71875 24.195312 23.851562 24.054688 23.984375 23.921875 C 24.023438 23.882812 24.0625 23.84375 24.101562 23.804688 C 24.46875 23.414062 24.804688 23 25.125 22.5625 C 25.15625 22.523438 25.179688 22.484375 25.210938 22.445312 C 25.382812 22.242188 25.382812 22.242188 25.4375 22 C 25.007812 21.921875 24.578125 21.84375 24.140625 21.765625 C 24 21.734375 23.851562 21.710938 23.703125 21.679688 C 23.492188 21.640625 23.28125 21.601562 23.070312 21.570312 C 23.007812 21.554688 22.9375 21.539062 22.875 21.53125 C 22.554688 21.46875 22.234375 21.421875 21.90625 21.390625 C 21.84375 21.382812 21.789062 21.375 21.726562 21.367188 C 21.484375 21.375 21.367188 21.484375 21.210938 21.65625 Z M 6.625 22.125 C 7.546875 23.710938 9.046875 25.0625 10.6875 25.875 C 10.953125 25.695312 11.21875 25.515625 11.484375 25.335938 C 11.578125 25.273438 11.671875 25.210938 11.757812 25.148438 C 12.460938 24.6875 12.460938 24.6875 13.125 24.1875 C 13.125 24.148438 13.125 24.101562 13.125 24.0625 C 11.023438 23.179688 8.914062 22.320312 6.625 22.125 Z M 5.5 22.3125 C 3.867188 25.210938 3.867188 25.210938 3.375 28.4375 C 3.398438 28.476562 3.414062 28.523438 3.4375 28.5625 C 4.914062 29.054688 7.234375 27.757812 8.5 27.125 C 8.882812 26.929688 9.257812 26.71875 9.625 26.5 C 9.414062 26.273438 9.195312 26.101562 8.9375 25.929688 C 7.640625 25.054688 6.554688 23.90625 5.734375 22.578125 C 5.679688 22.492188 5.617188 22.398438 5.5625 22.3125 C 5.539062 22.3125 5.523438 22.3125 5.5 22.3125 Z M 16.320312 26.015625 C 16.046875 26.242188 15.765625 26.445312 15.484375 26.65625 C 15.367188 26.75 15.25 26.835938 15.132812 26.921875 C 15.0625 26.976562 15.0625 26.976562 14.984375 27.039062 C 14.945312 27.0625 14.914062 27.09375 14.875 27.125 C 14.875 27.148438 14.875 27.164062 14.875 27.1875 C 16.609375 27.242188 16.609375 27.242188 18.3125 27 C 18.367188 26.984375 18.414062 26.976562 18.46875 26.960938 C 19.429688 26.726562 20.375 26.390625 21.25 25.9375 C 21.25 25.914062 21.25 25.898438 21.25 25.875 C 21.1875 25.875 21.117188 25.875 21.054688 25.875 C 18.867188 25.835938 18.867188 25.835938 18.140625 25.71875 C 18.09375 25.71875 18.046875 25.710938 17.992188 25.695312 C 17.804688 25.664062 17.625 25.625 17.4375 25.5625 C 16.945312 25.398438 16.679688 25.703125 16.320312 26.015625 Z M 16.320312 26.015625 "/>
        <path style=" stroke:none;fill-rule:nonzero;fill:#ffffff;fill-opacity:1;" d="M 10.5 13.75 C 10.828125 13.75 11.15625 13.75 11.5 13.75 C 11.5 14.078125 11.5 14.40625 11.5 14.75 C 11.171875 14.75 10.84375 14.75 10.5 14.75 C 10.5 14.421875 10.5 14.09375 10.5 13.75 Z M 10.5 13.75 "/>
        <path style=" stroke:none;fill-rule:nonzero;fill:#ffffff;fill-opacity:1;" d="M 8.625 13.75 C 8.953125 13.75 9.28125 13.75 9.625 13.75 C 9.625 14.078125 9.625 14.40625 9.625 14.75 C 9.296875 14.75 8.96875 14.75 8.625 14.75 C 8.625 14.421875 8.625 14.09375 8.625 13.75 Z M 8.625 13.75 "/>
    </g>
</svg>