<svg xmlns="http://www.w3.org/2000/svg" xmlns:xlink="http://www.w3.org/1999/xlink" width="32px" height="32px" viewBox="0 0 32 32" version="1.1">
    <g id="surface1">
        <path style=" stroke:none;fill-rule:nonzero;fill:#ffffff;fill-opacity:1;" d="M 15.984375 -0.015625 C 16.070312 -0.015625 16.070312 -0.015625 16.164062 -0.015625 C 17.0625 -0.015625 17.929688 0.015625 18.8125 0.1875 C 18.898438 0.203125 18.898438 0.203125 18.984375 0.21875 C 22.023438 0.765625 24.835938 2.234375 27.0625 4.375 C 27.125 4.4375 27.125 4.4375 27.1875 4.492188 C 27.78125 5.0625 28.328125 5.648438 28.8125 6.3125 C 28.867188 6.382812 28.921875 6.453125 28.976562 6.53125 C 29.351562 7.039062 29.6875 7.570312 30 8.125 C 30.023438 8.171875 30.046875 8.210938 30.078125 8.257812 C 30.890625 9.703125 31.4375 11.273438 31.765625 12.898438 C 31.78125 12.945312 31.789062 12.984375 31.796875 13.03125 C 31.984375 14.007812 32.023438 14.984375 32.015625 15.984375 C 32.015625 16.070312 32.015625 16.070312 32.015625 16.164062 C 32.015625 17.0625 31.984375 17.929688 31.8125 18.8125 C 31.804688 18.867188 31.789062 18.921875 31.78125 18.984375 C 31.234375 22.023438 29.765625 24.835938 27.625 27.0625 C 27.585938 27.101562 27.546875 27.148438 27.507812 27.1875 C 26.9375 27.78125 26.351562 28.328125 25.6875 28.8125 C 25.617188 28.867188 25.546875 28.921875 25.46875 28.976562 C 24.960938 29.351562 24.429688 29.6875 23.875 30 C 23.828125 30.023438 23.789062 30.046875 23.742188 30.078125 C 22.296875 30.890625 20.726562 31.4375 19.101562 31.765625 C 19.054688 31.78125 19.015625 31.789062 18.96875 31.796875 C 17.992188 31.984375 17.015625 32.023438 16.015625 32.015625 C 15.960938 32.015625 15.898438 32.015625 15.835938 32.015625 C 14.9375 32.015625 14.070312 31.984375 13.1875 31.8125 C 13.132812 31.804688 13.078125 31.789062 13.015625 31.78125 C 9.976562 31.234375 7.164062 29.765625 4.9375 27.625 C 4.898438 27.585938 4.851562 27.546875 4.8125 27.507812 C 4.21875 26.9375 3.671875 26.351562 3.1875 25.6875 C 3.132812 25.617188 3.078125 25.546875 3.023438 25.46875 C 2.648438 24.960938 2.3125 24.429688 2 23.875 C 1.976562 23.828125 1.953125 23.789062 1.921875 23.742188 C 1.109375 22.296875 0.5625 20.726562 0.234375 19.101562 C 0.21875 19.03125 0.21875 19.03125 0.203125 18.96875 C 0.015625 17.992188 -0.0234375 17.015625 -0.015625 16.015625 C -0.015625 15.960938 -0.015625 15.898438 -0.015625 15.835938 C -0.015625 14.9375 0.015625 14.070312 0.1875 13.1875 C 0.203125 13.101562 0.203125 13.101562 0.21875 13.015625 C 0.765625 9.976562 2.234375 7.164062 4.375 4.9375 C 4.414062 4.898438 4.453125 4.851562 4.492188 4.8125 C 5.0625 4.21875 5.648438 3.671875 6.3125 3.1875 C 6.382812 3.132812 6.453125 3.078125 6.53125 3.023438 C 7.039062 2.648438 7.570312 2.3125 8.125 2 C 8.171875 1.976562 8.210938 1.953125 8.257812 1.921875 C 9.703125 1.109375 11.273438 0.5625 12.898438 0.234375 C 12.96875 0.21875 12.96875 0.21875 13.03125 0.203125 C 14.007812 0.015625 14.984375 -0.0234375 15.984375 -0.015625 Z M 14.8125 2.0625 C 14.898438 2.3125 15.054688 2.390625 15.265625 2.523438 C 15.320312 2.554688 15.320312 2.554688 15.382812 2.59375 C 15.5 2.671875 15.5 2.671875 15.6875 2.75 C 15.9375 2.671875 16.101562 2.484375 16.273438 2.304688 C 16.304688 2.273438 16.335938 2.242188 16.375 2.210938 C 16.4375 2.140625 16.507812 2.078125 16.570312 2.007812 C 16.671875 1.90625 16.773438 1.804688 16.875 1.703125 C 16.9375 1.640625 17.007812 1.578125 17.070312 1.507812 C 17.117188 1.460938 17.117188 1.460938 17.164062 1.414062 C 17.328125 1.265625 17.328125 1.265625 17.375 1.0625 C 16.140625 0.835938 15.5625 1.0625 14.8125 2.0625 Z M 13.1875 1.3125 C 13.328125 1.453125 13.4375 1.5 13.625 1.5625 C 13.757812 1.570312 13.757812 1.570312 13.875 1.5 C 14.015625 1.34375 14.015625 1.34375 14.125 1.1875 C 13.789062 1.171875 13.515625 1.21875 13.1875 1.3125 Z M 18.203125 1.765625 C 18.15625 1.8125 18.109375 1.851562 18.0625 1.90625 C 17.921875 2.046875 17.773438 2.195312 17.632812 2.34375 C 17.539062 2.445312 17.4375 2.539062 17.34375 2.640625 C 17.101562 2.882812 16.859375 3.132812 16.625 3.375 C 16.8125 3.5625 17.007812 3.75 17.203125 3.929688 C 17.273438 3.984375 17.273438 3.984375 17.335938 4.039062 C 17.375 4.070312 17.40625 4.09375 17.4375 4.125 C 17.640625 4.039062 17.773438 3.921875 17.9375 3.765625 C 17.984375 3.71875 18.03125 3.671875 18.078125 3.625 C 18.125 3.570312 18.179688 3.523438 18.234375 3.46875 C 18.28125 3.414062 18.335938 3.359375 18.390625 3.3125 C 18.554688 3.140625 18.726562 2.976562 18.890625 2.804688 C 19 2.6875 19.117188 2.578125 19.234375 2.460938 C 19.507812 2.1875 19.789062 1.90625 20.0625 1.625 C 19.859375 1.523438 19.664062 1.453125 19.445312 1.398438 C 19.351562 1.375 19.351562 1.375 19.257812 1.351562 C 18.71875 1.25 18.5625 1.382812 18.203125 1.765625 Z M 10 2.25 C 9.90625 2.289062 9.8125 2.328125 9.71875 2.375 C 8.390625 2.953125 7.210938 3.804688 6.125 4.75 C 6.078125 4.789062 6.03125 4.828125 5.984375 4.867188 C 5.53125 5.257812 5.0625 5.664062 4.75 6.1875 C 6.773438 6.1875 8.789062 6.1875 10.875 6.1875 C 10.875 6.539062 10.875 6.890625 10.875 7.25 C 10.789062 7.25 10.703125 7.242188 10.609375 7.242188 C 9.789062 7.21875 8.96875 7.203125 8.148438 7.195312 C 7.726562 7.1875 7.304688 7.179688 6.882812 7.171875 C 6.476562 7.15625 6.070312 7.148438 5.65625 7.148438 C 5.5 7.148438 5.351562 7.140625 5.195312 7.140625 C 4.398438 7.078125 4.398438 7.078125 3.679688 7.351562 C 3.460938 7.601562 3.320312 7.875 3.1875 8.171875 C 3.085938 8.390625 2.960938 8.59375 2.835938 8.796875 C 0.914062 12.1875 0.554688 16.328125 1.5625 20.0625 C 1.96875 21.484375 2.578125 22.984375 3.445312 24.1875 C 3.539062 24.335938 3.601562 24.453125 3.664062 24.609375 C 3.8125 24.90625 3.96875 25.140625 4.25 25.3125 C 4.835938 25.476562 5.476562 25.421875 6.070312 25.40625 C 6.3125 25.398438 6.554688 25.398438 6.796875 25.398438 C 7.257812 25.398438 7.710938 25.390625 8.171875 25.382812 C 8.6875 25.367188 9.210938 25.367188 9.726562 25.359375 C 10.796875 25.351562 11.867188 25.335938 12.9375 25.3125 C 12.9375 25.664062 12.9375 26.015625 12.9375 26.375 C 10.398438 26.375 7.867188 26.375 5.25 26.375 C 6.117188 27.390625 7.179688 28.1875 8.328125 28.875 C 8.421875 28.929688 8.523438 28.992188 8.617188 29.054688 C 9.203125 29.414062 9.835938 29.671875 10.46875 29.929688 C 10.625 30 10.625 30 10.835938 30.109375 C 11.210938 30.296875 11.460938 30.242188 11.84375 30.109375 C 12.132812 30 12.40625 29.882812 12.6875 29.75 C 12.734375 29.726562 12.78125 29.710938 12.828125 29.6875 C 13.117188 29.546875 13.40625 29.398438 13.6875 29.25 C 13.75 29.21875 13.75 29.21875 13.8125 29.1875 C 15.09375 28.507812 16.203125 27.617188 17.25 26.625 C 17.3125 26.570312 17.367188 26.515625 17.429688 26.453125 C 17.84375 26.054688 18.195312 25.632812 18.539062 25.179688 C 18.625 25.0625 18.710938 24.953125 18.796875 24.84375 C 19.796875 23.546875 20.507812 22.054688 21 20.5 C 21.023438 20.421875 21.023438 20.421875 21.054688 20.335938 C 21.375 19.289062 21.625 18.164062 21.625 17.0625 C 20.453125 17.0625 19.273438 17.0625 18.0625 17.0625 C 18.0625 16.710938 18.0625 16.359375 18.0625 16 C 19.257812 16 20.453125 16 21.6875 16 C 21.71875 14.742188 21.71875 14.742188 21.4375 13.4375 C 16.570312 13.4375 11.703125 13.4375 6.6875 13.4375 C 6.6875 13.085938 6.6875 12.734375 6.6875 12.375 C 11.46875 12.375 16.257812 12.375 21.1875 12.375 C 21.140625 11.96875 21.070312 11.65625 20.945312 11.28125 C 20.929688 11.226562 20.90625 11.171875 20.890625 11.109375 C 20.320312 9.46875 19.460938 7.976562 18.375 6.625 C 18.351562 6.59375 18.320312 6.5625 18.296875 6.523438 C 17.632812 5.703125 16.898438 4.953125 16.0625 4.3125 C 16 4.265625 15.9375 4.210938 15.875 4.164062 C 15.398438 3.78125 14.890625 3.445312 14.367188 3.132812 C 14.265625 3.070312 14.164062 3.007812 14.070312 2.945312 C 13.484375 2.585938 12.851562 2.328125 12.21875 2.070312 C 12.0625 2 12.0625 2 11.851562 1.890625 C 11.21875 1.578125 10.585938 1.984375 10 2.25 Z M 21.054688 2.109375 C 21.007812 2.164062 20.953125 2.210938 20.898438 2.265625 C 20.8125 2.351562 20.8125 2.351562 20.726562 2.4375 C 20.664062 2.5 20.601562 2.5625 20.539062 2.625 C 20.476562 2.695312 20.414062 2.757812 20.351562 2.820312 C 20.179688 2.992188 20.007812 3.164062 19.84375 3.335938 C 19.671875 3.507812 19.5 3.679688 19.328125 3.851562 C 18.984375 4.195312 18.648438 4.53125 18.3125 4.875 C 18.421875 5.101562 18.554688 5.265625 18.726562 5.453125 C 18.78125 5.507812 18.828125 5.5625 18.882812 5.625 C 18.921875 5.664062 18.960938 5.703125 19 5.75 C 19.234375 5.648438 19.382812 5.507812 19.5625 5.320312 C 19.59375 5.296875 19.625 5.265625 19.65625 5.234375 C 19.757812 5.132812 19.859375 5.03125 19.960938 4.929688 C 20.03125 4.859375 20.09375 4.789062 20.164062 4.71875 C 20.351562 4.539062 20.53125 4.351562 20.71875 4.164062 C 20.90625 3.976562 21.085938 3.789062 21.273438 3.601562 C 21.640625 3.234375 22.007812 2.867188 22.375 2.5 C 22.171875 2.34375 21.984375 2.242188 21.75 2.148438 C 21.679688 2.117188 21.617188 2.09375 21.546875 2.0625 C 21.328125 1.984375 21.242188 1.953125 21.054688 2.109375 Z M 23.0625 3.226562 C 23.03125 3.257812 23 3.289062 22.960938 3.320312 C 22.929688 3.359375 22.890625 3.390625 22.859375 3.429688 C 22.742188 3.539062 22.625 3.65625 22.515625 3.773438 C 22.429688 3.851562 22.351562 3.929688 22.273438 4.007812 C 22.109375 4.171875 21.9375 4.34375 21.773438 4.507812 C 21.5625 4.71875 21.34375 4.9375 21.125 5.148438 C 20.960938 5.3125 20.796875 5.476562 20.632812 5.640625 C 20.554688 5.71875 20.476562 5.796875 20.398438 5.875 C 20.289062 5.984375 20.179688 6.09375 20.070312 6.210938 C 20.03125 6.242188 20 6.273438 19.96875 6.304688 C 19.867188 6.40625 19.867188 6.40625 19.75 6.5625 C 19.757812 6.8125 19.929688 7 20.0625 7.203125 C 20.109375 7.273438 20.15625 7.335938 20.203125 7.40625 C 20.242188 7.460938 20.273438 7.507812 20.3125 7.5625 C 20.570312 7.460938 20.75 7.265625 20.9375 7.070312 C 20.976562 7.039062 21.015625 7 21.054688 6.960938 C 21.179688 6.835938 21.296875 6.710938 21.421875 6.59375 C 21.507812 6.507812 21.59375 6.421875 21.679688 6.335938 C 21.898438 6.109375 22.125 5.882812 22.34375 5.664062 C 22.578125 5.429688 22.804688 5.203125 23.03125 4.976562 C 23.476562 4.523438 23.929688 4.078125 24.375 3.625 C 24.179688 3.46875 23.984375 3.3125 23.773438 3.171875 C 23.726562 3.140625 23.679688 3.109375 23.632812 3.070312 C 23.367188 2.921875 23.257812 3.03125 23.0625 3.226562 Z M 24.78125 4.632812 C 24.742188 4.679688 24.695312 4.71875 24.65625 4.757812 C 24.515625 4.898438 24.382812 5.03125 24.242188 5.171875 C 24.148438 5.265625 24.054688 5.359375 23.960938 5.453125 C 23.757812 5.648438 23.554688 5.851562 23.359375 6.046875 C 23.101562 6.304688 22.84375 6.554688 22.585938 6.8125 C 22.390625 7.007812 22.195312 7.203125 22 7.398438 C 21.90625 7.492188 21.8125 7.585938 21.710938 7.679688 C 21.578125 7.8125 21.453125 7.945312 21.320312 8.078125 C 21.28125 8.109375 21.242188 8.148438 21.195312 8.195312 C 21.101562 8.289062 21.015625 8.382812 20.9375 8.5 C 20.929688 8.671875 20.929688 8.671875 21 8.8125 C 21.03125 8.882812 21.054688 8.953125 21.085938 9.023438 C 21.125 9.09375 21.15625 9.164062 21.1875 9.234375 C 21.226562 9.3125 21.257812 9.382812 21.296875 9.460938 C 21.320312 9.515625 21.351562 9.570312 21.375 9.625 C 21.554688 9.539062 21.6875 9.453125 21.828125 9.3125 C 21.867188 9.273438 21.898438 9.234375 21.945312 9.195312 C 22 9.132812 22 9.132812 22.070312 9.070312 C 22.132812 9.007812 22.132812 9.007812 22.203125 8.9375 C 22.34375 8.796875 22.492188 8.648438 22.632812 8.5 C 22.734375 8.40625 22.835938 8.304688 22.9375 8.203125 C 23.203125 7.9375 23.460938 7.671875 23.726562 7.40625 C 24 7.132812 24.265625 6.867188 24.539062 6.59375 C 25.070312 6.0625 25.59375 5.53125 26.125 5 C 25.9375 4.8125 25.75 4.625 25.546875 4.453125 C 25.507812 4.414062 25.46875 4.375 25.421875 4.335938 C 25.148438 4.125 24.976562 4.445312 24.78125 4.632812 Z M 26.679688 5.9375 C 26.617188 6 26.617188 6 26.546875 6.0625 C 26.5 6.109375 26.453125 6.15625 26.40625 6.203125 C 26.335938 6.273438 26.335938 6.273438 26.257812 6.34375 C 25.804688 6.789062 25.359375 7.234375 24.90625 7.679688 C 24.578125 8.007812 24.242188 8.335938 23.90625 8.65625 C 23.640625 8.914062 23.382812 9.179688 23.125 9.4375 C 23.007812 9.546875 22.898438 9.65625 22.789062 9.765625 C 22.625 9.914062 22.476562 10.070312 22.320312 10.226562 C 22.273438 10.273438 22.226562 10.320312 22.179688 10.359375 C 21.945312 10.59375 21.945312 10.59375 21.875 10.898438 C 21.90625 11.046875 21.945312 11.171875 22 11.3125 C 22.015625 11.375 22.03125 11.4375 22.054688 11.507812 C 22.070312 11.554688 22.085938 11.609375 22.101562 11.65625 C 22.117188 11.710938 22.132812 11.765625 22.148438 11.820312 C 22.164062 11.859375 22.171875 11.898438 22.1875 11.9375 C 22.375 11.953125 22.375 11.953125 22.476562 11.859375 C 22.515625 11.820312 22.554688 11.78125 22.59375 11.734375 C 22.640625 11.695312 22.6875 11.648438 22.734375 11.601562 C 22.804688 11.53125 22.804688 11.53125 22.875 11.453125 C 22.929688 11.40625 22.984375 11.351562 23.03125 11.296875 C 23.203125 11.132812 23.375 10.960938 23.539062 10.789062 C 23.65625 10.671875 23.773438 10.554688 23.890625 10.4375 C 24.171875 10.15625 24.453125 9.875 24.726562 9.601562 C 25.039062 9.28125 25.359375 8.960938 25.671875 8.648438 C 26.328125 7.992188 26.976562 7.34375 27.625 6.6875 C 27.523438 6.421875 27.40625 6.25 27.21875 6.046875 C 27.164062 5.984375 27.117188 5.929688 27.0625 5.875 C 27.023438 5.835938 26.976562 5.789062 26.9375 5.75 C 26.820312 5.75 26.757812 5.859375 26.679688 5.9375 Z M 28.25 7.5 C 27.492188 8.226562 26.742188 8.953125 25.992188 9.6875 C 25.648438 10.023438 25.296875 10.367188 24.945312 10.695312 C 24.640625 10.992188 24.335938 11.289062 24.039062 11.585938 C 23.875 11.742188 23.71875 11.898438 23.554688 12.054688 C 22.789062 12.710938 22.789062 12.710938 22.445312 13.609375 C 22.460938 14 22.53125 14.359375 22.75 14.6875 C 24.789062 12.648438 26.835938 10.601562 28.9375 8.5 C 28.648438 7.921875 28.648438 7.921875 28.25 7.5 Z M 29.179688 9.6875 C 29.117188 9.742188 29.0625 9.804688 29.007812 9.859375 C 28.945312 9.921875 28.882812 9.984375 28.820312 10.046875 C 28.75 10.109375 28.6875 10.179688 28.617188 10.242188 C 28.4375 10.421875 28.265625 10.601562 28.085938 10.78125 C 27.96875 10.890625 27.859375 11 27.75 11.109375 C 27.398438 11.460938 27.046875 11.804688 26.703125 12.15625 C 26.296875 12.5625 25.890625 12.960938 25.484375 13.367188 C 25.171875 13.671875 24.867188 13.984375 24.554688 14.296875 C 24.367188 14.484375 24.179688 14.671875 23.992188 14.851562 C 23.820312 15.03125 23.640625 15.203125 23.46875 15.375 C 23.40625 15.445312 23.335938 15.507812 23.273438 15.570312 C 23.1875 15.65625 23.101562 15.742188 23.007812 15.835938 C 22.960938 15.882812 22.914062 15.929688 22.859375 15.984375 C 22.671875 16.226562 22.679688 16.484375 22.664062 16.78125 C 22.664062 16.84375 22.664062 16.914062 22.65625 16.976562 C 22.65625 17.039062 22.65625 17.109375 22.65625 17.171875 C 22.648438 17.242188 22.648438 17.3125 22.640625 17.382812 C 22.640625 17.546875 22.632812 17.710938 22.625 17.875 C 23.023438 17.546875 23.382812 17.195312 23.742188 16.828125 C 23.8125 16.765625 23.882812 16.695312 23.945312 16.632812 C 24.171875 16.40625 24.390625 16.1875 24.609375 15.96875 C 24.648438 15.929688 24.6875 15.898438 24.726562 15.859375 C 25.078125 15.5 25.4375 15.148438 25.789062 14.796875 C 26.242188 14.34375 26.695312 13.890625 27.15625 13.445312 C 27.476562 13.125 27.789062 12.804688 28.109375 12.492188 C 28.304688 12.296875 28.492188 12.109375 28.6875 11.921875 C 28.867188 11.742188 29.039062 11.5625 29.21875 11.382812 C 29.289062 11.320312 29.351562 11.257812 29.421875 11.1875 C 29.507812 11.101562 29.601562 11.007812 29.6875 10.921875 C 29.734375 10.875 29.789062 10.820312 29.835938 10.773438 C 29.953125 10.632812 29.953125 10.632812 29.929688 10.460938 C 29.859375 10.257812 29.773438 10.054688 29.6875 9.859375 C 29.65625 9.796875 29.65625 9.796875 29.632812 9.734375 C 29.585938 9.632812 29.546875 9.539062 29.5 9.4375 C 29.375 9.4375 29.257812 9.609375 29.179688 9.6875 Z M 30.3125 11.75 C 29.265625 12.773438 28.21875 13.796875 27.179688 14.828125 C 26.695312 15.304688 26.210938 15.78125 25.726562 16.257812 C 25.304688 16.671875 24.882812 17.09375 24.460938 17.507812 C 24.234375 17.726562 24.015625 17.953125 23.789062 18.164062 C 22.460938 19.414062 22.460938 19.414062 21.84375 21.085938 C 21.796875 21.335938 21.703125 21.5625 21.609375 21.796875 C 21.546875 21.9375 21.546875 21.9375 21.625 22.0625 C 21.65625 22.03125 21.679688 22.007812 21.710938 21.976562 C 22.414062 21.273438 23.117188 20.5625 23.820312 19.859375 C 24.164062 19.523438 24.507812 19.179688 24.84375 18.835938 C 25.140625 18.539062 25.4375 18.242188 25.734375 17.945312 C 25.890625 17.789062 26.046875 17.632812 26.203125 17.476562 C 26.382812 17.296875 26.554688 17.125 26.734375 16.945312 C 26.78125 16.898438 26.835938 16.84375 26.890625 16.789062 C 27.1875 16.492188 27.492188 16.210938 27.8125 15.9375 C 28.210938 15.578125 28.601562 15.210938 28.992188 14.835938 C 29.164062 14.671875 29.328125 14.507812 29.507812 14.351562 C 30.265625 13.71875 30.265625 13.71875 30.726562 12.890625 C 30.71875 12.453125 30.546875 12.109375 30.3125 11.75 Z M 30.8125 14.375 C 30.78125 14.40625 30.75 14.4375 30.710938 14.476562 C 29.90625 15.28125 29.101562 16.085938 28.296875 16.898438 C 27.90625 17.28125 27.515625 17.671875 27.125 18.0625 C 26.789062 18.40625 26.445312 18.742188 26.109375 19.085938 C 25.929688 19.265625 25.75 19.445312 25.570312 19.625 C 25.398438 19.796875 25.226562 19.960938 25.0625 20.132812 C 25 20.195312 24.9375 20.257812 24.875 20.320312 C 24.570312 20.625 24.257812 20.929688 23.929688 21.210938 C 23.734375 21.382812 23.546875 21.570312 23.359375 21.757812 C 23.320312 21.796875 23.273438 21.835938 23.234375 21.882812 C 23.09375 22.023438 22.953125 22.15625 22.820312 22.296875 C 22.765625 22.34375 22.71875 22.390625 22.671875 22.4375 C 22.421875 22.6875 22.171875 22.945312 21.914062 23.195312 C 21.65625 23.453125 21.398438 23.710938 21.140625 23.96875 C 20.9375 24.164062 20.742188 24.367188 20.539062 24.5625 C 20.445312 24.65625 20.351562 24.757812 20.257812 24.851562 C 19.742188 25.359375 19.265625 25.867188 18.828125 26.4375 C 18.664062 26.65625 18.476562 26.84375 18.273438 27.03125 C 18.171875 27.117188 18.171875 27.117188 18.1875 27.25 C 18.15625 27.265625 18.117188 27.28125 18.078125 27.296875 C 17.898438 27.398438 17.78125 27.53125 17.632812 27.6875 C 17.242188 28.085938 16.820312 28.421875 16.375 28.75 C 16.335938 28.78125 16.296875 28.8125 16.25 28.84375 C 15.304688 29.546875 14.28125 30.164062 13.1875 30.625 C 13.210938 30.664062 13.226562 30.710938 13.25 30.75 C 13.367188 30.78125 13.367188 30.78125 13.515625 30.804688 C 13.59375 30.8125 13.59375 30.8125 13.679688 30.828125 C 13.742188 30.835938 13.804688 30.835938 13.859375 30.84375 C 13.945312 30.859375 13.945312 30.859375 14.03125 30.875 C 14.148438 30.890625 14.273438 30.898438 14.390625 30.914062 C 14.570312 30.929688 14.71875 30.960938 14.882812 31 C 15.296875 31.09375 15.671875 31.117188 16.054688 30.898438 C 16.507812 30.5625 16.90625 30.15625 17.296875 29.75 C 17.484375 29.5625 17.671875 29.382812 17.851562 29.195312 C 18.21875 28.84375 18.578125 28.484375 18.9375 28.117188 C 19.226562 27.828125 19.515625 27.53125 19.8125 27.242188 C 19.851562 27.195312 19.890625 27.15625 19.9375 27.117188 C 20.023438 27.03125 20.109375 26.945312 20.195312 26.859375 C 20.984375 26.070312 21.78125 25.273438 22.570312 24.476562 C 23.25 23.789062 23.929688 23.109375 24.609375 22.4375 C 25.40625 21.648438 26.195312 20.859375 26.984375 20.0625 C 27.070312 19.976562 27.15625 19.898438 27.242188 19.8125 C 27.28125 19.765625 27.320312 19.726562 27.367188 19.6875 C 27.65625 19.390625 27.953125 19.101562 28.242188 18.8125 C 28.601562 18.453125 28.960938 18.101562 29.3125 17.742188 C 29.492188 17.554688 29.671875 17.375 29.851562 17.195312 C 30.664062 16.46875 30.664062 16.46875 31.070312 15.507812 C 31.078125 15.117188 31.015625 14.71875 30.8125 14.375 Z M 30.601562 17.765625 C 30.554688 17.8125 30.507812 17.859375 30.460938 17.90625 C 30.40625 17.960938 30.351562 18.015625 30.304688 18.0625 C 30.25 18.117188 30.195312 18.171875 30.140625 18.226562 C 29.984375 18.382812 29.835938 18.53125 29.6875 18.679688 C 29.523438 18.84375 29.359375 19.007812 29.195312 19.171875 C 28.875 19.484375 28.5625 19.804688 28.242188 20.125 C 27.984375 20.382812 27.726562 20.640625 27.46875 20.898438 C 27.429688 20.9375 27.390625 20.976562 27.351562 21.015625 C 27.28125 21.085938 27.203125 21.164062 27.132812 21.234375 C 26.429688 21.9375 25.726562 22.640625 25.023438 23.34375 C 24.421875 23.945312 23.820312 24.546875 23.21875 25.148438 C 22.523438 25.84375 21.820312 26.546875 21.125 27.242188 C 21.046875 27.3125 20.976562 27.390625 20.898438 27.46875 C 20.867188 27.5 20.828125 27.539062 20.789062 27.578125 C 20.53125 27.835938 20.273438 28.09375 20.015625 28.351562 C 19.703125 28.664062 19.382812 28.984375 19.070312 29.296875 C 18.90625 29.460938 18.75 29.617188 18.585938 29.78125 C 18.414062 29.953125 18.242188 30.125 18.0625 30.304688 C 18.015625 30.351562 17.960938 30.40625 17.90625 30.460938 C 17.859375 30.507812 17.820312 30.546875 17.765625 30.601562 C 17.726562 30.640625 17.6875 30.679688 17.648438 30.71875 C 17.554688 30.796875 17.554688 30.796875 17.5625 30.875 C 17.789062 30.867188 18.015625 30.851562 18.242188 30.828125 C 18.328125 30.820312 18.414062 30.8125 18.5 30.804688 C 19.46875 30.703125 19.976562 30.210938 20.640625 29.539062 C 20.75 29.429688 20.859375 29.320312 20.96875 29.21875 C 21.226562 28.953125 21.492188 28.695312 21.75 28.429688 C 21.960938 28.21875 22.171875 28.007812 22.390625 27.789062 C 22.429688 27.75 22.429688 27.75 22.476562 27.703125 C 22.539062 27.640625 22.601562 27.578125 22.664062 27.515625 C 23.242188 26.9375 23.820312 26.359375 24.398438 25.78125 C 24.890625 25.28125 25.382812 24.789062 25.882812 24.296875 C 26.460938 23.726562 27.03125 23.148438 27.609375 22.570312 C 27.671875 22.507812 27.734375 22.445312 27.789062 22.390625 C 27.835938 22.34375 27.835938 22.34375 27.882812 22.296875 C 28.09375 22.085938 28.3125 21.867188 28.523438 21.65625 C 28.8125 21.375 29.09375 21.085938 29.375 20.796875 C 29.484375 20.695312 29.585938 20.59375 29.695312 20.484375 C 30.359375 19.828125 30.734375 19.320312 30.8125 18.375 C 30.820312 18.289062 30.828125 18.203125 30.835938 18.117188 C 30.859375 17.929688 30.867188 17.75 30.875 17.5625 C 30.757812 17.5625 30.679688 17.6875 30.601562 17.765625 Z M 29.6875 21.8125 C 27.085938 24.414062 24.492188 27.007812 21.8125 29.6875 C 22.007812 29.773438 22.007812 29.773438 22.203125 29.664062 C 22.28125 29.625 22.367188 29.585938 22.453125 29.539062 C 22.492188 29.515625 22.539062 29.492188 22.585938 29.46875 C 22.726562 29.398438 22.859375 29.320312 23 29.25 C 23.0625 29.21875 23.0625 29.21875 23.125 29.179688 C 24.890625 28.25 26.53125 26.890625 27.75 25.3125 C 27.773438 25.28125 27.804688 25.242188 27.828125 25.210938 C 28.539062 24.28125 29.125 23.296875 29.625 22.25 C 29.648438 22.203125 29.679688 22.15625 29.703125 22.109375 C 29.765625 21.984375 29.765625 21.984375 29.6875 21.8125 Z M 29.6875 21.8125 "/>
        <path style=" stroke:none;fill-rule:nonzero;fill:#ffffff;fill-opacity:1;" d="M 2.5625 14.4375 C 3.945312 14.4375 5.328125 14.4375 6.75 14.4375 C 6.75 14.789062 6.75 15.140625 6.75 15.5 C 5.367188 15.5 3.984375 15.5 2.5625 15.5 C 2.5625 15.148438 2.5625 14.796875 2.5625 14.4375 Z M 2.5625 14.4375 "/>
        <path style=" stroke:none;fill-rule:nonzero;fill:#ffffff;fill-opacity:1;" d="M 7.6875 16.5 C 8.90625 16.5 10.125 16.5 11.375 16.5 C 11.375 16.851562 11.375 17.203125 11.375 17.5625 C 10.15625 17.5625 8.9375 17.5625 7.6875 17.5625 C 7.6875 17.210938 7.6875 16.859375 7.6875 16.5 Z M 7.6875 16.5 "/>
        <path style=" stroke:none;fill-rule:nonzero;fill:#ffffff;fill-opacity:1;" d="M 11.8125 19.0625 C 12.867188 19.0625 13.914062 19.0625 15 19.0625 C 15 19.414062 15 19.765625 15 20.125 C 13.945312 20.125 12.898438 20.125 11.8125 20.125 C 11.8125 19.773438 11.8125 19.421875 11.8125 19.0625 Z M 11.8125 19.0625 "/>
        <path style=" stroke:none;fill-rule:nonzero;fill:#ffffff;fill-opacity:1;" d="M 11.8125 6.1875 C 12.515625 6.1875 13.21875 6.1875 13.9375 6.1875 C 13.9375 6.539062 13.9375 6.890625 13.9375 7.25 C 13.234375 7.25 12.53125 7.25 11.8125 7.25 C 11.8125 6.898438 11.8125 6.546875 11.8125 6.1875 Z M 11.8125 6.1875 "/>
    </g>
</svg>