<svg xmlns="http://www.w3.org/2000/svg" xmlns:xlink="http://www.w3.org/1999/xlink" width="32px" height="32px" viewBox="0 0 32 32" version="1.1">
    <g id="surface1">
        <path style=" stroke:none;fill-rule:nonzero;fill:#ffffff;fill-opacity:1;" d="M 16.0625 0.09375 C 16.578125 0.382812 16.929688 0.75 17.125 1.3125 C 17.125 1.398438 17.125 1.476562 17.125 1.5625 C 17.179688 1.570312 17.234375 1.570312 17.289062 1.578125 C 19.828125 1.835938 22.34375 2.953125 24.3125 4.5625 C 24.40625 4.640625 24.40625 4.640625 24.5 4.710938 C 25.382812 5.421875 26.195312 6.234375 26.859375 7.148438 C 26.9375 7.25 27.007812 7.34375 27.085938 7.445312 C 28.414062 9.1875 29.742188 11.867188 29.6875 14.125 C 29.71875 14.132812 29.757812 14.132812 29.796875 14.140625 C 30.304688 14.226562 30.632812 14.460938 30.953125 14.859375 C 31.242188 15.265625 31.382812 15.757812 31.3125 16.25 C 31.195312 16.867188 30.898438 17.3125 30.382812 17.671875 C 30.164062 17.796875 29.9375 17.835938 29.6875 17.875 C 29.679688 17.945312 29.679688 17.945312 29.679688 18.015625 C 29.648438 18.476562 29.570312 18.921875 29.460938 19.375 C 29.445312 19.445312 29.429688 19.507812 29.414062 19.578125 C 28.90625 21.59375 27.992188 23.445312 26.6875 25.0625 C 26.648438 25.117188 26.648438 25.117188 26.601562 25.164062 C 24.453125 27.875 21.234375 29.8125 17.8125 30.375 C 17.585938 30.398438 17.351562 30.421875 17.125 30.4375 C 17.125 30.5 17.117188 30.5625 17.117188 30.625 C 17.054688 31.078125 16.71875 31.460938 16.367188 31.734375 C 15.875 32.0625 15.320312 32.0625 14.75 32 C 14.515625 31.921875 14.328125 31.828125 14.125 31.6875 C 14.070312 31.648438 14.007812 31.609375 13.953125 31.578125 C 13.617188 31.242188 13.460938 30.890625 13.375 30.4375 C 13.320312 30.429688 13.265625 30.429688 13.203125 30.421875 C 10.882812 30.1875 8.375 29.210938 6.585938 27.695312 C 6.4375 27.601562 6.4375 27.601562 6.25 27.664062 C 6.140625 27.71875 6.023438 27.765625 5.914062 27.820312 C 5.492188 27.960938 4.914062 27.945312 4.5 27.78125 C 3.976562 27.492188 3.585938 27.085938 3.398438 26.507812 C 3.304688 26 3.34375 25.539062 3.585938 25.078125 C 3.640625 24.882812 3.59375 24.804688 3.5 24.625 C 3.4375 24.53125 3.375 24.4375 3.3125 24.351562 C 2.796875 23.632812 2.375 22.859375 2 22.0625 C 1.96875 21.992188 1.96875 21.992188 1.9375 21.929688 C 0.390625 18.5625 0.289062 14.601562 1.5 11.125 C 1.671875 10.671875 1.867188 10.21875 2.0625 9.773438 C 2.09375 9.703125 2.09375 9.703125 2.125 9.625 C 2.148438 9.570312 2.171875 9.515625 2.195312 9.453125 C 2.265625 9.320312 2.265625 9.320312 2.210938 9.195312 C 2.179688 9.15625 2.15625 9.117188 2.132812 9.078125 C 1.945312 8.742188 1.945312 8.421875 2.03125 8.046875 C 2.15625 7.671875 2.375 7.375 2.71875 7.164062 C 3.0625 7 3.4375 7.039062 3.8125 7.0625 C 3.828125 7.03125 3.84375 6.992188 3.859375 6.953125 C 3.953125 6.78125 4.070312 6.65625 4.203125 6.515625 C 4.367188 6.328125 4.539062 6.140625 4.703125 5.945312 C 5.554688 4.96875 6.632812 4.164062 7.75 3.5 C 7.789062 3.476562 7.828125 3.453125 7.875 3.421875 C 9.4375 2.484375 11.515625 1.5625 13.375 1.5625 C 13.382812 1.523438 13.390625 1.484375 13.40625 1.445312 C 13.546875 0.882812 13.765625 0.53125 14.265625 0.21875 C 14.773438 -0.0703125 15.5 -0.132812 16.0625 0.09375 Z M 14.5 1.375 C 14.359375 1.617188 14.328125 1.851562 14.375 2.125 C 14.515625 2.390625 14.671875 2.601562 14.9375 2.75 C 15.25 2.804688 15.492188 2.789062 15.78125 2.640625 C 16.046875 2.40625 16.15625 2.25 16.1875 1.882812 C 16.1875 1.65625 16.109375 1.5 16 1.3125 C 15.703125 1.039062 15.5 0.96875 15.101562 0.976562 C 14.828125 1.015625 14.664062 1.164062 14.5 1.375 Z M 6.257812 5.875 C 6.140625 5.992188 6.007812 6.09375 5.882812 6.203125 C 5.546875 6.492188 5.25 6.828125 4.960938 7.15625 C 4.882812 7.242188 4.804688 7.328125 4.71875 7.414062 C 4.609375 7.554688 4.609375 7.554688 4.640625 7.710938 C 4.664062 7.757812 4.679688 7.804688 4.703125 7.859375 C 4.859375 8.304688 4.875 8.695312 4.6875 9.140625 C 4.515625 9.453125 4.210938 9.703125 3.875 9.8125 C 3.796875 9.804688 3.796875 9.804688 3.726562 9.796875 C 3.515625 9.78125 3.382812 9.796875 3.1875 9.875 C 2.960938 10.179688 2.828125 10.523438 2.6875 10.875 C 2.65625 10.953125 2.617188 11.03125 2.585938 11.109375 C 1.273438 14.28125 1.445312 17.96875 2.6875 21.125 C 3.164062 22.257812 3.757812 23.273438 4.5 24.25 C 4.570312 24.226562 4.640625 24.210938 4.71875 24.1875 C 5.273438 24.054688 5.734375 24.117188 6.25 24.375 C 6.703125 24.679688 7 25.085938 7.125 25.625 C 7.148438 26.03125 7.117188 26.414062 7.0625 26.8125 C 8.796875 28.132812 11.25 29.4375 13.5 29.4375 C 13.59375 29.3125 13.59375 29.3125 13.671875 29.148438 C 13.914062 28.710938 14.273438 28.460938 14.75 28.3125 C 15.4375 28.25 15.992188 28.296875 16.546875 28.734375 C 16.773438 28.9375 16.914062 29.179688 17.0625 29.4375 C 17.492188 29.40625 17.898438 29.34375 18.3125 29.234375 C 18.367188 29.226562 18.429688 29.210938 18.484375 29.195312 C 20.882812 28.601562 22.96875 27.390625 24.75 25.6875 C 24.804688 25.632812 24.867188 25.578125 24.921875 25.523438 C 25.375 25.085938 25.75 24.625 26.125 24.125 C 26.164062 24.070312 26.164062 24.070312 26.203125 24.015625 C 26.65625 23.421875 27.03125 22.789062 27.375 22.125 C 27.398438 22.085938 27.421875 22.039062 27.445312 21.992188 C 28.015625 20.882812 28.898438 19.023438 28.6875 17.75 C 28.5625 17.640625 28.5625 17.640625 28.398438 17.578125 C 27.984375 17.351562 27.789062 17.0625 27.617188 16.632812 C 27.453125 16.054688 27.515625 15.460938 27.8125 14.9375 C 28.039062 14.585938 28.320312 14.429688 28.6875 14.25 C 28.65625 13.742188 28.585938 13.265625 28.460938 12.78125 C 28.445312 12.710938 28.429688 12.648438 28.414062 12.578125 C 27.804688 10.289062 26.625 8.234375 24.976562 6.539062 C 24.882812 6.445312 24.796875 6.359375 24.710938 6.265625 C 24.304688 5.835938 23.84375 5.476562 23.375 5.125 C 23.34375 5.101562 23.304688 5.070312 23.265625 5.046875 C 21.84375 3.960938 20.171875 3.210938 18.4375 2.789062 C 18.367188 2.773438 18.304688 2.757812 18.234375 2.742188 C 17.84375 2.648438 17.460938 2.59375 17.0625 2.5625 C 17.039062 2.601562 17.007812 2.640625 16.984375 2.6875 C 16.65625 3.179688 16.335938 3.53125 15.75 3.6875 C 15.148438 3.75 14.632812 3.734375 14.125 3.375 C 13.875 3.171875 13.734375 2.945312 13.578125 2.664062 C 13.554688 2.625 13.53125 2.59375 13.5 2.5625 C 10.945312 2.5625 8.078125 4.179688 6.257812 5.875 Z M 3.09375 8.15625 C 2.976562 8.3125 2.976562 8.3125 3 8.539062 C 3.039062 8.765625 3.039062 8.765625 3.25 8.875 C 3.507812 8.898438 3.59375 8.898438 3.8125 8.75 C 3.882812 8.539062 3.882812 8.539062 3.875 8.3125 C 3.789062 8.148438 3.789062 8.148438 3.625 8.0625 C 3.398438 8.023438 3.296875 8.03125 3.09375 8.15625 Z M 28.625 15.5 C 28.484375 15.742188 28.453125 15.976562 28.5 16.25 C 28.640625 16.515625 28.796875 16.726562 29.0625 16.875 C 29.375 16.929688 29.617188 16.914062 29.90625 16.765625 C 30.171875 16.53125 30.28125 16.375 30.3125 16.007812 C 30.3125 15.78125 30.234375 15.625 30.125 15.4375 C 29.828125 15.164062 29.625 15.09375 29.226562 15.101562 C 28.953125 15.140625 28.789062 15.289062 28.625 15.5 Z M 4.539062 25.414062 C 4.375 25.671875 4.335938 25.890625 4.375 26.1875 C 4.5 26.523438 4.679688 26.71875 5 26.875 C 5.296875 26.914062 5.507812 26.90625 5.773438 26.765625 C 6.070312 26.515625 6.164062 26.34375 6.1875 25.953125 C 6.179688 25.640625 6.039062 25.476562 5.828125 25.265625 C 5.390625 24.96875 4.90625 24.992188 4.539062 25.414062 Z M 14.5 29.625 C 14.359375 29.867188 14.328125 30.101562 14.375 30.375 C 14.515625 30.640625 14.671875 30.851562 14.9375 31 C 15.25 31.054688 15.492188 31.039062 15.78125 30.890625 C 16.046875 30.65625 16.15625 30.5 16.1875 30.132812 C 16.1875 29.90625 16.109375 29.75 16 29.5625 C 15.703125 29.289062 15.5 29.21875 15.101562 29.226562 C 14.828125 29.265625 14.664062 29.414062 14.5 29.625 Z M 14.5 29.625 "/>
        <path style=" stroke:none;fill-rule:nonzero;fill:#ffffff;fill-opacity:1;" d="M 16.0625 5.46875 C 16.585938 5.757812 16.914062 6.125 17.125 6.6875 C 17.125 6.726562 17.125 6.773438 17.125 6.8125 C 17.203125 6.820312 17.289062 6.828125 17.367188 6.835938 C 18.648438 6.976562 20.015625 7.6875 21 8.5 C 21.03125 8.523438 21.0625 8.554688 21.101562 8.578125 C 21.34375 8.78125 21.578125 8.984375 21.8125 9.1875 C 21.859375 9.226562 21.90625 9.265625 21.945312 9.304688 C 23.414062 10.6875 24.398438 12.828125 24.625 14.8125 C 24.632812 14.867188 24.640625 14.929688 24.648438 14.992188 C 24.867188 17.234375 24.351562 19.710938 22.929688 21.507812 C 22.859375 21.625 22.859375 21.625 22.929688 21.773438 C 22.953125 21.828125 22.976562 21.882812 23 21.9375 C 23.0625 22.460938 22.96875 22.867188 22.648438 23.296875 C 22.390625 23.570312 22.09375 23.726562 21.71875 23.765625 C 21.460938 23.773438 21.28125 23.757812 21.039062 23.671875 C 20.8125 23.601562 20.8125 23.601562 20.609375 23.726562 C 20.53125 23.78125 20.460938 23.835938 20.390625 23.890625 C 18.5 25.257812 16.023438 25.679688 13.75 25.3125 C 11.789062 24.953125 10.078125 24.09375 8.648438 22.710938 C 8.578125 22.640625 8.5 22.570312 8.429688 22.507812 C 7.226562 21.398438 6.382812 19.679688 6.070312 18.101562 C 6.023438 17.875 6.023438 17.875 5.859375 17.765625 C 5.804688 17.742188 5.757812 17.726562 5.703125 17.703125 C 5.617188 17.664062 5.617188 17.664062 5.53125 17.625 C 5.453125 17.59375 5.453125 17.59375 5.375 17.5625 C 5.023438 17.34375 4.78125 16.960938 4.648438 16.570312 C 4.53125 15.882812 4.632812 15.3125 5.007812 14.734375 C 5.289062 14.460938 5.625 14.25 6 14.125 C 6.054688 14.007812 6.054688 14.007812 6.085938 13.867188 C 6.101562 13.8125 6.109375 13.757812 6.125 13.703125 C 6.140625 13.648438 6.15625 13.585938 6.171875 13.53125 C 6.335938 12.921875 6.539062 12.367188 6.8125 11.8125 C 6.84375 11.742188 6.882812 11.671875 6.914062 11.601562 C 7.34375 10.757812 7.90625 10.054688 8.5625 9.375 C 8.609375 9.328125 8.648438 9.28125 8.695312 9.226562 C 9.664062 8.203125 11.023438 7.375 12.398438 7.039062 C 13.015625 6.921875 13.015625 6.921875 13.515625 6.601562 C 13.59375 6.4375 13.640625 6.296875 13.6875 6.125 C 14.148438 5.375 15.273438 5.148438 16.0625 5.46875 Z M 14.5 6.75 C 14.359375 6.992188 14.328125 7.226562 14.375 7.5 C 14.515625 7.765625 14.671875 7.976562 14.9375 8.125 C 15.25 8.179688 15.492188 8.164062 15.78125 8.015625 C 16.046875 7.78125 16.15625 7.625 16.1875 7.257812 C 16.1875 7.03125 16.109375 6.875 16 6.6875 C 15.703125 6.414062 15.5 6.34375 15.101562 6.351562 C 14.828125 6.390625 14.664062 6.539062 14.5 6.75 Z M 9.265625 10.078125 C 8.179688 11.179688 7.28125 12.640625 7.0625 14.1875 C 7.101562 14.203125 7.140625 14.21875 7.1875 14.234375 C 7.671875 14.460938 8.015625 14.734375 8.242188 15.234375 C 8.4375 15.804688 8.421875 16.320312 8.1875 16.875 C 7.921875 17.34375 7.5625 17.625 7.0625 17.8125 C 7.375 19.320312 8.085938 20.617188 9.125 21.75 C 9.171875 21.796875 9.21875 21.851562 9.265625 21.90625 C 9.875 22.546875 10.59375 23.03125 11.375 23.4375 C 11.484375 23.492188 11.484375 23.492188 11.59375 23.554688 C 12.4375 23.976562 13.375 24.273438 14.3125 24.375 C 14.382812 24.382812 14.453125 24.390625 14.53125 24.398438 C 16.53125 24.578125 18.390625 24.015625 20.0625 22.9375 C 20.210938 22.820312 20.210938 22.820312 20.1875 22.640625 C 20.1875 22.578125 20.179688 22.507812 20.171875 22.4375 C 20.171875 22.015625 20.242188 21.710938 20.5 21.375 C 20.710938 21.171875 20.914062 21.03125 21.1875 20.9375 C 21.328125 20.945312 21.46875 20.960938 21.609375 20.96875 C 21.929688 20.976562 21.929688 20.976562 22.203125 20.835938 C 22.320312 20.664062 22.40625 20.5 22.5 20.3125 C 22.539062 20.234375 22.585938 20.15625 22.625 20.085938 C 23.726562 18.007812 23.976562 15.773438 23.296875 13.515625 C 22.6875 11.609375 21.445312 9.945312 19.75 8.875 C 19.679688 8.828125 19.609375 8.789062 19.539062 8.742188 C 18.789062 8.289062 17.945312 7.90625 17.0625 7.8125 C 17.046875 7.851562 17.03125 7.890625 17.015625 7.9375 C 16.796875 8.414062 16.515625 8.765625 16.03125 9 C 15.523438 9.15625 14.875 9.15625 14.390625 8.921875 C 13.945312 8.65625 13.65625 8.28125 13.4375 7.8125 C 11.9375 7.8125 10.273438 9.085938 9.265625 10.078125 Z M 5.75 15.5 C 5.609375 15.742188 5.578125 15.976562 5.625 16.25 C 5.765625 16.515625 5.921875 16.726562 6.1875 16.875 C 6.5 16.929688 6.742188 16.914062 7.03125 16.765625 C 7.296875 16.53125 7.40625 16.375 7.4375 16.007812 C 7.4375 15.78125 7.359375 15.625 7.25 15.4375 C 6.953125 15.164062 6.75 15.09375 6.351562 15.101562 C 6.078125 15.140625 5.914062 15.289062 5.75 15.5 Z M 21.125 22.1875 C 21.117188 22.414062 21.148438 22.515625 21.296875 22.6875 C 21.492188 22.773438 21.601562 22.757812 21.8125 22.6875 C 21.953125 22.554688 21.992188 22.46875 22.03125 22.28125 C 21.992188 22.070312 21.921875 22 21.75 21.875 C 21.445312 21.804688 21.304688 21.945312 21.125 22.1875 Z M 21.125 22.1875 "/>
        <path style=" stroke:none;fill-rule:nonzero;fill:#ffffff;fill-opacity:1;" d="M 14.75 10.5625 C 15.078125 10.5625 15.40625 10.5625 15.75 10.5625 C 15.75 11.117188 15.75 11.679688 15.75 12.25 C 15.976562 12.289062 16.203125 12.335938 16.4375 12.375 C 16.65625 12.445312 16.65625 12.445312 16.84375 12.53125 C 16.898438 12.554688 16.960938 12.578125 17.023438 12.601562 C 17.1875 12.6875 17.1875 12.6875 17.320312 12.796875 C 17.429688 12.890625 17.429688 12.890625 17.554688 12.859375 C 17.71875 12.796875 17.804688 12.710938 17.929688 12.585938 C 17.976562 12.539062 18.015625 12.5 18.0625 12.453125 C 18.109375 12.40625 18.15625 12.359375 18.203125 12.3125 C 18.25 12.257812 18.296875 12.210938 18.34375 12.164062 C 18.460938 12.046875 18.570312 11.929688 18.6875 11.8125 C 18.898438 11.914062 19.039062 12.023438 19.203125 12.195312 C 19.25 12.242188 19.289062 12.289062 19.335938 12.335938 C 19.382812 12.382812 19.382812 12.382812 19.4375 12.4375 C 19.351562 12.632812 19.25 12.757812 19.09375 12.90625 C 19.054688 12.945312 19.007812 12.992188 18.96875 13.03125 C 18.875 13.117188 18.789062 13.195312 18.695312 13.28125 C 18.65625 13.320312 18.609375 13.359375 18.570312 13.40625 C 18.53125 13.4375 18.492188 13.476562 18.453125 13.515625 C 18.359375 13.617188 18.359375 13.617188 18.390625 13.75 C 18.460938 13.9375 18.554688 14.117188 18.65625 14.296875 C 18.859375 14.703125 19 15.039062 19 15.5 C 19.554688 15.5 20.117188 15.5 20.6875 15.5 C 20.6875 15.828125 20.6875 16.15625 20.6875 16.5 C 20.132812 16.5 19.570312 16.5 19 16.5 C 18.976562 16.6875 18.960938 16.875 18.9375 17.0625 C 18.859375 17.296875 18.859375 17.296875 18.757812 17.515625 C 18.726562 17.59375 18.695312 17.664062 18.664062 17.742188 C 18.5625 17.9375 18.5625 17.9375 18.453125 18.070312 C 18.359375 18.179688 18.359375 18.179688 18.390625 18.304688 C 18.453125 18.46875 18.53125 18.554688 18.664062 18.679688 C 18.726562 18.75 18.726562 18.75 18.796875 18.8125 C 18.84375 18.859375 18.890625 18.90625 18.9375 18.953125 C 18.992188 19 19.039062 19.046875 19.085938 19.09375 C 19.203125 19.210938 19.320312 19.320312 19.4375 19.4375 C 19.335938 19.648438 19.226562 19.789062 19.054688 19.953125 C 19.007812 20 18.960938 20.039062 18.914062 20.085938 C 18.867188 20.132812 18.867188 20.132812 18.8125 20.1875 C 18.617188 20.101562 18.492188 20 18.34375 19.84375 C 18.304688 19.804688 18.257812 19.757812 18.21875 19.71875 C 18.132812 19.625 18.054688 19.539062 17.96875 19.445312 C 17.929688 19.40625 17.890625 19.359375 17.84375 19.320312 C 17.8125 19.28125 17.773438 19.242188 17.734375 19.203125 C 17.632812 19.109375 17.632812 19.109375 17.5 19.140625 C 17.335938 19.203125 17.179688 19.28125 17.03125 19.367188 C 16.625 19.570312 16.203125 19.75 15.75 19.75 C 15.75 20.304688 15.75 20.867188 15.75 21.4375 C 15.421875 21.4375 15.09375 21.4375 14.75 21.4375 C 14.75 20.882812 14.75 20.320312 14.75 19.75 C 14.40625 19.6875 14.40625 19.6875 14.0625 19.625 C 13.875 19.546875 13.703125 19.460938 13.53125 19.367188 C 13.21875 19.1875 13.21875 19.1875 12.875 19.125 C 12.75 19.226562 12.75 19.226562 12.625 19.359375 C 12.554688 19.429688 12.554688 19.429688 12.484375 19.5 C 12.40625 19.578125 12.40625 19.578125 12.328125 19.65625 C 12.28125 19.703125 12.234375 19.757812 12.179688 19.8125 C 12.054688 19.9375 11.9375 20.0625 11.8125 20.1875 C 11.601562 20.085938 11.460938 19.976562 11.296875 19.804688 C 11.25 19.757812 11.210938 19.710938 11.164062 19.664062 C 11.117188 19.617188 11.117188 19.617188 11.0625 19.5625 C 11.148438 19.359375 11.257812 19.226562 11.421875 19.070312 C 11.460938 19.023438 11.507812 18.984375 11.554688 18.9375 C 11.625 18.867188 11.625 18.867188 11.695312 18.796875 C 11.742188 18.75 11.789062 18.703125 11.835938 18.65625 C 11.953125 18.539062 12.070312 18.429688 12.1875 18.3125 C 12.15625 18.25 12.117188 18.1875 12.085938 18.117188 C 11.5 16.992188 11.5 16.992188 11.5 16.5 C 10.945312 16.5 10.382812 16.5 9.8125 16.5 C 9.8125 16.171875 9.8125 15.84375 9.8125 15.5 C 10.367188 15.5 10.929688 15.5 11.5 15.5 C 11.539062 15.296875 11.585938 15.085938 11.625 14.875 C 11.695312 14.664062 11.695312 14.664062 11.773438 14.484375 C 11.8125 14.398438 11.8125 14.398438 11.851562 14.3125 C 11.953125 14.09375 12.070312 13.890625 12.1875 13.6875 C 11.8125 13.3125 11.445312 12.945312 11.0625 12.5625 C 11.179688 12.335938 11.265625 12.21875 11.445312 12.046875 C 11.492188 12 11.539062 11.960938 11.585938 11.914062 C 11.617188 11.882812 11.648438 11.84375 11.6875 11.8125 C 11.890625 11.898438 12.023438 12.007812 12.179688 12.171875 C 12.226562 12.210938 12.265625 12.257812 12.3125 12.304688 C 12.359375 12.351562 12.40625 12.398438 12.453125 12.445312 C 12.523438 12.515625 12.523438 12.515625 12.59375 12.585938 C 12.710938 12.703125 12.820312 12.820312 12.9375 12.9375 C 13.023438 12.882812 13.023438 12.882812 13.117188 12.835938 C 14.164062 12.25 14.164062 12.25 14.75 12.25 C 14.75 11.695312 14.75 11.132812 14.75 10.5625 Z M 13.046875 14.296875 C 12.820312 14.59375 12.671875 14.898438 12.5625 15.25 C 12.546875 15.289062 12.539062 15.328125 12.523438 15.367188 C 12.390625 16.078125 12.484375 16.8125 12.859375 17.4375 C 13.3125 18.085938 13.898438 18.585938 14.6875 18.75 C 15.671875 18.8125 16.414062 18.679688 17.1875 18.023438 C 17.765625 17.476562 18.023438 16.8125 18.078125 16.023438 C 18.0625 15.226562 17.742188 14.585938 17.210938 14.023438 C 16.609375 13.445312 15.9375 13.210938 15.109375 13.21875 C 14.25 13.25 13.59375 13.65625 13.046875 14.296875 Z M 13.046875 14.296875 "/>
        <path style=" stroke:none;fill-rule:nonzero;fill:#ffffff;fill-opacity:1;" d="M 23.4375 6.5 C 23.648438 6.59375 23.796875 6.710938 23.953125 6.867188 C 24 6.90625 24.046875 6.953125 24.09375 6.992188 C 24.1875 7.125 24.1875 7.125 24.1875 7.25 C 24.109375 7.40625 24.015625 7.515625 23.890625 7.640625 C 23.84375 7.6875 23.804688 7.734375 23.757812 7.78125 C 23.625 7.875 23.625 7.875 23.5 7.875 C 23.328125 7.789062 23.210938 7.671875 23.078125 7.53125 C 23 7.453125 23 7.453125 22.929688 7.367188 C 22.890625 7.328125 22.851562 7.289062 22.8125 7.25 C 22.90625 7.03125 23.03125 6.898438 23.195312 6.734375 C 23.242188 6.6875 23.289062 6.648438 23.335938 6.601562 C 23.367188 6.570312 23.398438 6.53125 23.4375 6.5 Z M 23.4375 6.5 "/>
        <path style=" stroke:none;fill-rule:nonzero;fill:#ffffff;fill-opacity:1;" d="M 24.75 7.8125 C 24.96875 7.90625 25.101562 8.03125 25.265625 8.195312 C 25.3125 8.242188 25.351562 8.289062 25.398438 8.335938 C 25.445312 8.382812 25.445312 8.382812 25.5 8.4375 C 25.40625 8.65625 25.28125 8.789062 25.117188 8.953125 C 25.070312 9 25.023438 9.039062 24.976562 9.085938 C 24.945312 9.117188 24.914062 9.15625 24.875 9.1875 C 24.65625 9.09375 24.523438 8.96875 24.359375 8.804688 C 24.3125 8.757812 24.273438 8.710938 24.226562 8.664062 C 24.195312 8.632812 24.15625 8.601562 24.125 8.5625 C 24.21875 8.34375 24.34375 8.210938 24.507812 8.046875 C 24.554688 8 24.601562 7.960938 24.648438 7.914062 C 24.679688 7.882812 24.710938 7.84375 24.75 7.8125 Z M 24.75 7.8125 "/>
    </g>
</svg>