<svg xmlns="http://www.w3.org/2000/svg" xmlns:xlink="http://www.w3.org/1999/xlink" width="32px" height="32px" viewBox="0 0 32 32" version="1.1">
    <g id="surface1">
        <path style=" stroke:none;fill-rule:nonzero;fill:#ffffff;fill-opacity:1;" d="M 10.5 0.25 C 10.703125 0.34375 10.851562 0.453125 11.015625 0.601562 C 11.0625 0.640625 11.101562 0.679688 11.148438 0.71875 C 11.195312 0.765625 11.195312 0.765625 11.25 0.8125 C 11.210938 1.046875 11.117188 1.15625 10.953125 1.320312 C 9.382812 3.023438 8.390625 5.234375 7.890625 7.484375 C 7.875 7.539062 7.867188 7.59375 7.851562 7.648438 C 7.671875 8.523438 7.601562 9.375 7.601562 10.265625 C 7.601562 10.421875 7.601562 10.578125 7.601562 10.734375 C 7.601562 11 7.609375 11.265625 7.617188 11.53125 C 7.625 11.632812 7.625 11.734375 7.625 11.84375 C 7.609375 12.585938 7.820312 13.03125 8.34375 13.570312 C 8.585938 13.820312 8.84375 14.0625 9.101562 14.296875 C 9.265625 14.453125 9.429688 14.609375 9.59375 14.773438 C 9.914062 15.078125 10.234375 15.382812 10.5625 15.6875 C 10.46875 15.882812 10.375 16.015625 10.21875 16.164062 C 10.179688 16.210938 10.132812 16.25 10.09375 16.289062 C 10.046875 16.335938 10.007812 16.375 9.960938 16.421875 C 9.914062 16.46875 9.875 16.507812 9.828125 16.554688 C 9.71875 16.664062 9.609375 16.765625 9.5 16.875 C 9.726562 17.148438 9.960938 17.40625 10.210938 17.648438 C 10.265625 17.703125 10.320312 17.757812 10.375 17.8125 C 10.414062 17.859375 10.460938 17.898438 10.5 17.9375 C 10.804688 17.679688 11.09375 17.414062 11.375 17.132812 C 11.414062 17.085938 11.453125 17.046875 11.5 17.007812 C 11.625 16.882812 11.75 16.757812 11.875 16.632812 C 11.953125 16.546875 12.039062 16.460938 12.125 16.375 C 12.335938 16.164062 12.539062 15.960938 12.75 15.75 C 12.796875 15.789062 12.796875 15.789062 12.835938 15.828125 C 12.875 15.859375 12.914062 15.898438 12.953125 15.929688 C 12.992188 15.960938 13.03125 16 13.070312 16.03125 C 13.203125 16.140625 13.203125 16.140625 13.4375 16.25 C 13.851562 15.835938 14.265625 15.421875 14.6875 15 C 14.898438 15.101562 15 15.171875 15.15625 15.328125 C 15.21875 15.390625 15.21875 15.390625 15.28125 15.453125 C 15.320312 15.5 15.367188 15.539062 15.414062 15.585938 C 15.460938 15.632812 15.507812 15.679688 15.546875 15.726562 C 15.695312 15.875 15.84375 16.015625 15.984375 16.164062 C 16.085938 16.265625 16.179688 16.359375 16.28125 16.460938 C 16.523438 16.703125 16.757812 16.945312 17 17.1875 C 16.898438 17.398438 16.789062 17.539062 16.617188 17.710938 C 16.5625 17.757812 16.515625 17.804688 16.460938 17.859375 C 16.414062 17.914062 16.359375 17.960938 16.304688 18.015625 C 16.25 18.070312 16.195312 18.117188 16.140625 18.171875 C 16.015625 18.304688 15.882812 18.429688 15.75 18.5625 C 15.890625 18.859375 15.890625 18.859375 16.25 19.25 C 15.164062 20.335938 15.164062 20.335938 14.0625 21.4375 C 14.296875 21.710938 14.523438 21.960938 14.773438 22.210938 C 14.828125 22.265625 14.882812 22.320312 14.9375 22.375 C 14.976562 22.421875 15.023438 22.460938 15.0625 22.5 C 15.460938 22.171875 15.820312 21.804688 16.1875 21.4375 C 16.398438 21.53125 16.53125 21.640625 16.6875 21.8125 C 16.765625 21.882812 16.765625 21.882812 16.84375 21.960938 C 16.890625 22.015625 16.945312 22.070312 17 22.132812 C 17.117188 22.25 17.226562 22.359375 17.34375 22.476562 C 17.515625 22.664062 17.695312 22.84375 17.875 23.03125 C 18.039062 23.203125 18.210938 23.382812 18.390625 23.554688 C 18.4375 23.609375 18.492188 23.664062 18.546875 23.726562 C 18.882812 24.070312 19.140625 24.210938 19.625 24.25 C 19.710938 24.265625 19.710938 24.265625 19.804688 24.273438 C 19.875 24.28125 19.875 24.28125 19.953125 24.289062 C 20.03125 24.296875 20.03125 24.296875 20.117188 24.304688 C 23.390625 24.59375 26.804688 23.828125 29.5 21.875 C 29.5625 21.835938 29.617188 21.789062 29.679688 21.742188 C 30.078125 21.453125 30.460938 21.140625 30.828125 20.8125 C 31.007812 20.65625 31.164062 20.546875 31.375 20.4375 C 31.578125 20.640625 31.789062 20.851562 32 21.0625 C 31.46875 22.125 29.921875 22.914062 28.9375 23.5 C 28.875 23.539062 28.875 23.539062 28.820312 23.570312 C 26.96875 24.664062 24.789062 25.21875 22.65625 25.390625 C 22.601562 25.398438 22.539062 25.398438 22.46875 25.40625 C 21.75 25.453125 21.039062 25.4375 20.3125 25.4375 C 21.015625 26.140625 21.71875 26.84375 22.4375 27.5625 C 22.179688 27.859375 21.929688 28.140625 21.65625 28.414062 C 21.617188 28.453125 21.578125 28.492188 21.53125 28.539062 C 21.40625 28.664062 21.28125 28.789062 21.148438 28.914062 C 21.0625 29.007812 20.96875 29.09375 20.882812 29.1875 C 20.648438 29.421875 20.414062 29.648438 20.179688 29.882812 C 19.945312 30.125 19.703125 30.359375 19.46875 30.601562 C 19 31.070312 18.53125 31.53125 18.0625 32 C 17.84375 31.90625 17.710938 31.789062 17.546875 31.617188 C 17.492188 31.570312 17.4375 31.515625 17.382812 31.460938 C 17.328125 31.40625 17.273438 31.34375 17.210938 31.289062 C 17.15625 31.234375 17.101562 31.171875 17.039062 31.109375 C 16.882812 30.960938 16.734375 30.804688 16.578125 30.648438 C 16.421875 30.492188 16.265625 30.335938 16.109375 30.179688 C 15.804688 29.867188 15.492188 29.5625 15.1875 29.25 C 15.289062 29.039062 15.398438 28.898438 15.570312 28.734375 C 15.640625 28.671875 15.640625 28.671875 15.710938 28.601562 C 15.742188 28.570312 15.773438 28.53125 15.8125 28.5 C 15.992188 28.585938 16.125 28.671875 16.265625 28.8125 C 16.296875 28.851562 16.335938 28.882812 16.375 28.921875 C 16.414062 28.96875 16.453125 29.007812 16.5 29.046875 C 16.539062 29.085938 16.578125 29.132812 16.625 29.171875 C 16.75 29.304688 16.882812 29.4375 17.015625 29.570312 C 17.101562 29.65625 17.195312 29.75 17.28125 29.835938 C 17.5 30.0625 17.71875 30.28125 17.9375 30.5 C 18.15625 30.40625 18.296875 30.28125 18.46875 30.109375 C 18.523438 30.054688 18.578125 30 18.632812 29.945312 C 18.695312 29.882812 18.757812 29.820312 18.8125 29.757812 C 18.875 29.703125 18.9375 29.640625 19 29.578125 C 19.15625 29.414062 19.320312 29.25 19.476562 29.09375 C 19.640625 28.929688 19.804688 28.757812 19.96875 28.59375 C 20.296875 28.273438 20.617188 27.945312 20.9375 27.625 C 20.679688 27.320312 20.414062 27.03125 20.132812 26.75 C 20.070312 26.6875 20.070312 26.6875 20.007812 26.625 C 19.867188 26.484375 19.734375 26.351562 19.59375 26.21875 C 19.5 26.117188 19.40625 26.023438 19.3125 25.929688 C 19.0625 25.679688 18.8125 25.4375 18.570312 25.1875 C 18.3125 24.9375 18.0625 24.679688 17.804688 24.429688 C 17.304688 23.929688 16.8125 23.4375 16.3125 22.9375 C 16.09375 23.03125 15.953125 23.15625 15.78125 23.328125 C 15.726562 23.382812 15.671875 23.4375 15.617188 23.492188 C 15.554688 23.554688 15.492188 23.617188 15.4375 23.679688 C 15.375 23.734375 15.3125 23.796875 15.25 23.859375 C 15.09375 24.023438 14.929688 24.1875 14.773438 24.34375 C 14.609375 24.507812 14.445312 24.679688 14.28125 24.84375 C 13.953125 25.164062 13.632812 25.492188 13.3125 25.8125 C 13.546875 26.09375 13.789062 26.359375 14.054688 26.609375 C 14.125 26.679688 14.1875 26.742188 14.257812 26.8125 C 14.359375 26.914062 14.46875 27.015625 14.570312 27.117188 C 14.671875 27.210938 14.773438 27.3125 14.875 27.414062 C 14.914062 27.445312 14.945312 27.476562 14.976562 27.507812 C 15.0625 27.59375 15.0625 27.59375 15.1875 27.75 C 15.179688 28.007812 15.015625 28.125 14.84375 28.296875 C 14.789062 28.34375 14.734375 28.398438 14.679688 28.445312 C 14.640625 28.484375 14.601562 28.523438 14.5625 28.5625 C 14.21875 28.273438 13.898438 27.96875 13.578125 27.648438 C 13.5 27.570312 13.5 27.570312 13.421875 27.492188 C 13.265625 27.328125 13.101562 27.171875 12.9375 27.007812 C 12.828125 26.898438 12.71875 26.789062 12.609375 26.679688 C 12.34375 26.414062 12.078125 26.140625 11.8125 25.875 C 11.867188 25.804688 11.929688 25.734375 11.992188 25.671875 C 12.023438 25.632812 12.054688 25.59375 12.085938 25.554688 C 12.234375 25.382812 12.390625 25.226562 12.554688 25.0625 C 12.585938 25.039062 12.617188 25.007812 12.648438 24.976562 C 12.726562 24.898438 12.796875 24.828125 12.875 24.75 C 12.789062 24.570312 12.703125 24.4375 12.5625 24.296875 C 12.523438 24.265625 12.484375 24.226562 12.453125 24.1875 C 12.414062 24.15625 12.375 24.117188 12.335938 24.078125 C 12.28125 24.023438 12.28125 24.023438 12.21875 23.960938 C 12.125 23.875 12.03125 23.78125 11.9375 23.6875 C 11.75 23.757812 11.640625 23.851562 11.515625 24 C 10.984375 24.59375 10.46875 24.898438 9.71875 25.15625 C 9.554688 25.21875 9.382812 25.28125 9.21875 25.34375 C 9.117188 25.382812 9.007812 25.421875 8.898438 25.453125 C 8.828125 25.484375 8.828125 25.484375 8.75 25.507812 C 8.359375 25.648438 8.359375 25.648438 8.125 25.5625 C 7.984375 25.4375 7.851562 25.320312 7.71875 25.1875 C 7.65625 25.132812 7.65625 25.132812 7.601562 25.070312 C 7.515625 24.992188 7.4375 24.914062 7.351562 24.828125 C 7.234375 24.710938 7.101562 24.585938 6.976562 24.460938 C 6.898438 24.382812 6.820312 24.304688 6.742188 24.226562 C 6.703125 24.195312 6.664062 24.15625 6.625 24.117188 C 6.375 23.859375 6.375 23.859375 6.375 23.632812 C 6.390625 23.5625 6.414062 23.5 6.4375 23.4375 C 6.460938 23.359375 6.484375 23.28125 6.507812 23.203125 C 6.609375 22.921875 6.710938 22.632812 6.8125 22.351562 C 6.835938 22.304688 6.851562 22.25 6.875 22.195312 C 7.195312 21.351562 7.570312 20.734375 8.3125 20.1875 C 8.226562 20.007812 8.140625 19.875 8 19.734375 C 7.960938 19.703125 7.921875 19.664062 7.890625 19.625 C 7.851562 19.59375 7.8125 19.554688 7.773438 19.515625 C 7.734375 19.476562 7.695312 19.4375 7.65625 19.398438 C 7.5625 19.3125 7.46875 19.21875 7.375 19.125 C 7.179688 19.210938 7.046875 19.3125 6.898438 19.46875 C 6.851562 19.507812 6.8125 19.554688 6.773438 19.59375 C 6.726562 19.640625 6.6875 19.679688 6.640625 19.726562 C 6.578125 19.789062 6.578125 19.789062 6.507812 19.859375 C 6.398438 19.96875 6.296875 20.078125 6.1875 20.1875 C 5.828125 19.890625 5.5 19.570312 5.171875 19.242188 C 5.117188 19.1875 5.070312 19.132812 5.015625 19.078125 C 4.84375 18.914062 4.671875 18.742188 4.5 18.570312 C 4.390625 18.453125 4.273438 18.335938 4.15625 18.226562 C 3.875 17.9375 3.59375 17.65625 3.3125 17.375 C 3.414062 17.164062 3.523438 17.023438 3.695312 16.859375 C 3.765625 16.796875 3.765625 16.796875 3.835938 16.726562 C 3.867188 16.695312 3.898438 16.65625 3.9375 16.625 C 4.125 16.710938 4.25 16.796875 4.390625 16.945312 C 4.429688 16.984375 4.46875 17.023438 4.507812 17.0625 C 4.554688 17.101562 4.59375 17.140625 4.632812 17.1875 C 4.679688 17.226562 4.71875 17.273438 4.765625 17.3125 C 4.898438 17.453125 5.039062 17.585938 5.171875 17.726562 C 5.265625 17.820312 5.359375 17.914062 5.445312 18.007812 C 5.671875 18.234375 5.898438 18.460938 6.125 18.6875 C 6.484375 18.382812 6.820312 18.0625 7.148438 17.726562 C 7.203125 17.671875 7.265625 17.617188 7.320312 17.5625 C 7.492188 17.390625 7.664062 17.210938 7.84375 17.039062 C 7.960938 16.921875 8.078125 16.804688 8.195312 16.679688 C 8.484375 16.390625 8.773438 16.101562 9.0625 15.8125 C 8.976562 15.632812 8.890625 15.5 8.75 15.359375 C 8.710938 15.320312 8.671875 15.289062 8.632812 15.242188 C 8.59375 15.203125 8.554688 15.164062 8.507812 15.117188 C 8.445312 15.054688 8.445312 15.054688 8.375 14.984375 C 8.234375 14.84375 8.085938 14.695312 7.9375 14.554688 C 7.84375 14.453125 7.742188 14.351562 7.640625 14.25 C 7.375 13.984375 7.109375 13.726562 6.84375 13.460938 C 6.570312 13.1875 6.304688 12.921875 6.03125 12.648438 C 5.5 12.117188 4.96875 11.59375 4.4375 11.0625 C 4.1875 11.273438 3.945312 11.484375 3.71875 11.710938 C 3.671875 11.757812 3.617188 11.8125 3.570312 11.859375 C 3.515625 11.914062 3.460938 11.96875 3.414062 12.023438 C 3.359375 12.078125 3.296875 12.132812 3.242188 12.1875 C 3.070312 12.359375 2.898438 12.539062 2.71875 12.710938 C 2.601562 12.828125 2.484375 12.945312 2.367188 13.070312 C 2.078125 13.359375 1.789062 13.648438 1.5 13.9375 C 1.617188 14.203125 1.804688 14.375 2.007812 14.570312 C 2.085938 14.648438 2.164062 14.71875 2.242188 14.796875 C 2.359375 14.914062 2.484375 15.03125 2.601562 15.148438 C 2.71875 15.265625 2.835938 15.375 2.953125 15.492188 C 3.007812 15.539062 3.007812 15.539062 3.0625 15.59375 C 3.164062 15.695312 3.164062 15.695312 3.3125 15.875 C 3.28125 16.132812 3.148438 16.25 2.96875 16.421875 C 2.914062 16.46875 2.859375 16.523438 2.804688 16.570312 C 2.765625 16.609375 2.726562 16.648438 2.6875 16.6875 C 2.179688 16.265625 1.71875 15.796875 1.25 15.335938 C 1.148438 15.234375 1.039062 15.125 0.929688 15.023438 C 0.78125 14.867188 0.625 14.71875 0.46875 14.5625 C 0.421875 14.515625 0.375 14.46875 0.328125 14.421875 C 0.257812 14.359375 0.257812 14.359375 0.195312 14.289062 C 0.15625 14.25 0.117188 14.21875 0.078125 14.171875 C 0 14.0625 0 14.0625 0.015625 13.945312 C 0.0703125 13.796875 0.125 13.726562 0.234375 13.617188 C 0.28125 13.570312 0.28125 13.570312 0.34375 13.507812 C 0.398438 13.453125 0.398438 13.453125 0.460938 13.390625 C 0.5 13.351562 0.539062 13.3125 0.585938 13.265625 C 0.71875 13.132812 0.859375 12.992188 1 12.859375 C 1.09375 12.765625 1.1875 12.671875 1.28125 12.570312 C 1.53125 12.320312 1.789062 12.078125 2.039062 11.828125 C 2.296875 11.570312 2.546875 11.3125 2.804688 11.0625 C 3.304688 10.5625 3.8125 10.0625 4.3125 9.5625 C 4.5 9.648438 4.625 9.734375 4.765625 9.882812 C 4.804688 9.921875 4.84375 9.960938 4.882812 10 C 4.929688 10.039062 4.96875 10.078125 5.007812 10.125 C 5.054688 10.164062 5.09375 10.210938 5.140625 10.25 C 5.273438 10.390625 5.414062 10.523438 5.546875 10.664062 C 5.640625 10.757812 5.734375 10.851562 5.820312 10.945312 C 6.046875 11.171875 6.273438 11.398438 6.5 11.625 C 6.5 11.554688 6.5 11.492188 6.5 11.421875 C 6.5625 7.164062 7.59375 3.453125 10.5 0.25 Z M 14.554688 16.5625 C 14.5 16.609375 14.453125 16.664062 14.398438 16.71875 C 14.320312 16.796875 14.320312 16.796875 14.242188 16.875 C 14.203125 16.914062 14.164062 16.960938 14.125 17 C 14.226562 17.242188 14.382812 17.398438 14.570312 17.578125 C 14.625 17.632812 14.6875 17.6875 14.742188 17.75 C 14.789062 17.789062 14.828125 17.828125 14.875 17.875 C 15.078125 17.789062 15.210938 17.679688 15.359375 17.523438 C 15.398438 17.484375 15.4375 17.445312 15.476562 17.40625 C 15.507812 17.375 15.53125 17.34375 15.5625 17.3125 C 15.460938 17.070312 15.304688 16.914062 15.125 16.734375 C 15.070312 16.679688 15.015625 16.625 14.953125 16.5625 C 14.765625 16.398438 14.742188 16.390625 14.554688 16.5625 Z M 12.335938 17.578125 C 12.265625 17.640625 12.265625 17.640625 12.203125 17.710938 C 11.796875 18.101562 11.390625 18.492188 10.992188 18.890625 C 10.726562 19.15625 10.453125 19.414062 10.179688 19.679688 C 8.414062 21.25 8.414062 21.25 7.5625 23.375 C 7.617188 23.679688 7.789062 23.835938 8 24.054688 C 8.03125 24.09375 8.070312 24.132812 8.101562 24.171875 C 8.210938 24.28125 8.304688 24.359375 8.4375 24.4375 C 8.5625 24.4375 8.5625 24.4375 8.695312 24.398438 C 8.742188 24.382812 8.796875 24.367188 8.84375 24.359375 C 8.921875 24.335938 8.921875 24.335938 9 24.3125 C 9.046875 24.296875 9.09375 24.289062 9.148438 24.273438 C 10.09375 23.984375 10.695312 23.46875 11.367188 22.765625 C 11.46875 22.664062 11.570312 22.5625 11.671875 22.460938 C 11.929688 22.195312 12.195312 21.929688 12.453125 21.664062 C 12.71875 21.390625 12.984375 21.117188 13.25 20.84375 C 13.773438 20.320312 14.296875 19.78125 14.8125 19.25 C 14.757812 19.179688 14.695312 19.109375 14.640625 19.046875 C 14.601562 19.007812 14.570312 18.96875 14.539062 18.929688 C 14.382812 18.75 14.21875 18.578125 14.046875 18.414062 C 14.015625 18.375 13.976562 18.34375 13.9375 18.304688 C 13.867188 18.234375 13.789062 18.15625 13.71875 18.085938 C 13.601562 17.96875 13.492188 17.859375 13.375 17.742188 C 13.304688 17.671875 13.234375 17.601562 13.164062 17.53125 C 13.125 17.492188 13.09375 17.460938 13.054688 17.421875 C 12.703125 17.070312 12.65625 17.265625 12.335938 17.578125 Z M 8.546875 17.765625 C 8.484375 17.820312 8.429688 17.875 8.375 17.9375 C 8.28125 18.023438 8.28125 18.023438 8.195312 18.109375 C 8.15625 18.15625 8.109375 18.203125 8.0625 18.25 C 8.148438 18.4375 8.242188 18.570312 8.390625 18.71875 C 8.429688 18.757812 8.46875 18.796875 8.507812 18.835938 C 8.546875 18.875 8.59375 18.914062 8.632812 18.953125 C 8.671875 18.992188 8.71875 19.03125 8.757812 19.078125 C 8.859375 19.179688 8.960938 19.273438 9.0625 19.375 C 9.273438 19.273438 9.414062 19.164062 9.578125 18.992188 C 9.640625 18.921875 9.640625 18.921875 9.710938 18.851562 C 9.742188 18.820312 9.78125 18.789062 9.8125 18.75 C 9.578125 18.46875 9.335938 18.203125 9.078125 17.9375 C 9.046875 17.914062 9.015625 17.882812 8.984375 17.84375 C 8.773438 17.59375 8.773438 17.59375 8.546875 17.765625 Z M 13.109375 22.328125 C 13.046875 22.382812 12.992188 22.4375 12.9375 22.5 C 12.84375 22.585938 12.84375 22.585938 12.757812 22.671875 C 12.71875 22.71875 12.671875 22.765625 12.625 22.8125 C 12.710938 23 12.804688 23.132812 12.953125 23.28125 C 12.992188 23.320312 13.03125 23.359375 13.070312 23.398438 C 13.109375 23.4375 13.15625 23.476562 13.195312 23.515625 C 13.234375 23.554688 13.28125 23.59375 13.320312 23.640625 C 13.421875 23.742188 13.523438 23.835938 13.625 23.9375 C 13.835938 23.835938 13.976562 23.726562 14.140625 23.554688 C 14.203125 23.484375 14.203125 23.484375 14.273438 23.414062 C 14.304688 23.382812 14.34375 23.351562 14.375 23.3125 C 14.140625 23.03125 13.898438 22.765625 13.640625 22.5 C 13.609375 22.476562 13.578125 22.445312 13.546875 22.40625 C 13.335938 22.15625 13.335938 22.15625 13.109375 22.328125 Z M 13.109375 22.328125 "/>
        <path style=" stroke:none;fill-rule:nonzero;fill:#ffffff;fill-opacity:1;" d="M 28.5625 1.8125 C 30.421875 3.289062 31.703125 5.4375 32 7.8125 C 32.132812 10.617188 31.476562 12.984375 29.601562 15.132812 C 28.15625 16.710938 26.132812 17.648438 24 17.804688 C 21.304688 17.921875 18.796875 17.085938 16.78125 15.28125 C 15.265625 13.835938 14.234375 11.742188 14.171875 9.632812 C 14.164062 9.414062 14.164062 9.203125 14.164062 8.984375 C 14.171875 8.9375 14.171875 8.890625 14.171875 8.84375 C 14.171875 8.171875 14.203125 7.53125 14.375 6.875 C 14.382812 6.835938 14.398438 6.796875 14.40625 6.75 C 14.773438 5.398438 15.414062 4.195312 16.3125 3.125 C 16.34375 3.09375 16.367188 3.0625 16.398438 3.023438 C 16.835938 2.507812 17.328125 2.085938 17.875 1.6875 C 17.914062 1.664062 17.953125 1.632812 17.992188 1.601562 C 21.15625 -0.671875 25.484375 -0.53125 28.5625 1.8125 Z M 21 1.25 C 20.960938 1.257812 20.914062 1.273438 20.875 1.28125 C 19.835938 1.5625 18.875 2.109375 18.0625 2.8125 C 18.03125 2.84375 17.992188 2.867188 17.960938 2.898438 C 17.21875 3.523438 16.554688 4.3125 16.125 5.1875 C 16.125 5.226562 16.125 5.273438 16.125 5.3125 C 17.773438 5.3125 19.421875 5.3125 21.125 5.3125 C 21.125 5.992188 21.125 6.671875 21.125 7.375 C 21.5625 7.789062 21.5625 7.789062 22.03125 8.039062 C 22.359375 8.179688 22.65625 8.351562 22.953125 8.554688 C 23.039062 8.601562 23.117188 8.65625 23.203125 8.703125 C 23.257812 8.742188 23.3125 8.773438 23.375 8.8125 C 23.148438 9.070312 22.882812 9.226562 22.585938 9.398438 C 22.445312 9.484375 22.304688 9.570312 22.15625 9.65625 C 22 9.75 22 9.75 21.8125 9.84375 C 21.609375 9.9375 21.460938 10.03125 21.3125 10.1875 C 21.257812 10.46875 21.304688 10.742188 21.335938 11.03125 C 21.375 11.789062 21.375 11.789062 21.101562 12.109375 C 20.734375 12.414062 20.320312 12.632812 19.882812 12.835938 C 19.726562 12.921875 19.59375 13 19.453125 13.101562 C 19.164062 13.289062 18.90625 13.296875 18.5625 13.296875 C 18.507812 13.296875 18.453125 13.296875 18.390625 13.296875 C 18.210938 13.296875 18.023438 13.296875 17.84375 13.304688 C 17.71875 13.304688 17.59375 13.304688 17.46875 13.304688 C 17.171875 13.3125 16.867188 13.3125 16.5625 13.3125 C 16.757812 13.664062 16.757812 13.664062 17.007812 13.976562 C 17.039062 14.015625 17.078125 14.054688 17.117188 14.09375 C 17.148438 14.132812 17.1875 14.171875 17.226562 14.210938 C 17.265625 14.25 17.304688 14.296875 17.34375 14.335938 C 18.265625 15.296875 19.4375 16.164062 20.75 16.5 C 20.8125 16.476562 20.875 16.460938 20.9375 16.4375 C 20.789062 16.273438 20.632812 16.109375 20.476562 15.953125 C 20.4375 15.90625 20.390625 15.859375 20.351562 15.8125 C 20.304688 15.765625 20.265625 15.71875 20.226562 15.671875 C 20.1875 15.632812 20.148438 15.59375 20.109375 15.546875 C 20.007812 15.445312 19.914062 15.351562 19.8125 15.25 C 19.851562 15.125 19.898438 15 19.9375 14.875 C 19.953125 14.8125 19.976562 14.757812 19.992188 14.695312 C 20.164062 14.210938 20.351562 13.71875 20.75 13.375 C 21.15625 13.25 21.554688 13.265625 21.976562 13.296875 C 22.53125 13.34375 22.804688 13.28125 23.273438 12.96875 C 23.476562 12.851562 23.585938 12.84375 23.8125 12.898438 C 23.875 12.914062 23.875 12.914062 23.9375 12.9375 C 23.984375 12.945312 24.039062 12.960938 24.085938 12.96875 C 24.765625 13.140625 25.296875 13.367188 25.671875 13.976562 C 26.039062 14.617188 26.304688 15.3125 26.5625 16 C 27.9375 15.59375 29.257812 14.234375 29.9375 13 C 30.015625 12.796875 30.015625 12.796875 30.0625 12.625 C 29.992188 12.601562 29.929688 12.585938 29.859375 12.5625 C 29.289062 12.335938 28.953125 12.015625 28.710938 11.453125 C 28.226562 10.257812 28.140625 9.09375 28.1875 7.8125 C 28.296875 7.789062 28.296875 7.789062 28.414062 7.765625 C 28.820312 7.679688 29.210938 7.539062 29.601562 7.40625 C 29.757812 7.351562 29.90625 7.296875 30.054688 7.25 C 30.148438 7.21875 30.148438 7.21875 30.25 7.179688 C 30.4375 7.125 30.617188 7.09375 30.8125 7.0625 C 30.679688 6.5625 30.539062 6.085938 30.3125 5.625 C 30.28125 5.648438 30.257812 5.664062 30.226562 5.6875 C 29.867188 5.9375 29.523438 6.007812 29.085938 6.09375 C 28.164062 6.28125 27.375 6.734375 26.640625 7.320312 C 26.367188 7.476562 26.148438 7.476562 25.84375 7.476562 C 25.78125 7.476562 25.726562 7.476562 25.671875 7.476562 C 25.492188 7.484375 25.3125 7.484375 25.132812 7.484375 C 25.007812 7.484375 24.890625 7.484375 24.765625 7.492188 C 24.46875 7.492188 24.171875 7.5 23.875 7.5 C 23.867188 7.445312 23.867188 7.445312 23.851562 7.390625 C 23.789062 7.085938 23.710938 6.789062 23.609375 6.484375 C 23.585938 6.40625 23.5625 6.320312 23.53125 6.242188 C 23.492188 6.117188 23.453125 5.984375 23.414062 5.859375 C 23.375 5.734375 23.335938 5.617188 23.296875 5.492188 C 23.273438 5.414062 23.25 5.34375 23.226562 5.265625 C 23.164062 4.9375 23.296875 4.703125 23.453125 4.421875 C 23.851562 3.703125 24.117188 2.992188 24.320312 2.203125 C 24.335938 2.15625 24.351562 2.109375 24.359375 2.0625 C 24.5 1.601562 24.5 1.601562 24.5625 1.125 C 23.367188 0.890625 22.179688 0.9375 21 1.25 Z M 25.5 1.4375 C 25.476562 1.53125 25.476562 1.53125 25.453125 1.625 C 25.382812 1.914062 25.304688 2.195312 25.226562 2.484375 C 25.210938 2.539062 25.195312 2.585938 25.1875 2.640625 C 25 3.320312 24.804688 3.953125 24.4375 4.554688 C 24.210938 4.945312 24.242188 5.210938 24.351562 5.640625 C 24.382812 5.773438 24.429688 5.90625 24.46875 6.039062 C 24.492188 6.101562 24.492188 6.101562 24.515625 6.171875 C 24.554688 6.28125 24.585938 6.390625 24.625 6.5 C 25.820312 6.65625 26.515625 6.359375 27.476562 5.664062 C 27.90625 5.359375 28.359375 5.289062 28.867188 5.195312 C 29.257812 5.109375 29.507812 5.007812 29.8125 4.75 C 29.023438 3.242188 27.484375 2.085938 25.914062 1.484375 C 25.742188 1.429688 25.742188 1.429688 25.5 1.4375 Z M 15.625 6.3125 C 15.195312 7.945312 15.039062 9.367188 15.453125 10.992188 C 15.46875 11.03125 15.484375 11.078125 15.492188 11.125 C 15.601562 11.539062 15.765625 11.921875 15.9375 12.3125 C 18.125 12.515625 18.125 12.515625 20.046875 11.632812 C 20.117188 11.570312 20.179688 11.507812 20.25 11.4375 C 20.273438 11.414062 20.289062 11.398438 20.3125 11.375 C 20.320312 11.242188 20.320312 11.117188 20.320312 10.984375 C 20.320312 10.90625 20.320312 10.828125 20.320312 10.75 C 20.320312 10.664062 20.320312 10.578125 20.3125 10.5 C 20.3125 10.414062 20.3125 10.328125 20.3125 10.242188 C 20.3125 10.039062 20.3125 9.828125 20.3125 9.625 C 20.359375 9.609375 20.40625 9.59375 20.453125 9.570312 C 20.601562 9.507812 20.726562 9.445312 20.859375 9.351562 C 20.898438 9.320312 20.945312 9.296875 20.984375 9.265625 C 21.046875 9.226562 21.046875 9.226562 21.109375 9.179688 C 21.15625 9.148438 21.203125 9.125 21.242188 9.09375 C 21.351562 9.015625 21.453125 8.945312 21.5625 8.875 C 21.382812 8.710938 21.210938 8.601562 20.992188 8.507812 C 20.703125 8.367188 20.703125 8.367188 20.1875 7.9375 C 20.15625 7.132812 20.15625 7.132812 20.125 6.3125 C 18.640625 6.3125 17.15625 6.3125 15.625 6.3125 Z M 30.273438 8.171875 C 30.210938 8.195312 30.148438 8.21875 30.078125 8.242188 C 29.984375 8.273438 29.984375 8.273438 29.882812 8.3125 C 29.8125 8.335938 29.75 8.359375 29.679688 8.382812 C 29.515625 8.445312 29.351562 8.5 29.1875 8.5625 C 29.117188 9.28125 29.195312 9.898438 29.429688 10.585938 C 29.453125 10.648438 29.476562 10.71875 29.492188 10.78125 C 29.65625 11.210938 29.828125 11.414062 30.234375 11.632812 C 30.375 11.695312 30.375 11.695312 30.5625 11.6875 C 30.609375 11.523438 30.664062 11.367188 30.710938 11.203125 C 30.734375 11.132812 30.734375 11.132812 30.75 11.070312 C 30.96875 10.351562 31.015625 9.664062 31.007812 8.921875 C 31.007812 8.835938 31.007812 8.757812 31.007812 8.671875 C 31.007812 8.46875 31 8.265625 31 8.0625 C 30.734375 8.054688 30.523438 8.078125 30.273438 8.171875 Z M 23.359375 14.0625 C 22.90625 14.335938 22.46875 14.28125 21.953125 14.25 C 21.554688 14.242188 21.554688 14.242188 21.234375 14.445312 C 21.132812 14.609375 21.046875 14.75 21 14.9375 C 21.1875 15.53125 21.8125 15.898438 22.328125 16.179688 C 22.453125 16.242188 22.570312 16.3125 22.695312 16.382812 C 22.742188 16.40625 22.796875 16.4375 22.851562 16.46875 C 23.007812 16.570312 23.125 16.679688 23.25 16.8125 C 23.960938 16.976562 24.953125 16.671875 25.625 16.4375 C 25.539062 15.703125 25.078125 14.710938 24.5625 14.1875 C 24.125 13.945312 23.78125 13.765625 23.359375 14.0625 Z M 23.359375 14.0625 "/>
        <path style=" stroke:none;fill-rule:nonzero;fill:#ffffff;fill-opacity:1;" d="M 18.0625 7.4375 C 18.390625 7.4375 18.71875 7.4375 19.0625 7.4375 C 19.0625 7.765625 19.0625 8.09375 19.0625 8.4375 C 18.734375 8.4375 18.40625 8.4375 18.0625 8.4375 C 18.0625 8.109375 18.0625 7.78125 18.0625 7.4375 Z M 18.0625 7.4375 "/>
        <path style=" stroke:none;fill-rule:nonzero;fill:#ffffff;fill-opacity:1;" d="M 16.25 7.4375 C 16.578125 7.4375 16.90625 7.4375 17.25 7.4375 C 17.25 7.765625 17.25 8.09375 17.25 8.4375 C 16.921875 8.4375 16.59375 8.4375 16.25 8.4375 C 16.25 8.109375 16.25 7.78125 16.25 7.4375 Z M 16.25 7.4375 "/>
    </g>
</svg>