<svg xmlns="http://www.w3.org/2000/svg" xmlns:xlink="http://www.w3.org/1999/xlink" width="32px" height="32px" viewBox="0 0 32 32" version="1.1">
    <g id="surface1">
        <path style=" stroke:none;fill-rule:nonzero;fill:#ffffff;fill-opacity:1;" d="M 11.75 0 C 14.554688 0 17.359375 0 20.25 0 C 20.25 1.507812 20.25 3.007812 20.25 4.5625 C 20.453125 4.625 20.664062 4.6875 20.875 4.75 C 21.078125 4.835938 21.273438 4.929688 21.46875 5.03125 C 21.523438 5.054688 21.578125 5.078125 21.632812 5.109375 C 22.242188 5.421875 22.851562 5.789062 23.382812 6.234375 C 23.421875 6.273438 23.46875 6.304688 23.507812 6.34375 C 23.546875 6.375 23.585938 6.40625 23.625 6.445312 C 23.757812 6.515625 23.757812 6.515625 23.929688 6.460938 C 24.117188 6.375 24.289062 6.289062 24.460938 6.1875 C 24.523438 6.15625 24.585938 6.117188 24.65625 6.078125 C 24.71875 6.039062 24.789062 6 24.859375 5.953125 C 24.96875 5.890625 25.078125 5.828125 25.179688 5.765625 C 25.296875 5.703125 25.40625 5.640625 25.523438 5.570312 C 25.75 5.4375 25.976562 5.304688 26.210938 5.171875 C 26.265625 5.140625 26.265625 5.140625 26.320312 5.109375 C 26.429688 5.046875 26.539062 4.984375 26.640625 4.921875 C 26.78125 4.84375 26.914062 4.765625 27.046875 4.6875 C 27.101562 4.65625 27.15625 4.625 27.21875 4.59375 C 27.328125 4.53125 27.4375 4.460938 27.539062 4.390625 C 27.585938 4.367188 27.640625 4.335938 27.6875 4.3125 C 27.914062 4.390625 27.929688 4.4375 28.039062 4.640625 C 28.070312 4.703125 28.101562 4.757812 28.132812 4.8125 C 28.171875 4.875 28.203125 4.9375 28.234375 5 C 28.3125 5.132812 28.382812 5.265625 28.460938 5.398438 C 28.5 5.46875 28.53125 5.539062 28.570312 5.609375 C 28.75 5.921875 28.9375 6.234375 29.117188 6.546875 C 29.421875 7.070312 29.726562 7.59375 30.023438 8.117188 C 30.0625 8.1875 30.101562 8.25 30.140625 8.320312 C 30.34375 8.671875 30.546875 9.015625 30.75 9.367188 C 30.828125 9.507812 30.914062 9.648438 30.992188 9.796875 C 31.03125 9.859375 31.070312 9.929688 31.109375 10 C 31.28125 10.289062 31.445312 10.578125 31.625 10.867188 C 31.664062 10.929688 31.664062 10.929688 31.703125 11 C 31.773438 11.109375 31.84375 11.21875 31.90625 11.328125 C 32 11.5 32 11.5 32 11.75 C 31.953125 11.773438 31.90625 11.796875 31.859375 11.828125 C 30.9375 12.335938 30.015625 12.859375 29.101562 13.398438 C 28.953125 13.484375 28.804688 13.578125 28.65625 13.664062 C 28.59375 13.703125 28.59375 13.703125 28.523438 13.75 C 28.203125 13.9375 28.203125 13.9375 28.0625 13.9375 C 28.070312 13.976562 28.078125 14.015625 28.085938 14.0625 C 28.320312 15.273438 28.460938 16.875 28.0625 18.0625 C 28.109375 18.078125 28.148438 18.09375 28.195312 18.117188 C 28.375 18.1875 28.539062 18.273438 28.710938 18.367188 C 28.773438 18.40625 28.835938 18.4375 28.90625 18.476562 C 28.96875 18.515625 29.039062 18.554688 29.109375 18.59375 C 29.179688 18.632812 29.25 18.671875 29.320312 18.710938 C 29.757812 18.960938 30.195312 19.210938 30.625 19.46875 C 31.078125 19.734375 31.539062 19.992188 32 20.25 C 31.960938 20.554688 31.828125 20.789062 31.671875 21.046875 C 31.648438 21.101562 31.617188 21.148438 31.59375 21.195312 C 31.289062 21.734375 30.976562 22.265625 30.671875 22.789062 C 30.4375 23.1875 30.203125 23.59375 29.96875 23.992188 C 29.9375 24.0625 29.898438 24.125 29.851562 24.195312 C 29.65625 24.539062 29.460938 24.890625 29.257812 25.234375 C 28.789062 26.054688 28.304688 26.875 27.8125 27.6875 C 27.59375 27.601562 27.390625 27.507812 27.179688 27.390625 C 27.117188 27.351562 27.054688 27.320312 26.992188 27.28125 C 26.929688 27.25 26.859375 27.210938 26.796875 27.171875 C 26.726562 27.132812 26.65625 27.09375 26.585938 27.054688 C 26.03125 26.742188 25.484375 26.429688 24.9375 26.109375 C 24.828125 26.039062 24.710938 25.976562 24.601562 25.90625 C 24.492188 25.84375 24.382812 25.78125 24.28125 25.710938 C 24.007812 25.539062 24.007812 25.539062 23.703125 25.523438 C 23.539062 25.640625 23.382812 25.757812 23.226562 25.875 C 22.585938 26.367188 21.90625 26.742188 21.179688 27.09375 C 21.125 27.117188 21.070312 27.148438 21.007812 27.179688 C 20.953125 27.203125 20.898438 27.226562 20.84375 27.25 C 20.796875 27.273438 20.75 27.296875 20.703125 27.320312 C 20.5625 27.375 20.5625 27.375 20.25 27.4375 C 20.25 28.945312 20.25 30.445312 20.25 32 C 19.609375 32 18.96875 32 18.3125 32 C 18.3125 31.6875 18.3125 31.382812 18.3125 31.0625 C 18.625 31.0625 18.929688 31.0625 19.25 31.0625 C 19.25 29.640625 19.25 28.21875 19.25 26.75 C 19.5 26.648438 19.742188 26.546875 20 26.4375 C 21.25 25.90625 22.445312 25.273438 23.4375 24.328125 C 23.5 24.28125 23.5625 24.234375 23.625 24.1875 C 23.882812 24.25 24.101562 24.359375 24.335938 24.5 C 24.398438 24.53125 24.460938 24.570312 24.53125 24.609375 C 24.632812 24.671875 24.632812 24.671875 24.734375 24.734375 C 24.84375 24.796875 24.953125 24.859375 25.054688 24.921875 C 25.171875 24.984375 25.28125 25.046875 25.398438 25.117188 C 25.734375 25.3125 26.078125 25.515625 26.421875 25.710938 C 26.523438 25.773438 26.632812 25.835938 26.734375 25.898438 C 26.804688 25.929688 26.867188 25.96875 26.929688 26.007812 C 26.992188 26.039062 27.046875 26.078125 27.101562 26.109375 C 27.25 26.195312 27.25 26.195312 27.4375 26.25 C 27.492188 26.15625 27.492188 26.15625 27.546875 26.054688 C 27.882812 25.4375 28.234375 24.828125 28.59375 24.21875 C 28.90625 23.671875 29.226562 23.132812 29.539062 22.585938 C 29.71875 22.273438 29.898438 21.953125 30.085938 21.640625 C 30.125 21.585938 30.15625 21.53125 30.1875 21.476562 C 30.25 21.375 30.3125 21.273438 30.375 21.171875 C 30.4375 21.054688 30.5 20.929688 30.5625 20.8125 C 30.484375 20.578125 30.421875 20.5625 30.203125 20.445312 C 30.140625 20.414062 30.078125 20.375 30.015625 20.34375 C 29.945312 20.304688 29.875 20.265625 29.804688 20.234375 C 29.664062 20.148438 29.523438 20.070312 29.382812 19.992188 C 29.34375 19.976562 29.304688 19.953125 29.273438 19.9375 C 28.882812 19.71875 28.5 19.5 28.117188 19.273438 C 28.03125 19.226562 28.03125 19.226562 27.9375 19.171875 C 27.601562 18.96875 27.265625 18.773438 26.9375 18.5625 C 26.945312 18.507812 26.945312 18.507812 26.953125 18.453125 C 27.171875 16.953125 27.234375 15.601562 27.023438 14.101562 C 26.992188 13.882812 26.960938 13.65625 26.9375 13.4375 C 27.484375 13.085938 28.046875 12.765625 28.617188 12.445312 C 29.273438 12.078125 29.914062 11.695312 30.5625 11.3125 C 30.460938 10.929688 30.25 10.609375 30.046875 10.265625 C 29.96875 10.132812 29.890625 9.992188 29.8125 9.859375 C 29.773438 9.789062 29.726562 9.71875 29.6875 9.648438 C 29.484375 9.3125 29.289062 8.96875 29.09375 8.625 C 28.742188 8.015625 28.390625 7.414062 28.039062 6.8125 C 27.835938 6.460938 27.632812 6.109375 27.4375 5.75 C 26.828125 6.039062 26.25 6.367188 25.664062 6.710938 C 25.359375 6.898438 25.054688 7.070312 24.75 7.25 C 24.671875 7.296875 24.601562 7.335938 24.53125 7.382812 C 24.421875 7.4375 24.320312 7.5 24.21875 7.5625 C 24.15625 7.59375 24.09375 7.632812 24.039062 7.664062 C 23.890625 7.742188 23.78125 7.789062 23.625 7.8125 C 23.515625 7.734375 23.515625 7.734375 23.390625 7.609375 C 22.210938 6.507812 20.734375 5.84375 19.25 5.25 C 19.25 3.828125 19.25 2.40625 19.25 0.9375 C 17.101562 0.9375 14.960938 0.9375 12.75 0.9375 C 12.75 2.359375 12.75 3.78125 12.75 5.25 C 12 5.5625 12 5.5625 11.75 5.664062 C 10.5625 6.171875 9.5625 6.8125 8.578125 7.640625 C 8.4375 7.75 8.4375 7.75 8.25 7.8125 C 8.109375 7.75 8.109375 7.75 7.945312 7.65625 C 7.882812 7.625 7.820312 7.585938 7.757812 7.554688 C 7.65625 7.492188 7.65625 7.492188 7.546875 7.4375 C 7.445312 7.375 7.445312 7.375 7.34375 7.3125 C 6.789062 7 6.242188 6.679688 5.695312 6.359375 C 5.328125 6.140625 4.953125 5.9375 4.5625 5.75 C 4.53125 5.8125 4.492188 5.875 4.453125 5.945312 C 4.117188 6.5625 3.765625 7.171875 3.40625 7.78125 C 3.09375 8.328125 2.773438 8.867188 2.460938 9.414062 C 2.28125 9.726562 2.101562 10.046875 1.914062 10.359375 C 1.875 10.414062 1.84375 10.46875 1.8125 10.523438 C 1.75 10.625 1.6875 10.726562 1.625 10.828125 C 1.5625 10.945312 1.5 11.070312 1.4375 11.1875 C 1.523438 11.4375 1.609375 11.453125 1.835938 11.578125 C 1.90625 11.617188 1.976562 11.65625 2.054688 11.695312 C 2.085938 11.710938 2.125 11.734375 2.164062 11.757812 C 2.359375 11.859375 2.554688 11.960938 2.75 12.070312 C 2.78125 12.09375 2.820312 12.109375 2.859375 12.132812 C 3.609375 12.539062 4.335938 12.984375 5.0625 13.4375 C 5.046875 13.515625 5.039062 13.601562 5.023438 13.679688 C 4.921875 14.304688 4.835938 14.929688 4.8125 15.5625 C 4.8125 15.632812 4.804688 15.695312 4.804688 15.765625 C 4.789062 16.703125 4.90625 17.640625 5.0625 18.5625 C 4.546875 18.882812 4.03125 19.195312 3.5 19.492188 C 3.3125 19.601562 3.125 19.710938 2.929688 19.8125 C 2.875 19.851562 2.875 19.851562 2.820312 19.882812 C 2.359375 20.140625 1.898438 20.414062 1.4375 20.6875 C 1.523438 20.992188 1.664062 21.25 1.828125 21.515625 C 1.882812 21.609375 1.9375 21.703125 1.992188 21.796875 C 2.023438 21.851562 2.054688 21.90625 2.085938 21.953125 C 2.273438 22.273438 2.453125 22.585938 2.640625 22.898438 C 2.71875 23.039062 2.796875 23.179688 2.875 23.320312 C 2.921875 23.390625 2.960938 23.460938 3 23.53125 C 3.125 23.75 3.25 23.96875 3.375 24.1875 C 3.773438 24.875 4.171875 25.5625 4.5625 26.25 C 5.109375 25.992188 5.640625 25.703125 6.15625 25.390625 C 6.226562 25.359375 6.289062 25.320312 6.351562 25.28125 C 6.671875 25.09375 7 24.898438 7.320312 24.710938 C 7.4375 24.640625 7.554688 24.570312 7.671875 24.5 C 7.726562 24.46875 7.78125 24.429688 7.835938 24.398438 C 7.914062 24.351562 7.914062 24.351562 7.992188 24.304688 C 8.039062 24.28125 8.078125 24.257812 8.125 24.226562 C 8.25 24.1875 8.25 24.1875 8.382812 24.234375 C 8.523438 24.328125 8.664062 24.445312 8.796875 24.554688 C 9.984375 25.546875 11.304688 26.15625 12.75 26.6875 C 12.75 28.132812 12.75 29.578125 12.75 31.0625 C 13.679688 31.0625 14.609375 31.0625 15.5625 31.0625 C 15.5625 31.375 15.5625 31.679688 15.5625 32 C 14.304688 32 13.046875 32 11.75 32 C 11.75 30.492188 11.75 28.992188 11.75 27.4375 C 11.46875 27.34375 11.46875 27.34375 11.1875 27.25 C 10.273438 26.882812 9.367188 26.40625 8.617188 25.765625 C 8.578125 25.726562 8.539062 25.695312 8.492188 25.65625 C 8.453125 25.625 8.414062 25.59375 8.375 25.554688 C 8.242188 25.484375 8.242188 25.484375 8.070312 25.539062 C 7.882812 25.625 7.710938 25.710938 7.539062 25.8125 C 7.476562 25.84375 7.414062 25.882812 7.34375 25.921875 C 7.242188 25.984375 7.242188 25.984375 7.140625 26.046875 C 7.03125 26.109375 6.921875 26.171875 6.820312 26.234375 C 6.703125 26.296875 6.59375 26.359375 6.476562 26.429688 C 6.25 26.5625 6.023438 26.695312 5.789062 26.828125 C 5.757812 26.851562 5.71875 26.867188 5.679688 26.890625 C 5.570312 26.953125 5.460938 27.015625 5.359375 27.078125 C 5.21875 27.15625 5.085938 27.234375 4.953125 27.3125 C 4.898438 27.34375 4.84375 27.375 4.78125 27.40625 C 4.671875 27.46875 4.5625 27.539062 4.460938 27.609375 C 4.414062 27.632812 4.359375 27.664062 4.3125 27.6875 C 4.085938 27.609375 4.070312 27.5625 3.960938 27.359375 C 3.929688 27.296875 3.898438 27.242188 3.867188 27.1875 C 3.8125 27.09375 3.8125 27.09375 3.765625 26.992188 C 3.6875 26.867188 3.617188 26.734375 3.539062 26.601562 C 3.5 26.53125 3.46875 26.460938 3.429688 26.390625 C 3.25 26.078125 3.0625 25.765625 2.882812 25.453125 C 2.578125 24.929688 2.273438 24.40625 1.96875 23.882812 C 1.914062 23.78125 1.914062 23.78125 1.859375 23.679688 C 1.65625 23.328125 1.453125 22.984375 1.25 22.632812 C 1.210938 22.5625 1.171875 22.492188 1.132812 22.414062 C 1.046875 22.28125 0.96875 22.140625 0.890625 22 C 0.71875 21.710938 0.554688 21.421875 0.375 21.132812 C 0.335938 21.070312 0.335938 21.070312 0.296875 21 C 0.226562 20.890625 0.15625 20.78125 0.0859375 20.671875 C 0 20.5 0 20.5 -0.0078125 20.367188 C 0.109375 20.171875 0.304688 20.085938 0.5 19.984375 C 0.539062 19.953125 0.585938 19.929688 0.632812 19.898438 C 0.742188 19.84375 0.84375 19.78125 0.953125 19.726562 C 1.210938 19.578125 1.46875 19.429688 1.726562 19.28125 C 1.867188 19.195312 2.007812 19.117188 2.148438 19.039062 C 2.460938 18.851562 2.773438 18.671875 3.085938 18.492188 C 3.132812 18.460938 3.1875 18.429688 3.234375 18.398438 C 3.328125 18.34375 3.414062 18.289062 3.507812 18.234375 C 3.796875 18.0625 3.796875 18.0625 3.9375 18.0625 C 3.929688 18.023438 3.921875 17.984375 3.914062 17.9375 C 3.679688 16.726562 3.539062 15.125 3.9375 13.9375 C 3.867188 13.914062 3.867188 13.914062 3.796875 13.882812 C 3.632812 13.820312 3.484375 13.742188 3.335938 13.65625 C 3.25 13.609375 3.25 13.609375 3.164062 13.554688 C 3.101562 13.523438 3.039062 13.492188 2.984375 13.453125 C 2.914062 13.414062 2.851562 13.382812 2.789062 13.34375 C 2.140625 12.976562 1.5 12.601562 0.859375 12.226562 C 0.742188 12.15625 0.625 12.09375 0.507812 12.023438 C 0.453125 11.992188 0.390625 11.960938 0.335938 11.929688 C 0.28125 11.898438 0.234375 11.867188 0.179688 11.84375 C 0.0625 11.75 0.0625 11.75 0.0078125 11.632812 C 0 11.453125 0.0546875 11.359375 0.15625 11.203125 C 0.203125 11.117188 0.203125 11.117188 0.257812 11.03125 C 0.296875 10.960938 0.335938 10.898438 0.375 10.835938 C 0.453125 10.703125 0.539062 10.5625 0.617188 10.429688 C 0.679688 10.320312 0.679688 10.320312 0.75 10.210938 C 0.945312 9.875 1.140625 9.539062 1.34375 9.195312 C 1.421875 9.0625 1.5 8.921875 1.578125 8.789062 C 1.65625 8.648438 1.734375 8.515625 1.8125 8.375 C 3.476562 5.492188 3.476562 5.492188 4.1875 4.3125 C 4.46875 4.414062 4.726562 4.554688 4.984375 4.703125 C 5.039062 4.726562 5.085938 4.757812 5.132812 4.78125 C 5.554688 5.023438 5.96875 5.257812 6.382812 5.5 C 6.476562 5.5625 6.476562 5.5625 6.578125 5.617188 C 6.859375 5.78125 7.148438 5.953125 7.429688 6.125 C 7.523438 6.171875 7.609375 6.226562 7.703125 6.28125 C 7.742188 6.304688 7.78125 6.328125 7.820312 6.359375 C 7.992188 6.453125 8.085938 6.507812 8.289062 6.46875 C 8.460938 6.359375 8.617188 6.25 8.773438 6.125 C 9.414062 5.632812 10.09375 5.257812 10.820312 4.90625 C 10.875 4.882812 10.929688 4.851562 10.992188 4.820312 C 11.046875 4.796875 11.101562 4.773438 11.15625 4.75 C 11.203125 4.726562 11.25 4.703125 11.296875 4.679688 C 11.4375 4.625 11.4375 4.625 11.75 4.5625 C 11.75 3.054688 11.75 1.554688 11.75 0 Z M 11.75 0 "/>
        <path style=" stroke:none;fill-rule:nonzero;fill:#ffffff;fill-opacity:1;" d="M 18.0625 7.75 C 18.109375 7.765625 18.164062 7.78125 18.210938 7.789062 C 20.257812 8.375 22.046875 9.625 23.1875 11.4375 C 23.234375 11.507812 23.273438 11.578125 23.320312 11.648438 C 24.53125 13.648438 24.75 15.984375 24.21875 18.234375 C 23.84375 19.695312 23.039062 20.921875 22 22 C 21.960938 22.046875 21.921875 22.085938 21.875 22.132812 C 20.59375 23.5 18.585938 24.359375 16.726562 24.445312 C 15.796875 24.476562 14.898438 24.476562 14 24.25 C 13.960938 24.242188 13.914062 24.226562 13.875 24.21875 C 12.367188 23.851562 11.101562 23.070312 10 22 C 9.953125 21.953125 9.90625 21.914062 9.851562 21.867188 C 9.117188 21.179688 8.59375 20.289062 8.1875 19.375 C 8.15625 19.304688 8.125 19.242188 8.09375 19.171875 C 7.242188 17.085938 7.320312 14.710938 8.164062 12.648438 C 8.578125 11.664062 9.1875 10.820312 9.9375 10.0625 C 9.984375 10.007812 10.03125 9.953125 10.085938 9.898438 C 11.109375 8.8125 12.515625 8.148438 13.9375 7.75 C 14 7.734375 14 7.734375 14.070312 7.710938 C 15.265625 7.390625 16.867188 7.414062 18.0625 7.75 Z M 13.6875 8.875 C 13.59375 9.671875 13.59375 9.671875 13.789062 10.421875 C 14.007812 10.6875 14.195312 10.851562 14.53125 10.890625 C 14.773438 10.898438 15.015625 10.898438 15.257812 10.890625 C 16.046875 10.898438 16.53125 11.40625 17.0625 11.9375 C 17.515625 12.34375 17.617188 12.25 18.3125 12.25 C 18.3125 11.132812 18.3125 10.023438 18.3125 8.875 C 17.5 8.671875 16.867188 8.546875 16.046875 8.546875 C 16.007812 8.539062 15.96875 8.539062 15.921875 8.539062 C 15.148438 8.539062 14.421875 8.632812 13.6875 8.875 Z M 10.703125 10.71875 C 10.640625 10.796875 10.570312 10.867188 10.5 10.9375 C 10.59375 11.15625 10.726562 11.296875 10.898438 11.46875 C 10.953125 11.523438 11 11.578125 11.0625 11.632812 C 11.117188 11.6875 11.171875 11.742188 11.234375 11.796875 C 11.898438 12.453125 11.898438 12.453125 12.179688 12.796875 C 12.289062 12.914062 12.398438 13.007812 12.53125 13.109375 C 12.960938 13.460938 13.226562 13.757812 13.289062 14.328125 C 13.3125 14.65625 13.304688 14.976562 13.296875 15.3125 C 13.296875 15.414062 13.296875 15.414062 13.296875 15.515625 C 13.28125 16.53125 13.132812 17.382812 12.625 18.265625 C 12.320312 18.796875 12.265625 19.140625 12.3125 19.75 C 11.984375 19.75 11.65625 19.75 11.3125 19.75 C 11.273438 18.96875 11.382812 18.507812 11.757812 17.820312 C 12.328125 16.75 12.601562 15.445312 12.25 14.25 C 12.023438 13.804688 11.671875 13.515625 11.265625 13.234375 C 11.078125 13.09375 10.9375 12.929688 10.789062 12.75 C 10.625 12.546875 10.4375 12.367188 10.25 12.1875 C 10.21875 12.148438 10.179688 12.117188 10.140625 12.078125 C 10.054688 11.992188 9.960938 11.898438 9.875 11.8125 C 9.632812 12.023438 9.492188 12.265625 9.34375 12.546875 C 9.320312 12.601562 9.296875 12.648438 9.273438 12.695312 C 8.8125 13.601562 8.554688 14.609375 8.5 15.625 C 8.5 15.679688 8.492188 15.726562 8.492188 15.78125 C 8.421875 17.78125 9.210938 19.65625 10.554688 21.109375 C 10.59375 21.15625 10.640625 21.203125 10.6875 21.25 C 10.726562 21.296875 10.773438 21.335938 10.8125 21.382812 C 11.03125 21.617188 11.03125 21.617188 11.3125 21.75 C 11.3125 21.375 11.3125 21.007812 11.3125 20.625 C 11.640625 20.625 11.96875 20.625 12.3125 20.625 C 12.3125 21.242188 12.3125 21.859375 12.3125 22.5 C 12.445312 22.570312 12.585938 22.640625 12.71875 22.710938 C 12.765625 22.734375 12.804688 22.757812 12.851562 22.773438 C 13.101562 22.90625 13.351562 22.992188 13.625 23.0625 C 13.804688 22.882812 13.984375 22.710938 14.164062 22.53125 C 14.21875 22.46875 14.28125 22.40625 14.34375 22.351562 C 14.664062 22.03125 14.96875 21.71875 15.265625 21.375 C 15.546875 21.054688 15.859375 20.765625 16.164062 20.460938 C 16.71875 19.914062 16.71875 19.914062 17.195312 19.304688 C 17.414062 19.015625 17.578125 18.835938 17.9375 18.78125 C 18.234375 18.773438 18.523438 18.765625 18.820312 18.789062 C 19.242188 18.804688 19.46875 18.773438 19.789062 18.484375 C 19.921875 18.34375 20.046875 18.203125 20.164062 18.046875 C 20.414062 17.867188 20.679688 17.898438 20.976562 17.898438 C 21.046875 17.898438 21.109375 17.898438 21.179688 17.898438 C 21.382812 17.890625 21.59375 17.890625 21.796875 17.890625 C 21.9375 17.890625 22.078125 17.890625 22.21875 17.882812 C 22.5625 17.882812 22.90625 17.875 23.25 17.875 C 23.28125 17.734375 23.3125 17.601562 23.34375 17.460938 C 23.359375 17.382812 23.375 17.304688 23.390625 17.226562 C 23.453125 16.921875 23.484375 16.625 23.5 16.3125 C 23.5 16.257812 23.507812 16.203125 23.507812 16.15625 C 23.554688 14.125 22.726562 12.210938 21.335938 10.75 C 20.734375 10.132812 20.085938 9.703125 19.3125 9.3125 C 19.3125 10.609375 19.3125 11.914062 19.3125 13.25 C 18.789062 13.25 18.789062 13.25 18.265625 13.25 C 18.15625 13.257812 18.046875 13.257812 17.9375 13.257812 C 17.359375 13.257812 17.007812 13.1875 16.578125 12.773438 C 16.53125 12.726562 16.484375 12.671875 16.4375 12.625 C 15.851562 12.046875 15.851562 12.046875 15.078125 11.851562 C 14.953125 11.859375 14.828125 11.867188 14.703125 11.875 C 14.15625 11.890625 13.828125 11.804688 13.414062 11.453125 C 12.929688 10.984375 12.65625 10.578125 12.640625 9.890625 C 12.648438 9.695312 12.664062 9.507812 12.6875 9.3125 C 12.0625 9.3125 11.109375 10.328125 10.703125 10.71875 Z M 20.25 19.375 C 20.09375 19.570312 19.953125 19.679688 19.695312 19.710938 C 19.484375 19.710938 19.265625 19.703125 19.046875 19.703125 C 18.476562 19.679688 18.476562 19.679688 17.953125 19.875 C 17.796875 20.03125 17.6875 20.1875 17.5625 20.375 C 17.1875 20.835938 16.757812 21.242188 16.335938 21.664062 C 16.054688 21.9375 15.789062 22.21875 15.539062 22.515625 C 15.359375 22.710938 15.164062 22.898438 14.976562 23.085938 C 14.898438 23.164062 14.820312 23.234375 14.75 23.3125 C 14.75 23.335938 14.75 23.351562 14.75 23.375 C 16.625 23.71875 18.632812 23.273438 20.203125 22.203125 C 20.53125 21.96875 20.828125 21.710938 21.125 21.4375 C 21.179688 21.390625 21.234375 21.335938 21.289062 21.289062 C 21.976562 20.640625 22.476562 19.851562 22.875 19 C 22.875 18.960938 22.875 18.914062 22.875 18.875 C 22.578125 18.859375 22.289062 18.851562 21.992188 18.84375 C 21.898438 18.84375 21.796875 18.84375 21.695312 18.835938 C 21.054688 18.8125 20.648438 18.820312 20.25 19.375 Z M 20.25 19.375 "/>
        <path style=" stroke:none;fill-rule:nonzero;fill:#ffffff;fill-opacity:1;" d="M 22.835938 8.242188 C 24.523438 9.71875 25.625 11.625 26.125 13.8125 C 26.132812 13.859375 26.148438 13.898438 26.15625 13.945312 C 26.640625 16.117188 26.289062 18.515625 25.3125 20.5 C 25.296875 20.539062 25.273438 20.578125 25.257812 20.617188 C 24.359375 22.445312 22.921875 23.90625 21.1875 24.9375 C 21.148438 24.960938 21.117188 24.976562 21.078125 25 C 18.804688 26.351562 15.984375 26.632812 13.4375 26.015625 C 10.789062 25.328125 8.5 23.632812 7.09375 21.273438 C 5.75 18.945312 5.273438 16.125 5.9375 13.5 C 6.171875 12.632812 6.46875 11.773438 6.9375 11 C 7 10.96875 7 10.96875 7.0625 10.9375 C 7.203125 11.015625 7.34375 11.09375 7.476562 11.1875 C 7.515625 11.210938 7.554688 11.234375 7.59375 11.257812 C 7.6875 11.320312 7.78125 11.375 7.875 11.4375 C 7.851562 11.484375 7.851562 11.484375 7.828125 11.53125 C 6.703125 13.890625 6.335938 16.476562 7.203125 18.992188 C 7.601562 20.085938 8.15625 21.125 8.9375 22 C 8.992188 22.0625 9.039062 22.125 9.09375 22.1875 C 10.6875 24 12.976562 25.054688 15.375 25.25 C 17.96875 25.390625 20.351562 24.515625 22.289062 22.8125 C 23.945312 21.328125 25.085938 19.109375 25.25 16.875 C 25.367188 14.039062 24.585938 11.640625 22.648438 9.53125 C 21.65625 8.492188 20.414062 7.71875 19.0625 7.25 C 19 7.226562 19 7.226562 18.9375 7.210938 C 16.632812 6.421875 14.085938 6.632812 11.890625 7.671875 C 10.46875 8.382812 9.304688 9.40625 8.375 10.6875 C 8.289062 10.640625 8.195312 10.59375 8.109375 10.546875 C 8.039062 10.5 8.039062 10.5 7.960938 10.460938 C 7.820312 10.375 7.6875 10.289062 7.5625 10.1875 C 7.6875 9.328125 8.9375 8.375 9.585938 7.859375 C 13.59375 4.90625 19.015625 4.96875 22.835938 8.242188 Z M 22.835938 8.242188 "/>
        <path style=" stroke:none;fill-rule:nonzero;fill:#ffffff;fill-opacity:1;" d="M 14.625 14.5 C 15.859375 14.5 17.101562 14.5 18.375 14.5 C 18.476562 16.507812 18.476562 16.507812 18.132812 16.898438 C 18.007812 17.015625 17.875 17.117188 17.734375 17.21875 C 17.617188 17.3125 17.617188 17.3125 17.515625 17.46875 C 17.359375 17.695312 17.21875 17.898438 16.9375 17.96875 C 16.5625 18.015625 16.1875 17.992188 15.8125 17.976562 C 15.421875 17.960938 15.03125 17.953125 14.625 17.9375 C 14.625 16.804688 14.625 15.671875 14.625 14.5 Z M 15.625 15.5 C 15.625 15.976562 15.625 16.445312 15.625 16.9375 C 16.234375 17.023438 16.234375 17.023438 16.773438 16.789062 C 17.007812 16.570312 17.195312 16.328125 17.375 16.0625 C 17.375 15.875 17.375 15.6875 17.375 15.5 C 16.796875 15.5 16.21875 15.5 15.625 15.5 Z M 15.625 15.5 "/>
        <path style=" stroke:none;fill-rule:nonzero;fill:#ffffff;fill-opacity:1;" d="M 9.5625 14.3125 C 9.90625 14.351562 10.226562 14.414062 10.5625 14.5 C 10.523438 14.8125 10.476562 15.117188 10.4375 15.4375 C 10.109375 15.414062 9.78125 15.398438 9.4375 15.375 C 9.4375 14.8125 9.4375 14.8125 9.5 14.5625 C 9.507812 14.515625 9.523438 14.46875 9.53125 14.421875 C 9.546875 14.382812 9.554688 14.351562 9.5625 14.3125 Z M 9.5625 14.3125 "/>
        <path style=" stroke:none;fill-rule:nonzero;fill:#ffffff;fill-opacity:1;" d="M 10.375 16.25 C 10.414062 16.5625 10.460938 16.867188 10.5 17.1875 C 10.007812 17.28125 10.007812 17.28125 9.5 17.375 C 9.375 16.59375 9.375 16.59375 9.375 16.3125 C 9.710938 16.242188 10.03125 16.242188 10.375 16.25 Z M 10.375 16.25 "/>
        <path style=" stroke:none;fill-rule:nonzero;fill:#ffffff;fill-opacity:1;" d="M 13.625 1.875 C 13.953125 1.875 14.28125 1.875 14.625 1.875 C 14.625 2.203125 14.625 2.53125 14.625 2.875 C 14.296875 2.875 13.96875 2.875 13.625 2.875 C 13.625 2.546875 13.625 2.21875 13.625 1.875 Z M 13.625 1.875 "/>
        <path style=" stroke:none;fill-rule:nonzero;fill:#ffffff;fill-opacity:1;" d="M 16.695312 30.992188 C 16.773438 30.992188 16.851562 30.992188 16.9375 30.992188 C 17.015625 30.992188 17.09375 30.992188 17.179688 30.992188 C 17.375 31 17.375 31 17.4375 31.0625 C 17.445312 31.21875 17.445312 31.375 17.4375 31.53125 C 17.4375 31.6875 17.4375 31.84375 17.4375 32 C 17.109375 32 16.78125 32 16.4375 32 C 16.4375 31.84375 16.4375 31.695312 16.4375 31.53125 C 16.429688 31.484375 16.429688 31.4375 16.429688 31.390625 C 16.429688 31.28125 16.4375 31.171875 16.4375 31.0625 C 16.5 31 16.5 31 16.695312 30.992188 Z M 16.695312 30.992188 "/>
    </g>
</svg>