<svg xmlns="http://www.w3.org/2000/svg" xmlns:xlink="http://www.w3.org/1999/xlink" width="32px" height="32px" viewBox="0 0 32 32" version="1.1">
    <g id="surface1">
        <path style=" stroke:none;fill-rule:nonzero;fill:#ffffff;fill-opacity:1;" d="M 23.039062 13.695312 C 23.523438 14.125 23.992188 14.601562 24.375 15.125 C 24.28125 15.351562 24.15625 15.460938 23.960938 15.609375 C 23.90625 15.648438 23.859375 15.6875 23.804688 15.726562 C 23.765625 15.757812 23.726562 15.78125 23.6875 15.8125 C 23.445312 15.71875 23.335938 15.578125 23.179688 15.375 C 22.671875 14.734375 22.09375 14.226562 21.4375 13.75 C 21.382812 13.710938 21.335938 13.671875 21.28125 13.640625 C 21.140625 13.539062 21.140625 13.539062 20.9375 13.4375 C 20.375 13.640625 19.84375 14.171875 19.5625 14.6875 C 19.382812 15.359375 19.429688 16.070312 19.453125 16.765625 C 19.460938 17.015625 19.46875 17.265625 19.46875 17.523438 C 19.46875 18.015625 19.484375 18.507812 19.5 19 C 18.070312 19.257812 16.34375 19.5 15.070312 18.648438 C 13.90625 17.820312 12.53125 16.53125 12.25 15.078125 C 12.148438 14.296875 12.21875 13.523438 12.375 12.75 C 12.1875 12.835938 12 12.929688 11.804688 13.015625 C 11.75 13.039062 11.703125 13.0625 11.648438 13.09375 C 10.039062 13.84375 8.703125 15.164062 7.8125 16.6875 C 7.789062 16.726562 7.765625 16.757812 7.75 16.796875 C 7.320312 17.53125 6.65625 18.695312 6.75 19.5625 C 6.851562 19.734375 6.851562 19.734375 6.992188 19.90625 C 7.015625 19.9375 7.046875 19.96875 7.070312 20.007812 C 7.421875 20.4375 7.789062 20.859375 8.164062 21.265625 C 8.203125 21.304688 8.242188 21.34375 8.28125 21.382812 C 9.257812 22.445312 10.132812 23.125 11.609375 23.1875 C 12.554688 23.21875 13.5 23.132812 14.4375 23 C 14.53125 23.570312 14.59375 24.140625 14.625 24.71875 C 14.625 24.757812 14.632812 24.804688 14.632812 24.851562 C 14.6875 25.921875 14.585938 26.789062 13.867188 27.625 C 13.570312 27.953125 13.265625 28.257812 12.9375 28.546875 C 12.898438 28.585938 12.867188 28.617188 12.828125 28.648438 C 12.382812 29.054688 11.914062 29.445312 11.4375 29.8125 C 12.203125 30.210938 12.203125 30.210938 13 30.515625 C 13.070312 30.539062 13.070312 30.539062 13.140625 30.5625 C 13.585938 30.703125 14.039062 30.804688 14.5 30.875 C 14.609375 30.890625 14.609375 30.890625 14.71875 30.90625 C 15.132812 30.960938 15.546875 30.953125 15.960938 30.953125 C 16.03125 30.953125 16.03125 30.953125 16.09375 30.953125 C 17.109375 30.953125 18 30.8125 18.960938 30.507812 C 19.140625 30.453125 19.3125 30.40625 19.5 30.375 C 19.507812 30.015625 19.476562 29.757812 19.226562 29.476562 C 19.140625 29.390625 19.046875 29.296875 18.953125 29.210938 C 18.90625 29.164062 18.859375 29.117188 18.804688 29.0625 C 18.648438 28.914062 18.492188 28.765625 18.335938 28.617188 C 18.234375 28.515625 18.132812 28.414062 18.023438 28.3125 C 17.765625 28.0625 17.507812 27.8125 17.25 27.5625 C 17.507812 27.242188 17.789062 26.976562 18.09375 26.703125 C 18.320312 26.507812 18.539062 26.3125 18.75 26.109375 C 18.914062 25.960938 19.078125 25.8125 19.25 25.664062 C 19.28125 25.632812 19.320312 25.609375 19.351562 25.578125 C 19.445312 25.5 19.539062 25.421875 19.625 25.34375 C 20.789062 24.148438 20.445312 23.984375 20.5 22 C 22.148438 22 23.796875 22 25.5 22 C 25.351562 19.960938 25.039062 18.484375 24.1875 16.6875 C 24.304688 16.617188 24.429688 16.539062 24.546875 16.46875 C 24.617188 16.429688 24.6875 16.390625 24.757812 16.34375 C 24.9375 16.25 24.9375 16.25 25.125 16.25 C 26.492188 18.882812 26.9375 21.6875 26.039062 24.570312 C 25.148438 27.304688 23.265625 29.648438 20.703125 30.96875 C 19.28125 31.679688 17.78125 32.015625 16.203125 32.015625 C 16.15625 32.015625 16.109375 32.015625 16.0625 32.015625 C 15.320312 32.015625 14.601562 31.96875 13.875 31.8125 C 13.828125 31.804688 13.773438 31.789062 13.726562 31.78125 C 11.132812 31.234375 8.726562 29.796875 7.257812 27.554688 C 5.671875 25.046875 5.109375 22.070312 5.71875 19.15625 C 6.164062 17.171875 7.078125 15.453125 8.5 14 C 8.539062 13.960938 8.578125 13.914062 8.617188 13.875 C 10.078125 12.320312 12.257812 11.476562 14.3125 11.125 C 14.429688 11.101562 14.429688 11.101562 14.554688 11.085938 C 17.648438 10.609375 20.71875 11.632812 23.039062 13.695312 Z M 13.4375 12.3125 C 13.234375 13.421875 13.046875 14.710938 13.664062 15.71875 C 13.953125 16.125 14.273438 16.492188 14.632812 16.84375 C 14.664062 16.875 14.695312 16.898438 14.726562 16.929688 C 15.4375 17.625 16.140625 18.15625 17.164062 18.179688 C 17.617188 18.171875 18.054688 18.109375 18.5 18 C 18.5 17.929688 18.5 17.929688 18.492188 17.867188 C 18.476562 17.4375 18.460938 17.007812 18.453125 16.578125 C 18.453125 16.359375 18.445312 16.132812 18.4375 15.914062 C 18.359375 14.351562 18.359375 14.351562 18.859375 13.773438 C 19.164062 13.4375 19.515625 13.148438 19.875 12.875 C 18.21875 11.601562 15.328125 11.835938 13.4375 12.3125 Z M 6.5 20.8125 C 6.054688 21.695312 6.578125 23.539062 6.875 24.4375 C 7.390625 25.851562 8.117188 27.078125 9.164062 28.164062 C 9.242188 28.242188 9.3125 28.320312 9.382812 28.390625 C 9.703125 28.726562 10.0625 28.992188 10.4375 29.25 C 11.0625 28.96875 11.578125 28.359375 12.078125 27.890625 C 12.109375 27.859375 12.140625 27.828125 12.179688 27.796875 C 13.21875 26.820312 13.21875 26.820312 13.632812 25.5 C 13.632812 24.992188 13.5625 24.492188 13.4375 24 C 13.398438 24.007812 13.359375 24.015625 13.3125 24.015625 C 12.796875 24.09375 12.28125 24.140625 11.757812 24.164062 C 11.695312 24.164062 11.695312 24.164062 11.632812 24.171875 C 10.46875 24.210938 9.617188 24.03125 8.742188 23.234375 C 7.984375 22.53125 7.304688 21.742188 6.664062 20.929688 C 6.632812 20.890625 6.59375 20.851562 6.5625 20.8125 C 6.539062 20.8125 6.523438 20.8125 6.5 20.8125 Z M 21.5 23 C 21.476562 23.578125 21.460938 24.15625 21.4375 24.75 C 21.226562 25.117188 21.125 25.265625 20.828125 25.523438 C 20.765625 25.578125 20.703125 25.640625 20.648438 25.703125 C 20.484375 25.851562 20.320312 26 20.15625 26.148438 C 19.992188 26.296875 19.828125 26.453125 19.664062 26.609375 C 19.34375 26.914062 19.015625 27.203125 18.6875 27.5 C 18.914062 27.765625 19.140625 28.023438 19.398438 28.257812 C 19.460938 28.320312 19.523438 28.375 19.578125 28.4375 C 19.671875 28.53125 19.773438 28.617188 19.867188 28.703125 C 20.46875 29.265625 20.46875 29.265625 20.507812 29.640625 C 20.507812 29.71875 20.5 29.796875 20.5 29.875 C 22.585938 28.796875 24.242188 26.851562 24.984375 24.617188 C 25.15625 24.078125 25.273438 23.554688 25.375 23 C 24.09375 23 22.820312 23 21.5 23 Z M 21.5 23 "/>
        <path style=" stroke:none;fill-rule:nonzero;fill:#ffffff;fill-opacity:1;" d="M 20.835938 -0.0078125 C 20.921875 -0.0078125 21 -0.0078125 21.085938 -0.0078125 C 21.171875 -0.0078125 21.265625 -0.0078125 21.351562 -0.0078125 C 21.4375 -0.0078125 21.53125 -0.0078125 21.625 -0.0078125 C 21.859375 -0.0078125 22.101562 -0.0078125 22.335938 -0.0078125 C 22.578125 0 22.828125 0 23.070312 0 C 23.546875 0 24.023438 0 24.5 0 C 24.507812 0.476562 24.507812 0.953125 24.507812 1.429688 C 24.507812 1.648438 24.515625 1.867188 24.515625 2.09375 C 24.515625 2.34375 24.515625 2.601562 24.515625 2.859375 C 24.515625 2.9375 24.523438 3.015625 24.523438 3.09375 C 24.523438 3.945312 24.359375 4.585938 23.789062 5.226562 C 23.21875 5.726562 22.664062 6.03125 21.890625 5.984375 C 21.804688 5.984375 21.804688 5.984375 21.71875 5.976562 C 19.9375 5.828125 19.9375 5.828125 18.351562 6.507812 C 17.710938 7.109375 17.476562 7.710938 17.4375 8.585938 C 17.429688 9.0625 17.460938 9.523438 17.5 10 C 17.148438 10 16.796875 10 16.4375 10 C 16.4375 8.023438 16.4375 6.039062 16.4375 4 C 16.109375 4 15.78125 4 15.4375 4 C 15.4375 5.976562 15.4375 7.960938 15.4375 10 C 15.109375 10 14.78125 10 14.4375 10 C 14.4375 7.6875 14.4375 5.382812 14.4375 3 C 15.445312 3 16.460938 3 17.5 3 C 17.523438 4.03125 17.539062 5.0625 17.5625 6.125 C 18.359375 5.46875 18.359375 5.46875 18.539062 4.664062 C 18.53125 4.5625 18.53125 4.5625 18.53125 4.460938 C 18.523438 4.359375 18.523438 4.359375 18.523438 4.25 C 18.523438 4.023438 18.515625 3.804688 18.507812 3.578125 C 18.5 3.359375 18.5 3.132812 18.492188 2.914062 C 18.492188 2.773438 18.492188 2.632812 18.484375 2.5 C 18.46875 1.820312 18.664062 1.25 19.125 0.75 C 19.609375 0.25 20.140625 -0.0078125 20.835938 -0.0078125 Z M 19.875 1.4375 C 19.570312 1.796875 19.492188 2.078125 19.492188 2.546875 C 19.492188 2.59375 19.492188 2.640625 19.492188 2.6875 C 19.492188 2.835938 19.492188 2.984375 19.492188 3.132812 C 19.5 3.234375 19.5 3.335938 19.5 3.4375 C 19.5 3.6875 19.5 3.9375 19.5 4.1875 C 19.789062 3.945312 20.0625 3.695312 20.328125 3.421875 C 20.398438 3.34375 20.46875 3.273438 20.539062 3.195312 C 20.65625 3.085938 20.765625 2.96875 20.875 2.859375 C 20.984375 2.742188 21.085938 2.632812 21.195312 2.523438 C 21.234375 2.492188 21.265625 2.453125 21.296875 2.421875 C 21.390625 2.320312 21.390625 2.320312 21.5625 2.1875 C 21.78125 2.195312 21.898438 2.304688 22.046875 2.453125 C 22.09375 2.492188 22.132812 2.53125 22.171875 2.570312 C 22.25 2.6875 22.25 2.6875 22.234375 2.804688 C 22.179688 2.960938 22.109375 3.03125 22 3.148438 C 21.953125 3.1875 21.914062 3.226562 21.875 3.265625 C 21.835938 3.3125 21.789062 3.351562 21.742188 3.398438 C 21.679688 3.460938 21.679688 3.460938 21.609375 3.53125 C 21.46875 3.671875 21.328125 3.8125 21.179688 3.945312 C 21.039062 4.085938 20.898438 4.226562 20.757812 4.367188 C 20.671875 4.460938 20.578125 4.546875 20.492188 4.632812 C 20.453125 4.671875 20.414062 4.710938 20.367188 4.75 C 20.335938 4.789062 20.296875 4.820312 20.265625 4.859375 C 20.179688 4.929688 20.179688 4.929688 20.1875 5 C 20.453125 5.007812 20.71875 5.007812 20.984375 5.007812 C 21.078125 5.007812 21.164062 5.015625 21.257812 5.015625 C 21.914062 5.023438 22.539062 5.015625 23.0625 4.5625 C 23.4375 4.039062 23.507812 3.640625 23.507812 3.007812 C 23.507812 2.945312 23.507812 2.890625 23.507812 2.828125 C 23.507812 2.640625 23.507812 2.453125 23.5 2.257812 C 23.5 2.132812 23.5 2.007812 23.5 1.875 C 23.5 1.5625 23.5 1.25 23.5 0.9375 C 23.15625 0.9375 22.8125 0.929688 22.46875 0.929688 C 22.351562 0.929688 22.234375 0.929688 22.117188 0.929688 C 21.945312 0.929688 21.773438 0.929688 21.609375 0.921875 C 21.554688 0.921875 21.507812 0.921875 21.453125 0.921875 C 20.835938 0.921875 20.328125 1 19.875 1.4375 Z M 19.875 1.4375 "/>
        <path style=" stroke:none;fill-rule:nonzero;fill:#ffffff;fill-opacity:1;" d="M 7.4375 2.5 C 7.953125 2.492188 8.476562 2.492188 8.992188 2.484375 C 9.234375 2.484375 9.46875 2.484375 9.710938 2.484375 C 9.945312 2.476562 10.179688 2.476562 10.414062 2.476562 C 10.5 2.476562 10.585938 2.476562 10.671875 2.476562 C 11.5 2.460938 12.140625 2.609375 12.75 3.1875 C 13.25 3.710938 13.46875 4.289062 13.460938 5.007812 C 13.460938 5.109375 13.460938 5.109375 13.453125 5.210938 C 13.453125 5.359375 13.453125 5.5 13.453125 5.648438 C 13.453125 5.875 13.445312 6.101562 13.445312 6.328125 C 13.4375 6.554688 13.4375 6.773438 13.4375 6.992188 C 13.4375 7.0625 13.4375 7.132812 13.429688 7.195312 C 13.4375 7.492188 13.445312 7.679688 13.632812 7.914062 C 13.789062 8.0625 13.789062 8.0625 13.945312 8.195312 C 13.984375 8.234375 14.023438 8.273438 14.0625 8.3125 C 14.046875 8.570312 13.890625 8.6875 13.71875 8.859375 C 13.640625 8.9375 13.640625 8.9375 13.554688 9.007812 C 13.5 9.070312 13.5 9.070312 13.4375 9.125 C 13.367188 9.070312 13.296875 9.007812 13.234375 8.953125 C 13.195312 8.914062 13.15625 8.882812 13.117188 8.851562 C 13 8.75 13 8.75 12.914062 8.648438 C 12.78125 8.53125 12.695312 8.539062 12.515625 8.539062 C 12.453125 8.539062 12.398438 8.539062 12.335938 8.539062 C 12.265625 8.539062 12.203125 8.539062 12.140625 8.539062 C 12.070312 8.539062 12 8.539062 11.929688 8.53125 C 11.71875 8.53125 11.5 8.53125 11.28125 8.53125 C 11 8.53125 10.71875 8.53125 10.4375 8.523438 C 10.375 8.523438 10.3125 8.523438 10.242188 8.523438 C 9.4375 8.515625 8.742188 8.320312 8.132812 7.773438 C 7.507812 7.101562 7.421875 6.304688 7.421875 5.429688 C 7.421875 5.34375 7.421875 5.257812 7.429688 5.171875 C 7.429688 4.953125 7.429688 4.734375 7.429688 4.507812 C 7.429688 4.28125 7.429688 4.054688 7.429688 3.828125 C 7.429688 3.390625 7.4375 2.945312 7.4375 2.5 Z M 8.4375 3.5 C 8.429688 3.875 8.429688 4.242188 8.421875 4.617188 C 8.421875 4.742188 8.421875 4.867188 8.421875 4.992188 C 8.414062 5.171875 8.414062 5.359375 8.414062 5.539062 C 8.414062 5.59375 8.414062 5.648438 8.40625 5.703125 C 8.40625 6.1875 8.546875 6.578125 8.796875 6.984375 C 9.210938 7.382812 9.648438 7.507812 10.210938 7.507812 C 10.257812 7.507812 10.296875 7.507812 10.34375 7.507812 C 10.484375 7.507812 10.625 7.507812 10.765625 7.5 C 10.859375 7.5 10.953125 7.5 11.054688 7.5 C 11.28125 7.5 11.515625 7.5 11.75 7.5 C 11.5 7.203125 11.242188 6.921875 10.96875 6.648438 C 10.929688 6.617188 10.898438 6.578125 10.859375 6.539062 C 10.742188 6.421875 10.625 6.304688 10.507812 6.1875 C 10.429688 6.109375 10.351562 6.03125 10.265625 5.953125 C 10.078125 5.757812 9.882812 5.570312 9.6875 5.375 C 9.78125 5.179688 9.882812 5.046875 10.039062 4.890625 C 10.078125 4.851562 10.117188 4.8125 10.15625 4.773438 C 10.1875 4.742188 10.21875 4.71875 10.25 4.6875 C 10.429688 4.773438 10.5625 4.859375 10.703125 5 C 10.734375 5.039062 10.773438 5.070312 10.8125 5.109375 C 10.851562 5.15625 10.890625 5.195312 10.929688 5.234375 C 10.976562 5.273438 11.015625 5.320312 11.054688 5.359375 C 11.1875 5.492188 11.320312 5.625 11.453125 5.757812 C 11.578125 5.890625 11.710938 6.023438 11.84375 6.15625 C 11.921875 6.242188 12.007812 6.320312 12.085938 6.40625 C 12.179688 6.5 12.28125 6.59375 12.375 6.6875 C 12.398438 6.6875 12.414062 6.6875 12.4375 6.6875 C 12.445312 6.40625 12.453125 6.125 12.453125 5.84375 C 12.453125 5.742188 12.460938 5.648438 12.460938 5.554688 C 12.476562 4.9375 12.46875 4.390625 12.039062 3.898438 C 11.609375 3.515625 11.1875 3.476562 10.640625 3.484375 C 10.546875 3.484375 10.546875 3.484375 10.453125 3.484375 C 10.25 3.484375 10.046875 3.484375 9.84375 3.484375 C 9.710938 3.492188 9.578125 3.492188 9.4375 3.492188 C 9.101562 3.492188 8.773438 3.492188 8.4375 3.5 Z M 8.4375 3.5 "/>
        <path style=" stroke:none;fill-rule:nonzero;fill:#ffffff;fill-opacity:1;" d="M 17.4375 21 C 17.789062 21 18.140625 21 18.5 21 C 18.5 21.328125 18.5 21.65625 18.5 22 C 18.148438 22 17.796875 22 17.4375 22 C 17.4375 21.671875 17.4375 21.34375 17.4375 21 Z M 17.4375 21 "/>
        <path style=" stroke:none;fill-rule:nonzero;fill:#ffffff;fill-opacity:1;" d="M 15.4375 21 C 15.789062 21 16.140625 21 16.5 21 C 16.5 21.328125 16.5 21.65625 16.5 22 C 16.148438 22 15.796875 22 15.4375 22 C 15.4375 21.671875 15.4375 21.34375 15.4375 21 Z M 15.4375 21 "/>
        <path style=" stroke:none;fill-rule:nonzero;fill:#ffffff;fill-opacity:1;" d="M 13.4375 21 C 13.789062 21 14.140625 21 14.5 21 C 14.5 21.328125 14.5 21.65625 14.5 22 C 14.148438 22 13.796875 22 13.4375 22 C 13.4375 21.671875 13.4375 21.34375 13.4375 21 Z M 13.4375 21 "/>
    </g>
</svg>