<svg xmlns="http://www.w3.org/2000/svg" xmlns:xlink="http://www.w3.org/1999/xlink" width="32px" height="32px" viewBox="0 0 32 32" version="1.1">
    <g id="surface1">
        <path style=" stroke:none;fill-rule:nonzero;fill:#ffffff;fill-opacity:1;" d="M 25.75 3.25 C 25.84375 3.320312 25.84375 3.320312 25.9375 3.390625 C 26.789062 4.078125 27.617188 4.84375 28.296875 5.710938 C 28.351562 5.78125 28.40625 5.851562 28.46875 5.929688 C 29.023438 6.625 29.5 7.351562 29.9375 8.125 C 29.960938 8.164062 29.984375 8.210938 30.007812 8.25 C 30.8125 9.65625 31.34375 11.21875 31.71875 12.789062 C 31.726562 12.851562 31.742188 12.914062 31.757812 12.976562 C 31.984375 13.976562 32.023438 14.96875 32.023438 15.984375 C 32.023438 16.078125 32.023438 16.078125 32.023438 16.171875 C 32.015625 20.4375 30.296875 24.25 27.375 27.3125 C 27.328125 27.359375 27.289062 27.40625 27.242188 27.453125 C 26.96875 27.734375 26.671875 27.984375 26.367188 28.234375 C 26.25 28.328125 26.132812 28.421875 26.023438 28.515625 C 24.539062 29.765625 22.71875 30.671875 20.875 31.25 C 20.820312 31.265625 20.773438 31.28125 20.71875 31.296875 C 16.625 32.578125 12.296875 32.085938 8.515625 30.132812 C 7.617188 29.65625 6.78125 29.078125 6 28.4375 C 5.96875 28.40625 5.929688 28.382812 5.898438 28.351562 C 5.039062 27.65625 4.234375 26.882812 3.5625 26 C 3.515625 25.9375 3.460938 25.875 3.414062 25.8125 C 2.09375 24.15625 1.125 22.226562 0.5625 20.1875 C 0.546875 20.140625 0.53125 20.09375 0.523438 20.039062 C -0.15625 17.601562 -0.289062 14.789062 0.25 12.3125 C 0.265625 12.25 0.273438 12.1875 0.289062 12.117188 C 0.484375 11.210938 0.765625 10.351562 1.125 9.5 C 1.148438 9.453125 1.164062 9.40625 1.1875 9.359375 C 1.789062 7.953125 2.671875 6.703125 3.6875 5.5625 C 3.71875 5.523438 3.75 5.492188 3.789062 5.453125 C 4.148438 5.046875 4.515625 4.664062 4.9375 4.3125 C 5 4.257812 5.0625 4.203125 5.125 4.148438 C 9.773438 0.03125 16.296875 -1.046875 25.75 3.25 Z M 13.5625 1.1875 C 13.539062 1.375 13.539062 1.375 13.640625 1.460938 C 13.679688 1.484375 13.710938 1.515625 13.75 1.539062 C 13.796875 1.578125 13.835938 1.609375 13.882812 1.640625 C 13.921875 1.679688 13.96875 1.710938 14.023438 1.75 C 18.523438 5.296875 18.523438 5.296875 18.8125 7.460938 C 18.921875 8.570312 18.851562 9.664062 18.726562 10.773438 C 18.710938 10.976562 18.6875 11.179688 18.664062 11.390625 C 18.65625 11.515625 18.640625 11.648438 18.625 11.78125 C 18.5625 12.429688 18.507812 12.976562 18.929688 13.507812 C 19.257812 13.882812 19.640625 14.179688 20.0625 14.4375 C 20.304688 14.335938 20.453125 14.1875 20.632812 14.007812 C 20.679688 13.960938 20.679688 13.960938 20.726562 13.914062 C 20.828125 13.8125 20.929688 13.703125 21.03125 13.601562 C 21.101562 13.53125 21.179688 13.460938 21.25 13.390625 C 21.4375 13.203125 21.617188 13.015625 21.804688 12.828125 C 22 12.632812 22.1875 12.445312 22.382812 12.25 C 22.75 11.875 23.125 11.5 23.5 11.125 C 23.71875 11.21875 23.851562 11.335938 24.015625 11.507812 C 24.09375 11.59375 24.09375 11.59375 24.171875 11.671875 C 24.226562 11.734375 24.28125 11.789062 24.335938 11.851562 C 24.453125 11.96875 24.570312 12.09375 24.6875 12.21875 C 24.875 12.40625 25.0625 12.601562 25.25 12.796875 C 25.398438 12.953125 25.546875 13.109375 25.695312 13.265625 C 25.78125 13.351562 25.867188 13.445312 25.945312 13.53125 C 26.21875 13.804688 26.421875 13.976562 26.8125 14.007812 C 27.265625 13.96875 27.492188 13.71875 27.789062 13.398438 C 27.867188 13.320312 27.867188 13.320312 27.945312 13.234375 C 28.117188 13.054688 28.28125 12.882812 28.453125 12.703125 C 28.617188 12.523438 28.78125 12.351562 28.953125 12.179688 C 29.054688 12.070312 29.15625 11.960938 29.265625 11.84375 C 29.5625 11.53125 29.835938 11.328125 30.25 11.1875 C 29.8125 9.867188 29.234375 8.4375 28.3125 7.375 C 28.273438 7.375 28.226562 7.375 28.1875 7.375 C 28.101562 8 28.054688 8.609375 28.046875 9.242188 C 28.046875 9.304688 28.046875 9.367188 28.046875 9.4375 C 28.046875 9.742188 28.0625 10.023438 28.125 10.328125 C 28.234375 10.9375 28.234375 10.9375 28.125 11.25 C 27.773438 11.757812 27.289062 12.171875 26.8125 12.5625 C 26.429688 12.242188 26.078125 11.898438 25.734375 11.546875 C 25.671875 11.484375 25.609375 11.429688 25.546875 11.367188 C 25.390625 11.203125 25.226562 11.046875 25.070312 10.890625 C 24.90625 10.726562 24.742188 10.5625 24.578125 10.398438 C 24.265625 10.078125 23.945312 9.757812 23.625 9.4375 C 23.382812 9.539062 23.21875 9.703125 23.03125 9.890625 C 23 9.921875 22.96875 9.960938 22.929688 9.992188 C 22.820312 10.101562 22.710938 10.210938 22.601562 10.328125 C 22.523438 10.398438 22.453125 10.476562 22.375 10.554688 C 22.171875 10.757812 21.96875 10.960938 21.773438 11.164062 C 21.453125 11.484375 21.125 11.8125 20.804688 12.132812 C 20.695312 12.242188 20.578125 12.359375 20.46875 12.46875 C 20.398438 12.539062 20.328125 12.609375 20.265625 12.679688 C 20.234375 12.710938 20.203125 12.742188 20.171875 12.773438 C 19.953125 12.992188 19.953125 12.992188 19.8125 13.0625 C 19.8125 13.007812 19.8125 13.007812 19.820312 12.960938 C 19.898438 11.851562 19.945312 10.742188 19.976562 9.632812 C 19.976562 9.59375 19.976562 9.546875 19.976562 9.507812 C 20.132812 6.890625 20.132812 6.890625 19.054688 4.609375 C 18.523438 4.054688 17.875 3.601562 17.1875 3.25 C 17.859375 3.289062 18.523438 3.34375 19.195312 3.429688 C 19.289062 3.4375 19.382812 3.453125 19.476562 3.460938 C 19.726562 3.492188 19.976562 3.523438 20.21875 3.554688 C 20.375 3.578125 20.53125 3.59375 20.679688 3.609375 C 22.210938 3.804688 23.734375 4 25.25 4.25 C 23.070312 2.039062 19.28125 1.023438 16.273438 0.984375 C 15.359375 0.984375 14.46875 1.070312 13.5625 1.1875 Z M 11.929688 1.578125 C 11.875 1.601562 11.828125 1.617188 11.773438 1.632812 C 11.726562 1.648438 11.671875 1.671875 11.617188 1.6875 C 11.5625 1.703125 11.507812 1.726562 11.453125 1.742188 C 11.328125 1.789062 11.195312 1.828125 11.0625 1.875 C 11.328125 2.203125 11.601562 2.453125 11.929688 2.710938 C 16.296875 6.132812 16.296875 6.132812 16.570312 8.085938 C 16.65625 8.953125 16.609375 9.828125 16.539062 10.695312 C 16.53125 10.835938 16.515625 10.984375 16.507812 11.125 C 16.5 11.203125 16.492188 11.273438 16.492188 11.34375 C 16.460938 11.6875 16.4375 12.039062 16.414062 12.390625 C 16.414062 12.453125 16.40625 12.523438 16.40625 12.585938 C 16.351562 13.617188 16.492188 14.34375 17.164062 15.132812 C 17.34375 15.335938 17.539062 15.515625 17.734375 15.695312 C 17.796875 15.75 17.859375 15.804688 17.921875 15.867188 C 18.632812 16.5 19.390625 16.84375 20.359375 16.820312 C 21.257812 16.726562 21.757812 16.117188 22.3125 15.46875 C 22.46875 15.289062 22.632812 15.117188 22.789062 14.9375 C 22.890625 14.835938 22.984375 14.726562 23.085938 14.617188 C 23.148438 14.539062 23.148438 14.539062 23.210938 14.46875 C 23.25 14.421875 23.289062 14.382812 23.328125 14.335938 C 23.4375 14.25 23.4375 14.25 23.570312 14.257812 C 23.773438 14.351562 23.882812 14.539062 24.015625 14.71875 C 24.664062 15.507812 25.351562 16.25 26.40625 16.390625 C 27.34375 16.460938 28.023438 16.226562 28.742188 15.625 C 29.046875 15.367188 29.328125 15.085938 29.609375 14.8125 C 29.640625 14.78125 29.671875 14.75 29.703125 14.71875 C 30.484375 14.007812 30.484375 14.007812 30.84375 13.085938 C 30.8125 12.851562 30.734375 12.648438 30.625 12.4375 C 30.601562 12.351562 30.578125 12.273438 30.5625 12.1875 C 30.132812 12.265625 29.921875 12.578125 29.648438 12.882812 C 29.539062 13 29.429688 13.117188 29.320312 13.234375 C 29.15625 13.414062 28.984375 13.601562 28.820312 13.789062 C 27.820312 14.921875 27.820312 14.921875 27.015625 15.023438 C 26.398438 15.039062 25.953125 14.90625 25.484375 14.507812 C 25.210938 14.25 24.960938 13.96875 24.710938 13.6875 C 24.601562 13.570312 24.5 13.460938 24.390625 13.34375 C 24.132812 13.070312 23.875 12.789062 23.625 12.5 C 23.398438 12.59375 23.265625 12.71875 23.101562 12.898438 C 23.046875 12.953125 22.992188 13.007812 22.9375 13.070312 C 22.914062 13.101562 22.882812 13.125 22.851562 13.15625 C 22.703125 13.320312 22.546875 13.476562 22.398438 13.632812 C 22.203125 13.835938 22.007812 14.039062 21.8125 14.242188 C 21.664062 14.40625 21.507812 14.570312 21.34375 14.734375 C 21.289062 14.796875 21.226562 14.859375 21.171875 14.921875 C 20.867188 15.25 20.601562 15.476562 20.148438 15.523438 C 19.507812 15.476562 19.0625 15.054688 18.625 14.632812 C 18.578125 14.585938 18.53125 14.546875 18.484375 14.5 C 17.960938 13.976562 17.609375 13.492188 17.609375 12.734375 C 17.617188 12.484375 17.632812 12.234375 17.664062 11.976562 C 17.671875 11.914062 17.679688 11.851562 17.6875 11.78125 C 17.71875 11.507812 17.75 11.242188 17.789062 10.96875 C 18.015625 9.21875 18.15625 7.359375 17.03125 5.882812 C 16.421875 5.101562 15.703125 4.414062 14.96875 3.742188 C 14.9375 3.710938 14.90625 3.6875 14.875 3.65625 C 14.210938 3.039062 13.523438 2.445312 12.8125 1.882812 C 12.765625 1.84375 12.71875 1.804688 12.664062 1.765625 C 12.617188 1.726562 12.578125 1.695312 12.53125 1.65625 C 12.492188 1.625 12.453125 1.59375 12.414062 1.5625 C 12.242188 1.453125 12.109375 1.523438 11.929688 1.578125 Z M 5.25 5.5625 C 5.09375 5.726562 4.953125 5.890625 4.8125 6.0625 C 4.734375 6.15625 4.734375 6.15625 4.664062 6.25 C 4.554688 6.359375 4.554688 6.359375 4.5625 6.4375 C 4.625 6.4375 4.625 6.4375 4.6875 6.429688 C 5.125 6.414062 5.5625 6.40625 5.992188 6.40625 C 6.15625 6.398438 6.320312 6.398438 6.484375 6.390625 C 7.921875 6.328125 7.921875 6.328125 8.398438 6.757812 C 8.546875 6.914062 8.679688 7.070312 8.820312 7.234375 C 9.0625 7.53125 9.0625 7.53125 9.414062 7.679688 C 9.632812 7.65625 9.84375 7.609375 10.0625 7.5625 C 10.875 7.492188 11.398438 7.804688 12.015625 8.3125 C 13.023438 9.1875 13.914062 10.132812 14.03125 11.515625 C 14.0625 12.375 14 13.203125 13.421875 13.882812 C 13.125 14.203125 12.804688 14.492188 12.46875 14.765625 C 11.984375 15.140625 11.984375 15.140625 11.6875 15.648438 C 11.679688 15.859375 11.695312 16.054688 11.734375 16.265625 C 11.78125 16.578125 11.789062 16.820312 11.6875 17.125 C 11.382812 17.515625 10.96875 17.828125 10.59375 18.148438 C 9.929688 18.710938 9.421875 19.179688 9.351562 20.078125 C 9.3125 20.765625 9.429688 21.4375 9.5 22.125 C 8.59375 22.125 7.6875 22.125 6.75 22.125 C 6.78125 22.726562 6.78125 22.726562 6.8125 23.34375 C 6.820312 24.132812 6.796875 24.765625 6.25 25.367188 C 5.921875 25.695312 5.5625 25.984375 5.1875 26.25 C 6.304688 27.601562 7.90625 28.765625 9.5 29.5 C 9.539062 29.5 9.585938 29.5 9.625 29.5 C 9.609375 29.398438 9.609375 29.398438 9.59375 29.304688 C 9.476562 28.4375 9.359375 27.382812 9.875 26.632812 C 10.125 26.320312 10.398438 26.046875 10.695312 25.78125 C 10.742188 25.734375 10.789062 25.6875 10.84375 25.640625 C 11.265625 25.257812 11.703125 24.890625 12.140625 24.523438 C 12.515625 24.203125 12.890625 23.882812 13.257812 23.546875 C 13.328125 23.476562 13.328125 23.476562 13.40625 23.40625 C 14.023438 22.8125 14.359375 22.320312 14.398438 21.445312 C 14.414062 20.851562 14.351562 20.273438 14.25 19.6875 C 14.3125 19.6875 14.375 19.6875 14.445312 19.695312 C 15.039062 19.710938 15.640625 19.71875 16.242188 19.726562 C 16.546875 19.726562 16.859375 19.734375 17.164062 19.742188 C 17.460938 19.75 17.757812 19.757812 18.054688 19.757812 C 18.171875 19.757812 18.28125 19.765625 18.398438 19.765625 C 19 19.804688 19 19.804688 19.546875 19.609375 C 19.679688 19.484375 19.796875 19.351562 19.914062 19.210938 C 20.140625 18.953125 20.296875 18.875 20.640625 18.828125 C 20.8125 18.820312 20.976562 18.820312 21.140625 18.820312 C 21.234375 18.8125 21.328125 18.8125 21.414062 18.8125 C 21.609375 18.804688 21.796875 18.804688 21.984375 18.8125 C 22.179688 18.8125 22.375 18.804688 22.5625 18.796875 C 24.242188 18.726562 24.242188 18.726562 24.828125 19.234375 C 25.054688 19.460938 25.257812 19.703125 25.46875 19.953125 C 25.710938 20.234375 25.90625 20.382812 26.28125 20.421875 C 26.53125 20.4375 26.53125 20.4375 26.78125 20.414062 C 26.828125 20.414062 26.867188 20.414062 26.914062 20.414062 C 27.429688 20.390625 27.796875 20.3125 28.179688 19.953125 C 28.34375 19.78125 28.492188 19.601562 28.648438 19.414062 C 28.929688 19.078125 29.125 18.898438 29.5625 18.835938 C 29.960938 18.8125 30.351562 18.828125 30.75 18.875 C 31.164062 17.53125 31.101562 16.015625 31 14.625 C 30.71875 14.84375 30.5 15.070312 30.289062 15.359375 C 29.65625 16.203125 28.953125 17.023438 27.875 17.21875 C 26.851562 17.351562 25.515625 17.421875 24.632812 16.8125 C 24.1875 16.46875 23.851562 16.039062 23.5625 15.5625 C 23.296875 15.765625 23.09375 15.96875 22.890625 16.234375 C 22.273438 17.03125 21.578125 17.742188 20.546875 17.914062 C 19.375 18.039062 18.34375 17.476562 17.453125 16.773438 C 16.578125 16.0625 15.578125 15.148438 15.453125 13.960938 C 15.429688 13.578125 15.4375 13.195312 15.46875 12.804688 C 15.46875 12.742188 15.476562 12.671875 15.476562 12.601562 C 15.515625 12.039062 15.5625 11.476562 15.617188 10.914062 C 15.765625 9.210938 15.734375 7.8125 14.601562 6.460938 C 14.03125 5.789062 13.40625 5.179688 12.757812 4.585938 C 12.726562 4.554688 12.695312 4.523438 12.664062 4.5 C 11.984375 3.875 11.289062 3.273438 10.578125 2.703125 C 10.5 2.640625 10.5 2.640625 10.429688 2.578125 C 10.382812 2.546875 10.335938 2.507812 10.289062 2.46875 C 10.25 2.4375 10.210938 2.40625 10.171875 2.375 C 9.164062 1.765625 5.976562 4.835938 5.25 5.5625 Z M 19.875 4.5 C 19.929688 4.5625 19.976562 4.625 20.03125 4.6875 C 20.0625 4.726562 20.101562 4.773438 20.132812 4.8125 C 20.242188 4.9375 20.242188 4.9375 20.375 5.03125 C 20.570312 5.171875 20.71875 5.3125 20.78125 5.554688 C 20.828125 5.914062 20.820312 6.273438 20.8125 6.632812 C 20.8125 6.75 20.8125 6.867188 20.8125 6.984375 C 20.8125 7.289062 20.8125 7.601562 20.8125 7.90625 C 20.8125 8.21875 20.8125 8.53125 20.8125 8.84375 C 20.820312 9.460938 20.8125 10.070312 20.8125 10.6875 C 21.15625 10.40625 21.46875 10.101562 21.78125 9.78125 C 21.835938 9.734375 21.882812 9.6875 21.9375 9.632812 C 22.09375 9.476562 22.25 9.320312 22.40625 9.164062 C 22.507812 9.054688 22.617188 8.953125 22.71875 8.84375 C 22.984375 8.585938 23.242188 8.320312 23.5 8.0625 C 23.734375 8.15625 23.875 8.296875 24.054688 8.476562 C 24.085938 8.507812 24.109375 8.539062 24.140625 8.5625 C 24.242188 8.664062 24.335938 8.757812 24.429688 8.859375 C 24.5 8.921875 24.5625 8.992188 24.632812 9.054688 C 24.804688 9.234375 24.984375 9.40625 25.15625 9.585938 C 25.335938 9.765625 25.515625 9.945312 25.695312 10.125 C 26.046875 10.476562 26.398438 10.835938 26.75 11.1875 C 26.898438 11.085938 27.007812 11.007812 27.125 10.875 C 27.15625 10.6875 27.164062 10.554688 27.15625 10.367188 C 27.15625 10.296875 27.15625 10.296875 27.15625 10.21875 C 27.15625 10.117188 27.148438 10.007812 27.148438 9.90625 C 27.140625 9.632812 27.132812 9.367188 27.132812 9.09375 C 27.132812 9.039062 27.132812 8.992188 27.125 8.9375 C 27.117188 8.140625 27.210938 7.382812 27.40625 6.609375 C 27.453125 6.359375 27.40625 6.242188 27.273438 6.023438 C 26.796875 5.414062 26.273438 5.34375 25.53125 5.234375 C 25.414062 5.21875 25.289062 5.203125 25.171875 5.179688 C 24.835938 5.125 24.5 5.078125 24.164062 5.03125 C 23.921875 5 23.6875 4.960938 23.453125 4.929688 C 22.632812 4.8125 21.8125 4.703125 20.992188 4.59375 C 20.921875 4.585938 20.851562 4.570312 20.78125 4.5625 C 20.6875 4.554688 20.6875 4.554688 20.585938 4.539062 C 20.53125 4.53125 20.476562 4.523438 20.414062 4.515625 C 20.234375 4.5 20.054688 4.5 19.875 4.5 Z M 3.257812 8.023438 C 3.171875 8.21875 3.109375 8.421875 3.0625 8.625 C 3.109375 8.625 3.164062 8.625 3.210938 8.617188 C 3.679688 8.601562 4.148438 8.59375 4.617188 8.59375 C 4.859375 8.585938 5.101562 8.585938 5.34375 8.578125 C 7.039062 8.515625 7.039062 8.515625 7.539062 8.945312 C 7.6875 9.09375 7.820312 9.25 7.953125 9.414062 C 8.203125 9.734375 8.203125 9.734375 8.554688 9.890625 C 8.796875 9.890625 9.023438 9.867188 9.265625 9.828125 C 9.84375 9.78125 10.320312 9.835938 10.78125 10.226562 C 10.875 10.3125 10.96875 10.398438 11.0625 10.492188 C 11.117188 10.546875 11.171875 10.601562 11.234375 10.65625 C 11.59375 11.0625 11.726562 11.453125 11.726562 11.984375 C 11.664062 12.609375 11.203125 12.929688 10.75 13.304688 C 9.976562 13.914062 9.976562 13.914062 9.492188 14.726562 C 9.492188 14.953125 9.507812 15.148438 9.539062 15.367188 C 9.59375 15.734375 9.632812 16.0625 9.40625 16.382812 C 9.015625 16.835938 8.554688 17.234375 8.085938 17.617188 C 7.484375 18.117188 7.484375 18.117188 7.242188 18.835938 C 7.226562 19.210938 7.273438 19.554688 7.3125 19.9375 C 6.40625 19.9375 5.5 19.9375 4.5625 19.9375 C 4.570312 20.351562 4.570312 20.351562 4.570312 20.773438 C 4.570312 21 4.570312 21.21875 4.570312 21.4375 C 4.570312 21.671875 4.578125 21.90625 4.578125 22.140625 C 4.585938 22.367188 4.585938 22.59375 4.578125 22.820312 C 4.578125 22.898438 4.578125 22.984375 4.585938 23.070312 C 4.59375 23.53125 4.5625 23.851562 4.25 24.1875 C 4.109375 24.320312 3.960938 24.445312 3.8125 24.5625 C 4.023438 24.890625 4.242188 25.203125 4.5 25.5 C 4.59375 25.421875 4.695312 25.34375 4.789062 25.257812 C 4.9375 25.125 4.9375 25.125 5.140625 24.984375 C 5.4375 24.75 5.695312 24.515625 5.796875 24.140625 C 5.851562 23.648438 5.820312 23.15625 5.796875 22.671875 C 5.796875 22.515625 5.796875 22.367188 5.789062 22.21875 C 5.78125 21.851562 5.765625 21.492188 5.75 21.125 C 6.65625 21.125 7.5625 21.125 8.5 21.125 C 8.46875 20.796875 8.429688 20.476562 8.390625 20.140625 C 8.367188 19.460938 8.4375 18.945312 8.914062 18.4375 C 9.203125 18.148438 9.507812 17.875 9.8125 17.609375 C 10.429688 17.109375 10.429688 17.109375 10.828125 16.460938 C 10.84375 16.171875 10.804688 15.914062 10.757812 15.625 C 10.734375 15.351562 10.726562 15.125 10.898438 14.882812 C 11.132812 14.625 11.40625 14.390625 11.671875 14.164062 C 12.640625 13.328125 12.640625 13.328125 13.0625 12.164062 C 13.109375 11.21875 12.765625 10.539062 12.148438 9.835938 C 11.554688 9.203125 10.929688 8.554688 10.023438 8.515625 C 9.820312 8.515625 9.632812 8.539062 9.429688 8.578125 C 9.171875 8.617188 9.007812 8.632812 8.75 8.5625 C 8.5625 8.398438 8.414062 8.203125 8.257812 8.007812 C 7.859375 7.554688 7.546875 7.367188 6.9375 7.304688 C 6.601562 7.289062 6.257812 7.289062 5.921875 7.304688 C 5.695312 7.3125 5.476562 7.304688 5.257812 7.304688 C 4.0625 7.257812 4.0625 7.257812 3.257812 8.023438 Z M 2.5 9.625 C 2.4375 9.75 2.382812 9.882812 2.320312 10.007812 C 2.289062 10.078125 2.25 10.148438 2.21875 10.226562 C 2.132812 10.414062 2.0625 10.609375 2 10.8125 C 2.054688 10.8125 2.101562 10.8125 2.15625 10.804688 C 2.648438 10.789062 3.140625 10.78125 3.625 10.78125 C 3.882812 10.773438 4.132812 10.773438 4.382812 10.765625 C 6.164062 10.703125 6.164062 10.703125 6.671875 11.125 C 6.867188 11.320312 7.039062 11.53125 7.210938 11.75 C 7.414062 11.992188 7.554688 12.085938 7.875 12.125 C 8.070312 12.125 8.070312 12.125 8.257812 12.101562 C 8.328125 12.101562 8.390625 12.09375 8.460938 12.09375 C 8.617188 12.085938 8.78125 12.078125 8.9375 12.0625 C 8.890625 12.101562 8.84375 12.140625 8.796875 12.179688 C 7.875 12.875 7.875 12.875 7.335938 13.835938 C 7.335938 14.046875 7.359375 14.242188 7.390625 14.453125 C 7.460938 15.242188 7.164062 15.726562 6.679688 16.320312 C 5.90625 17.1875 5.179688 17.765625 4 17.851562 C 3.0625 17.90625 2.117188 17.84375 1.1875 17.75 C 1.3125 18.695312 1.3125 18.695312 1.515625 19.617188 C 1.539062 19.695312 1.539062 19.695312 1.554688 19.773438 C 1.921875 21.140625 2.421875 22.484375 3.1875 23.6875 C 3.34375 23.617188 3.4375 23.5625 3.5625 23.4375 C 3.578125 23.242188 3.578125 23.242188 3.578125 23.007812 C 3.578125 22.96875 3.578125 22.921875 3.578125 22.875 C 3.578125 22.734375 3.578125 22.585938 3.578125 22.4375 C 3.578125 22.34375 3.578125 22.242188 3.570312 22.140625 C 3.570312 21.875 3.570312 21.609375 3.570312 21.34375 C 3.570312 21.023438 3.570312 20.703125 3.570312 20.390625 C 3.570312 19.90625 3.5625 19.421875 3.5625 18.9375 C 4.46875 18.9375 5.375 18.9375 6.3125 18.9375 C 6.335938 18.625 6.351562 18.320312 6.375 18 C 6.539062 17.78125 6.648438 17.65625 6.859375 17.492188 C 6.953125 17.40625 7.054688 17.320312 7.15625 17.226562 C 7.203125 17.1875 7.257812 17.140625 7.3125 17.09375 C 8.117188 16.4375 8.117188 16.4375 8.640625 15.578125 C 8.648438 15.28125 8.617188 15.007812 8.570312 14.71875 C 8.539062 14.335938 8.578125 14.09375 8.820312 13.789062 C 9.171875 13.390625 9.5625 13.03125 9.960938 12.671875 C 10.007812 12.632812 10.054688 12.585938 10.101562 12.546875 C 10.1875 12.460938 10.28125 12.382812 10.375 12.304688 C 10.609375 12.109375 10.609375 12.109375 10.726562 11.828125 C 10.625 11.4375 10.3125 11.125 9.984375 10.890625 C 9.570312 10.703125 9.0625 10.773438 8.617188 10.828125 C 8.117188 10.859375 8.117188 10.859375 7.875 10.75 C 7.742188 10.625 7.632812 10.492188 7.515625 10.34375 C 7.195312 9.953125 6.914062 9.625 6.390625 9.546875 C 5.828125 9.492188 5.265625 9.515625 4.703125 9.546875 C 4.453125 9.5625 4.203125 9.5625 3.953125 9.570312 C 3.46875 9.578125 2.984375 9.601562 2.5 9.625 Z M 1.6875 11.8125 C 1.554688 12.195312 1.445312 12.570312 1.375 12.96875 C 1.359375 13.023438 1.351562 13.070312 1.34375 13.117188 C 1.164062 14 1.109375 14.851562 1.117188 15.75 C 1.117188 15.851562 1.117188 15.945312 1.117188 16.046875 C 1.117188 16.28125 1.125 16.515625 1.125 16.75 C 3.34375 17.046875 3.34375 17.046875 5.34375 16.28125 C 6.007812 15.6875 6.5 15.039062 6.570312 14.132812 C 6.5625 13.851562 6.539062 13.578125 6.492188 13.296875 C 6.507812 13.039062 6.632812 12.9375 6.8125 12.75 C 6.523438 12.296875 6.203125 11.890625 5.648438 11.757812 C 5.0625 11.695312 4.460938 11.71875 3.867188 11.75 C 3.625 11.757812 3.375 11.765625 3.132812 11.765625 C 2.648438 11.773438 2.171875 11.789062 1.6875 11.8125 Z M 20.273438 20.25 C 20.039062 20.515625 19.859375 20.671875 19.5 20.710938 C 19.257812 20.71875 19.015625 20.71875 18.773438 20.710938 C 18.671875 20.710938 18.570312 20.710938 18.460938 20.710938 C 18.195312 20.710938 17.921875 20.710938 17.648438 20.703125 C 17.375 20.703125 17.09375 20.703125 16.820312 20.703125 C 16.273438 20.703125 15.734375 20.695312 15.1875 20.6875 C 15.195312 20.742188 15.210938 20.796875 15.21875 20.851562 C 15.335938 21.625 15.421875 22.5 14.9375 23.164062 C 14.695312 23.460938 14.414062 23.71875 14.132812 23.984375 C 14.085938 24.03125 14.039062 24.078125 13.984375 24.125 C 13.570312 24.507812 13.140625 24.875 12.710938 25.242188 C 12.335938 25.554688 11.96875 25.882812 11.609375 26.21875 C 11.53125 26.289062 11.53125 26.289062 11.460938 26.359375 C 10.859375 26.9375 10.523438 27.421875 10.476562 28.265625 C 10.46875 28.828125 10.523438 29.382812 10.625 29.9375 C 10.742188 29.992188 10.859375 30.039062 10.96875 30.085938 C 11.070312 30.132812 11.070312 30.132812 11.171875 30.171875 C 11.382812 30.25 11.585938 30.289062 11.8125 30.3125 C 11.796875 30.21875 11.796875 30.21875 11.78125 30.125 C 11.664062 29.289062 11.5625 28.296875 12.0625 27.570312 C 12.609375 26.867188 13.296875 26.289062 13.96875 25.710938 C 14.398438 25.335938 14.820312 24.945312 15.242188 24.554688 C 15.390625 24.421875 15.539062 24.296875 15.6875 24.171875 C 16.09375 23.8125 16.382812 23.53125 16.4375 22.976562 C 16.445312 22.609375 16.421875 22.242188 16.375 21.875 C 16.421875 21.875 16.46875 21.875 16.523438 21.882812 C 16.984375 21.898438 17.4375 21.90625 17.898438 21.914062 C 18.140625 21.914062 18.375 21.921875 18.609375 21.929688 C 19.671875 22.03125 19.671875 22.03125 20.625 21.710938 C 20.71875 21.609375 20.796875 21.507812 20.882812 21.398438 C 21.078125 21.140625 21.21875 21.070312 21.53125 21.015625 C 21.742188 21 21.945312 20.992188 22.148438 21 C 22.304688 21 22.460938 20.984375 22.617188 20.976562 C 23.023438 20.960938 23.390625 20.96875 23.703125 21.257812 C 23.859375 21.429688 24 21.609375 24.148438 21.78125 C 24.53125 22.234375 24.828125 22.484375 25.414062 22.546875 C 25.992188 22.585938 26.5625 22.5625 27.140625 22.53125 C 27.414062 22.515625 27.6875 22.507812 27.960938 22.5 C 28.492188 22.484375 29.03125 22.46875 29.5625 22.4375 C 29.859375 21.867188 29.859375 21.867188 30.09375 21.265625 C 30.125 21.195312 30.148438 21.125 30.171875 21.054688 C 30.195312 20.984375 30.21875 20.914062 30.242188 20.835938 C 30.265625 20.765625 30.289062 20.695312 30.320312 20.617188 C 30.453125 20.257812 30.453125 20.257812 30.5 19.875 C 30.179688 19.78125 29.875 19.734375 29.5625 19.875 C 29.421875 20.023438 29.296875 20.179688 29.179688 20.34375 C 28.765625 20.875 28.414062 21.195312 27.742188 21.296875 C 26.945312 21.390625 25.8125 21.507812 25.101562 21.054688 C 24.898438 20.835938 24.726562 20.59375 24.554688 20.34375 C 24.21875 19.9375 23.945312 19.835938 23.421875 19.78125 C 23.039062 19.75 22.65625 19.742188 22.28125 19.742188 C 22.164062 19.742188 22.164062 19.742188 22.046875 19.742188 C 21.828125 19.742188 21.609375 19.75 21.390625 19.757812 C 21.289062 19.757812 21.289062 19.757812 21.1875 19.757812 C 20.75 19.789062 20.554688 19.921875 20.273438 20.25 Z M 21.335938 22.335938 C 21.070312 22.671875 20.859375 22.828125 20.429688 22.882812 C 19.96875 22.90625 19.507812 22.898438 19.046875 22.890625 C 18.882812 22.890625 18.71875 22.890625 18.5625 22.890625 C 18.164062 22.890625 17.773438 22.882812 17.375 22.875 C 17.382812 22.929688 17.390625 22.984375 17.398438 23.046875 C 17.414062 23.445312 17.398438 23.742188 17.132812 24.054688 C 16.921875 24.273438 16.703125 24.476562 16.46875 24.671875 C 16.320312 24.8125 16.171875 24.945312 16.023438 25.085938 C 15.59375 25.484375 15.164062 25.882812 14.734375 26.265625 C 13.289062 27.460938 13.289062 27.460938 12.664062 29.140625 C 12.65625 29.640625 12.710938 30.132812 12.8125 30.625 C 12.960938 30.65625 13.109375 30.6875 13.265625 30.71875 C 13.304688 30.726562 13.34375 30.734375 13.390625 30.742188 C 13.617188 30.789062 13.828125 30.820312 14.0625 30.8125 C 14.054688 30.765625 14.039062 30.710938 14.03125 30.664062 C 13.882812 29.914062 13.8125 29.117188 14.234375 28.445312 C 14.710938 27.773438 15.304688 27.195312 15.898438 26.625 C 16.164062 26.367188 16.414062 26.101562 16.671875 25.835938 C 18.351562 24.054688 18.351562 24.054688 19.5625 23.992188 C 19.84375 23.992188 20.117188 24.007812 20.398438 24.039062 C 20.898438 24.125 20.898438 24.125 21.359375 23.992188 C 21.507812 23.867188 21.625 23.726562 21.75 23.585938 C 21.929688 23.375 22.039062 23.25 22.328125 23.226562 C 22.671875 23.273438 22.828125 23.507812 23.03125 23.773438 C 23.421875 24.265625 23.796875 24.65625 24.445312 24.75 C 24.914062 24.804688 25.390625 24.796875 25.867188 24.78125 C 26.117188 24.773438 26.367188 24.773438 26.609375 24.78125 C 27.585938 24.828125 27.585938 24.828125 28.46875 24.515625 C 28.742188 24.234375 29 23.835938 29 23.4375 C 28.945312 23.4375 28.890625 23.445312 28.835938 23.445312 C 28.320312 23.460938 27.804688 23.476562 27.28125 23.484375 C 27.015625 23.484375 26.75 23.492188 26.484375 23.5 C 24.585938 23.578125 24.585938 23.578125 24.023438 23.078125 C 23.796875 22.859375 23.601562 22.609375 23.40625 22.359375 C 23.195312 22.09375 23.039062 22.015625 22.703125 21.953125 C 22.15625 21.90625 21.695312 21.867188 21.335938 22.335938 Z M 22.25 24.4375 C 22.21875 24.476562 22.1875 24.523438 22.15625 24.5625 C 21.84375 24.976562 21.84375 24.976562 21.570312 25.015625 C 21.429688 25.023438 21.289062 25.015625 21.148438 25 C 21.101562 24.992188 21.046875 24.992188 21 24.984375 C 20.890625 24.976562 20.78125 24.96875 20.679688 24.953125 C 19.789062 24.890625 19.09375 24.976562 18.390625 25.546875 C 17.90625 25.960938 17.46875 26.421875 17.039062 26.898438 C 16.859375 27.085938 16.671875 27.273438 16.484375 27.460938 C 15.375 28.484375 15.375 28.484375 14.867188 29.835938 C 14.882812 30.109375 14.921875 30.359375 15 30.625 C 15.023438 30.726562 15.039062 30.835938 15.0625 30.9375 C 16.945312 30.976562 18.6875 30.859375 20.5 30.3125 C 20.554688 30.296875 20.601562 30.28125 20.65625 30.265625 C 22.648438 29.648438 24.523438 28.5625 26.039062 27.140625 C 26.164062 27.023438 26.296875 26.90625 26.429688 26.796875 C 26.679688 26.578125 26.898438 26.34375 27.125 26.101562 C 27.164062 26.0625 27.195312 26.023438 27.234375 25.984375 C 27.414062 25.828125 27.414062 25.828125 27.5 25.625 C 27.429688 25.625 27.429688 25.625 27.359375 25.632812 C 26.898438 25.648438 26.445312 25.65625 25.992188 25.65625 C 25.757812 25.664062 25.523438 25.664062 25.296875 25.671875 C 23.664062 25.734375 23.664062 25.734375 23.125 25.304688 C 22.875 25.070312 22.65625 24.820312 22.460938 24.539062 C 22.429688 24.507812 22.40625 24.46875 22.375 24.4375 C 22.335938 24.4375 22.289062 24.4375 22.25 24.4375 Z M 22.25 24.4375 "/>
        <path style=" stroke:none;fill-rule:nonzero;fill:#ffffff;fill-opacity:1;" d="M 15.1875 16.9375 C 15.515625 16.9375 15.84375 16.9375 16.1875 16.9375 C 16.1875 17.265625 16.1875 17.59375 16.1875 17.9375 C 15.859375 17.9375 15.53125 17.9375 15.1875 17.9375 C 15.1875 17.609375 15.1875 17.28125 15.1875 16.9375 Z M 15.1875 16.9375 "/>
        <path style=" stroke:none;fill-rule:nonzero;fill:#ffffff;fill-opacity:1;" d="M 13.375 16.9375 C 13.703125 16.9375 14.03125 16.9375 14.375 16.9375 C 14.375 17.265625 14.375 17.59375 14.375 17.9375 C 14.046875 17.9375 13.71875 17.9375 13.375 17.9375 C 13.375 17.609375 13.375 17.28125 13.375 16.9375 Z M 13.375 16.9375 "/>
    </g>
</svg>